<?xml version="1.0" encoding="UTF-8" standalone="no"?>
<svg
   xmlns:dc="http://purl.org/dc/elements/1.1/"
   xmlns:cc="http://creativecommons.org/ns#"
   xmlns:rdf="http://www.w3.org/1999/02/22-rdf-syntax-ns#"
   xmlns:svg="http://www.w3.org/2000/svg"
   xmlns="http://www.w3.org/2000/svg"
   xmlns:sodipodi="http://sodipodi.sourceforge.net/DTD/sodipodi-0.dtd"
   xmlns:inkscape="http://www.inkscape.org/namespaces/inkscape"
   viewBox="0 0 16 16"
   version="1.1"
   id="svg5"
   sodipodi:docname="brushes_btadd.svg"
   inkscape:version="0.92.4 (5da689c313, 2019-01-14)"
   width="32"
   height="32">
  <metadata
     id="metadata9">
    <rdf:RDF>
      <cc:Work
         rdf:about="">
        <dc:format>image/svg+xml</dc:format>
        <dc:type
           rdf:resource="http://purl.org/dc/dcmitype/StillImage" />
        <dc:title></dc:title>
      </cc:Work>
    </rdf:RDF>
  </metadata>
  <sodipodi:namedview
     pagecolor="#ffffff"
     bordercolor="#666666"
     borderopacity="1"
     objecttolerance="10"
     gridtolerance="10"
     guidetolerance="10"
     inkscape:pageopacity="0"
     inkscape:pageshadow="2"
     inkscape:window-width="1986"
     inkscape:window-height="1202"
     id="namedview7"
     showgrid="false"
     inkscape:zoom="22.627417"
     inkscape:cx="19.774416"
     inkscape:cy="15.333216"
     inkscape:window-x="2127"
     inkscape:window-y="141"
     inkscape:window-maximized="0"
     inkscape:current-layer="svg5"
     inkscape:snap-bbox="true"
     inkscape:bbox-nodes="true"
     inkscape:snap-page="true" />
  <defs
     id="defs3051">
    <style
       type="text/css"
       id="current-color-scheme">
      .ColorScheme-Text {
        color:#232629;
      }
      </style>
  </defs>
  <path
     style="color:#232629;fill:#000000;fill-opacity:0.50196081;stroke:none;stroke-width:2"
     d="M 26.855469 4.0117188 A 3.000266 13.501201 44.989453 0 0 16.101562 11.660156 A 3.000266 13.501201 44.989453 0 0 10.789062 17.832031 C 12.403023 18.346231 13.661781 19.604151 14.175781 21.21875 A 3.000266 13.501201 44.989453 0 0 20.34375 15.902344 A 3.000266 13.501201 44.989453 0 0 27.765625 4.234375 A 3.000266 13.501201 44.989453 0 0 27.269531 4.0117188 A 3.000266 13.501201 44.989453 0 0 26.855469 4.0117188 z M 24 18 L 24 22 L 22 22 L 20 22 L 20 24 L 24 24 L 24 28 L 26 28 L 26 24 L 30 24 L 30 22 L 26 22 L 26 18 L 24 18 z M 10 19.992188 L 10 20 C 4.00016 21.608411 8.49988 25.4054 4 28 C 9.99984 28 13 24.998496 13 22.996094 C 13 21.997894 13.10192 20.158185 10 19.992188 z "
     transform="scale(0.5)"
     id="path26" />
</svg>
