<?xml version="1.0" encoding="UTF-8" standalone="no"?>
<svg
   xmlns:dc="http://purl.org/dc/elements/1.1/"
   xmlns:cc="http://creativecommons.org/ns#"
   xmlns:rdf="http://www.w3.org/1999/02/22-rdf-syntax-ns#"
   xmlns:svg="http://www.w3.org/2000/svg"
   xmlns="http://www.w3.org/2000/svg"
   xmlns:sodipodi="http://sodipodi.sourceforge.net/DTD/sodipodi-0.dtd"
   xmlns:inkscape="http://www.inkscape.org/namespaces/inkscape"
   viewBox="0 0 16 16"
   version="1.1"
   id="svg5"
   sodipodi:docname="edit_comment.svg"
   inkscape:version="0.92.4 (5da689c313, 2019-01-14)"
   width="32"
   height="32">
  <metadata
     id="metadata9">
    <rdf:RDF>
      <cc:Work
         rdf:about="">
        <dc:format>image/svg+xml</dc:format>
        <dc:type
           rdf:resource="http://purl.org/dc/dcmitype/StillImage" />
        <dc:title></dc:title>
      </cc:Work>
    </rdf:RDF>
  </metadata>
  <sodipodi:namedview
     pagecolor="#ffffff"
     bordercolor="#666666"
     borderopacity="1"
     objecttolerance="10"
     gridtolerance="10"
     guidetolerance="10"
     inkscape:pageopacity="0"
     inkscape:pageshadow="2"
     inkscape:window-width="1912"
     inkscape:window-height="2056"
     id="namedview7"
     showgrid="false"
     inkscape:zoom="22.627417"
     inkscape:cx="25.009519"
     inkscape:cy="7.9425611"
     inkscape:window-x="1920"
     inkscape:window-y="0"
     inkscape:window-maximized="0"
     inkscape:current-layer="svg5"
     inkscape:snap-bbox="true"
     inkscape:bbox-nodes="true"
     inkscape:snap-page="true"
     inkscape:snap-bbox-edge-midpoints="false"
     inkscape:bbox-paths="false"
     inkscape:snap-global="true"
     inkscape:snap-nodes="true" />
  <defs
     id="defs3051">
    <style
       type="text/css"
       id="current-color-scheme">
      .ColorScheme-Text {
        color:#232629;
      }
      </style>
  </defs>
  <path
     id="path10"
     style="fill:#000000;fill-opacity:0.49803922;stroke:none;stroke-width:1"
     d="m 12.539017,6.4609346 -1,0.9960938 0.002,0.00196 L 7,12.000004 v 1.999995 h 2 l 0.0019,-0.0019 0.0039,0.0019 0.7011726,-0.703125 -0.0039,-0.0039 4.1250004,-4.1347655 0.707032,-0.7070311 z m -0.302735,1.6894531 0.582032,0.5820314 0.02539,0.023435 -3.837892,3.8378909 -0.703125,0.703125 -0.0019,0.0039 -0.01953,-0.01953 -0.5820315,-0.582032 z M 3,3 C 2.45,3 2,3.45 2,4 v 3 1 3 c 0,0.55 0.45,1 1,1 h 1 v 1 1 L 5,13 6,12 7,11 H 6 4 3.6240235 3 V 8 7 4 H 3.6240235 4 6 7 9 11 11.303711 12 V 6 L 13,5 V 4 C 13,3.45 12.55,3 12,3 H 9 7 6 Z" />
</svg>
