<?xml version="1.0" encoding="UTF-8" standalone="no"?>
<svg
   xmlns:dc="http://purl.org/dc/elements/1.1/"
   xmlns:cc="http://creativecommons.org/ns#"
   xmlns:rdf="http://www.w3.org/1999/02/22-rdf-syntax-ns#"
   xmlns:svg="http://www.w3.org/2000/svg"
   xmlns="http://www.w3.org/2000/svg"
   xmlns:sodipodi="http://sodipodi.sourceforge.net/DTD/sodipodi-0.dtd"
   xmlns:inkscape="http://www.inkscape.org/namespaces/inkscape"
   viewBox="0 0 16 16"
   version="1.1"
   id="svg5"
   sodipodi:docname="note_edit.svg"
   inkscape:version="1.0.2 (e86c870, 2021-01-15)"
   width="32"
   height="32">
  <metadata
     id="metadata9">
    <rdf:RDF>
      <cc:Work
         rdf:about="">
        <dc:format>image/svg+xml</dc:format>
        <dc:type
           rdf:resource="http://purl.org/dc/dcmitype/StillImage" />
        <dc:title></dc:title>
      </cc:Work>
    </rdf:RDF>
  </metadata>
  <sodipodi:namedview
     pagecolor="#ffffff"
     bordercolor="#666666"
     borderopacity="1"
     objecttolerance="10"
     gridtolerance="10"
     guidetolerance="10"
     inkscape:pageopacity="0"
     inkscape:pageshadow="2"
     inkscape:window-width="1319"
     inkscape:window-height="1086"
     id="namedview7"
     showgrid="false"
     inkscape:zoom="11.313709"
     inkscape:cx="23.016049"
     inkscape:cy="15.599098"
     inkscape:window-x="3115"
     inkscape:window-y="970"
     inkscape:window-maximized="0"
     inkscape:current-layer="svg5"
     inkscape:snap-bbox="true"
     inkscape:bbox-nodes="true"
     inkscape:snap-page="true"
     inkscape:document-rotation="0" />
  <defs
     id="defs3051">
    <style
       type="text/css"
       id="current-color-scheme">
      .ColorScheme-Text {
        color:#232629;
      }
      </style>
  </defs>
  <path
     id="path10-3"
     style="color:#232629;fill:#ffffff;fill-opacity:0.5;stroke:none;stroke-width:0.999999"
     d="M 2,2 V 3 9.0000001 L 2.9999966,9.9999999 4.9999897,12 5.9999865,13 H 6.9999832 V 12 9.0000001 8 H 5.9999865 2.9999966 V 3 H 11.999966 V 6.5859375 L 12.999963,5.5859374 V 2 H 11.999966 2.9999966 Z m 11.539023,4.4609376 -0.999996,0.9960934 0.002,0.00195 L 11.999966,8 7.9999798,12 V 12.408203 14 h 1.9999931 l 0.002,-0.002 0.0039,0.002 0.701168,-0.703125 -0.0039,-0.0039 4.124986,-4.134772 0.707029,-0.7070311 z m -0.302733,1.6894529 0.58203,0.5820314 0.02539,0.023437 -3.837877,3.8378911 -0.7031232,0.703125 -0.00195,0.0039 -0.019531,-0.01953 -0.5820326,-0.582032 z M 3.4140577,9.0000001 h 2.5859288 v 2.5859379 z" />
</svg>
