<?xml version="1.0" encoding="UTF-8" standalone="no"?>
<svg
   xmlns:dc="http://purl.org/dc/elements/1.1/"
   xmlns:cc="http://creativecommons.org/ns#"
   xmlns:rdf="http://www.w3.org/1999/02/22-rdf-syntax-ns#"
   xmlns:svg="http://www.w3.org/2000/svg"
   xmlns="http://www.w3.org/2000/svg"
   xmlns:sodipodi="http://sodipodi.sourceforge.net/DTD/sodipodi-0.dtd"
   xmlns:inkscape="http://www.inkscape.org/namespaces/inkscape"
   viewBox="0 0 16 16"
   version="1.1"
   id="svg5"
   sodipodi:docname="draw_tab.svg"
   inkscape:version="0.92.4 (5da689c313, 2019-01-14)"
   width="32"
   height="32">
  <metadata
     id="metadata9">
    <rdf:RDF>
      <cc:Work
         rdf:about="">
        <dc:format>image/svg+xml</dc:format>
        <dc:type
           rdf:resource="http://purl.org/dc/dcmitype/StillImage" />
        <dc:title></dc:title>
      </cc:Work>
    </rdf:RDF>
  </metadata>
  <sodipodi:namedview
     pagecolor="#ffffff"
     bordercolor="#666666"
     borderopacity="1"
     objecttolerance="10"
     gridtolerance="10"
     guidetolerance="10"
     inkscape:pageopacity="0"
     inkscape:pageshadow="2"
     inkscape:window-width="1912"
     inkscape:window-height="2056"
     id="namedview7"
     showgrid="false"
     inkscape:zoom="22.627417"
     inkscape:cx="13.821955"
     inkscape:cy="15.956349"
     inkscape:window-x="1920"
     inkscape:window-y="0"
     inkscape:window-maximized="0"
     inkscape:current-layer="svg5"
     inkscape:snap-bbox="true"
     inkscape:bbox-nodes="true"
     inkscape:snap-page="true" />
  <defs
     id="defs3051">
    <style
       type="text/css"
       id="current-color-scheme">
      .ColorScheme-Text {
        color:#232629;
      }
      </style>
  </defs>
  <path
     inkscape:connector-curvature="0"
     style="color:#232629;fill:#ffffff;fill-opacity:1;stroke:none;stroke-width:1"
     d="m 14.004898,9.1611479 -7.1249994,-7.15625 -2.8749999,0 c -0.019,1.0749999 0,2.84375 0,2.84375 l 7.1562503,7.1562501 z m -2.15625,-0.71875 -1.406249,1.4062504 -2.8750004,-2.8457036 1.439453,-1.4375 z m -3.5624994,-3.59375 -1.40625,1.4375 -0.71875,-0.71875 1.40625,-1.40625 z m -1.28125,7.2792981 c -10e-4,-0.196001 -0.0455,-0.7305 -0.5625,-1.5625 -0.162,-0.26 -0.346453,-0.453 -0.5644529,-0.7500011 -0.116,-0.158 -0.494,-0.7255 -0.625,-0.9375 -0.383,-0.619 -0.48,-0.841 -0.75,-1.375 -0.261,-0.517 -0.4985,-1.0585 -0.6875,-1.4375 -0.795,-1.592 -0.8125,-4.0644534 -0.8125,-4.0644532 h -1 c 0,0 -0.032,2.4974532 0.875,4.3144532 0.12,0.241 0.318,0.6685 0.5,1.0625 0,0 0.59275,1.119 0.59375,1.125 0.109,0.196 0.192,0.36125 0.375,0.65625 0.141,0.228 0.49125,0.7750004 0.65625,1.0000011 0.243,0.33 0.42225,0.54275 0.53125,0.71875 0.302,0.385 0.4817499,0.82 0.46875,1.25 0,-0.034 -0.0098,0.13025 -0.09375,0.28125 -0.084,0.151 -0.234,0.3105 -0.375,0.4375 -0.332,0.245 -0.58525,0.35625 -1.03125,0.40625 -1.307,-0.036 -1.505,-1.28 -1.5,-2.25 h -1 c -0.089,1.979 0.83425,3 2.53125,3 0.288,-0.004 0.52475,-0.05025 0.84375,-0.15625 0.319,-0.106 0.6754998,-0.266 0.9374998,-0.5 0.423,-0.361 0.6085,-0.54275 0.6875,-1.21875 z"
     class="ColorScheme-Text"
     id="path4" />
</svg>
