<?xml version="1.0" encoding="UTF-8" standalone="no"?>
<svg
   xmlns:dc="http://purl.org/dc/elements/1.1/"
   xmlns:cc="http://creativecommons.org/ns#"
   xmlns:rdf="http://www.w3.org/1999/02/22-rdf-syntax-ns#"
   xmlns:svg="http://www.w3.org/2000/svg"
   xmlns="http://www.w3.org/2000/svg"
   xmlns:sodipodi="http://sodipodi.sourceforge.net/DTD/sodipodi-0.dtd"
   xmlns:inkscape="http://www.inkscape.org/namespaces/inkscape"
   viewBox="0 0 16 16"
   version="1.1"
   id="svg5"
   sodipodi:docname="__model-32__.svg"
   inkscape:version="1.0.2 (e86c870, 2021-01-15)"
   width="32"
   height="32">
  <metadata
     id="metadata9">
    <rdf:RDF>
      <cc:Work
         rdf:about="">
        <dc:format>image/svg+xml</dc:format>
        <dc:type
           rdf:resource="http://purl.org/dc/dcmitype/StillImage" />
        <dc:title />
      </cc:Work>
    </rdf:RDF>
  </metadata>
  <sodipodi:namedview
     pagecolor="#ffffff"
     bordercolor="#666666"
     borderopacity="1"
     objecttolerance="10"
     gridtolerance="10"
     guidetolerance="10"
     inkscape:pageopacity="0"
     inkscape:pageshadow="2"
     inkscape:window-width="1912"
     inkscape:window-height="1009"
     id="namedview7"
     showgrid="false"
     inkscape:zoom="32"
     inkscape:cx="12.822037"
     inkscape:cy="1.3595339"
     inkscape:window-x="3840"
     inkscape:window-y="0"
     inkscape:window-maximized="0"
     inkscape:current-layer="svg5"
     inkscape:snap-bbox="true"
     inkscape:bbox-nodes="true"
     inkscape:snap-page="true"
     inkscape:document-rotation="0"
     inkscape:snap-bbox-edge-midpoints="true"
     inkscape:object-nodes="false" />
  <defs
     id="defs3051">
    <style
       type="text/css"
       id="current-color-scheme">
      .ColorScheme-Text {
        color:#232629;
      }
      </style>
  </defs>
  <path
     style="fill:#ff00ff;fill-opacity:1;stroke:none;stroke-width:2.64575124"
     d="m 14,15 h 1 V 8 h -1 z"
     id="path1079"
     inkscape:connector-curvature="0" />
  <path
     inkscape:connector-curvature="0"
     id="path824"
     d="M 8,1 H 7 v 14 h 1 z"
     style="fill:#ffff00;fill-opacity:1;stroke:none;stroke-width:3.7416575" />
  <path
     style="fill:#ffff00;fill-opacity:1;stroke:none;stroke-width:3.7416575"
     d="M 9,1 H 8 v 14 h 1 z"
     id="path826"
     inkscape:connector-curvature="0" />
  <path
     style="fill:#ff0000;fill-opacity:1;stroke:none"
     d="M 1,1 V 2 H 2 V 1 Z"
     id="path77"
     inkscape:connector-curvature="0" />
  <path
     style="fill:currentColor;fill-opacity:1;stroke:none"
     d="m 0,-3 v 1 h 1 v -1 z"
     id="path75"
     inkscape:connector-curvature="0" />
  <path
     style="fill:#008000;fill-opacity:1;stroke:none;stroke-width:4"
     d="m 0,0 v 1 14 1 H 16 V 15 1 0 Z M 1,1 H 15 V 15 H 1 Z"
     id="path75-6"
     inkscape:connector-curvature="0" />
  <path
     style="fill:#0000ff;stroke-width:0.5"
     d="M 5,-5 C 4.45,-5 4,-4.55 4,-4 H 5 Z"
     id="path76"
     inkscape:connector-curvature="0" />
  <path
     style="fill:#0000ff;stroke-width:0.5"
     d="m 6,-5 v 1 H 7 C 7,-4.55 6.5499997,-5 6,-5 Z"
     id="path72"
     inkscape:connector-curvature="0" />
  <path
     style="fill:#0000ff;stroke-width:0.5"
     d="m 4,-3 c 0,0.55 0.45,1 1,1 v -1 z"
     id="path68-6"
     inkscape:connector-curvature="0" />
  <path
     style="fill:#0000ff;stroke-width:0.5"
     d="m 6,-3 v 1 c 0.55,0 1,-0.45 1,-1 z"
     id="path28"
     inkscape:connector-curvature="0" />
  <path
     inkscape:connector-curvature="0"
     id="path741"
     d="M 2,2 V 3 H 3 V 2 Z"
     style="fill:#ff0000;fill-opacity:1;stroke:none" />
  <path
     style="fill:#ff0000;fill-opacity:1;stroke:none"
     d="M 3,1 V 2 H 4 V 1 Z"
     id="path743"
     inkscape:connector-curvature="0" />
  <path
     inkscape:connector-curvature="0"
     id="path745"
     d="M 4,2 V 3 H 5 V 2 Z"
     style="fill:#ff0000;fill-opacity:1;stroke:none" />
  <path
     style="fill:#ff0000;fill-opacity:1;stroke:none"
     d="M 5,1 V 2 H 6 V 1 Z"
     id="path747"
     inkscape:connector-curvature="0" />
  <path
     inkscape:connector-curvature="0"
     id="path749"
     d="M 6,2 V 3 H 7 V 2 Z"
     style="fill:#ff0000;fill-opacity:1;stroke:none" />
  <path
     style="fill:#ff0000;fill-opacity:1;stroke:none"
     d="M 7,1 V 2 H 8 V 1 Z"
     id="path751"
     inkscape:connector-curvature="0" />
  <path
     inkscape:connector-curvature="0"
     id="path753"
     d="M 8,2 V 3 H 9 V 2 Z"
     style="fill:#ff0000;fill-opacity:1;stroke:none" />
  <path
     style="fill:#ff0000;fill-opacity:1;stroke:none;stroke-width:1.41421354"
     d="M 2,4 V 5 H 4 V 4 Z"
     id="path755"
     inkscape:connector-curvature="0" />
  <path
     inkscape:connector-curvature="0"
     id="path761"
     d="M 2,6 V 7 H 5 V 6 Z"
     style="fill:#ff0000;fill-opacity:1;stroke:none;stroke-width:1.73205078" />
  <path
     style="fill:#ff0000;fill-opacity:1;stroke:none;stroke-width:2"
     d="M 2,8 V 9 H 6 V 8 Z"
     id="path765"
     inkscape:connector-curvature="0" />
  <path
     inkscape:connector-curvature="0"
     id="path767"
     d="m 2,10 v 1 h 5 v -1 z"
     style="fill:#ff0000;fill-opacity:1;stroke:none;stroke-width:2.23606801" />
  <path
     style="fill:#ff0000;fill-opacity:1;stroke:none;stroke-width:2.44948983"
     d="m 2,12 v 1 h 6 v -1 z"
     id="path769"
     inkscape:connector-curvature="0" />
  <path
     inkscape:connector-curvature="0"
     id="path773"
     d="m 5,4 v 1 h 9 V 4 Z"
     style="fill:#ff0000;fill-opacity:1;stroke:none;stroke-width:3" />
  <path
     style="fill:#ff0000;fill-opacity:1;stroke:none;stroke-width:2.82842731"
     d="m 6,6 v 1 h 8 V 6 Z"
     id="path775"
     inkscape:connector-curvature="0" />
  <path
     inkscape:connector-curvature="0"
     id="path777"
     d="m 7,8 v 1 h 7 V 8 Z"
     style="fill:#ff0000;fill-opacity:1;stroke:none;stroke-width:2.64575148" />
  <path
     inkscape:connector-curvature="0"
     id="path785"
     d="m 2,-3 v 1 h 1 v -1 z"
     style="fill:#ff0000;fill-opacity:1;stroke:none" />
  <path
     inkscape:connector-curvature="0"
     id="path749-5"
     d="m 14,1 v 1 h 1 V 1 Z"
     style="fill:#ffff00;fill-opacity:1;stroke:none" />
  <path
     style="fill:#ffff00;fill-opacity:1;stroke:none;stroke-width:3.74166"
     d="m 1,14 v 1 h 14 v -1 z"
     id="path822"
     inkscape:connector-curvature="0" />
  <path
     inkscape:connector-curvature="0"
     id="path858"
     d="m 10,-2 h 1 v -1 z"
     style="fill:#ff00ff;fill-opacity:1;stroke:none"
     sodipodi:nodetypes="cccc" />
  <path
     sodipodi:nodetypes="cccc"
     style="fill:#ff00ff;fill-opacity:1;stroke:none"
     d="m 8,-3 v 1 h 1 z"
     id="path860"
     inkscape:connector-curvature="0" />
  <path
     sodipodi:nodetypes="cccc"
     style="fill:#ff00ff;fill-opacity:1;stroke:none"
     d="M 9,-5 H 8 v 1 z"
     id="path864"
     inkscape:connector-curvature="0" />
  <path
     inkscape:connector-curvature="0"
     id="path866"
     d="M 11,-4 V -5 H 10 Z"
     style="fill:#ff00ff;fill-opacity:1;stroke:none"
     sodipodi:nodetypes="cccc" />
  <path
     style="fill:#ff0000;fill-opacity:1;stroke:none;stroke-width:2.23606801"
     d="m 2,10 v 1 h 5 v -1 z"
     id="path1650"
     inkscape:connector-curvature="0" />
  <circle
     style="fill:#008080;fill-opacity:1;stroke-width:0.188976;stroke-linecap:round"
     id="path62"
     cx="42.5"
     cy="8.5"
     r="0.5" />
  <circle
     style="fill:#008080;fill-opacity:1;stroke-width:0.377952;stroke-linecap:round"
     id="circle887"
     cx="25"
     cy="8"
     r="1" />
  <path
     id="circle893"
     style="fill:#00ffff;fill-opacity:1;stroke-width:0.56693;stroke-linecap:round"
     d="m 42.474609,7.0000537 a 1.5,1.5 0 0 0 -1.474609,1.5 1.5,1.5 0 0 0 1.5,1.5000003 1.5,1.5 0 0 0 1.5,-1.5000003 1.5,1.5 0 0 0 -1.5,-1.5 1.5,1.5 0 0 0 -0.02539,0 z m 0.02539,1 a 0.5,0.5 0 0 1 0.5,0.5 0.5,0.5 0 0 1 -0.5,0.5 0.5,0.5 0 0 1 -0.5,-0.5 0.5,0.5 0 0 1 0.5,-0.5 z" />
  <path
     id="circle898"
     style="fill:#00ffff;fill-opacity:1;stroke-width:0.755905;stroke-linecap:round"
     d="m 24.969727,6.0000573 a 2,2 0 0 0 -1.969727,2 2,2 0 0 0 2,1.9999997 2,2 0 0 0 2,-1.9999997 2,2 0 0 0 -2,-2 2,2 0 0 0 -0.03027,0 z m 0.0059,1 a 1,1 0 0 1 0.02441,0 1,1 0 0 1 1,1 1,1 0 0 1 -1,1 1,1 0 0 1 -1,-1 1,1 0 0 1 0.975586,-1 z" />
  <path
     id="circle905"
     style="fill:#008080;fill-opacity:1;stroke-width:0.94488;stroke-linecap:round"
     d="M 42.5,6 A 2.5,2.5 0 0 0 40,8.5 2.5,2.5 0 0 0 42.5,11 2.5,2.5 0 0 0 45,8.5 2.5,2.5 0 0 0 42.5,6 Z M 42.47461,7 A 1.5,1.5 0 0 1 42.5,7 1.5,1.5 0 0 1 44,8.5 1.5,1.5 0 0 1 42.5,10 1.5,1.5 0 0 1 41,8.5 1.5,1.5 0 0 1 42.47461,7 Z" />
  <path
     id="circle911"
     style="fill:#008080;fill-opacity:1;stroke-width:1.13243;stroke-linecap:round"
     d="M 25,5 A 3,2.9924574 0 0 0 22,7.9921865 3,2.9924574 0 0 0 25,10.985351 3,2.9924574 0 0 0 28,7.9921865 3,2.9924574 0 0 0 25,5 Z M 24.96973,6 A 2,2 0 0 1 25,6 2,2 0 0 1 27,7.9999995 2,2 0 0 1 25,9.9999993 2,2 0 0 1 23,7.9999995 2,2 0 0 1 24.969727,6 Z" />
  <path
     id="circle927"
     style="fill:#00ffff;fill-opacity:1;stroke-width:1.51181;stroke-linecap:round"
     d="m 25,4 a 4,4 0 0 0 -4,4 4,4 0 0 0 4,4 4,4 0 0 0 4,-4 4,4 0 0 0 -4,-4 z m 0,1 a 3,3 0 0 1 3,3 3,3 0 0 1 -3,3 3,3 0 0 1 -3,-3 3,3 0 0 1 3,-3 z" />
  <path
     id="circle932"
     style="fill:#008080;fill-opacity:1;stroke-width:1.70078;stroke-linecap:round"
     d="m 42.495117,4.0000007 a 4.5,4.5 0 0 0 -4.495117,4.5 4.5,4.5 0 0 0 4.5,4.5000003 4.5,4.5 0 0 0 4.5,-4.5000003 4.5,4.5 0 0 0 -4.5,-4.5 4.5,4.5 0 0 0 -0.0049,0 z m -0.04199,1 a 3.5,3.5 0 0 1 0.04687,0 3.5,3.5 0 0 1 3.5,3.5 3.5,3.5 0 0 1 -3.5,3.5000003 3.5,3.5 0 0 1 -3.5,-3.5000003 3.5,3.5 0 0 1 3.453125,-3.5 z" />
  <path
     id="circle939"
     style="fill:#008080;fill-opacity:1;stroke-width:1.88976;stroke-linecap:round"
     d="m 24.990235,3.0000024 a 5,5 0 0 0 -4.990235,5 5,5 0 0 0 5.000001,5.0000006 5,5 0 0 0 5,-5.0000006 5,5 0 0 0 -5,-5 5,5 0 0 0 -0.0098,0 z m 0.0098,1 a 4,4 0 0 1 4,4 4,4 0 0 1 -4,4.0000006 4,4 0 0 1 -4.000001,-4.0000006 4,4 0 0 1 4.000001,-4 z" />
  <path
     id="circle944"
     style="fill:#00ffff;fill-opacity:1;stroke-width:2.07874;stroke-linecap:round"
     d="M 42.5,3 A 5.5,5.5 0 0 0 37,8.5 5.5,5.5 0 0 0 42.5,14 5.5,5.5 0 0 0 48,8.5 5.5,5.5 0 0 0 42.5,3 Z M 42.4951,4 A 4.5,4.5 0 0 1 42.5,4 4.5,4.5 0 0 1 47,8.5 4.5,4.5 0 0 1 42.5,13 4.5,4.5 0 0 1 38,8.5 4.5,4.5 0 0 1 42.495117,4 Z" />
  <path
     id="circle949"
     style="fill:#00ffff;fill-opacity:1;stroke-width:2.26771;stroke-linecap:round"
     d="M 25,2 A 6,6 0 0 0 19,7.9999996 6,6 0 0 0 25,14 6,6 0 0 0 31,7.9999996 6,6 0 0 0 25,2 Z M 24.9902,3 A 5,5 0 0 1 25,3 5,5 0 0 1 30,7.9999996 5,5 0 0 1 25,13 5,5 0 0 1 20,7.9999996 5,5 0 0 1 24.990234,3 Z" />
  <path
     id="circle954"
     style="fill:#008080;fill-opacity:1;stroke-width:2.45669;stroke-linecap:round"
     d="M 42.446289,2.0000555 A 6.5,6.5 0 0 0 36,8.5000554 6.5,6.5 0 0 0 42.5,15.000056 6.5,6.5 0 0 0 49,8.5000554 6.5,6.5 0 0 0 42.5,2.0000555 a 6.5,6.5 0 0 0 -0.05371,0 z m 0.05371,1 a 5.5,5.5 0 0 1 5.5,5.4999999 5.5,5.5 0 0 1 -5.5,5.5000006 5.5,5.5 0 0 1 -5.5,-5.5000006 5.5,5.5 0 0 1 5.5,-5.4999999 z" />
  <path
     id="circle959"
     style="fill:#008080;fill-opacity:1;stroke-width:2.64566;stroke-linecap:round"
     d="m 25,1 a 7,7 0 0 0 -7,7 7,7 0 0 0 7,7 7,7 0 0 0 7,-7 7,7 0 0 0 -7,-7 z m 0,1 a 6,6 0 0 1 6,6 6,6 0 0 1 -6,6 6,6 0 0 1 -6,-6 6,6 0 0 1 6,-6 z" />
  <path
     id="path393"
     style="fill:#225500;fill-opacity:1;stroke:none;stroke-width:5.65686"
     d="M -2 -2 L -2 0 L -2 14 L -2 16 L 0 16 L 0 14 L 0 0 L 14 0 L 16 0 L 16 -2 L 14 -2 L 0 -2 L -2 -2 z M 32 16 L 32 18 L 32 32 L 18 32 L 16 32 L 16 34 L 18 34 L 32 34 L 34 34 L 34 32 L 34 18 L 34 16 L 32 16 z "
     transform="scale(0.5)" />
  <path
     id="path406"
     style="fill:#00ff00;fill-opacity:1;stroke:none;stroke-width:2"
     d="M 0 0 L 0 2 L 2 2 L 2 0 L 0 0 z M 30 0 L 30 2 L 32 2 L 32 0 L 30 0 z M 0 30 L 0 32 L 2 32 L 2 30 L 0 30 z M 30 30 L 30 32 L 32 32 L 32 30 L 30 30 z "
     transform="scale(0.5)" />
  <path
     style="fill:#008000;fill-opacity:1;stroke:none;stroke-width:4"
     d="m 17,0 v 1 14 1 H 33 V 15 1 0 Z m 1,1 H 32 V 15 H 18 Z"
     id="path901"
     inkscape:connector-curvature="0" />
  <path
     style="fill:#008000;fill-opacity:1;stroke:none;stroke-width:4"
     d="m 34,0 v 1 14 1 H 50 V 15 1 0 Z m 1,1 H 49 V 15 H 35 Z"
     id="path905"
     inkscape:connector-curvature="0" />
  <path
     id="path909"
     style="fill:#00ffff;stroke-width:0.58465;stroke-linecap:round"
     d="M 84.90625 10 A 7 7 0 0 0 78 17 A 7 7 0 0 0 85 24 A 7 7 0 0 0 92 17 A 7 7 0 0 0 85 10 A 7 7 0 0 0 84.90625 10 z M 85 12 A 4.999999 5 0 0 1 90 17 A 4.999999 5 0 0 1 85 22 A 4.999999 5 0 0 1 80 17 A 4.999999 5 0 0 1 85 12 z "
     transform="scale(0.5)" />
  <path
     id="path1095"
     style="fill:#ff0000;fill-opacity:1;stroke:none;stroke-width:2"
     d="M 0 -10 L 0 -8 L 1 -8 L 1 -10 L 0 -10 z "
     transform="scale(0.5)" />
</svg>
