<?xml version="1.0" encoding="UTF-8" standalone="no"?>
<svg
   xmlns:dc="http://purl.org/dc/elements/1.1/"
   xmlns:cc="http://creativecommons.org/ns#"
   xmlns:rdf="http://www.w3.org/1999/02/22-rdf-syntax-ns#"
   xmlns:svg="http://www.w3.org/2000/svg"
   xmlns="http://www.w3.org/2000/svg"
   xmlns:sodipodi="http://sodipodi.sourceforge.net/DTD/sodipodi-0.dtd"
   xmlns:inkscape="http://www.inkscape.org/namespaces/inkscape"
   viewBox="0 0 16 16"
   version="1.1"
   id="svg5"
   sodipodi:docname="__template-32__.svg"
   inkscape:version="1.0.2 (e86c870, 2021-01-15)"
   width="32"
   height="32">
  <metadata
     id="metadata9">
    <rdf:RDF>
      <cc:Work
         rdf:about="">
        <dc:format>image/svg+xml</dc:format>
        <dc:type
           rdf:resource="http://purl.org/dc/dcmitype/StillImage" />
        <dc:title />
      </cc:Work>
    </rdf:RDF>
  </metadata>
  <sodipodi:namedview
     pagecolor="#ffffff"
     bordercolor="#666666"
     borderopacity="1"
     objecttolerance="10"
     gridtolerance="10"
     guidetolerance="10"
     inkscape:pageopacity="0"
     inkscape:pageshadow="2"
     inkscape:window-width="1710"
     inkscape:window-height="1499"
     id="namedview7"
     showgrid="false"
     inkscape:zoom="16"
     inkscape:cx="12.962443"
     inkscape:cy="16.752163"
     inkscape:window-x="2049"
     inkscape:window-y="79"
     inkscape:window-maximized="0"
     inkscape:current-layer="svg5"
     inkscape:snap-bbox="true"
     inkscape:bbox-nodes="true"
     inkscape:snap-page="true"
     inkscape:document-rotation="0"
     inkscape:snap-bbox-edge-midpoints="true"
     inkscape:snap-grids="false"
     inkscape:object-nodes="true" />
  <defs
     id="defs3051">
    <style
       type="text/css"
       id="current-color-scheme">
      .ColorScheme-Text {
        color:#232629;
      }
      </style>
  </defs>
  <path
     style="fill:currentColor;fill-opacity:1;stroke:none"
     d="m 0,-3 v 1 h 1 v -1 z"
     id="path75"
     inkscape:connector-curvature="0" />
  <path
     style="fill:#008000;fill-opacity:1;stroke:none;stroke-width:4"
     d="m 0,0 v 1 14 1 H 16 V 15 1 0 Z M 1,1 H 15 V 15 H 1 Z"
     id="path75-6"
     inkscape:connector-curvature="0" />
  <path
     inkscape:connector-curvature="0"
     id="path785"
     d="m 2,-3 v 1 h 1 v -1 z"
     style="fill:#ff0000;fill-opacity:1;stroke:none" />
  <path
     id="path393"
     style="fill:#225500;fill-opacity:1;stroke:none;stroke-width:5.65686"
     d="M -2 -2 L -2 0 L -2 14 L -2 16 L 0 16 L 0 14 L 0 0 L 14 0 L 16 0 L 16 -2 L 14 -2 L 0 -2 L -2 -2 z M 32 16 L 32 18 L 32 32 L 18 32 L 16 32 L 16 34 L 18 34 L 32 34 L 34 34 L 34 32 L 34 18 L 34 16 L 32 16 z "
     transform="scale(0.5)" />
  <path
     id="path406"
     style="fill:#00ff00;fill-opacity:1;stroke:none;stroke-width:2"
     d="M 0 0 L 0 2 L 2 2 L 2 0 L 0 0 z M 30 0 L 30 2 L 32 2 L 32 0 L 30 0 z M 0 30 L 0 32 L 2 32 L 2 30 L 0 30 z M 30 30 L 30 32 L 32 32 L 32 30 L 30 30 z "
     transform="scale(0.5)" />
  <path
     inkscape:connector-curvature="0"
     id="path835"
     d="m 2,-3 v 1 h 1 v -1 z"
     style="fill:#ff0000;fill-opacity:1;stroke:none" />
</svg>
