<?xml version="1.0" encoding="UTF-8" standalone="no"?>
<svg
   xmlns:dc="http://purl.org/dc/elements/1.1/"
   xmlns:cc="http://creativecommons.org/ns#"
   xmlns:rdf="http://www.w3.org/1999/02/22-rdf-syntax-ns#"
   xmlns:svg="http://www.w3.org/2000/svg"
   xmlns="http://www.w3.org/2000/svg"
   xmlns:sodipodi="http://sodipodi.sourceforge.net/DTD/sodipodi-0.dtd"
   xmlns:inkscape="http://www.inkscape.org/namespaces/inkscape"
   viewBox="0 0 16 16"
   version="1.1"
   id="svg5"
   sodipodi:docname="animation.svg"
   inkscape:version="1.0.2 (e86c870, 2021-01-15)"
   width="32"
   height="32">
  <metadata
     id="metadata9">
    <rdf:RDF>
      <cc:Work
         rdf:about="">
        <dc:format>image/svg+xml</dc:format>
        <dc:type
           rdf:resource="http://purl.org/dc/dcmitype/StillImage" />
        <dc:title></dc:title>
      </cc:Work>
    </rdf:RDF>
  </metadata>
  <sodipodi:namedview
     pagecolor="#ffffff"
     bordercolor="#666666"
     borderopacity="1"
     objecttolerance="10"
     gridtolerance="10"
     guidetolerance="10"
     inkscape:pageopacity="0"
     inkscape:pageshadow="2"
     inkscape:window-width="1334"
     inkscape:window-height="814"
     id="namedview7"
     showgrid="false"
     inkscape:zoom="5.6568543"
     inkscape:cx="41.040538"
     inkscape:cy="3.9674444"
     inkscape:window-x="438"
     inkscape:window-y="156"
     inkscape:window-maximized="0"
     inkscape:current-layer="svg5"
     inkscape:snap-bbox="true"
     inkscape:bbox-nodes="true"
     inkscape:snap-page="true"
     inkscape:document-rotation="0"
     inkscape:snap-bbox-edge-midpoints="true" />
  <defs
     id="defs3051">
    <style
       type="text/css"
       id="current-color-scheme">
      .ColorScheme-Text {
        color:#232629;
      }
      </style>
  </defs>
  <path
     id="path745"
     style="fill:#ffffff;fill-opacity:1;stroke:none;stroke-width:2"
     d="M 4 2 L 4 4 L 4 26 L 4 28 L 6 28 L 8 28 L 10 28 L 10 26 L 22 26 L 22 28 L 24 28 L 26 28 L 28 28 L 28 26 L 28 4 L 28 2 L 26 2 L 24 2 L 22 2 L 22 4 L 10 4 L 10 2 L 8 2 L 6 2 L 4 2 z M 6 4 L 8 4 L 8 6 L 6 6 L 6 4 z M 24 4 L 26 4 L 26 6 L 24 6 L 24 4 z M 10 6 L 22 6 L 22 14 L 10 14 L 10 6 z M 6 8 L 8 8 L 8 10 L 6 10 L 6 8 z M 24 8 L 26 8 L 26 10 L 24 10 L 24 8 z M 6 12 L 8 12 L 8 14 L 6 14 L 6 12 z M 24 12 L 26 12 L 26 14 L 24 14 L 24 12 z M 6 16 L 8 16 L 8 18 L 6 18 L 6 16 z M 10 16 L 22 16 L 22 24 L 10 24 L 10 16 z M 24 16 L 26 16 L 26 18 L 24 18 L 24 16 z M 6 20 L 8 20 L 8 22 L 6 22 L 6 20 z M 24 20 L 26 20 L 26 22 L 24 22 L 24 20 z M 6 24 L 8 24 L 8 26 L 6 26 L 6 24 z M 24 24 L 26 24 L 26 26 L 24 26 L 24 24 z "
     transform="scale(0.5)" />
</svg>
