<?xml version="1.0" encoding="UTF-8" standalone="no"?>
<svg
   xmlns:dc="http://purl.org/dc/elements/1.1/"
   xmlns:cc="http://creativecommons.org/ns#"
   xmlns:rdf="http://www.w3.org/1999/02/22-rdf-syntax-ns#"
   xmlns:svg="http://www.w3.org/2000/svg"
   xmlns="http://www.w3.org/2000/svg"
   xmlns:sodipodi="http://sodipodi.sourceforge.net/DTD/sodipodi-0.dtd"
   xmlns:inkscape="http://www.inkscape.org/namespaces/inkscape"
   viewBox="0 0 16 16"
   version="1.1"
   id="svg10"
   sodipodi:docname="bookmark_clear.svg"
   inkscape:version="0.92.4 (5da689c313, 2019-01-14)"
   width="32"
   height="32">
  <metadata
     id="metadata14">
    <rdf:RDF>
      <cc:Work
         rdf:about="">
        <dc:format>image/svg+xml</dc:format>
        <dc:type
           rdf:resource="http://purl.org/dc/dcmitype/StillImage" />
        <dc:title />
      </cc:Work>
    </rdf:RDF>
  </metadata>
  <sodipodi:namedview
     pagecolor="#ffffff"
     bordercolor="#666666"
     borderopacity="1"
     objecttolerance="10"
     gridtolerance="10"
     guidetolerance="10"
     inkscape:pageopacity="0"
     inkscape:pageshadow="2"
     inkscape:window-width="1579"
     inkscape:window-height="1642"
     id="namedview12"
     showgrid="false"
     inkscape:zoom="7.375"
     inkscape:cx="0.88122562"
     inkscape:cy="29.330154"
     inkscape:window-x="3769"
     inkscape:window-y="266"
     inkscape:window-maximized="0"
     inkscape:current-layer="svg10"
     inkscape:snap-page="true" />
  <defs
     id="defs3051">
    <style
       type="text/css"
       id="current-color-scheme">
      .ColorScheme-Text {
        color:#232629;
      }
      .ColorScheme-NegativeText {
        color:#da4453;
      }
      </style>
  </defs>
  <path
     style="color:#232629;fill:#ffffff;fill-opacity:1;stroke:none"
     d="m 5.998047,0.9853515 c -0.55,0 -1,0.45 -1,1 h 1 1.4414062 4.5585938 v 7 h 1 v -7 c 0,-0.55 -0.45,-1 -1,-1 z m -2,2 c -0.55,0 -1,0.45 -1,1 V 14.985352 l 4,-1.59375 v -1 l -3,1.1875 V 3.9853515 h 5.9999999 v 5 h 1.0000001 v -5 c 0,-0.55 -0.45,-1 -1.0000001,-1 z m 4.7109376,7.0292975 -0.7070313,0.707031 1.7929688,1.792969 -1.7929688,1.792968 0.7070313,0.707032 1.7929684,-1.792969 1.792969,1.792969 0.707031,-0.707032 -1.792968,-1.792968 1.792968,-1.792969 -0.707031,-0.707031 -1.792969,1.792968 z"
     id="path4-5"
     inkscape:connector-curvature="0" />
</svg>
