<?xml version="1.0" encoding="UTF-8" standalone="no"?>
<svg
   xmlns:dc="http://purl.org/dc/elements/1.1/"
   xmlns:cc="http://creativecommons.org/ns#"
   xmlns:rdf="http://www.w3.org/1999/02/22-rdf-syntax-ns#"
   xmlns:svg="http://www.w3.org/2000/svg"
   xmlns="http://www.w3.org/2000/svg"
   xmlns:sodipodi="http://sodipodi.sourceforge.net/DTD/sodipodi-0.dtd"
   xmlns:inkscape="http://www.inkscape.org/namespaces/inkscape"
   viewBox="0 0 16 16"
   version="1.1"
   id="svg5"
   sodipodi:docname="brush.svg"
   inkscape:version="1.0.2 (e86c870, 2021-01-15)"
   width="32"
   height="32">
  <metadata
     id="metadata9">
    <rdf:RDF>
      <cc:Work
         rdf:about="">
        <dc:format>image/svg+xml</dc:format>
        <dc:type
           rdf:resource="http://purl.org/dc/dcmitype/StillImage" />
        <dc:title />
      </cc:Work>
    </rdf:RDF>
  </metadata>
  <sodipodi:namedview
     pagecolor="#ffffff"
     bordercolor="#666666"
     borderopacity="1"
     objecttolerance="10"
     gridtolerance="10"
     guidetolerance="10"
     inkscape:pageopacity="0"
     inkscape:pageshadow="2"
     inkscape:window-width="1990"
     inkscape:window-height="1752"
     id="namedview7"
     showgrid="false"
     inkscape:zoom="22.627417"
     inkscape:cx="15.790224"
     inkscape:cy="15.956349"
     inkscape:window-x="3762"
     inkscape:window-y="137"
     inkscape:window-maximized="0"
     inkscape:current-layer="svg5"
     inkscape:snap-bbox="true"
     inkscape:bbox-nodes="true"
     inkscape:snap-page="true"
     inkscape:document-rotation="0" />
  <defs
     id="defs3051">
    <style
       type="text/css"
       id="current-color-scheme">
      .ColorScheme-Text {
        color:#232629;
      }
      </style>
  </defs>
  <path
     inkscape:connector-curvature="0"
     style="color:#232629;fill:#ffffff;fill-opacity:1;stroke:none;stroke-width:1"
     d="m 13.427734,2.0058589 a 1.500133,6.7506006 44.989453 0 0 -5.3769524,3.824219 1.500133,6.7506006 44.989453 0 0 -2.65625,3.0859373 c 0.80698,0.2571 1.43636,0.8860594 1.69336,1.6933588 a 1.500133,6.7506006 44.989453 0 0 3.0839844,-2.6582024 1.500133,6.7506006 44.989453 0 0 3.710936,-5.8339847 1.500133,6.7506006 44.989453 0 0 -0.248046,-0.111328 1.500133,6.7506006 44.989453 0 0 -0.207032,0 z M 4.9999996,9.9960934 v 0.0039 c -2.99992,0.8042056 -0.75006,2.7027066 -3,4.0000066 2.99992,0 4.5,-1.500753 4.5,-2.501954 0,-0.4991 0.05096,-1.418953 -1.5,-1.5019526 z"
     class="ColorScheme-Text"
     id="path4" />
</svg>
