<?xml version="1.0" encoding="UTF-8" standalone="no"?>
<svg
   xmlns:dc="http://purl.org/dc/elements/1.1/"
   xmlns:cc="http://creativecommons.org/ns#"
   xmlns:rdf="http://www.w3.org/1999/02/22-rdf-syntax-ns#"
   xmlns:svg="http://www.w3.org/2000/svg"
   xmlns="http://www.w3.org/2000/svg"
   xmlns:sodipodi="http://sodipodi.sourceforge.net/DTD/sodipodi-0.dtd"
   xmlns:inkscape="http://www.inkscape.org/namespaces/inkscape"
   viewBox="0 0 16 16"
   version="1.1"
   id="svg5"
   sodipodi:docname="clipboard.svg"
   inkscape:version="0.92.4 (5da689c313, 2019-01-14)"
   width="32"
   height="32">
  <metadata
     id="metadata9">
    <rdf:RDF>
      <cc:Work
         rdf:about="">
        <dc:format>image/svg+xml</dc:format>
        <dc:type
           rdf:resource="http://purl.org/dc/dcmitype/StillImage" />
        <dc:title></dc:title>
      </cc:Work>
    </rdf:RDF>
  </metadata>
  <sodipodi:namedview
     pagecolor="#ffffff"
     bordercolor="#666666"
     borderopacity="1"
     objecttolerance="10"
     gridtolerance="10"
     guidetolerance="10"
     inkscape:pageopacity="0"
     inkscape:pageshadow="2"
     inkscape:window-width="1912"
     inkscape:window-height="2056"
     id="namedview7"
     showgrid="false"
     inkscape:zoom="32"
     inkscape:cx="18.957974"
     inkscape:cy="10.991292"
     inkscape:window-x="1920"
     inkscape:window-y="0"
     inkscape:window-maximized="0"
     inkscape:current-layer="svg5"
     inkscape:snap-bbox="true"
     inkscape:bbox-nodes="true"
     inkscape:snap-page="true" />
  <defs
     id="defs3051">
    <style
       type="text/css"
       id="current-color-scheme">
      .ColorScheme-Text {
        color:#232629;
      }
      </style>
  </defs>
  <path
     id="path77-3"
     style="fill:#ffffff;fill-opacity:1;stroke:none;stroke-width:1"
     d="m 10,8 v 1 h 1 V 8 Z m 10e-7,1.9999995 V 11 h 1 V 9.9999995 Z m -1.0000005,0 V 10.999999 H 10.000001 V 9.9999995 Z M 10,6 v 0.9999999 h 1.000001 V 6 Z M 5,8 V 9 H 9 V 8 Z M 5,9.9999995 V 11 H 8 V 9.9999995 Z M 5,6 v 1 h 5 V 6 Z M 5,2 V 3 H 3 v 11 h 4 1 4 1 V 13 9 3 H 11 V 2 Z M 4,4 h 1 v 1 h 6 V 4 h 1 v 2 6 1 H 8 7 4 V 12 6 Z" />
</svg>
