<?xml version="1.0" encoding="UTF-8" standalone="no"?>
<svg
   xmlns:dc="http://purl.org/dc/elements/1.1/"
   xmlns:cc="http://creativecommons.org/ns#"
   xmlns:rdf="http://www.w3.org/1999/02/22-rdf-syntax-ns#"
   xmlns:svg="http://www.w3.org/2000/svg"
   xmlns="http://www.w3.org/2000/svg"
   xmlns:sodipodi="http://sodipodi.sourceforge.net/DTD/sodipodi-0.dtd"
   xmlns:inkscape="http://www.inkscape.org/namespaces/inkscape"
   viewBox="0 0 16 16"
   version="1.1"
   id="svg5"
   sodipodi:docname="clipboard_refresh.svg"
   inkscape:version="1.0.2 (e86c870, 2021-01-15)"
   width="32"
   height="32">
  <metadata
     id="metadata9">
    <rdf:RDF>
      <cc:Work
         rdf:about="">
        <dc:format>image/svg+xml</dc:format>
        <dc:type
           rdf:resource="http://purl.org/dc/dcmitype/StillImage" />
        <dc:title />
      </cc:Work>
    </rdf:RDF>
  </metadata>
  <sodipodi:namedview
     pagecolor="#ffffff"
     bordercolor="#666666"
     borderopacity="1"
     objecttolerance="10"
     gridtolerance="10"
     guidetolerance="10"
     inkscape:pageopacity="0"
     inkscape:pageshadow="2"
     inkscape:window-width="1912"
     inkscape:window-height="1841"
     id="namedview7"
     showgrid="false"
     inkscape:zoom="8"
     inkscape:cx="20.139228"
     inkscape:cy="21.948524"
     inkscape:window-x="3840"
     inkscape:window-y="0"
     inkscape:window-maximized="0"
     inkscape:current-layer="svg5"
     inkscape:snap-bbox="true"
     inkscape:bbox-nodes="true"
     inkscape:snap-page="true"
     inkscape:document-rotation="0" />
  <defs
     id="defs3051">
    <style
       type="text/css"
       id="current-color-scheme">
      .ColorScheme-Text {
        color:#232629;
      }
      </style>
  </defs>
  <path
     style="opacity:1;fill:#ffffff;fill-opacity:1;stroke:none;stroke-width:0.18897638;stroke-linecap:butt;stroke-linejoin:miter;stroke-miterlimit:4;stroke-dasharray:none;stroke-opacity:1;paint-order:stroke fill markers"
     d="M 10 4 L 10 6 L 6 6 L 6 28 L 14 28 L 14 26 L 8 26 L 8 24 L 8 12 L 8 8 L 10 8 L 10 10 L 22 10 L 22 8 L 24 8 L 24 12 L 24 14 L 26 14 L 26 6 L 22 6 L 22 4 L 10 4 z M 10 12 L 10 14 L 14 14 L 20 14 L 22 14 L 22 12 L 20 12 L 10 12 z M 10 16 L 10 18 L 14 18 L 14 16 L 10 16 z M 16 16 L 16 20 L 16 22 L 16.078125 22 L 18 22 L 18.101562 22 L 22 22 L 22 20 L 19.007812 20 A 5 5 0 0 1 23 18 A 5 5 0 0 1 27.894531 22 L 29.919922 22 A 7 7 0 0 0 23 16 A 7 7 0 0 0 18 18.109375 L 18 16 L 16 16 z M 10 20 L 10 22 L 14 22 L 14 20 L 10 20 z M 16.080078 24 A 7 7 0 0 0 23 30 A 7 7 0 0 0 28 27.890625 L 28 30 L 30 30 L 30 26 L 30 24 L 29.921875 24 L 28 24 L 27.898438 24 L 24 24 L 24 26 L 26.992188 26 A 5 5 0 0 1 23 28 A 5 5 0 0 1 18.105469 24 L 16.080078 24 z "
     transform="scale(0.5)"
     id="path86" />
</svg>
