<?xml version="1.0" encoding="UTF-8" standalone="no"?>
<svg
   xmlns:dc="http://purl.org/dc/elements/1.1/"
   xmlns:cc="http://creativecommons.org/ns#"
   xmlns:rdf="http://www.w3.org/1999/02/22-rdf-syntax-ns#"
   xmlns:svg="http://www.w3.org/2000/svg"
   xmlns="http://www.w3.org/2000/svg"
   xmlns:sodipodi="http://sodipodi.sourceforge.net/DTD/sodipodi-0.dtd"
   xmlns:inkscape="http://www.inkscape.org/namespaces/inkscape"
   viewBox="0 0 16 16"
   version="1.1"
   id="svg5"
   sodipodi:docname="compact_on.svg"
   inkscape:version="0.92.4 (5da689c313, 2019-01-14)"
   width="32"
   height="32">
  <metadata
     id="metadata9">
    <rdf:RDF>
      <cc:Work
         rdf:about="">
        <dc:format>image/svg+xml</dc:format>
        <dc:type
           rdf:resource="http://purl.org/dc/dcmitype/StillImage" />
        <dc:title></dc:title>
      </cc:Work>
    </rdf:RDF>
  </metadata>
  <sodipodi:namedview
     pagecolor="#ffffff"
     bordercolor="#666666"
     borderopacity="1"
     objecttolerance="10"
     gridtolerance="10"
     guidetolerance="10"
     inkscape:pageopacity="0"
     inkscape:pageshadow="2"
     inkscape:window-width="1912"
     inkscape:window-height="2056"
     id="namedview7"
     showgrid="false"
     inkscape:zoom="45.254834"
     inkscape:cx="17.152627"
     inkscape:cy="19.909705"
     inkscape:window-x="3083"
     inkscape:window-y="0"
     inkscape:window-maximized="0"
     inkscape:current-layer="svg5"
     inkscape:snap-bbox="true"
     inkscape:bbox-nodes="true"
     inkscape:snap-page="true" />
  <defs
     id="defs3051">
    <style
       type="text/css"
       id="current-color-scheme">
      .ColorScheme-Text {
        color:#232629;
      }
      </style>
  </defs>
  <path
     style="fill:#ffffff;fill-opacity:1;stroke:none;stroke-width:4.89897966"
     d="M 12 4 L 12 10.585938 L 9.4140625 8 L 8 8 L 8 9.4140625 L 10.585938 12 L 4 12 L 4 14 L 12 14 L 12.585938 14 L 14 14 L 14 12.585938 L 14 12 L 14 4 L 12 4 z M 18 4 L 18 12 L 18 12.585938 L 18 14 L 19.414062 14 L 20 14 L 28 14 L 28 12 L 21.414062 12 L 24 9.4140625 L 24 8 L 22.585938 8 L 20 10.585938 L 20 4 L 18 4 z M 4 18 L 4 20 L 10.585938 20 L 9.7988281 20.787109 L 8 22.585938 L 8 24 L 9.4140625 24 L 11.212891 22.201172 L 12 21.414062 L 12 28 L 14 28 L 14 20 L 14 19.414062 L 14 18 L 12.585938 18 L 12 18 L 4 18 z M 18 18 L 18 19.414062 L 18 20 L 18 28 L 20 28 L 20 21.414062 L 20.787109 22.201172 L 22.585938 24 L 24 24 L 24 22.585938 L 22.201172 20.787109 L 21.414062 20 L 28 20 L 28 18 L 20 18 L 19.414062 18 L 18 18 z "
     transform="scale(0.5)"
     id="path139" />
</svg>
