<?xml version="1.0" encoding="UTF-8" standalone="no"?>
<svg
   xmlns:dc="http://purl.org/dc/elements/1.1/"
   xmlns:cc="http://creativecommons.org/ns#"
   xmlns:rdf="http://www.w3.org/1999/02/22-rdf-syntax-ns#"
   xmlns:svg="http://www.w3.org/2000/svg"
   xmlns="http://www.w3.org/2000/svg"
   xmlns:sodipodi="http://sodipodi.sourceforge.net/DTD/sodipodi-0.dtd"
   xmlns:inkscape="http://www.inkscape.org/namespaces/inkscape"
   viewBox="0 0 16 16"
   version="1.1"
   id="svg5"
   sodipodi:docname="draw_bt.svg"
   inkscape:version="0.92.4 (5da689c313, 2019-01-14)"
   width="32"
   height="32">
  <metadata
     id="metadata9">
    <rdf:RDF>
      <cc:Work
         rdf:about="">
        <dc:format>image/svg+xml</dc:format>
        <dc:type
           rdf:resource="http://purl.org/dc/dcmitype/StillImage" />
        <dc:title></dc:title>
      </cc:Work>
    </rdf:RDF>
  </metadata>
  <sodipodi:namedview
     pagecolor="#ffffff"
     bordercolor="#666666"
     borderopacity="1"
     objecttolerance="10"
     gridtolerance="10"
     guidetolerance="10"
     inkscape:pageopacity="0"
     inkscape:pageshadow="2"
     inkscape:window-width="1912"
     inkscape:window-height="990"
     id="namedview7"
     showgrid="false"
     inkscape:zoom="22.627417"
     inkscape:cx="13.821955"
     inkscape:cy="15.956349"
     inkscape:window-x="0"
     inkscape:window-y="0"
     inkscape:window-maximized="0"
     inkscape:current-layer="svg5"
     inkscape:snap-bbox="true"
     inkscape:bbox-nodes="true"
     inkscape:snap-page="true" />
  <defs
     id="defs3051">
    <style
       type="text/css"
       id="current-color-scheme">
      .ColorScheme-Text {
        color:#232629;
      }
      </style>
  </defs>
  <path
     inkscape:connector-curvature="0"
     style="color:#232629;fill:#ffffff;fill-opacity:1;stroke:none;stroke-width:1"
     d="m 9.1601563,1.9980481 -7.15625,7.1249994 v 2.8749995 c 1.0749999,0.019 2.84375,0 2.84375,0 L 12.003906,4.8417971 Z m -0.71875,2.15625 1.4062504,1.406249 -2.8457036,2.8750004 -1.4375,-1.439453 z m -3.59375,3.5624994 1.4375,1.40625 -0.71875,0.71875 -1.40625,-1.40625 z m 7.2792977,1.28125 c -0.196001,10e-4 -0.7305,0.0455 -1.5625,0.5625 -0.26,0.162 -0.453,0.346453 -0.7500007,0.5644525 -0.158,0.116 -0.7255,0.494 -0.9375,0.625 -0.619,0.383 -0.841,0.48 -1.375,0.75 -0.517,0.261 -1.0585,0.4985 -1.4375,0.6875 C 4.4724533,12.9825 1.9999999,13 2.0000001,13 v 1 c 0,0 2.4974532,0.032 4.3144532,-0.875 0.241,-0.12 0.6685,-0.318 1.0625,-0.5 0,0 1.119,-0.59275 1.125,-0.59375 0.196,-0.109 0.36125,-0.192 0.65625,-0.375 0.228,-0.141 0.7750004,-0.49125 1.0000007,-0.65625 0.33,-0.243 0.54275,-0.42225 0.71875,-0.53125 0.385,-0.302 0.82,-0.4817495 1.25,-0.46875 -0.034,0 0.13025,0.0098 0.28125,0.09375 0.151,0.084 0.3105,0.234 0.4375,0.375 0.245,0.332 0.35625,0.58525 0.40625,1.03125 -0.036,1.307 -1.28,1.505 -2.25,1.5 v 1 c 1.979,0.089 3,-0.83425 3,-2.53125 -0.004,-0.288 -0.05025,-0.52475 -0.15625,-0.84375 -0.106,-0.319 -0.266,-0.6754994 -0.5,-0.9374994 -0.361,-0.423 -0.54275,-0.6085 -1.21875,-0.6875 z"
     class="ColorScheme-Text"
     id="path4" />
</svg>
