<?xml version="1.0" encoding="UTF-8" standalone="no"?>
<svg
   xmlns:dc="http://purl.org/dc/elements/1.1/"
   xmlns:cc="http://creativecommons.org/ns#"
   xmlns:rdf="http://www.w3.org/1999/02/22-rdf-syntax-ns#"
   xmlns:svg="http://www.w3.org/2000/svg"
   xmlns="http://www.w3.org/2000/svg"
   xmlns:sodipodi="http://sodipodi.sourceforge.net/DTD/sodipodi-0.dtd"
   xmlns:inkscape="http://www.inkscape.org/namespaces/inkscape"
   viewBox="0 0 16 16"
   version="1.1"
   id="svg5"
   sodipodi:docname="edit_undo.svg"
   inkscape:version="1.0.2 (e86c870, 2021-01-15)"
   width="32"
   height="32">
  <metadata
     id="metadata9">
    <rdf:RDF>
      <cc:Work
         rdf:about="">
        <dc:format>image/svg+xml</dc:format>
        <dc:type
           rdf:resource="http://purl.org/dc/dcmitype/StillImage" />
        <dc:title></dc:title>
      </cc:Work>
    </rdf:RDF>
  </metadata>
  <sodipodi:namedview
     pagecolor="#ffffff"
     bordercolor="#666666"
     borderopacity="1"
     objecttolerance="10"
     gridtolerance="10"
     guidetolerance="10"
     inkscape:pageopacity="0"
     inkscape:pageshadow="2"
     inkscape:window-width="1912"
     inkscape:window-height="1918"
     id="namedview7"
     showgrid="false"
     inkscape:zoom="16"
     inkscape:cx="16.141009"
     inkscape:cy="24.005862"
     inkscape:window-x="1920"
     inkscape:window-y="0"
     inkscape:window-maximized="0"
     inkscape:current-layer="svg5"
     inkscape:snap-bbox="true"
     inkscape:bbox-nodes="true"
     inkscape:snap-page="true"
     inkscape:document-rotation="0"
     inkscape:snap-bbox-edge-midpoints="true" />
  <defs
     id="defs3051">
    <style
       type="text/css"
       id="current-color-scheme">
      .ColorScheme-Text {
        color:#232629;
      }
      </style>
  </defs>
  <path
     id="circle927"
     style="fill:#ffffff;fill-opacity:1;stroke-width:3.02362;stroke-linecap:round"
     d="M 12.242188 4.7578125 L 9.4140625 7.5859375 L 9 8 L 8 9 L 9 10 L 9.4140625 10.414062 L 12.242188 13.242188 L 13.65625 11.828125 L 11.828125 10 L 16 10 A 6 6 0 0 1 22 16 A 6 6 0 0 1 16 22 L 10.708984 22 L 10 22 L 10 24 L 15.927734 24 L 16 24 A 8 8 0 0 0 24 16 A 8 8 0 0 0 16 8 L 11.828125 8 L 13.65625 6.171875 L 12.242188 4.7578125 z "
     transform="scale(0.5)" />
</svg>
