<?xml version="1.0" encoding="UTF-8" standalone="no"?>
<svg
   xmlns:dc="http://purl.org/dc/elements/1.1/"
   xmlns:cc="http://creativecommons.org/ns#"
   xmlns:rdf="http://www.w3.org/1999/02/22-rdf-syntax-ns#"
   xmlns:svg="http://www.w3.org/2000/svg"
   xmlns="http://www.w3.org/2000/svg"
   xmlns:sodipodi="http://sodipodi.sourceforge.net/DTD/sodipodi-0.dtd"
   xmlns:inkscape="http://www.inkscape.org/namespaces/inkscape"
   viewBox="0 0 16 16"
   version="1.1"
   id="svg6"
   sodipodi:docname="file_move.svg"
   inkscape:version="0.92.4 (5da689c313, 2019-01-14)"
   width="32"
   height="32">
  <metadata
     id="metadata10">
    <rdf:RDF>
      <cc:Work
         rdf:about="">
        <dc:format>image/svg+xml</dc:format>
        <dc:type
           rdf:resource="http://purl.org/dc/dcmitype/StillImage" />
        <dc:title />
      </cc:Work>
    </rdf:RDF>
  </metadata>
  <sodipodi:namedview
     pagecolor="#ffffff"
     bordercolor="#666666"
     borderopacity="1"
     objecttolerance="10"
     gridtolerance="10"
     guidetolerance="10"
     inkscape:pageopacity="0"
     inkscape:pageshadow="2"
     inkscape:window-width="1916"
     inkscape:window-height="1629"
     id="namedview8"
     showgrid="false"
     inkscape:snap-page="true"
     inkscape:zoom="16"
     inkscape:cx="25.276713"
     inkscape:cy="10.515569"
     inkscape:window-x="3589"
     inkscape:window-y="242"
     inkscape:window-maximized="0"
     inkscape:current-layer="svg6" />
  <defs
     id="defs3051">
    <style
       type="text/css"
       id="current-color-scheme">
      .ColorScheme-Text {
        color:#232629;
      }
      </style>
  </defs>
  <path
     style="fill:#ffffff;fill-opacity:1;stroke:none"
     d="M 6,1 C 5.45,1 5,1.45 5,2 H 6 Z M 7,1 V 2 H 8 V 1 Z m 2,0 v 1 h 1 V 1 Z m 2,0 V 2 H 11.46875 12 V 1 Z m 2,0 v 1 h 1 C 14,1.45 13.55,1 13,1 Z M 4,3 C 3.45,3 3,3.45 3,4 v 10 c 0,0.55 0.45,1 1,1 h 4 1 l 3,-3 V 11 9 4 C 12,3.45 11.55,3 11,3 h -1 z m 9,0 v 1 h 1 V 3 Z M 4,4 h 6 1 v 5 2 H 8 v 3 H 4 Z m 9,1 v 1 h 1 V 5 Z m 0,2 v 1 h 1 V 7 Z m 0,2 v 2 l 1,-1 V 9 Z"
     id="path61"
     inkscape:connector-curvature="0" />
</svg>
