<?xml version="1.0" encoding="UTF-8" standalone="no"?>
<svg
   viewBox="0 0 16 16"
   version="1.1"
   id="svg6"
   sodipodi:docname="file_close.svg"
   inkscape:version="1.1 (c4e8f9e, 2021-05-24)"
   width="32"
   height="32"
   xmlns:inkscape="http://www.inkscape.org/namespaces/inkscape"
   xmlns:sodipodi="http://sodipodi.sourceforge.net/DTD/sodipodi-0.dtd"
   xmlns="http://www.w3.org/2000/svg"
   xmlns:svg="http://www.w3.org/2000/svg"
   xmlns:rdf="http://www.w3.org/1999/02/22-rdf-syntax-ns#"
   xmlns:cc="http://creativecommons.org/ns#"
   xmlns:dc="http://purl.org/dc/elements/1.1/">
  <metadata
     id="metadata10">
    <rdf:RDF>
      <cc:Work
         rdf:about="">
        <dc:format>image/svg+xml</dc:format>
        <dc:type
           rdf:resource="http://purl.org/dc/dcmitype/StillImage" />
      </cc:Work>
    </rdf:RDF>
  </metadata>
  <sodipodi:namedview
     pagecolor="#ffffff"
     bordercolor="#666666"
     borderopacity="1"
     objecttolerance="10"
     gridtolerance="10"
     guidetolerance="10"
     inkscape:pageopacity="0"
     inkscape:pageshadow="2"
     inkscape:window-width="1912"
     inkscape:window-height="2056"
     id="namedview8"
     showgrid="true"
     inkscape:snap-page="true"
     inkscape:zoom="16"
     inkscape:cx="41.21875"
     inkscape:cy="25.09375"
     inkscape:window-x="3840"
     inkscape:window-y="0"
     inkscape:window-maximized="0"
     inkscape:current-layer="svg6"
     inkscape:pagecheckerboard="0"
     showguides="false"
     inkscape:snap-object-midpoints="true">
    <inkscape:grid
       type="xygrid"
       id="grid841" />
  </sodipodi:namedview>
  <defs
     id="defs3051">
    <style
       type="text/css"
       id="current-color-scheme">
      .ColorScheme-Text {
        color:#232629;
      }
      </style>
  </defs>
  <path
     id="path876"
     style="fill:#ffffff;fill-opacity:0.99110693;stroke:none;stroke-width:2"
     d="M 7.9492188 4 C 6.8727267 4.0275174 6 4.9171876 6 6 L 6 26 C 6 27.1 6.9 28 8 28 L 16 28 L 18 28 L 24 22 L 24 20 L 24 16 L 24 15.025391 L 24 14 L 22 14 L 22 15.025391 L 22 16 L 22 20 L 16 20 L 16 26 L 8 26 L 8 6 L 16 6 L 18 4 L 8 4 C 7.98282 4 7.9663059 3.9995632 7.9492188 4 z M 19.414062 4 L 18 5.4140625 L 21.585938 9 L 18 12.585938 L 19.414062 14 L 23 10.414062 L 26.585938 14 L 28 12.585938 L 24.414062 9 L 28 5.4140625 L 26.585938 4 L 23 7.5859375 L 19.414062 4 z "
     transform="scale(0.5)" />
</svg>
