<?xml version="1.0" encoding="UTF-8" standalone="no"?>
<svg
   xmlns:dc="http://purl.org/dc/elements/1.1/"
   xmlns:cc="http://creativecommons.org/ns#"
   xmlns:rdf="http://www.w3.org/1999/02/22-rdf-syntax-ns#"
   xmlns:svg="http://www.w3.org/2000/svg"
   xmlns="http://www.w3.org/2000/svg"
   xmlns:sodipodi="http://sodipodi.sourceforge.net/DTD/sodipodi-0.dtd"
   xmlns:inkscape="http://www.inkscape.org/namespaces/inkscape"
   viewBox="0 0 16 16"
   version="1.1"
   id="svg6"
   sodipodi:docname="file_repair.svg"
   inkscape:version="1.0.2 (e86c870, 2021-01-15)"
   width="32"
   height="32">
  <metadata
     id="metadata10">
    <rdf:RDF>
      <cc:Work
         rdf:about="">
        <dc:format>image/svg+xml</dc:format>
        <dc:type
           rdf:resource="http://purl.org/dc/dcmitype/StillImage" />
        <dc:title></dc:title>
      </cc:Work>
    </rdf:RDF>
  </metadata>
  <sodipodi:namedview
     pagecolor="#ffffff"
     bordercolor="#666666"
     borderopacity="1"
     objecttolerance="10"
     gridtolerance="10"
     guidetolerance="10"
     inkscape:pageopacity="0"
     inkscape:pageshadow="2"
     inkscape:window-width="1912"
     inkscape:window-height="2056"
     id="namedview8"
     showgrid="false"
     inkscape:snap-page="true"
     inkscape:zoom="4"
     inkscape:cx="-7.5173706"
     inkscape:cy="90.204116"
     inkscape:window-x="1920"
     inkscape:window-y="0"
     inkscape:window-maximized="0"
     inkscape:current-layer="svg6"
     inkscape:document-rotation="0"
     inkscape:snap-bbox="true"
     inkscape:bbox-nodes="true"
     inkscape:bbox-paths="true"
     inkscape:snap-bbox-edge-midpoints="true" />
  <defs
     id="defs3051">
    <style
       type="text/css"
       id="current-color-scheme">
      .ColorScheme-Text {
        color:#232629;
      }
      </style>
  </defs>
  <path
     id="path37"
     style="fill:#ffffff;fill-opacity:1;stroke:none;stroke-width:1"
     d="m 4.9998423,2 c -0.55,0 -1,0.45 -1,1 v 5 l 1,-1 V 3 h 5.9999997 1 v 5 2 H 8.9998423 v 3 h -3 -1 -1 c 0,0.55 0.45,1 1,1 h 4 1 L 12.999842,11 V 10 8 3 c 0,-0.55 -0.45,-1 -1,-1 h -1 z m 3.928711,1.5 a 2.065638,2.0656361 0 0 0 -1.455078,0.6054687 2.065638,2.0656361 0 0 0 -0.53418,1.9941408 L 4.5994517,8.439453 A 2.065638,2.0656361 0 0 0 2.6053111,8.973633 2.065638,2.0656361 0 0 0 2.3816783,11.63086 l 0.4873046,-0.486329 0.00977,-0.01074 0.7207031,-0.719726 0.4863281,0.486328 -0.7197265,0.719726 -0.010742,0.01074 -0.4863282,0.487304 A 2.065638,2.0656361 0 0 0 5.5262095,11.894531 2.065638,2.0656361 0 0 0 6.0603893,9.9003905 L 8.4002328,7.560547 a 2.065638,2.0656361 0 0 0 1.9941402,-0.53418 2.065638,2.0656361 0 0 0 0.223633,-2.6572264 l -0.487304,0.4863281 -0.0098,0.010742 L 9.4002328,5.5859375 8.9139048,5.0996095 9.6336313,4.3798828 9.6443733,4.3691406 10.130702,3.881836 A 2.065638,2.0656361 0 0 0 8.9285533,3.5 Z M 8.8474983,4.1923828 8.1834363,4.8554687 7.9402718,5.0996095 9.4002328,6.5595705 9.6443733,6.316406 9.8875378,6.073242 10.308436,5.651367 a 1.3770909,1.3770921 82.35256 0 1 -0.4003907,0.8876955 1.3770909,1.3770921 82.35256 0 1 -0.887695,0.4003905 1.3770909,1.3770921 82.35256 0 1 -0.046875,0.00195 1.3770919,1.3770907 0 0 1 -0.010743,9.77e-4 1.3770909,1.3770921 82.35256 0 1 -0.046875,0 1.3770919,1.3770907 0 0 1 -0.010742,0 1.3770909,1.3770921 82.35256 0 1 -0.047852,-0.00195 1.3770919,1.3770907 0 0 1 -0.010743,-9.765e-4 1.3770909,1.3770921 82.35256 0 1 -0.046875,-0.00391 1.3770909,1.3770921 82.35256 0 1 -0.056641,-0.00684 1.3770909,1.3770921 82.35256 0 1 -0.05664,-0.00879 1.3770909,1.3770921 82.35256 0 1 -9.765e-4,0 1.3770919,1.3770907 0 0 1 -0.010743,-0.00195 1.3770909,1.3770921 82.35256 0 1 -0.045898,-0.00977 1.3770909,1.3770921 82.35256 0 1 -0.056641,-0.014649 1.3770909,1.3770921 82.35256 0 1 -0.054687,-0.016601 1.3770909,1.3770921 82.35256 0 1 -0.109375,-0.039063 1.3770909,1.3770921 82.35256 0 1 -0.15625,-0.076172 1.3770919,1.3770907 0 0 1 -0.00879,-0.00488 1.3770909,1.3770921 82.35256 0 1 -0.00781,-0.00586 v 9.765e-4 l -0.498047,0.4970705 -1.988281,1.988281 -0.4970704,0.498047 h -9.765e-4 a 1.3770909,1.3770921 82.35256 0 1 0.1210937,0.2626955 1.3770909,1.3770921 82.35256 0 1 0.016602,0.055664 1.3770909,1.3770921 82.35256 0 1 0.053711,0.341797 1.3770909,1.3770921 82.35256 0 1 0,0.05762 1.3770909,1.3770921 82.35256 0 1 0,9.77e-4 1.3770909,1.3770921 82.35256 0 1 -0.00195,0.05762 1.3770909,1.3770921 82.35256 0 1 0,0.0088 H 5.4392954 A 1.3770909,1.3770921 82.35256 0 1 5.0389048,11.408203 1.3770909,1.3770921 82.35256 0 1 4.1521861,11.807617 L 4.5730845,11.387696 4.8162486,11.144531 5.0594126,10.900391 3.5994517,9.4404295 3.112147,9.926758 2.6912486,10.348633 A 1.3770909,1.3770921 82.35256 0 1 3.0916392,9.4609375 1.3770909,1.3770921 82.35256 0 1 4.0838267,9.057617 a 1.3770909,1.3770921 82.35256 0 1 0.041992,9.77e-4 1.3770909,1.3770921 82.35256 0 1 0.012695,9.765e-4 1.3770909,1.3770921 82.35256 0 1 0.00977,9.765e-4 1.3770909,1.3770921 82.35256 0 1 0.051758,0.00391 1.3770909,1.3770921 82.35256 0 1 0.056641,0.00684 1.3770909,1.3770921 82.35256 0 1 0.041992,0.00586 1.3770909,1.3770921 82.35256 0 1 0.00684,0.00195 1.3770909,1.3770921 82.35256 0 1 0.046875,0.00879 1.3770909,1.3770921 82.35256 0 1 0.00488,9.765e-4 1.3770909,1.3770921 82.35256 0 1 0.037109,0.00977 1.3770909,1.3770921 82.35256 0 1 0.027344,0.00684 1.3770909,1.3770921 82.35256 0 1 0.018555,0.00488 1.3770909,1.3770921 82.35256 0 1 0.035156,0.010742 1.3770909,1.3770921 82.35256 0 1 0.020508,0.00586 1.3770909,1.3770921 82.35256 0 1 0.041992,0.014648 1.3770909,1.3770921 82.35256 0 1 0.050781,0.019531 1.3770909,1.3770921 82.35256 0 1 0.013672,0.00586 1.3770909,1.3770921 82.35256 0 1 0.039063,0.017578 1.3770909,1.3770921 82.35256 0 1 0.00977,0.00488 1.3770909,1.3770921 82.35256 0 1 0.041016,0.019531 1.3770909,1.3770921 82.35256 0 1 0.041016,0.022461 1.3770909,1.3770921 82.35256 0 1 0.03125,0.017578 l 0.4980468,-0.498047 1.9882812,-1.988281 0.4970705,-0.498047 h 9.765e-4 A 1.3770919,1.3770907 0 0 1 7.6277718,6.001953 1.3770909,1.3770921 82.35256 0 1 7.6111703,5.946289 1.3770919,1.3770907 0 0 1 7.5574593,5.604492 a 1.3770909,1.3770921 82.35256 0 1 0,-0.058593 1.3770919,1.3770907 0 0 1 0.00195,-0.057618 1.3770919,1.3770907 0 0 1 0,-0.00879 1.3770909,1.3770921 82.35256 0 1 0.401367,-0.8876951 1.3770909,1.3770921 82.35256 0 1 0.8867185,-0.3994141 z" />
</svg>
