<?xml version="1.0" encoding="UTF-8" standalone="no"?>
<svg
   xmlns:dc="http://purl.org/dc/elements/1.1/"
   xmlns:cc="http://creativecommons.org/ns#"
   xmlns:rdf="http://www.w3.org/1999/02/22-rdf-syntax-ns#"
   xmlns:svg="http://www.w3.org/2000/svg"
   xmlns="http://www.w3.org/2000/svg"
   xmlns:sodipodi="http://sodipodi.sourceforge.net/DTD/sodipodi-0.dtd"
   xmlns:inkscape="http://www.inkscape.org/namespaces/inkscape"
   viewBox="0 0 16 16"
   version="1.1"
   id="svg5"
   sodipodi:docname="folder_open_new.svg"
   inkscape:version="0.92.4 (5da689c313, 2019-01-14)"
   width="32"
   height="32">
  <metadata
     id="metadata9">
    <rdf:RDF>
      <cc:Work
         rdf:about="">
        <dc:format>image/svg+xml</dc:format>
        <dc:type
           rdf:resource="http://purl.org/dc/dcmitype/StillImage" />
        <dc:title />
      </cc:Work>
    </rdf:RDF>
  </metadata>
  <sodipodi:namedview
     pagecolor="#ffffff"
     bordercolor="#666666"
     borderopacity="1"
     objecttolerance="10"
     gridtolerance="10"
     guidetolerance="10"
     inkscape:pageopacity="0"
     inkscape:pageshadow="2"
     inkscape:window-width="1554"
     inkscape:window-height="1641"
     id="namedview7"
     showgrid="false"
     inkscape:zoom="20.85965"
     inkscape:cx="27.166082"
     inkscape:cy="3.1171134"
     inkscape:window-x="3609"
     inkscape:window-y="257"
     inkscape:window-maximized="0"
     inkscape:current-layer="svg5"
     inkscape:snap-bbox="true"
     inkscape:snap-bbox-midpoints="true" />
  <defs
     id="defs3051">
    <style
       type="text/css"
       id="current-color-scheme">
      .ColorScheme-Text {
        color:#232629;
      }
      </style>
  </defs>
  <path
     style="fill:#ffffff;fill-opacity:1;stroke:none;stroke-width:1"
     d="M 3,2 C 2.45,2 2,2.45 2,3 v 10 c 0,0.55 0.45,1 1,1 H 9 V 13 H 3 V 8 H 5 L 6.998047,6 H 13 v 3 h 1 V 5 C 14,4.45 13.55,4 13,4 H 9.0078125 l -2,-2 L 7,2.0078125 V 2 Z m 7.683594,7.0839845 -0.867188,0.5 0.636719,1.1015625 L 10.634766,11 H 9.7109375 9 v 1 h 1.271485 0.361328 l -0.460938,0.798828 -0.355469,0.617188 0.867188,0.5 0.634766,-1.101563 0.18164,-0.3125 0.816406,1.414063 0.867188,-0.5 L 13.046875,13.179688 12.365235,12 H 14 v -1 h -0.271484 -1.361328 l 0.816406,-1.4160155 -0.867188,-0.5 -0.134765,0.236328 L 11.5,10.498047 11.039063,9.701172 Z"
     id="rect4182"
     inkscape:connector-curvature="0" />
</svg>
