<?xml version="1.0" encoding="UTF-8" standalone="no"?>
<svg
   viewBox="0 0 16 16"
   version="1.1"
   id="svg5"
   sodipodi:docname="folder_open_link.svg"
   inkscape:version="1.1 (c4e8f9e, 2021-05-24)"
   width="32"
   height="32"
   xmlns:inkscape="http://www.inkscape.org/namespaces/inkscape"
   xmlns:sodipodi="http://sodipodi.sourceforge.net/DTD/sodipodi-0.dtd"
   xmlns="http://www.w3.org/2000/svg"
   xmlns:svg="http://www.w3.org/2000/svg"
   xmlns:rdf="http://www.w3.org/1999/02/22-rdf-syntax-ns#"
   xmlns:cc="http://creativecommons.org/ns#"
   xmlns:dc="http://purl.org/dc/elements/1.1/">
  <metadata
     id="metadata9">
    <rdf:RDF>
      <cc:Work
         rdf:about="">
        <dc:format>image/svg+xml</dc:format>
        <dc:type
           rdf:resource="http://purl.org/dc/dcmitype/StillImage" />
      </cc:Work>
    </rdf:RDF>
  </metadata>
  <sodipodi:namedview
     pagecolor="#ffffff"
     bordercolor="#666666"
     borderopacity="1"
     objecttolerance="10"
     gridtolerance="10"
     guidetolerance="10"
     inkscape:pageopacity="0"
     inkscape:pageshadow="2"
     inkscape:window-width="1554"
     inkscape:window-height="1641"
     id="namedview7"
     showgrid="true"
     inkscape:zoom="16"
     inkscape:cx="35.84375"
     inkscape:cy="22.03125"
     inkscape:window-x="3609"
     inkscape:window-y="257"
     inkscape:window-maximized="0"
     inkscape:current-layer="svg5"
     inkscape:snap-bbox="true"
     inkscape:snap-bbox-edge-midpoints="true"
     inkscape:pagecheckerboard="0">
    <inkscape:grid
       type="xygrid"
       id="grid845" />
  </sodipodi:namedview>
  <defs
     id="defs3051">
    <style
       type="text/css"
       id="current-color-scheme">
      .ColorScheme-Text {
        color:#232629;
      }
      </style>
  </defs>
  <path
     id="path13"
     style="fill:#ffffff;fill-opacity:1;stroke:none;stroke-width:2"
     d="M 6 4 C 4.9 4 4 4.9 4 6 L 4 26 C 4 27.1 4.9 28 6 28 L 18 28 L 26 28 C 27.1 28 28 27.1 28 26 L 28 24 L 26 26 L 25 26 L 18 26 L 6 26 L 6 16 L 10 16 L 13.996094 12 L 25 12 L 26 12 L 28 14 L 28 12 L 28 10 C 28 8.9 27.1 8 26 8 L 18.015625 8 L 14.015625 4 L 14 4.015625 L 14 4 L 6 4 z M 17.96875 15 A 3.9603852 4.0039488 0 0 0 15.449219 15.917969 A 3.9603852 4.0039488 0 0 0 14.939453 16.433594 A 3.9603852 4.0039488 0 0 0 14.917969 16.457031 A 3.9603852 4.0039488 0 0 0 14.542969 17.007812 A 3.9603852 4.0039488 0 0 0 14.472656 17.128906 A 3.9603852 4.0039488 0 0 0 14.390625 17.298828 A 3.9603852 4.0039488 0 0 0 14.324219 17.441406 C 14.325912 17.441654 14.326425 17.441194 14.328125 17.441406 A 3.9603852 4.0039488 0 0 0 14.009766 19.003906 A 3.9603852 4.0039488 0 0 0 14.017578 19.236328 A 9.6744506 9.7809216 0 0 0 14.021484 19.238281 A 3.9603852 4.0039488 0 0 0 17.96875 23.007812 L 21.193359 23.007812 A 3.9603852 4.0039488 0 0 0 25.154297 19.003906 A 3.9603852 4.0039488 0 0 0 25.076172 18.224609 L 23.4375 18.224609 A 2.376231 2.4023696 0 0 1 23.570312 19.003906 A 2.376231 2.4023696 0 0 1 21.277344 21.402344 L 19.644531 21.402344 A 3.9603852 4.0039488 0 0 0 19.648438 21.40625 L 17.96875 21.40625 A 2.376231 2.4023696 0 0 1 15.675781 19.632812 A 9.6744506 9.7809216 0 0 0 15.677734 19.632812 A 2.376231 2.4023696 0 0 1 15.625 19.398438 A 2.376231 2.4023696 0 0 1 15.625 19.392578 A 2.376231 2.4023696 0 0 1 15.599609 19.160156 A 2.376231 2.4023696 0 0 1 15.59375 19.003906 A 2.376231 2.4023696 0 0 1 15.605469 18.763672 A 2.376231 2.4023696 0 0 1 15.804688 18.021484 A 2.376231 2.4023696 0 0 1 15.8125 18.003906 A 2.376231 2.4023696 0 0 1 17.767578 16.613281 A 5.5725876 5.633885 0 0 1 18.892578 15 L 17.96875 15 z M 22.806641 15 A 3.9603852 4.0039488 0 0 0 21.929688 15.103516 L 21.929688 15.107422 A 3.9603852 4.0039488 0 0 0 21.833984 15.132812 A 3.9603852 4.0039488 0 0 0 21.824219 15.130859 A 3.9603852 4.0039488 0 0 0 21.701172 15.167969 A 3.9603852 4.0039488 0 0 0 21.554688 15.214844 A 3.9603852 4.0039488 0 0 0 21.332031 15.296875 A 3.9603852 4.0039488 0 0 0 21.167969 15.367188 A 3.9603852 4.0039488 0 0 0 20.976562 15.462891 A 3.9603852 4.0039488 0 0 0 20.826172 15.546875 A 3.9603852 4.0039488 0 0 0 20.625 15.671875 A 3.9603852 4.0039488 0 0 0 20.505859 15.753906 A 3.9603852 4.0039488 0 0 0 20.277344 15.933594 A 3.9603852 4.0039488 0 0 0 20.214844 15.986328 A 3.9603852 4.0039488 0 0 0 19.990234 16.199219 A 3.9603852 4.0039488 0 0 0 19.921875 16.271484 A 3.9603852 4.0039488 0 0 0 19.728516 16.494141 A 3.9603852 4.0039488 0 0 0 19.644531 16.601562 L 19.646484 16.601562 A 3.9603852 4.0039488 0 0 0 18.845703 19.003906 A 3.9603852 4.0039488 0 0 0 18.921875 19.773438 L 20.558594 19.773438 A 2.376231 2.4023696 0 0 1 20.429688 19.003906 A 2.376231 2.4023696 0 0 1 22.806641 16.601562 L 26.03125 16.601562 A 2.376231 2.4023696 0 0 1 28.40625 19.003906 A 2.376231 2.4023696 0 0 1 26.03125 21.40625 L 25.880859 21.40625 A 5.5725876 5.633885 0 0 1 24.759766 23.007812 L 26.03125 23.007812 A 3.9603852 4.0039488 0 0 0 29.990234 19.003906 A 3.9603852 4.0039488 0 0 0 26.03125 15 L 22.806641 15 z "
     transform="scale(0.5)" />
</svg>
