<?xml version="1.0" encoding="UTF-8" standalone="no"?>
<svg
   xmlns:dc="http://purl.org/dc/elements/1.1/"
   xmlns:cc="http://creativecommons.org/ns#"
   xmlns:rdf="http://www.w3.org/1999/02/22-rdf-syntax-ns#"
   xmlns:svg="http://www.w3.org/2000/svg"
   xmlns="http://www.w3.org/2000/svg"
   xmlns:sodipodi="http://sodipodi.sourceforge.net/DTD/sodipodi-0.dtd"
   xmlns:inkscape="http://www.inkscape.org/namespaces/inkscape"
   viewBox="0 0 16 16"
   version="1.1"
   id="svg5"
   sodipodi:docname="format_text_align-center.svg"
   inkscape:version="1.0.2 (e86c870, 2021-01-15)"
   width="32"
   height="32">
  <metadata
     id="metadata9">
    <rdf:RDF>
      <cc:Work
         rdf:about="">
        <dc:format>image/svg+xml</dc:format>
        <dc:type
           rdf:resource="http://purl.org/dc/dcmitype/StillImage" />
        <dc:title />
      </cc:Work>
    </rdf:RDF>
  </metadata>
  <sodipodi:namedview
     pagecolor="#ffffff"
     bordercolor="#666666"
     borderopacity="1"
     objecttolerance="10"
     gridtolerance="10"
     guidetolerance="10"
     inkscape:pageopacity="0"
     inkscape:pageshadow="2"
     inkscape:window-width="1912"
     inkscape:window-height="1694"
     id="namedview7"
     showgrid="false"
     inkscape:zoom="22.627417"
     inkscape:cx="19.042911"
     inkscape:cy="15.380527"
     inkscape:window-x="1920"
     inkscape:window-y="0"
     inkscape:window-maximized="0"
     inkscape:current-layer="svg5"
     inkscape:snap-bbox="true"
     inkscape:bbox-nodes="true"
     inkscape:snap-page="true"
     inkscape:document-rotation="0"
     inkscape:snap-bbox-edge-midpoints="true" />
  <defs
     id="defs3051">
    <style
       type="text/css"
       id="current-color-scheme">
      .ColorScheme-Text {
        color:#232629;
      }
      </style>
  </defs>
  <path
     id="path850"
     style="fill:#ffffff;fill-opacity:1;stroke:none;stroke-width:2"
     d="M 4 4 L 4 6 L 8 6 L 10 6 L 28 6 L 28 4 L 10 4 L 8 4 L 4 4 z M 8 8 L 8 10 L 24 10 L 24 8 L 8 8 z M 7 12 L 7 14 L 25 14 L 25 12 L 7 12 z M 12 16 L 12 18 L 20 18 L 20 16 L 12 16 z M 10 20 L 10 22 L 22 22 L 22 20 L 10 20 z M 14 24 L 14 26 L 18 26 L 18 24 L 14 24 z "
     transform="scale(0.5)" />
</svg>
