<?xml version="1.0" encoding="UTF-8" standalone="no"?>
<svg
   viewBox="0 0 16 16"
   version="1.1"
   id="svg5"
   sodipodi:docname="marks_unmark-all.svg"
   inkscape:version="1.1 (c4e8f9e, 2021-05-24)"
   width="32"
   height="32"
   xmlns:inkscape="http://www.inkscape.org/namespaces/inkscape"
   xmlns:sodipodi="http://sodipodi.sourceforge.net/DTD/sodipodi-0.dtd"
   xmlns="http://www.w3.org/2000/svg"
   xmlns:svg="http://www.w3.org/2000/svg"
   xmlns:rdf="http://www.w3.org/1999/02/22-rdf-syntax-ns#"
   xmlns:cc="http://creativecommons.org/ns#"
   xmlns:dc="http://purl.org/dc/elements/1.1/">
  <metadata
     id="metadata9">
    <rdf:RDF>
      <cc:Work
         rdf:about="">
        <dc:format>image/svg+xml</dc:format>
        <dc:type
           rdf:resource="http://purl.org/dc/dcmitype/StillImage" />
      </cc:Work>
    </rdf:RDF>
  </metadata>
  <sodipodi:namedview
     pagecolor="#ffffff"
     bordercolor="#666666"
     borderopacity="1"
     objecttolerance="10"
     gridtolerance="10"
     guidetolerance="10"
     inkscape:pageopacity="0"
     inkscape:pageshadow="2"
     inkscape:window-width="1912"
     inkscape:window-height="1358"
     id="namedview7"
     showgrid="true"
     inkscape:zoom="14.75"
     inkscape:cx="5.3220339"
     inkscape:cy="4.7457627"
     inkscape:window-x="3443"
     inkscape:window-y="227"
     inkscape:window-maximized="0"
     inkscape:current-layer="svg5"
     inkscape:snap-bbox="true"
     inkscape:bbox-nodes="true"
     inkscape:snap-page="true"
     inkscape:pagecheckerboard="0">
    <inkscape:grid
       type="xygrid"
       id="grid845" />
  </sodipodi:namedview>
  <defs
     id="defs3051">
    <style
       type="text/css"
       id="current-color-scheme">
      .ColorScheme-Text {
        color:#232629;
      }
      </style>
  </defs>
  <path
     id="path1448-3"
     style="fill:#ffffff;fill-opacity:1;stroke:none;stroke-width:2"
     d="M 14 2 L 2 14 L 14 14 L 14 2 z M 30 2 L 18 14 L 30 14 L 30 2 z M 12 6.7773438 L 12 12 L 6.7773438 12 L 12 6.7773438 z M 28 6.7773438 L 28 12 L 22.777344 12 L 28 6.7773438 z M 14 18 L 2 30 L 14 30 L 14 18 z M 30 18 L 18 30 L 30 30 L 30 18 z M 12 22.777344 L 12 28 L 6.7773438 28 L 12 22.777344 z M 28 22.777344 L 28 28 L 22.777344 28 L 28 22.777344 z "
     transform="scale(0.5)" />
</svg>
