<?xml version="1.0" encoding="UTF-8" standalone="no"?>
<svg
   xmlns:dc="http://purl.org/dc/elements/1.1/"
   xmlns:cc="http://creativecommons.org/ns#"
   xmlns:rdf="http://www.w3.org/1999/02/22-rdf-syntax-ns#"
   xmlns:svg="http://www.w3.org/2000/svg"
   xmlns="http://www.w3.org/2000/svg"
   xmlns:sodipodi="http://sodipodi.sourceforge.net/DTD/sodipodi-0.dtd"
   xmlns:inkscape="http://www.inkscape.org/namespaces/inkscape"
   viewBox="0 0 16 16"
   version="1.1"
   id="svg5"
   sodipodi:docname="saved_views_rename.svg"
   inkscape:version="0.92.4 (5da689c313, 2019-01-14)"
   width="32"
   height="32">
  <metadata
     id="metadata9">
    <rdf:RDF>
      <cc:Work
         rdf:about="">
        <dc:format>image/svg+xml</dc:format>
        <dc:type
           rdf:resource="http://purl.org/dc/dcmitype/StillImage" />
        <dc:title></dc:title>
      </cc:Work>
    </rdf:RDF>
  </metadata>
  <sodipodi:namedview
     pagecolor="#ffffff"
     bordercolor="#666666"
     borderopacity="1"
     objecttolerance="10"
     gridtolerance="10"
     guidetolerance="10"
     inkscape:pageopacity="0"
     inkscape:pageshadow="2"
     inkscape:window-width="1554"
     inkscape:window-height="1641"
     id="namedview7"
     showgrid="false"
     inkscape:zoom="22.627417"
     inkscape:cx="8.0773344"
     inkscape:cy="13.86385"
     inkscape:window-x="4115"
     inkscape:window-y="214"
     inkscape:window-maximized="0"
     inkscape:current-layer="svg5"
     inkscape:snap-bbox="true"
     inkscape:snap-bbox-edge-midpoints="false"
     inkscape:bbox-nodes="true" />
  <defs
     id="defs3051">
    <style
       type="text/css"
       id="current-color-scheme">
      .ColorScheme-Text {
        color:#232629;
      }
      </style>
  </defs>
  <path
     style="fill:#ffffff;fill-opacity:1;stroke:none;stroke-width:2"
     d="M 6 4 C 4.9 4 4 4.9 4 6 L 4 26 C 4 27.1 4.9 28 6 28 L 12.929688 28 L 12.929688 26 L 6 26 L 6 16 L 10 16 L 13.996094 12 L 26 12 L 28 12 L 28 10 C 28 8.9 27.1 8 26 8 L 18.015625 8 L 14.015625 4 L 14 4.015625 L 14 4 L 6 4 z M 15.996094 14.865234 A 9.1357116 9.1357222 0 0 0 8 19.603516 C 8.13089 19.97275 8.3626984 20.290297 8.6660156 20.525391 A 8.1206328 8.120642 0 0 1 15.996094 15.878906 A 4.0603192 4.0603204 0 0 0 11.935547 19.939453 A 4.0603192 4.0603204 0 0 0 13.535156 23.164062 L 13.535156 22.59375 L 13.945312 22.183594 A 3.0452394 3.0452402 0 0 1 12.951172 19.939453 A 3.0452394 3.0452402 0 0 1 15.996094 16.894531 A 3.0452394 3.0452402 0 0 1 18.240234 17.888672 L 18.958984 17.169922 A 4.0603192 4.0603204 0 0 0 16.351562 15.896484 A 8.1206328 8.120642 0 0 1 19.460938 16.667969 L 20.220703 15.908203 A 9.1357116 9.1357222 0 0 0 15.996094 14.865234 z M 15.996094 17.910156 A 2.0301598 2.0301602 0 0 0 13.964844 19.939453 A 2.0301598 2.0301602 0 0 0 14.662109 21.466797 L 16.398438 19.730469 A 1.0150798 1.01508 0 0 1 15.996094 18.923828 A 1.0150798 1.01508 0 0 1 16.59375 18 A 2.0301598 2.0301602 0 0 0 15.996094 17.910156 z M 26 22 L 26 24 L 26 26 L 22.941406 26 L 22.941406 28 L 26 28 C 27.1 28 28 27.1 28 26 L 28 24 L 28 22 L 26 22 z "
     transform="scale(0.5)"
     id="path30" />
  <path
     inkscape:connector-curvature="0"
     style="fill:#ffffff;fill-opacity:1;stroke:none;stroke-width:1"
     d="m 13.003862,6.4609357 -1,0.9960938 0.002,0.00196 -4.5410157,4.5410155 V 14 h 2 l 0.00195,-0.0019 0.0039,0.0019 0.7011717,-0.703125 -0.0039,-0.0039 4.125,-4.134765 L 15,8.4511785 Z m -0.302735,1.6894531 0.582032,0.5820314 0.02539,0.023435 -3.8378907,3.8378908 -0.703125,0.703125 -0.00195,0.0039 -0.01953,-0.01953 -0.5820315,-0.582032 z"
     id="path10" />
</svg>
