<?xml version="1.0" encoding="UTF-8" standalone="no"?>
<svg
   xmlns:dc="http://purl.org/dc/elements/1.1/"
   xmlns:cc="http://creativecommons.org/ns#"
   xmlns:rdf="http://www.w3.org/1999/02/22-rdf-syntax-ns#"
   xmlns:svg="http://www.w3.org/2000/svg"
   xmlns="http://www.w3.org/2000/svg"
   xmlns:sodipodi="http://sodipodi.sourceforge.net/DTD/sodipodi-0.dtd"
   xmlns:inkscape="http://www.inkscape.org/namespaces/inkscape"
   viewBox="0 0 16 16"
   version="1.1"
   id="svg5"
   sodipodi:docname="saved_views_remove.svg"
   inkscape:version="0.92.4 (5da689c313, 2019-01-14)"
   width="32"
   height="32">
  <metadata
     id="metadata9">
    <rdf:RDF>
      <cc:Work
         rdf:about="">
        <dc:format>image/svg+xml</dc:format>
        <dc:type
           rdf:resource="http://purl.org/dc/dcmitype/StillImage" />
        <dc:title></dc:title>
      </cc:Work>
    </rdf:RDF>
  </metadata>
  <sodipodi:namedview
     pagecolor="#ffffff"
     bordercolor="#666666"
     borderopacity="1"
     objecttolerance="10"
     gridtolerance="10"
     guidetolerance="10"
     inkscape:pageopacity="0"
     inkscape:pageshadow="2"
     inkscape:window-width="1554"
     inkscape:window-height="1641"
     id="namedview7"
     showgrid="false"
     inkscape:zoom="16"
     inkscape:cx="-5.3950519"
     inkscape:cy="23.953178"
     inkscape:window-x="3664"
     inkscape:window-y="261"
     inkscape:window-maximized="0"
     inkscape:current-layer="svg5"
     inkscape:snap-bbox="true"
     inkscape:snap-bbox-edge-midpoints="false"
     inkscape:bbox-nodes="true" />
  <defs
     id="defs3051">
    <style
       type="text/css"
       id="current-color-scheme">
      .ColorScheme-Text {
        color:#232629;
      }
      </style>
  </defs>
  <path
     inkscape:connector-curvature="0"
     style="color:#232629;fill:#ffffff;fill-opacity:1;stroke:none;stroke-width:1"
     d="M 9.7070305,9 8.9999995,9.707031 10.792969,11.5 8.9999995,13.292969 9.7070305,14 11.5,12.207031 13.292968,14 14,13.292969 12.207031,11.5 14,9.707031 13.292968,9 11.5,10.792969 Z"
     id="path4-3" />
  <path
     style="fill:#ffffff;fill-opacity:1;stroke:none;stroke-width:2"
     d="M 6 4 C 4.9 4 4 4.9 4 6 L 4 26 C 4 27.1 4.9 28 6 28 L 16 28 L 16 26 L 6 26 L 6 16 L 10 16 L 13.996094 12 L 26 12 L 26 16 L 28 16 L 28 10 C 28 8.9 27.1 8 26 8 L 18.015625 8 L 14.015625 4 L 14 4.015625 L 14 4 L 6 4 z M 15.996094 14.865234 A 9.1357116 9.1357222 0 0 0 8 19.603516 C 8.13089 19.97275 8.3626984 20.290297 8.6660156 20.525391 A 8.1206328 8.120642 0 0 1 15.996094 15.878906 A 4.0603192 4.0603204 0 0 0 11.935547 19.939453 A 4.0603192 4.0603204 0 0 0 15.996094 24 A 4.0603192 4.0603204 0 0 0 16 24 L 16 22.984375 A 3.0452394 3.0452402 0 0 1 15.996094 22.984375 A 3.0452394 3.0452402 0 0 1 12.951172 19.939453 A 3.0452394 3.0452402 0 0 1 15.996094 16.894531 A 3.0452394 3.0452402 0 0 1 16 16.894531 L 16 16 L 16.951172 16 A 4.0603192 4.0603204 0 0 0 16.351562 15.896484 A 8.1206328 8.120642 0 0 1 17.287109 16 L 18 16 L 20 16 L 20 15.794922 A 9.1357116 9.1357222 0 0 0 15.996094 14.865234 z M 15.996094 17.910156 A 2.0301598 2.0301602 0 0 0 13.964844 19.939453 A 2.0301598 2.0301602 0 0 0 15.996094 21.970703 A 2.0301598 2.0301602 0 0 0 16 21.970703 L 16 20 L 16 19.009766 A 1.0150798 1.01508 0 0 1 15.996094 18.923828 A 1.0150798 1.01508 0 0 1 16 18.855469 L 16 18 L 16 17.910156 A 2.0301598 2.0301602 0 0 0 15.996094 17.910156 z "
     transform="scale(0.5)"
     id="path30" />
</svg>
