<?xml version="1.0" encoding="UTF-8" standalone="no"?>
<svg
   viewBox="0 0 16 16"
   version="1.1"
   id="svg5"
   sodipodi:docname="text_keyword.svg"
   inkscape:version="1.1 (c4e8f9e, 2021-05-24)"
   width="32"
   height="32"
   xmlns:inkscape="http://www.inkscape.org/namespaces/inkscape"
   xmlns:sodipodi="http://sodipodi.sourceforge.net/DTD/sodipodi-0.dtd"
   xmlns="http://www.w3.org/2000/svg"
   xmlns:svg="http://www.w3.org/2000/svg"
   xmlns:rdf="http://www.w3.org/1999/02/22-rdf-syntax-ns#"
   xmlns:cc="http://creativecommons.org/ns#"
   xmlns:dc="http://purl.org/dc/elements/1.1/">
  <metadata
     id="metadata9">
    <rdf:RDF>
      <cc:Work
         rdf:about="">
        <dc:format>image/svg+xml</dc:format>
        <dc:type
           rdf:resource="http://purl.org/dc/dcmitype/StillImage" />
      </cc:Work>
    </rdf:RDF>
  </metadata>
  <sodipodi:namedview
     pagecolor="#ffffff"
     bordercolor="#666666"
     borderopacity="1"
     objecttolerance="10"
     gridtolerance="10"
     guidetolerance="10"
     inkscape:pageopacity="0"
     inkscape:pageshadow="2"
     inkscape:window-width="1605"
     inkscape:window-height="1706"
     id="namedview7"
     showgrid="true"
     inkscape:zoom="32"
     inkscape:cx="19.21875"
     inkscape:cy="18.65625"
     inkscape:window-x="3664"
     inkscape:window-y="89"
     inkscape:window-maximized="0"
     inkscape:current-layer="svg5"
     inkscape:snap-bbox="true"
     inkscape:bbox-nodes="true"
     inkscape:snap-page="false"
     inkscape:pagecheckerboard="0"
     inkscape:snap-global="true"
     inkscape:object-nodes="false"
     inkscape:snap-nodes="false">
    <inkscape:grid
       type="xygrid"
       id="grid825" />
  </sodipodi:namedview>
  <defs
     id="defs3051">
    <rect
       x="-100"
       y="-85"
       width="160"
       height="160"
       id="rect7561" />
    <rect
       x="-20"
       y="3"
       width="103"
       height="43"
       id="rect5113" />
    <style
       type="text/css"
       id="current-color-scheme">
      .ColorScheme-Text {
        color:#232629;
      }
      </style>
  </defs>
  <path
     id="path30313"
     style="color:#000000;font-size:40px;font-family:Rye;-inkscape-font-specification:'OpenSymbol, Normal';letter-spacing:0px;word-spacing:0px;white-space:pre;fill:#ffffff;stroke-width:0.5;-inkscape-stroke:none;fill-opacity:0.99445134"
     d="m 4.3136386,2.0000001 c -0.5192324,0 -0.9162925,0.1584424 -1.1911801,0.4753268 C 2.8437525,2.7883937 2.7043997,3.208361 2.7043997,3.7352292 l 0.011453,3.4590043 c 0,0.4352386 -0.1679871,0.681493 -0.5039609,0.7387611 L 2,7.9444486 v 0.1889855 c 0.4772356,0.00381 0.7158535,0.2500714 0.7158535,0.7387606 L 2.7044,12.331199 c 0,0.519231 0.1259905,0.933472 0.3779709,1.242721 0.2672518,0.347427 0.6566759,0.521142 1.1682727,0.521142 h 0.062995 V 13.906076 H 4.2850045 C 3.5519693,13.89844 3.1778167,13.432658 3.1625462,12.50873 L 3.1167314,9.2272577 C 3.1052779,8.6698463 2.8552063,8.2746952 2.3665171,8.0418044 2.8552051,7.8012771 3.1052767,7.4099443 3.1167314,6.8678041 L 3.1625462,3.574878 C 3.1739999,2.8685689 3.3992551,2.4314212 3.838312,2.2634344 l 0.2118925,-0.057268 0.2634341,-0.01718 z m 7.3727184,0 v 0.1889855 c 0.767395,0 1.151092,0.4581463 1.151092,1.3744387 0,0.366517 -0.01145,0.9162925 -0.03436,1.6493265 -0.02291,0.7406697 -0.03436,1.2923544 -0.03436,1.6550533 0,0.5421402 0.25389,0.933473 0.761669,1.1740003 -0.507779,0.2634342 -0.761669,0.6547671 -0.761669,1.1739998 0,0.370334 0.01145,0.9182008 0.03436,1.6435998 0.0229,0.733033 0.03436,1.282809 0.03436,1.649326 0,0.820846 -0.295885,1.2809 -0.887658,1.380165 l -0.263434,0.01718 v 0.188982 c 1.072827,0 1.609239,-0.587954 1.609239,-1.763863 0,-0.408514 -0.02482,-0.983105 -0.07444,-1.723777 -0.04582,-0.763576 -0.06872,-1.3381679 -0.06872,-1.7237743 0,-0.4390569 0.198529,-0.6853107 0.59559,-0.7387605 l 0.25198,-0.011453 V 7.9444487 h -0.09163 c -0.503961,0 -0.75594,-0.2500713 -0.75594,-0.7502146 0,-0.3817882 0.0229,-0.9563801 0.06872,-1.7237753 0.04964,-0.733034 0.07445,-1.307626 0.07445,-1.7237754 0,-0.5154144 -0.133626,-0.9353821 -0.400877,-1.2599023 -0.263434,-0.324521 -0.647132,-0.486781 -1.151093,-0.486781 z M 9.024528,3.4901208 C 8.3755483,3.6308634 7.7655948,3.7364432 7.1948059,3.8068145 v 0.1878399 h 0.1059462 c 0.4535036,0 0.6839823,0.097738 0.6918012,0.2932137 -0.01564,0.1329235 -0.082008,0.406246 -0.1992938,0.8206545 C 7.683793,5.5151121 7.6210575,5.7576395 7.6054199,5.8358298 L 6.1158715,11.500808 H 6.9955127 L 7.5584593,9.3898997 8.0509668,9.0142198 c 0.2736662,0.742808 0.5240355,1.3213932 0.7507874,1.7358012 0.2267521,0.40659 0.3987019,0.656959 0.5159875,0.750787 0.1172854,0.08601 0.2385491,0.128854 0.3636534,0.128854 0.2345703,0 0.4420959,-0.0899 0.6219329,-0.269734 0.187657,-0.179838 0.413928,-0.515895 0.679775,-1.008495 l -0.175814,-0.128853 -0.175814,0.304667 c -0.187655,0.328399 -0.363813,0.492507 -0.528013,0.492507 -0.1329231,0 -0.2541868,-0.09353 -0.3636535,-0.281187 C 9.6303419,10.543092 9.4155483,10.073721 9.0949679,9.3309134 8.9385871,8.9790564 8.8136886,8.6936852 8.7198603,8.4747524 9.572135,7.7163062 10.154355,7.2318247 10.467116,7.0207108 10.779877,6.8017776 11.077297,6.6841487 11.358783,6.6685106 V 6.4812434 H 9.2123677 v 0.1872672 h 0.1878402 c 0.3049422,0 0.457001,0.070578 0.457001,0.2113199 0,0.1641996 -0.2696879,0.4767319 -0.8092009,0.9380549 C 8.5163138,8.2792078 8.058992,8.6429991 7.6758597,8.9088458 L 9.0835143,3.5491072 Z" />
</svg>
