<?xml version="1.0" encoding="UTF-8" standalone="no"?>
<svg
   xmlns:dc="http://purl.org/dc/elements/1.1/"
   xmlns:cc="http://creativecommons.org/ns#"
   xmlns:rdf="http://www.w3.org/1999/02/22-rdf-syntax-ns#"
   xmlns:svg="http://www.w3.org/2000/svg"
   xmlns="http://www.w3.org/2000/svg"
   xmlns:sodipodi="http://sodipodi.sourceforge.net/DTD/sodipodi-0.dtd"
   xmlns:inkscape="http://www.inkscape.org/namespaces/inkscape"
   viewBox="0 0 16 16"
   version="1.1"
   id="svg6"
   sodipodi:docname="tune.svg"
   inkscape:version="0.92.4 (5da689c313, 2019-01-14)"
   width="32"
   height="32">
  <metadata
     id="metadata10">
    <rdf:RDF>
      <cc:Work
         rdf:about="">
        <dc:format>image/svg+xml</dc:format>
        <dc:type
           rdf:resource="http://purl.org/dc/dcmitype/StillImage" />
        <dc:title />
      </cc:Work>
    </rdf:RDF>
  </metadata>
  <sodipodi:namedview
     pagecolor="#ffffff"
     bordercolor="#666666"
     borderopacity="1"
     objecttolerance="10"
     gridtolerance="10"
     guidetolerance="10"
     inkscape:pageopacity="0"
     inkscape:pageshadow="2"
     inkscape:window-width="1912"
     inkscape:window-height="2056"
     id="namedview8"
     showgrid="false"
     inkscape:zoom="14.75"
     inkscape:cx="30.255257"
     inkscape:cy="-0.94974749"
     inkscape:window-x="3840"
     inkscape:window-y="0"
     inkscape:window-maximized="0"
     inkscape:current-layer="svg6" />
  <defs
     id="defs3051">
    <style
       type="text/css"
       id="current-color-scheme">
      .ColorScheme-Text {
        color:#232629;
      }
      </style>
  </defs>
  <path
     style="color:#232629;fill:#ffffff;fill-opacity:1;stroke:none"
     d="M 10,2.5 C 9.0680195,2.5 8.2844627,3.137301 8.0625,4 H 2 V 5 H 8.0625 C 8.2844627,5.862699 9.0680195,6.5 10,6.5 10.931981,6.5 11.715537,5.862699 11.9375,5 H 14 V 4 H 11.9375 C 11.715537,3.137301 10.931981,2.5 10,2.5 Z m -5,7 C 4.0680191,9.5 3.2844626,10.137301 3.0625,11 H 2 v 1 H 3.0625 C 3.2844626,12.862699 4.0680191,13.5 5,13.5 5.9319809,13.5 6.7155374,12.862699 6.9375,12 H 7 9 14 V 11 H 9 7 6.9375 C 6.7155374,10.137301 5.9319809,9.5 5,9.5 Z m 0,1 c 0.55228,0 1,0.44772 1,1 0,0.55228 -0.44772,1 -1,1 -0.55228,0 -1,-0.44772 -1,-1 0,-0.55228 0.44772,-1 1,-1 z"
     class="ColorScheme-Text"
     id="path4"
     inkscape:connector-curvature="0" />
</svg>
