<?xml version="1.0" encoding="UTF-8" standalone="no"?>
<svg
   xmlns:dc="http://purl.org/dc/elements/1.1/"
   xmlns:cc="http://creativecommons.org/ns#"
   xmlns:rdf="http://www.w3.org/1999/02/22-rdf-syntax-ns#"
   xmlns:svg="http://www.w3.org/2000/svg"
   xmlns="http://www.w3.org/2000/svg"
   xmlns:sodipodi="http://sodipodi.sourceforge.net/DTD/sodipodi-0.dtd"
   xmlns:inkscape="http://www.inkscape.org/namespaces/inkscape"
   viewBox="0 0 16 16"
   version="1.1"
   id="svg9"
   sodipodi:docname="visibility_on.svg"
   inkscape:version="1.0.2 (e86c870, 2021-01-15)"
   width="32"
   height="32">
  <metadata
     id="metadata13">
    <rdf:RDF>
      <cc:Work
         rdf:about="">
        <dc:format>image/svg+xml</dc:format>
        <dc:type
           rdf:resource="http://purl.org/dc/dcmitype/StillImage" />
        <dc:title></dc:title>
      </cc:Work>
    </rdf:RDF>
  </metadata>
  <sodipodi:namedview
     pagecolor="#ffffff"
     bordercolor="#666666"
     borderopacity="1"
     objecttolerance="10"
     gridtolerance="10"
     guidetolerance="10"
     inkscape:pageopacity="0"
     inkscape:pageshadow="2"
     inkscape:window-width="1920"
     inkscape:window-height="998"
     id="namedview11"
     showgrid="false"
     inkscape:snap-page="true"
     inkscape:snap-bbox="true"
     inkscape:snap-bbox-midpoints="false"
     inkscape:bbox-nodes="true"
     inkscape:snap-bbox-edge-midpoints="false"
     inkscape:zoom="5.6568545"
     inkscape:cx="54.452496"
     inkscape:cy="18.179709"
     inkscape:window-x="0"
     inkscape:window-y="0"
     inkscape:window-maximized="1"
     inkscape:current-layer="svg9"
     inkscape:document-rotation="0" />
  <defs
     id="defs3051">
    <style
       type="text/css"
       id="current-color-scheme">
      .ColorScheme-Text {
        color:#232629;
      }
      </style>
  </defs>
  <path
     id="path95"
     style="fill:#ffffff;stroke-width:0.377952;stroke-linecap:round;fill-opacity:1"
     d="M 16 8 A 16 16 0 0 0 2.1445312 16 A 16 16 0 0 0 15.789062 23.998047 A 16 16 0 0 0 16 24 A 16 16 0 0 0 29.855469 16 A 16 16 0 0 0 16.199219 8.0019531 A 8 8 0 0 0 16 8 z M 16 10 A 6 6 0 0 1 22 16 A 6 6 0 0 1 16.15625 21.998047 A 6 6 0 0 1 16 22 A 6 6 0 0 1 10 16 A 6 6 0 0 1 15.84375 10.001953 A 14 14 0 0 1 16 10 z M 9.2226562 11.751953 A 8 8 0 0 0 8 16 A 8 8 0 0 0 9.2207031 20.248047 A 14 14 0 0 1 4.5117188 16 A 14 14 0 0 1 9.2226562 11.751953 z M 22.78125 11.753906 A 14 14 0 0 1 27.488281 16 A 14 14 0 0 1 22.779297 20.246094 A 8 8 0 0 0 24 16 A 8 8 0 0 0 22.78125 11.753906 z M 15.939453 12 A 4 4 0 0 0 12 16 A 4 4 0 0 0 16 20 A 4 4 0 0 0 20 16 A 4 4 0 0 0 19.822266 14.824219 A 2 2 0 0 1 18 16 A 2 2 0 0 1 16 14 A 2 2 0 0 1 17.177734 12.177734 A 4 4 0 0 0 16 12 A 4 4 0 0 0 15.939453 12 z "
     transform="scale(0.5)" />
</svg>
