<?xml version="1.0" encoding="UTF-8" standalone="no"?>
<svg
   xmlns:dc="http://purl.org/dc/elements/1.1/"
   xmlns:cc="http://creativecommons.org/ns#"
   xmlns:rdf="http://www.w3.org/1999/02/22-rdf-syntax-ns#"
   xmlns:svg="http://www.w3.org/2000/svg"
   xmlns="http://www.w3.org/2000/svg"
   xmlns:sodipodi="http://sodipodi.sourceforge.net/DTD/sodipodi-0.dtd"
   xmlns:inkscape="http://www.inkscape.org/namespaces/inkscape"
   viewBox="0 0 16 16"
   version="1.1"
   id="svg6"
   sodipodi:docname="zoom_fit.svg"
   inkscape:version="0.92.4 (5da689c313, 2019-01-14)"
   width="32"
   height="32">
  <metadata
     id="metadata10">
    <rdf:RDF>
      <cc:Work
         rdf:about="">
        <dc:format>image/svg+xml</dc:format>
        <dc:type
           rdf:resource="http://purl.org/dc/dcmitype/StillImage" />
        <dc:title />
      </cc:Work>
    </rdf:RDF>
  </metadata>
  <sodipodi:namedview
     pagecolor="#ffffff"
     bordercolor="#666666"
     borderopacity="1"
     objecttolerance="10"
     gridtolerance="10"
     guidetolerance="10"
     inkscape:pageopacity="0"
     inkscape:pageshadow="2"
     inkscape:window-width="1912"
     inkscape:window-height="2056"
     id="namedview8"
     showgrid="false"
     inkscape:zoom="10.429825"
     inkscape:cx="41.70296"
     inkscape:cy="-37.257944"
     inkscape:window-x="3840"
     inkscape:window-y="0"
     inkscape:window-maximized="0"
     inkscape:current-layer="svg6"
     inkscape:snap-page="true"
     inkscape:snap-bbox="true"
     inkscape:snap-bbox-edge-midpoints="false"
     inkscape:bbox-nodes="true" />
  <defs
     id="defs3051">
    <style
       type="text/css"
       id="current-color-scheme">
      .ColorScheme-Text {
        color:#232629;
      }
      </style>
  </defs>
  <path
     style="opacity:1;fill:#ffffff;fill-opacity:1;stroke:none;stroke-width:6.90409803;stroke-linecap:butt;stroke-linejoin:miter;stroke-miterlimit:4;stroke-dasharray:none;stroke-opacity:1"
     d="M 8,2 C 4.6862915,2 2,4.686292 2,8 c 0,3.313708 2.6862915,6 6,6 h 4 a 1.9999993,2.0000007 0 0 0 2,-2 V 8 C 14,4.686292 11.313709,2 8,2 Z m 0,1 c 2.761425,0 5,2.238577 5,5 0,2.761424 -2.238575,5 -5,5 C 5.2385763,13 3,10.761424 3,8 3,5.238577 5.2385763,3 8,3 Z M 7,4 C 6.45,4 6,4.45 6,5 6,5.55 6.45,6 7,6 7.55,6 8,5.55 8,5 8,4.45 7.5499997,4 7,4 Z M 8.8183594,5.818359 7.5019531,7.134766 9.3671875,9 H 9.8398438 10.625 12 L 10.625,7.625 10.074219,7.074219 10.023439,7.023439 Z M 5.9765625,7.023437 4,9 h 3.953125 z"
     id="path1124"
     inkscape:connector-curvature="0" />
</svg>
