<?xml version="1.0" encoding="UTF-8" standalone="no"?>
<svg
   viewBox="0 0 16 16"
   version="1.1"
   id="svg6"
   sodipodi:docname="application_session.svg"
   inkscape:version="1.1 (c4e8f9e, 2021-05-24)"
   width="32"
   height="32"
   xmlns:inkscape="http://www.inkscape.org/namespaces/inkscape"
   xmlns:sodipodi="http://sodipodi.sourceforge.net/DTD/sodipodi-0.dtd"
   xmlns="http://www.w3.org/2000/svg"
   xmlns:svg="http://www.w3.org/2000/svg"
   xmlns:rdf="http://www.w3.org/1999/02/22-rdf-syntax-ns#"
   xmlns:cc="http://creativecommons.org/ns#"
   xmlns:dc="http://purl.org/dc/elements/1.1/">
  <metadata
     id="metadata10">
    <rdf:RDF>
      <cc:Work
         rdf:about="">
        <dc:format>image/svg+xml</dc:format>
        <dc:type
           rdf:resource="http://purl.org/dc/dcmitype/StillImage" />
      </cc:Work>
    </rdf:RDF>
  </metadata>
  <sodipodi:namedview
     pagecolor="#ffffff"
     bordercolor="#666666"
     borderopacity="1"
     objecttolerance="10"
     gridtolerance="10"
     guidetolerance="10"
     inkscape:pageopacity="0"
     inkscape:pageshadow="2"
     inkscape:window-width="1912"
     inkscape:window-height="2056"
     id="namedview8"
     showgrid="true"
     inkscape:zoom="20.85965"
     inkscape:cx="3.4276702"
     inkscape:cy="17.593776"
     inkscape:window-x="3840"
     inkscape:window-y="0"
     inkscape:window-maximized="0"
     inkscape:current-layer="svg6"
     inkscape:snap-text-baseline="false"
     inkscape:snap-page="true"
     inkscape:pagecheckerboard="0"
     inkscape:snap-bbox="true"
     inkscape:bbox-paths="true"
     inkscape:bbox-nodes="true">
    <inkscape:grid
       type="xygrid"
       id="grid845" />
  </sodipodi:namedview>
  <defs
     id="defs3051">
    <style
       type="text/css"
       id="current-color-scheme">
      .ColorScheme-Text {
        color:#232629;
      }
      .ColorScheme-NegativeText {
        color:#da4453;
      }
      </style>
  </defs>
  <path
     id="path66"
     style="fill:#ffffff;fill-opacity:1;stroke:none;stroke-width:2;opacity:0.5"
     d="M 6 4 C 4.9 4 4 4.9 4 6 L 4 26 C 4 27.1 4.9 28 6 28 L 6 26 L 6 10 L 6 8 L 24 8 L 26 8 L 26 10 L 26 12 L 26 22 L 26 26 L 17 26 L 17 28 L 26 28 C 27.1 28 28 27.1 28 26 L 28 22 L 28 12 L 28 6 C 28 4.9 27.1 4 26 4 L 6 4 z M 11.5 18 A 2.5 2.5 0 0 0 9 20.5 A 2.5 2.5 0 0 0 11.5 23 A 2.5 2.5 0 0 0 14 20.5 A 2.5 2.5 0 0 0 11.5 18 z M 21.5 19 A 1.4999998 1.4999996 0 0 0 20.085938 20 L 20 20 L 19 20 L 18 20 L 17 20 L 17 21 L 18 21 L 19 21 L 20 21 L 20.085938 21 A 1.4999998 1.4999996 0 0 0 21.5 22 A 1.4999998 1.4999996 0 0 0 22.912109 21 L 24 21 L 24 20 L 22.912109 20 A 1.4999998 1.4999996 0 0 0 21.5 19 z M 19.5 22 A 1.4999998 1.4999996 0 0 0 18.087891 23 L 17 23 L 17 24 L 18.087891 24 A 1.4999998 1.4999996 0 0 0 19.5 25 A 1.4999998 1.4999996 0 0 0 20.914062 24 L 21 24 L 22 24 L 23 24 L 24 24 L 24 23 L 23 23 L 22 23 L 21 23 L 20.914062 23 A 1.4999998 1.4999996 0 0 0 19.5 22 z M 19.5 23 A 0.50000018 0.49999962 0 0 1 20 23.5 A 0.50000018 0.49999962 0 0 1 19.5 24 A 0.50000018 0.49999962 0 0 1 19 23.5 A 0.50000018 0.49999962 0 0 1 19.5 23 z M 11.5 24 A 3.499998 4 0 0 0 8 28 L 15 28 A 3.499998 4 0 0 0 11.5 24 z "
     transform="scale(0.5)" />
</svg>
