<?xml version="1.0" encoding="UTF-8" standalone="no"?>
<svg
   xmlns:dc="http://purl.org/dc/elements/1.1/"
   xmlns:cc="http://creativecommons.org/ns#"
   xmlns:rdf="http://www.w3.org/1999/02/22-rdf-syntax-ns#"
   xmlns:svg="http://www.w3.org/2000/svg"
   xmlns="http://www.w3.org/2000/svg"
   xmlns:sodipodi="http://sodipodi.sourceforge.net/DTD/sodipodi-0.dtd"
   xmlns:inkscape="http://www.inkscape.org/namespaces/inkscape"
   viewBox="0 0 16 16"
   version="1.1"
   id="svg6"
   sodipodi:docname="bookmark_rename.svg"
   inkscape:version="0.92.4 (5da689c313, 2019-01-14)"
   width="32"
   height="32">
  <metadata
     id="metadata10">
    <rdf:RDF>
      <cc:Work
         rdf:about="">
        <dc:format>image/svg+xml</dc:format>
        <dc:type
           rdf:resource="http://purl.org/dc/dcmitype/StillImage" />
        <dc:title />
      </cc:Work>
    </rdf:RDF>
  </metadata>
  <sodipodi:namedview
     pagecolor="#ffffff"
     bordercolor="#666666"
     borderopacity="1"
     objecttolerance="10"
     gridtolerance="10"
     guidetolerance="10"
     inkscape:pageopacity="0"
     inkscape:pageshadow="2"
     inkscape:window-width="1912"
     inkscape:window-height="2056"
     id="namedview8"
     showgrid="false"
     inkscape:zoom="14.75"
     inkscape:cx="11.671731"
     inkscape:cy="-19.973439"
     inkscape:window-x="3840"
     inkscape:window-y="0"
     inkscape:window-maximized="0"
     inkscape:current-layer="svg6" />
  <defs
     id="defs3051">
    <style
       type="text/css"
       id="current-color-scheme">
      .ColorScheme-Text {
        color:#232629;
      }
      </style>
  </defs>
  <path
     style="fill:#ffffff;fill-opacity:0.49803922;stroke:none;stroke-width:1"
     d="M 5,2 C 4.45,2 4,2.45 4,3 V 14 L 8,12.40625 12,14 V 9 h -1 v 3.59375 l -3,-1.1875 -3,1.1875 V 10 3 H 10.220703 11 V 2 Z m 7,1 -1,0.996094 0.002,0.00195 -4.5410155,4.5410155 V 10.53906 h 2 l 0.00195,-0.002 0.00391,0.002 0.701172,-0.7031255 -0.00391,-0.00391 4.1250005,-4.1347655 0.707031,-0.707031 z m -0.302734,1.689453 0.582031,0.5820315 0.02539,0.023437 -3.83789,3.837891 -0.703125,0.703125 -0.00195,0.00391 L 7.7421875,9.8203125 7.160156,9.238281 Z"
     id="path4"
     inkscape:connector-curvature="0" />
</svg>
