<?xml version="1.0" encoding="UTF-8" standalone="no"?>
<svg
   xmlns:dc="http://purl.org/dc/elements/1.1/"
   xmlns:cc="http://creativecommons.org/ns#"
   xmlns:rdf="http://www.w3.org/1999/02/22-rdf-syntax-ns#"
   xmlns:svg="http://www.w3.org/2000/svg"
   xmlns="http://www.w3.org/2000/svg"
   xmlns:sodipodi="http://sodipodi.sourceforge.net/DTD/sodipodi-0.dtd"
   xmlns:inkscape="http://www.inkscape.org/namespaces/inkscape"
   viewBox="0 0 16 16"
   version="1.1"
   id="svg6"
   sodipodi:docname="cache_refresh.svg"
   inkscape:version="1.0.2 (e86c870, 2021-01-15)"
   width="32"
   height="32">
  <metadata
     id="metadata10">
    <rdf:RDF>
      <cc:Work
         rdf:about="">
        <dc:format>image/svg+xml</dc:format>
        <dc:type
           rdf:resource="http://purl.org/dc/dcmitype/StillImage" />
        <dc:title></dc:title>
      </cc:Work>
    </rdf:RDF>
  </metadata>
  <sodipodi:namedview
     pagecolor="#ffffff"
     bordercolor="#666666"
     borderopacity="1"
     objecttolerance="10"
     gridtolerance="10"
     guidetolerance="10"
     inkscape:pageopacity="0"
     inkscape:pageshadow="2"
     inkscape:window-width="1912"
     inkscape:window-height="2056"
     id="namedview8"
     showgrid="false"
     inkscape:zoom="14.75"
     inkscape:cx="22.585864"
     inkscape:cy="10.804922"
     inkscape:window-x="3840"
     inkscape:window-y="0"
     inkscape:window-maximized="0"
     inkscape:current-layer="svg6"
     inkscape:document-rotation="0" />
  <defs
     id="defs3051">
    <style
       type="text/css"
       id="current-color-scheme">
      .ColorScheme-Text {
        color:#232629;
      }
      </style>
  </defs>
  <path
     style="color:#232629;fill:#ffffff;fill-opacity:0.5;stroke:none"
     d="m 7.9999998,2.0002288 c -1.535534,0 -3.0706151,0.58624 -4.2421875,1.757812 -0.2005292,0.20053 -0.38245,0.412009 -0.546875,0.632813 v -1.693359 h -1 v 3.800781 h 0.7949219 0.2050781 0.060547 2.7402344 V 5.4806978 H 3.7128904 c 0.1020001,-0.174253 0.2071538,-0.34435 0.3320313,-0.507813 0.03155,-0.04256 0.054725,-0.09107 0.087891,-0.132812 0.106784,-0.130925 0.2099924,-0.252961 0.3320313,-0.375 1.9526216,-1.952622 5.1176906,-1.952622 7.070312,0 0.171844,0.171844 0.323994,0.36373 0.464844,0.552734 0.08223,0.110453 0.170251,0.214706 0.242188,0.330078 0.155302,0.249985 0.270694,0.505106 0.376953,0.773438 0.01231,0.03108 0.03132,0.05857 0.04297,0.08984 0.03585,0.09378 0.03907,0.191889 0.06641,0.287109 0.0025,0.0088 0.01874,0.01262 0.02148,0.02148 l 1.039062,-0.02148 C 13.529726,5.4972988 13.026239,4.5420938 12.242188,3.7580408 11.070614,2.5864678 9.5355338,2.0002288 7.9999998,2.0002288 Z m -4.75,7.480469 -1.0390625,0.02148 c 0.2593404,1.0009782 0.7628223,1.9561812 1.546875,2.7402352 2.3431461,2.343145 6.1412303,2.343144 8.4843757,0 0.200529,-0.20053 0.382449,-0.412009 0.546874,-0.632813 v 1.693359 h 1 V 9.5021778 h -0.794921 -0.265625 l -2.716797,0.02344 v 0.9707032 l 2.27539,0.02344 c -0.102,0.174251 -0.207154,0.34435 -0.332031,0.507813 -0.03155,0.04256 -0.05472,0.09107 -0.08789,0.132812 -0.106784,0.130924 -0.209993,0.252961 -0.332032,0.375 -0.122039,0.122038 -0.244075,0.225248 -0.375,0.332032 -0.130924,0.106783 -0.259812,0.217064 -0.398437,0.308593 C 8.8209614,13.457415 6.1733874,13.243929 4.4648436,11.535385 4.2892954,11.359837 4.143983,11.176048 3.9999998,10.982651 3.9177676,10.872197 3.8297486,10.767945 3.7578123,10.652573 3.6025095,10.402589 3.4871179,10.147468 3.3808592,9.8791348 c -0.012534,-0.03091 -0.031079,-0.05874 -0.042969,-0.08984 -0.034112,-0.09155 -0.0398,-0.193133 -0.066406,-0.287109 z"
     id="path4"
     inkscape:connector-curvature="0" />
</svg>
