<?xml version="1.0" encoding="UTF-8" standalone="no"?>
<svg
   viewBox="0 0 16 16"
   version="1.1"
   id="svg5"
   sodipodi:docname="calendar_month.svg"
   inkscape:version="1.1 (c4e8f9e, 2021-05-24)"
   width="32"
   height="32"
   xmlns:inkscape="http://www.inkscape.org/namespaces/inkscape"
   xmlns:sodipodi="http://sodipodi.sourceforge.net/DTD/sodipodi-0.dtd"
   xmlns="http://www.w3.org/2000/svg"
   xmlns:svg="http://www.w3.org/2000/svg"
   xmlns:rdf="http://www.w3.org/1999/02/22-rdf-syntax-ns#"
   xmlns:cc="http://creativecommons.org/ns#"
   xmlns:dc="http://purl.org/dc/elements/1.1/">
  <metadata
     id="metadata9">
    <rdf:RDF>
      <cc:Work
         rdf:about="">
        <dc:format>image/svg+xml</dc:format>
        <dc:type
           rdf:resource="http://purl.org/dc/dcmitype/StillImage" />
      </cc:Work>
    </rdf:RDF>
  </metadata>
  <sodipodi:namedview
     pagecolor="#ffffff"
     bordercolor="#666666"
     borderopacity="1"
     objecttolerance="10"
     gridtolerance="10"
     guidetolerance="10"
     inkscape:pageopacity="0"
     inkscape:pageshadow="2"
     inkscape:window-width="1535"
     inkscape:window-height="1844"
     id="namedview7"
     showgrid="true"
     inkscape:zoom="22.627417"
     inkscape:cx="15.77732"
     inkscape:cy="15.954097"
     inkscape:window-x="3514"
     inkscape:window-y="77"
     inkscape:window-maximized="0"
     inkscape:current-layer="svg5"
     inkscape:snap-bbox="true"
     inkscape:bbox-nodes="true"
     inkscape:snap-page="true"
     inkscape:document-rotation="0"
     inkscape:pagecheckerboard="0">
    <inkscape:grid
       type="xygrid"
       id="grid1137" />
  </sodipodi:namedview>
  <defs
     id="defs3051">
    <style
       type="text/css"
       id="current-color-scheme">
      .ColorScheme-Text {
        color:#232629;
      }
      </style>
  </defs>
  <path
     id="path773"
     style="fill:#ffffff;fill-opacity:0.5;stroke:none;stroke-width:6"
     d="M 5.9492188 6 C 4.8727268 6.0275173 4 6.9171875 4 8 L 4 10 L 4 26 L 4 28 L 22 28 L 24 28 L 26 28 L 28 28 L 28 26 L 28 8 C 28 6.9 27.1 6 26 6 L 24 6 L 24 8 L 24 8.0507812 C 23.97292 9.1101861 23.110185 9.9729194 22.050781 10 L 21.949219 10 C 20.889815 9.9729194 20.02708 9.110186 20 8.0507812 L 20 8 L 20 6 L 16 6 L 12 6 L 12 8 L 12 8.0507812 C 11.972919 9.1101861 11.110186 9.9729194 10.050781 10 L 9.9492188 10 C 8.8898139 9.9729194 8.0270804 9.110186 8 8.0507812 L 8 8 L 8 6 L 6 6 C 5.9828125 6 5.9663059 5.9995632 5.9492188 6 z M 6 12 L 22 12 L 24 12 L 26 12 L 26 26 L 24 26 L 22 26 L 6 26 L 6 12 z M 8 14 L 8 16 L 8 18 L 12 18 L 12 16 L 12 14 L 8 14 z M 14 14 L 14 16 L 14 18 L 18 18 L 18 16 L 18 14 L 14 14 z M 20 14 L 20 16 L 20 18 L 24 18 L 24 16 L 24 14 L 20 14 z M 8 20 L 8 22 L 8 24 L 12 24 L 12 22 L 12 20 L 8 20 z M 14 20 L 14 22 L 14 24 L 18 24 L 18 22 L 18 20 L 14 20 z M 20 20 L 20 22 L 20 24 L 24 24 L 24 22 L 24 20 L 20 20 z "
     transform="scale(0.5)" />
</svg>
