<?xml version="1.0" encoding="UTF-8" standalone="no"?>
<svg
   viewBox="0 0 16 16"
   version="1.1"
   id="svg5"
   sodipodi:docname="column_resize.svg"
   inkscape:version="1.1 (c4e8f9e, 2021-05-24)"
   width="32"
   height="32"
   xmlns:inkscape="http://www.inkscape.org/namespaces/inkscape"
   xmlns:sodipodi="http://sodipodi.sourceforge.net/DTD/sodipodi-0.dtd"
   xmlns="http://www.w3.org/2000/svg"
   xmlns:svg="http://www.w3.org/2000/svg"
   xmlns:rdf="http://www.w3.org/1999/02/22-rdf-syntax-ns#"
   xmlns:cc="http://creativecommons.org/ns#"
   xmlns:dc="http://purl.org/dc/elements/1.1/">
  <metadata
     id="metadata9">
    <rdf:RDF>
      <cc:Work
         rdf:about="">
        <dc:format>image/svg+xml</dc:format>
        <dc:type
           rdf:resource="http://purl.org/dc/dcmitype/StillImage" />
      </cc:Work>
    </rdf:RDF>
  </metadata>
  <sodipodi:namedview
     pagecolor="#ffffff"
     bordercolor="#666666"
     borderopacity="1"
     objecttolerance="10"
     gridtolerance="10"
     guidetolerance="10"
     inkscape:pageopacity="0"
     inkscape:pageshadow="2"
     inkscape:window-width="1710"
     inkscape:window-height="1499"
     id="namedview7"
     showgrid="true"
     inkscape:zoom="22.627418"
     inkscape:cx="32.593202"
     inkscape:cy="12.175494"
     inkscape:window-x="3855"
     inkscape:window-y="142"
     inkscape:window-maximized="0"
     inkscape:current-layer="svg5"
     inkscape:snap-bbox="true"
     inkscape:bbox-nodes="true"
     inkscape:snap-page="true"
     inkscape:document-rotation="0"
     inkscape:snap-bbox-edge-midpoints="true"
     inkscape:snap-grids="true"
     inkscape:object-nodes="true"
     inkscape:pagecheckerboard="0">
    <inkscape:grid
       type="xygrid"
       id="grid823" />
  </sodipodi:namedview>
  <defs
     id="defs3051">
    <style
       type="text/css"
       id="current-color-scheme">
      .ColorScheme-Text {
        color:#232629;
      }
      </style>
  </defs>
  <path
     id="path773"
     style="fill:#ffffff;fill-opacity:0.5;stroke:none;stroke-width:6"
     d="M 14 6 L 14 24 L 14 26 L 16 26 L 18 26 L 18 24 L 18 6 L 16 6 L 14 6 z M 7.2421875 11.757812 L 4.4140625 14.585938 L 4 15 L 3 16 L 4 17 L 7.2421875 20.242188 L 8.65625 18.828125 L 6.828125 17 L 12 17 L 12 15 L 6.828125 15 L 8.65625 13.171875 L 7.2421875 11.757812 z M 24.757812 11.757812 L 23.34375 13.171875 L 25.171875 15 L 20 15 L 20 17 L 25.171875 17 L 23.34375 18.828125 L 24.757812 20.242188 L 27.585938 17.414062 L 28 17 L 29 16 L 28 15 L 24.757812 11.757812 z "
     transform="scale(0.5)" />
</svg>
