<?xml version="1.0" encoding="UTF-8" standalone="no"?>
<svg
   xmlns:dc="http://purl.org/dc/elements/1.1/"
   xmlns:cc="http://creativecommons.org/ns#"
   xmlns:rdf="http://www.w3.org/1999/02/22-rdf-syntax-ns#"
   xmlns:svg="http://www.w3.org/2000/svg"
   xmlns="http://www.w3.org/2000/svg"
   xmlns:sodipodi="http://sodipodi.sourceforge.net/DTD/sodipodi-0.dtd"
   xmlns:inkscape="http://www.inkscape.org/namespaces/inkscape"
   viewBox="0 0 16 16"
   version="1.1"
   id="svg5"
   sodipodi:docname="edit-cut.svg"
   inkscape:version="0.92.4 (5da689c313, 2019-01-14)"
   width="32"
   height="32">
  <metadata
     id="metadata9">
    <rdf:RDF>
      <cc:Work
         rdf:about="">
        <dc:format>image/svg+xml</dc:format>
        <dc:type
           rdf:resource="http://purl.org/dc/dcmitype/StillImage" />
        <dc:title></dc:title>
      </cc:Work>
    </rdf:RDF>
  </metadata>
  <sodipodi:namedview
     pagecolor="#ffffff"
     bordercolor="#666666"
     borderopacity="1"
     objecttolerance="10"
     gridtolerance="10"
     guidetolerance="10"
     inkscape:pageopacity="0"
     inkscape:pageshadow="2"
     inkscape:window-width="2461"
     inkscape:window-height="1993"
     id="namedview7"
     showgrid="false"
     inkscape:zoom="22.627417"
     inkscape:cx="39.650529"
     inkscape:cy="23.087494"
     inkscape:window-x="2225"
     inkscape:window-y="32"
     inkscape:window-maximized="0"
     inkscape:current-layer="svg5"
     inkscape:snap-bbox="true"
     inkscape:bbox-nodes="false"
     inkscape:snap-page="true"
     inkscape:snap-bbox-midpoints="false" />
  <defs
     id="defs3051">
    <style
       type="text/css"
       id="current-color-scheme">
      .ColorScheme-Text {
        color:#232629;
      }
      </style>
  </defs>
  <path
     style="opacity:1;fill:#ffffff;fill-opacity:0.50196081;stroke:none;stroke-width:0.48437244;stroke-linecap:round;stroke-linejoin:miter;stroke-miterlimit:4;stroke-dasharray:none;stroke-opacity:1;paint-order:normal"
     d="M 10.998047 4 C 10.045421 4.55 9.715625 5.7797939 10.265625 6.7324219 L 14.845703 14.664062 L 11.574219 20.328125 A 4 4 0 0 0 10 20 A 4 4 0 0 0 6 24 A 4 4 0 0 0 10 28 A 4 4 0 0 0 14 24 A 4 4 0 0 0 13.167969 21.568359 L 17.416016 19.115234 L 18.830078 21.566406 A 4 4 0 0 0 18 24 A 4 4 0 0 0 22 28 A 4 4 0 0 0 26 24 A 4 4 0 0 0 22 20 A 4 4 0 0 0 20.423828 20.324219 L 17.154297 14.664062 L 21.734375 6.7324219 C 22.284375 5.7797939 21.954579 4.55 21.001953 4 L 20.001953 5.7324219 L 16 12.664062 L 11.998047 5.7324219 L 10.998047 4 z M 16 15 A 1 1 0 0 1 17 16 A 1 1 0 0 1 16 17 A 1 1 0 0 1 15 16 A 1 1 0 0 1 16 15 z M 10 22 A 2 2 0 0 1 12 24 A 2 2 0 0 1 10 26 A 2 2 0 0 1 8 24 A 2 2 0 0 1 10 22 z M 22 22 A 2 2 0 0 1 24 24 A 2 2 0 0 1 22 26 A 2 2 0 0 1 20 24 A 2 2 0 0 1 22 22 z "
     id="path64"
     transform="scale(0.5)" />
</svg>
