<?xml version="1.0" encoding="UTF-8" standalone="no"?>
<svg
   viewBox="0 0 16 16"
   version="1.1"
   id="svg6"
   sodipodi:docname="file_backup.svg"
   inkscape:version="1.1 (c4e8f9e, 2021-05-24)"
   width="32"
   height="32"
   xmlns:inkscape="http://www.inkscape.org/namespaces/inkscape"
   xmlns:sodipodi="http://sodipodi.sourceforge.net/DTD/sodipodi-0.dtd"
   xmlns="http://www.w3.org/2000/svg"
   xmlns:svg="http://www.w3.org/2000/svg"
   xmlns:rdf="http://www.w3.org/1999/02/22-rdf-syntax-ns#"
   xmlns:cc="http://creativecommons.org/ns#"
   xmlns:dc="http://purl.org/dc/elements/1.1/">
  <metadata
     id="metadata10">
    <rdf:RDF>
      <cc:Work
         rdf:about="">
        <dc:format>image/svg+xml</dc:format>
        <dc:type
           rdf:resource="http://purl.org/dc/dcmitype/StillImage" />
      </cc:Work>
    </rdf:RDF>
  </metadata>
  <sodipodi:namedview
     pagecolor="#ffffff"
     bordercolor="#666666"
     borderopacity="1"
     objecttolerance="10"
     gridtolerance="10"
     guidetolerance="10"
     inkscape:pageopacity="0"
     inkscape:pageshadow="2"
     inkscape:window-width="1916"
     inkscape:window-height="1629"
     id="namedview8"
     showgrid="true"
     inkscape:snap-page="true"
     inkscape:zoom="32"
     inkscape:cx="19.484375"
     inkscape:cy="19.015625"
     inkscape:window-x="3589"
     inkscape:window-y="242"
     inkscape:window-maximized="0"
     inkscape:current-layer="svg6"
     inkscape:pagecheckerboard="0">
    <inkscape:grid
       type="xygrid"
       id="grid845" />
  </sodipodi:namedview>
  <defs
     id="defs3051">
    <style
       type="text/css"
       id="current-color-scheme">
      .ColorScheme-Text {
        color:#232629;
      }
      </style>
  </defs>
  <g
     id="g12346"
     style="opacity:0.5;fill:#ffffff">
    <path
       id="path849"
       style="fill:#ffffff;fill-opacity:1;stroke:none;stroke-width:2"
       d="M 8 6 C 6.9 6 6 6.9 6 8 L 6 28 C 6 29.1 6.9 30 8 30 L 16 30 L 18 30 L 24 24 L 24 22 L 24 20 L 22 20 L 22 22 L 16 22 L 16 28 L 8 28 L 8 8 L 20 8 L 22 8 L 22 13 L 24 13 L 24 8 C 24 6.9 23.1 6 22 6 L 20 6 L 8 6 z M 17.339844 12.960938 C 16.622814 12.960937 15.990029 13.091147 15.439453 13.351562 C 14.901681 13.61198 14.447491 13.970052 14.076172 14.425781 C 13.717657 14.881509 13.448789 15.415364 13.269531 16.027344 C 13.090274 16.639322 13 17.296875 13 18 L 15.054688 18 C 15.054688 17.179688 15.253464 16.502605 15.650391 15.96875 C 16.060122 15.434895 16.611313 15.167969 17.302734 15.167969 C 17.635641 15.167969 17.949646 15.239583 18.244141 15.382812 C 18.551439 15.526042 18.858717 15.701823 19.166016 15.910156 C 19.473314 16.11849 19.785366 16.352864 20.105469 16.613281 C 20.425571 16.860676 20.766485 17.088542 21.125 17.296875 C 21.483515 17.505208 21.867613 17.680989 22.277344 17.824219 C 22.69988 17.967448 23.160798 18.039062 23.660156 18.039062 C 24.389991 18.039063 25.022775 17.908853 25.560547 17.648438 C 26.111123 17.38802 26.565313 17.029948 26.923828 16.574219 C 27.282343 16.118489 27.551211 15.584635 27.730469 14.972656 C 27.909726 14.360678 28 13.703125 28 13 L 25.945312 13 C 25.945313 13.403645 25.893448 13.78125 25.791016 14.132812 C 25.688582 14.471354 25.541671 14.770833 25.349609 15.03125 C 25.157548 15.278646 24.920363 15.480469 24.638672 15.636719 C 24.369787 15.779948 24.05578 15.851562 23.697266 15.851562 C 23.21071 15.851563 22.743066 15.701822 22.294922 15.402344 C 21.846779 15.102864 21.381087 14.770833 20.894531 14.40625 C 20.407975 14.041666 19.875012 13.709635 19.298828 13.410156 C 18.735448 13.110678 18.082481 12.960937 17.339844 12.960938 z "
       transform="scale(0.5)" />
    <path
       id="path61"
       style="fill:#ffffff;fill-opacity:0.5;stroke:none;stroke-width:2"
       d="M 12 2 C 10.9 2 10 2.9 10 4 L 12 4 L 22.9375 4 L 24 4 L 26 4 L 26 11 L 28 11 L 28 4 C 28 2.9 27.1 2 26 2 L 24 2 L 12 2 z M 26 19 L 26 22 L 28 20 L 28 19 L 26 19 z "
       transform="scale(0.5)" />
  </g>
</svg>
