<?xml version="1.0" encoding="UTF-8" standalone="no"?>
<svg
   viewBox="0 0 16 16"
   version="1.1"
   id="svg6"
   sodipodi:docname="file_new.svg"
   inkscape:version="1.1 (c4e8f9e, 2021-05-24)"
   width="32"
   height="32"
   xmlns:inkscape="http://www.inkscape.org/namespaces/inkscape"
   xmlns:sodipodi="http://sodipodi.sourceforge.net/DTD/sodipodi-0.dtd"
   xmlns="http://www.w3.org/2000/svg"
   xmlns:svg="http://www.w3.org/2000/svg"
   xmlns:rdf="http://www.w3.org/1999/02/22-rdf-syntax-ns#"
   xmlns:cc="http://creativecommons.org/ns#"
   xmlns:dc="http://purl.org/dc/elements/1.1/">
  <metadata
     id="metadata10">
    <rdf:RDF>
      <cc:Work
         rdf:about="">
        <dc:format>image/svg+xml</dc:format>
        <dc:type
           rdf:resource="http://purl.org/dc/dcmitype/StillImage" />
      </cc:Work>
    </rdf:RDF>
  </metadata>
  <sodipodi:namedview
     pagecolor="#ffffff"
     bordercolor="#666666"
     borderopacity="1"
     objecttolerance="10"
     gridtolerance="10"
     guidetolerance="10"
     inkscape:pageopacity="0"
     inkscape:pageshadow="2"
     inkscape:window-width="1912"
     inkscape:window-height="2056"
     id="namedview8"
     showgrid="true"
     inkscape:snap-page="true"
     inkscape:zoom="16"
     inkscape:cx="33.96875"
     inkscape:cy="17.21875"
     inkscape:window-x="3840"
     inkscape:window-y="0"
     inkscape:window-maximized="0"
     inkscape:current-layer="svg6"
     inkscape:pagecheckerboard="0"
     showguides="false">
    <inkscape:grid
       type="xygrid"
       id="grid841" />
  </sodipodi:namedview>
  <defs
     id="defs3051">
    <style
       type="text/css"
       id="current-color-scheme">
      .ColorScheme-Text {
        color:#232629;
      }
      </style>
  </defs>
  <path
     id="path843"
     style="fill:#ffffff;fill-opacity:0.5;stroke:none;stroke-width:1"
     d="m 10.683594,2.0859375 -0.867188,0.5 0.636719,1.1015625 0.181641,0.314453 H 9.7109375 9 v 1 h 1.271485 0.361328 l -0.460938,0.798828 -0.355469,0.617188 0.867188,0.5 0.634766,-1.101563 0.18164,-0.3125 0.816406,1.414063 0.867188,-0.5 -0.136719,-0.236328 -0.68164,-1.179688 H 14 v -1 h -0.271484 -1.361328 l 0.816406,-1.4160155 -0.867188,-0.5 -0.134765,0.236328 L 11.5,3.5 11.039063,2.703125 Z M 3.9746094,2 C 3.4363634,2.0137587 3,2.4585938 3,3 v 10 c 0,0.55 0.45,1 1,1 h 4 1 l 3,-3 V 10 8 7.5126955 H 11 V 8 10 H 8 v 3 H 4 V 3 H 9 V 2 H 4 c -0.00859,0 -0.016847,-2.184e-4 -0.025391,0 z" />
</svg>
