<?xml version="1.0" encoding="UTF-8" standalone="no"?>
<svg
   viewBox="0 0 16 16"
   version="1.1"
   id="svg5"
   sodipodi:docname="filter_image.svg"
   inkscape:version="1.1 (c4e8f9e, 2021-05-24)"
   width="32"
   height="32"
   xmlns:inkscape="http://www.inkscape.org/namespaces/inkscape"
   xmlns:sodipodi="http://sodipodi.sourceforge.net/DTD/sodipodi-0.dtd"
   xmlns="http://www.w3.org/2000/svg"
   xmlns:svg="http://www.w3.org/2000/svg"
   xmlns:rdf="http://www.w3.org/1999/02/22-rdf-syntax-ns#"
   xmlns:cc="http://creativecommons.org/ns#"
   xmlns:dc="http://purl.org/dc/elements/1.1/">
  <metadata
     id="metadata9">
    <rdf:RDF>
      <cc:Work
         rdf:about="">
        <dc:format>image/svg+xml</dc:format>
        <dc:type
           rdf:resource="http://purl.org/dc/dcmitype/StillImage" />
      </cc:Work>
    </rdf:RDF>
  </metadata>
  <sodipodi:namedview
     pagecolor="#ffffff"
     bordercolor="#666666"
     borderopacity="1"
     objecttolerance="10"
     gridtolerance="10"
     guidetolerance="10"
     inkscape:pageopacity="0"
     inkscape:pageshadow="2"
     inkscape:window-width="1920"
     inkscape:window-height="998"
     id="namedview7"
     showgrid="true"
     inkscape:zoom="8"
     inkscape:cx="33.8125"
     inkscape:cy="18.75"
     inkscape:window-x="0"
     inkscape:window-y="0"
     inkscape:window-maximized="1"
     inkscape:current-layer="svg5"
     inkscape:snap-bbox="true"
     inkscape:bbox-nodes="true"
     inkscape:snap-page="true"
     inkscape:pagecheckerboard="0">
    <inkscape:grid
       type="xygrid"
       id="grid871" />
  </sodipodi:namedview>
  <defs
     id="defs3051">
    <style
       type="text/css"
       id="current-color-scheme">
      .ColorScheme-Text {
        color:#232629;
      }
      </style>
  </defs>
  <path
     id="path4"
     style="fill:#ffffff;fill-opacity:0.5;stroke:none;stroke-width:2"
     d="M 6 4 C 4.9 4 4 4.9 4 6 L 4 26 C 4 27.1 4.9 28 6 28 L 14 28 L 16 28 L 16 26 L 14 24 L 14 19.375 L 12.625 18 L 12.5625 18 L 6 24.5625 L 6 6 L 26 6 L 26 18 L 28 18 L 28 6 C 28 4.9 27.1 4 26 4 L 6 4 z M 26 18 L 22 14 L 18 18 L 26 18 z M 12 8 C 9.790861 8 8 9.79086 8 12 C 8 14.209138 9.790861 16 12 16 C 14.209139 16 16 14.209138 16 12 C 16 9.79086 14.209139 8 12 8 z M 16 20 L 16 22 L 16 24 L 17 25 L 18 26 L 18 28 C 18 29.1 18.9 30 20 30 L 22 30 C 23.1 30 24 29.1 24 28 L 24 26 L 25 25 L 26 24 L 26 22 L 26 20 L 22 20 L 20 20 L 16 20 z M 18 22 L 24 22 L 24 23.171875 L 22.171875 25 L 22 25.171875 L 22 26 L 22 28 L 20 28 L 20 26 L 20 25.171875 L 19.828125 25 L 18 23.171875 L 18 22 z M 26 28 L 26 30 L 28 30 L 28 28 L 26 28 z M 30 28 L 30 30 L 32 30 L 32 28 L 30 28 z "
     transform="scale(0.5)" />
</svg>
