<?xml version="1.0" encoding="UTF-8" standalone="no"?>
<svg
   viewBox="0 0 16 16"
   version="1.1"
   id="svg5"
   sodipodi:docname="filter_regex.svg"
   inkscape:version="1.1 (c4e8f9e, 2021-05-24)"
   width="32"
   height="32"
   xmlns:inkscape="http://www.inkscape.org/namespaces/inkscape"
   xmlns:sodipodi="http://sodipodi.sourceforge.net/DTD/sodipodi-0.dtd"
   xmlns="http://www.w3.org/2000/svg"
   xmlns:svg="http://www.w3.org/2000/svg"
   xmlns:rdf="http://www.w3.org/1999/02/22-rdf-syntax-ns#"
   xmlns:cc="http://creativecommons.org/ns#"
   xmlns:dc="http://purl.org/dc/elements/1.1/">
  <metadata
     id="metadata9">
    <rdf:RDF>
      <cc:Work
         rdf:about="">
        <dc:format>image/svg+xml</dc:format>
        <dc:type
           rdf:resource="http://purl.org/dc/dcmitype/StillImage" />
      </cc:Work>
    </rdf:RDF>
  </metadata>
  <sodipodi:namedview
     pagecolor="#ffffff"
     bordercolor="#666666"
     borderopacity="1"
     objecttolerance="10"
     gridtolerance="10"
     guidetolerance="10"
     inkscape:pageopacity="0"
     inkscape:pageshadow="2"
     inkscape:window-width="1554"
     inkscape:window-height="1641"
     id="namedview7"
     showgrid="true"
     inkscape:zoom="29.5"
     inkscape:cx="13.61017"
     inkscape:cy="13.220339"
     inkscape:window-x="3609"
     inkscape:window-y="257"
     inkscape:window-maximized="0"
     inkscape:current-layer="svg5"
     inkscape:snap-bbox="true"
     inkscape:snap-bbox-midpoints="false"
     inkscape:pagecheckerboard="0"
     inkscape:bbox-nodes="true">
    <inkscape:grid
       type="xygrid"
       id="grid158"
       units="px"
       spacingx="0.5"
       spacingy="0.5" />
  </sodipodi:namedview>
  <defs
     id="defs3051">
    <style
       type="text/css"
       id="current-color-scheme">
      .ColorScheme-Text {
        color:#232629;
      }
      </style>
  </defs>
  <path
     id="circle887"
     style="fill:#ffffff;fill-opacity:0.5;stroke-width:0.755904;stroke-linecap:round"
     d="M 17.367188 11.167969 L 15.632812 12.167969 L 16.90625 14.371094 L 17.269531 15 L 15.421875 15 L 14 15 L 14 17 L 16.542969 17 L 17.265625 17 L 16.34375 18.597656 L 15.632812 19.832031 L 17.367188 20.832031 L 18.636719 18.628906 L 19 18.003906 L 20.632812 20.832031 L 22.367188 19.832031 L 22.09375 19.359375 L 20.730469 17 L 24 17 L 24 15 L 23.457031 15 L 20.734375 15 L 22.367188 12.167969 L 20.632812 11.167969 L 20.363281 11.640625 L 19 13.996094 L 18.078125 12.402344 L 17.367188 11.167969 z M 10 21 A 2 2 0 0 0 8 23 A 2 2 0 0 0 10 25 A 2 2 0 0 0 12 23 A 2 2 0 0 0 10 21 z "
     transform="scale(0.5)" />
</svg>
