<?xml version="1.0" encoding="UTF-8" standalone="no"?>
<svg
   viewBox="0 0 16 16"
   version="1.1"
   id="svg5"
   sodipodi:docname="folder_open_dots.svg"
   inkscape:version="1.1 (c4e8f9e, 2021-05-24)"
   width="32"
   height="32"
   xmlns:inkscape="http://www.inkscape.org/namespaces/inkscape"
   xmlns:sodipodi="http://sodipodi.sourceforge.net/DTD/sodipodi-0.dtd"
   xmlns="http://www.w3.org/2000/svg"
   xmlns:svg="http://www.w3.org/2000/svg"
   xmlns:rdf="http://www.w3.org/1999/02/22-rdf-syntax-ns#"
   xmlns:cc="http://creativecommons.org/ns#"
   xmlns:dc="http://purl.org/dc/elements/1.1/">
  <metadata
     id="metadata9">
    <rdf:RDF>
      <cc:Work
         rdf:about="">
        <dc:format>image/svg+xml</dc:format>
        <dc:type
           rdf:resource="http://purl.org/dc/dcmitype/StillImage" />
      </cc:Work>
    </rdf:RDF>
  </metadata>
  <sodipodi:namedview
     pagecolor="#ffffff"
     bordercolor="#666666"
     borderopacity="1"
     objecttolerance="10"
     gridtolerance="10"
     guidetolerance="10"
     inkscape:pageopacity="0"
     inkscape:pageshadow="2"
     inkscape:window-width="1554"
     inkscape:window-height="1641"
     id="namedview7"
     showgrid="true"
     inkscape:zoom="32"
     inkscape:cx="14.203125"
     inkscape:cy="17.453125"
     inkscape:window-x="3609"
     inkscape:window-y="257"
     inkscape:window-maximized="0"
     inkscape:current-layer="svg5"
     inkscape:snap-bbox="true"
     inkscape:snap-bbox-edge-midpoints="true"
     inkscape:pagecheckerboard="0">
    <inkscape:grid
       type="xygrid"
       id="grid8" />
  </sodipodi:namedview>
  <defs
     id="defs3051">
    <style
       type="text/css"
       id="current-color-scheme">
      .ColorScheme-Text {
        color:#232629;
      }
      </style>
  </defs>
  <path
     id="path13"
     style="fill:#ffffff;fill-opacity:0.5;stroke:none;stroke-width:2"
     d="M 6 4 C 4.9 4 4 4.9 4 6 L 4 26 C 4 27.1 4.9 28 6 28 L 18 28 L 26 28 C 27.1 28 28 27.1 28 26 L 28 18 L 28 10 C 28 8.9 27.1 8 26 8 L 18.015625 8 L 14.015625 4 L 14 4.015625 L 14 4 L 6 4 z M 13.996094 12 L 26 12 L 26 18 L 26 26 L 18 26 L 6 26 L 6 16 L 10 16 L 13.996094 12 z M 14 22 L 14 24 L 16 24 L 16 22 L 14 22 z M 18 22 L 18 24 L 20 24 L 20 22 L 18 22 z M 22 22 L 22 24 L 24 24 L 24 22 L 22 22 z "
     transform="scale(0.5)" />
</svg>
