<?xml version="1.0" encoding="UTF-8" standalone="no"?>
<svg
   xmlns:dc="http://purl.org/dc/elements/1.1/"
   xmlns:cc="http://creativecommons.org/ns#"
   xmlns:rdf="http://www.w3.org/1999/02/22-rdf-syntax-ns#"
   xmlns:svg="http://www.w3.org/2000/svg"
   xmlns="http://www.w3.org/2000/svg"
   xmlns:sodipodi="http://sodipodi.sourceforge.net/DTD/sodipodi-0.dtd"
   xmlns:inkscape="http://www.inkscape.org/namespaces/inkscape"
   viewBox="0 0 16 16"
   version="1.1"
   id="svg6"
   sodipodi:docname="history_clear.svg"
   inkscape:version="0.92.4 (5da689c313, 2019-01-14)"
   width="32"
   height="32">
  <metadata
     id="metadata10">
    <rdf:RDF>
      <cc:Work
         rdf:about="">
        <dc:format>image/svg+xml</dc:format>
        <dc:type
           rdf:resource="http://purl.org/dc/dcmitype/StillImage" />
        <dc:title />
      </cc:Work>
    </rdf:RDF>
  </metadata>
  <sodipodi:namedview
     pagecolor="#ffffff"
     bordercolor="#666666"
     borderopacity="1"
     objecttolerance="10"
     gridtolerance="10"
     guidetolerance="10"
     inkscape:pageopacity="0"
     inkscape:pageshadow="2"
     inkscape:window-width="1912"
     inkscape:window-height="2056"
     id="namedview8"
     showgrid="false"
     inkscape:snap-bbox="true"
     inkscape:snap-bbox-midpoints="false"
     inkscape:zoom="22.627417"
     inkscape:cx="12.318507"
     inkscape:cy="-5.4397023"
     inkscape:window-x="3840"
     inkscape:window-y="0"
     inkscape:window-maximized="0"
     inkscape:current-layer="svg6"
     inkscape:snap-page="true"
     inkscape:snap-bbox-edge-midpoints="false"
     inkscape:bbox-nodes="true" />
  <defs
     id="defs3051">
    <style
       type="text/css"
       id="current-color-scheme">
      .ColorScheme-Text {
        color:#232629;
      }
      </style>
  </defs>
  <path
     style="fill:#ffffff;fill-opacity:0.49803922;stroke:none"
     d="m 8.9921875,2 c -3.3137081,0 -6,2.686292 -6,6 0,0.283383 0.022017,0.561391 0.060547,0.833984 l -1.3378907,-1.33789 -0.7070313,0.707031 2.1210937,2.121094 0.6777344,0.677734 c 0.0073,0.01256 0.012151,0.02656 0.019531,0.03906 l 0.00977,-0.0098 0.7070313,-0.707031 0.03125,-0.03125 L 6.6640625,8.203125 5.9570312,7.496094 4.1738281,9.279297 C 4.0592751,8.871715 3.9921875,8.445486 3.9921875,8 c 0,-2.761423 2.2385763,-5 5,-5 2.7614225,0 4.9999995,2.238577 5.0000005,5 0,0.346745 -0.05693,0.676233 -0.13086,1 h 1.033203 c 0.05685,-0.326181 0.09766,-0.657459 0.09766,-1 0,-3.313708 -2.686293,-6 -6.0000005,-6 z m -1,2 v 4 1 h 1 3.0000005 V 8 H 8.9921875 V 7.316406 4 Z M 6.6972656,12.417969 5.9492188,13.164062 C 6.8422048,13.691434 7.8800049,14 8.9921875,14 V 13 C 8.1598303,13 7.3876281,12.777758 6.6972656,12.417969 Z"
     id="path145-5"
     inkscape:connector-curvature="0" />
  <path
     inkscape:connector-curvature="0"
     style="color:#232629;fill:#ffffff;fill-opacity:0.49803922;stroke:none"
     d="M 10.707031,10 10,10.707031 11.792969,12.5 10,14.292969 10.707031,15 12.5,13.207031 14.292969,15 15,14.292969 13.207032,12.5 15,10.707031 14.292969,10 12.5,11.792969 Z"
     id="path4-3" />
</svg>
