<?xml version="1.0" encoding="UTF-8" standalone="no"?>
<svg
   xmlns:dc="http://purl.org/dc/elements/1.1/"
   xmlns:cc="http://creativecommons.org/ns#"
   xmlns:rdf="http://www.w3.org/1999/02/22-rdf-syntax-ns#"
   xmlns:svg="http://www.w3.org/2000/svg"
   xmlns="http://www.w3.org/2000/svg"
   xmlns:sodipodi="http://sodipodi.sourceforge.net/DTD/sodipodi-0.dtd"
   xmlns:inkscape="http://www.inkscape.org/namespaces/inkscape"
   viewBox="0 0 16 16"
   version="1.1"
   id="svg6"
   sodipodi:docname="large_view.svg"
   inkscape:version="1.0.2 (e86c870, 2021-01-15)"
   width="32"
   height="32">
  <metadata
     id="metadata10">
    <rdf:RDF>
      <cc:Work
         rdf:about="">
        <dc:format>image/svg+xml</dc:format>
        <dc:type
           rdf:resource="http://purl.org/dc/dcmitype/StillImage" />
        <dc:title></dc:title>
      </cc:Work>
    </rdf:RDF>
  </metadata>
  <sodipodi:namedview
     pagecolor="#ffffff"
     bordercolor="#666666"
     borderopacity="1"
     objecttolerance="10"
     gridtolerance="10"
     guidetolerance="10"
     inkscape:pageopacity="0"
     inkscape:pageshadow="2"
     inkscape:window-width="1912"
     inkscape:window-height="2056"
     id="namedview8"
     showgrid="false"
     inkscape:zoom="29.5"
     inkscape:cx="12.004279"
     inkscape:cy="3.3248339"
     inkscape:window-x="3840"
     inkscape:window-y="0"
     inkscape:window-maximized="0"
     inkscape:current-layer="svg6"
     inkscape:document-rotation="0" />
  <defs
     id="defs3051">
    <style
       type="text/css"
       id="current-color-scheme">
      .ColorScheme-Text {
        color:#232629;
      }
      </style>
  </defs>
  <path
     style="fill:#ffffff;fill-opacity:0.5;stroke:none"
     d="M 3,2 C 2.45,2 2,2.45 2,3 v 10 c 0,0.55 0.45,1 1,1 h 10 c 0.55,0 1,-0.45 1,-1 V 12 11 10 3 C 14,2.45 13.55,2 13,2 Z M 3,3 H 13 V 9 L 11,7 7.65625,10.34375 6.3125,9 H 6.28125 L 3,12.28125 Z M 6,4 C 4.8954305,4 4,4.89543 4,6 4,7.104569 4.8954305,8 6,8 7.1045695,8 8,7.104569 8,6 8,4.89543 7.1045695,4 6,4 Z"
     id="path4"
     inkscape:connector-curvature="0" />
</svg>
