<?xml version="1.0" encoding="UTF-8" standalone="no"?>
<svg
   viewBox="0 0 16 16"
   version="1.1"
   id="svg5"
   sodipodi:docname="marks_mark-unmark.svg"
   inkscape:version="1.1 (c4e8f9e, 2021-05-24)"
   width="32"
   height="32"
   xmlns:inkscape="http://www.inkscape.org/namespaces/inkscape"
   xmlns:sodipodi="http://sodipodi.sourceforge.net/DTD/sodipodi-0.dtd"
   xmlns="http://www.w3.org/2000/svg"
   xmlns:svg="http://www.w3.org/2000/svg"
   xmlns:rdf="http://www.w3.org/1999/02/22-rdf-syntax-ns#"
   xmlns:cc="http://creativecommons.org/ns#"
   xmlns:dc="http://purl.org/dc/elements/1.1/">
  <metadata
     id="metadata9">
    <rdf:RDF>
      <cc:Work
         rdf:about="">
        <dc:format>image/svg+xml</dc:format>
        <dc:type
           rdf:resource="http://purl.org/dc/dcmitype/StillImage" />
      </cc:Work>
    </rdf:RDF>
  </metadata>
  <sodipodi:namedview
     pagecolor="#ffffff"
     bordercolor="#666666"
     borderopacity="1"
     objecttolerance="10"
     gridtolerance="10"
     guidetolerance="10"
     inkscape:pageopacity="0"
     inkscape:pageshadow="2"
     inkscape:window-width="1912"
     inkscape:window-height="1358"
     id="namedview7"
     showgrid="true"
     inkscape:zoom="14.75"
     inkscape:cx="15.830508"
     inkscape:cy="20.40678"
     inkscape:window-x="3443"
     inkscape:window-y="227"
     inkscape:window-maximized="0"
     inkscape:current-layer="svg5"
     inkscape:snap-bbox="true"
     inkscape:bbox-nodes="true"
     inkscape:snap-page="true"
     inkscape:pagecheckerboard="0">
    <inkscape:grid
       type="xygrid"
       id="grid845" />
  </sodipodi:namedview>
  <defs
     id="defs3051">
    <style
       type="text/css"
       id="current-color-scheme">
      .ColorScheme-Text {
        color:#232629;
      }
      </style>
  </defs>
  <path
     id="path1448"
     style="fill:#ffffff;fill-opacity:0.5;stroke:none;stroke-width:2"
     d="M 14 2 L 2 14 L 14 14 L 14 2 z M 16 6 L 16 8 L 22 8 L 22 14 L 20 14 L 23 17 L 26 14 L 24 14 L 24 8 L 24 6 L 22 6 L 16 6 z M 12 6.7773438 L 12 12 L 6.7773438 12 L 12 6.7773438 z M 9 16 L 6 19 L 8 19 L 8 25 L 8 27 L 10 27 L 16 27 L 16 25 L 10 25 L 10 19 L 12 19 L 9 16 z M 30 18 L 18 30 L 30 30 L 30 18 z "
     transform="scale(0.5)" />
</svg>
