<?xml version="1.0" encoding="UTF-8" standalone="no"?>
<svg
   viewBox="0 0 16 16"
   version="1.1"
   id="svg5"
   sodipodi:docname="node_add.svg"
   inkscape:version="1.1 (c4e8f9e, 2021-05-24)"
   width="32"
   height="32"
   xmlns:inkscape="http://www.inkscape.org/namespaces/inkscape"
   xmlns:sodipodi="http://sodipodi.sourceforge.net/DTD/sodipodi-0.dtd"
   xmlns="http://www.w3.org/2000/svg"
   xmlns:svg="http://www.w3.org/2000/svg"
   xmlns:rdf="http://www.w3.org/1999/02/22-rdf-syntax-ns#"
   xmlns:cc="http://creativecommons.org/ns#"
   xmlns:dc="http://purl.org/dc/elements/1.1/">
  <metadata
     id="metadata9">
    <rdf:RDF>
      <cc:Work
         rdf:about="">
        <dc:format>image/svg+xml</dc:format>
        <dc:type
           rdf:resource="http://purl.org/dc/dcmitype/StillImage" />
      </cc:Work>
    </rdf:RDF>
  </metadata>
  <sodipodi:namedview
     pagecolor="#ffffff"
     bordercolor="#666666"
     borderopacity="1"
     objecttolerance="10"
     gridtolerance="10"
     guidetolerance="10"
     inkscape:pageopacity="0"
     inkscape:pageshadow="2"
     inkscape:window-width="1920"
     inkscape:window-height="998"
     id="namedview7"
     showgrid="true"
     inkscape:zoom="16"
     inkscape:cx="23.78125"
     inkscape:cy="16.0625"
     inkscape:window-x="0"
     inkscape:window-y="0"
     inkscape:window-maximized="1"
     inkscape:current-layer="svg5"
     inkscape:snap-bbox="true"
     inkscape:bbox-nodes="true"
     inkscape:snap-page="true"
     inkscape:pagecheckerboard="0">
    <inkscape:grid
       type="xygrid"
       id="grid871" />
  </sodipodi:namedview>
  <defs
     id="defs3051">
    <style
       type="text/css"
       id="current-color-scheme">
      .ColorScheme-Text {
        color:#232629;
      }
      </style>
  </defs>
  <path
     id="path3090"
     style="fill:#ffffff;fill-opacity:0.5;stroke:none;stroke-width:5.2915"
     d="M 7 4 A 3 3 0 0 0 4 7 A 3 3 0 0 0 4 7.0507812 A 3 3 0 0 0 6 9.8242188 L 6 10.050781 L 6 12.050781 A 4 4 0 0 0 10 16.050781 L 12 16.050781 A 2 2 0 0 1 14 18.050781 L 14 22.222656 A 3 3 0 0 0 12 25.050781 A 3 3 0 0 0 12 25.101562 A 3 3 0 0 0 15 28.050781 A 3 3 0 0 0 18 25.050781 A 3 3 0 0 0 16 22.224609 L 16 18.050781 A 2 2 0 0 1 18 16.050781 L 20 16.050781 A 4 4 0 0 0 24 12.050781 L 24 10.050781 L 24 9.8769531 A 3 3 0 0 0 26 7.0507812 A 3 3 0 0 0 23 4.0507812 A 3 3 0 0 0 20 7.0507812 A 3 3 0 0 0 20 7.1015625 A 3 3 0 0 0 22 9.875 L 22 10.050781 L 22 12.050781 A 2 2 0 0 1 20 14.050781 L 18 14.050781 A 4 4 0 0 0 16 14.587891 L 16 9.8769531 A 3 3 0 0 0 18 7.0507812 A 3 3 0 0 0 15 4.0507812 A 3 3 0 0 0 12 7.0507812 A 3 3 0 0 0 12 7.1015625 A 3 3 0 0 0 14 9.875 L 14 14.59375 A 4 4 0 0 0 12 14.050781 L 10 14.050781 A 2 2 0 0 1 8 12.050781 L 8 10.050781 L 8 9.8261719 A 3 3 0 0 0 10 7 A 3 3 0 0 0 7 4 z M 7 6 A 1 1 0 0 1 8 7 A 1 1 0 0 1 7 8 A 1 1 0 0 1 6 7 A 1 1 0 0 1 7 6 z M 15 6.0507812 A 1 1 0 0 1 16 7.0507812 A 1 1 0 0 1 15 8.0507812 A 1 1 0 0 1 14 7.0507812 A 1 1 0 0 1 15 6.0507812 z M 23 6.0507812 A 1 1 0 0 1 24 7.0507812 A 1 1 0 0 1 23 8.0507812 A 1 1 0 0 1 22 7.0507812 A 1 1 0 0 1 23 6.0507812 z M 23 20 L 23 23 L 20 23 L 20 25 L 23 25 L 23 28 L 25 28 L 25 25 L 28 25 L 28 23 L 25 23 L 25 20 L 23 20 z M 15 24.050781 A 1 1 0 0 1 16 25.050781 A 1 1 0 0 1 15 26.050781 A 1 1 0 0 1 14 25.050781 A 1 1 0 0 1 15 24.050781 z "
     transform="scale(0.5)" />
</svg>
