<?xml version="1.0" encoding="UTF-8" standalone="no"?>
<svg
   viewBox="0 0 16 16"
   version="1.1"
   id="svg5"
   sodipodi:docname="process_out.svg"
   inkscape:version="1.1 (c4e8f9e, 2021-05-24)"
   width="32"
   height="32"
   xmlns:inkscape="http://www.inkscape.org/namespaces/inkscape"
   xmlns:sodipodi="http://sodipodi.sourceforge.net/DTD/sodipodi-0.dtd"
   xmlns="http://www.w3.org/2000/svg"
   xmlns:svg="http://www.w3.org/2000/svg"
   xmlns:rdf="http://www.w3.org/1999/02/22-rdf-syntax-ns#"
   xmlns:cc="http://creativecommons.org/ns#"
   xmlns:dc="http://purl.org/dc/elements/1.1/">
  <metadata
     id="metadata9">
    <rdf:RDF>
      <cc:Work
         rdf:about="">
        <dc:format>image/svg+xml</dc:format>
        <dc:type
           rdf:resource="http://purl.org/dc/dcmitype/StillImage" />
      </cc:Work>
    </rdf:RDF>
  </metadata>
  <sodipodi:namedview
     pagecolor="#ffffff"
     bordercolor="#666666"
     borderopacity="1"
     objecttolerance="10"
     gridtolerance="10"
     guidetolerance="10"
     inkscape:pageopacity="0"
     inkscape:pageshadow="2"
     inkscape:window-width="1913"
     inkscape:window-height="1752"
     id="namedview7"
     showgrid="true"
     inkscape:zoom="22.627417"
     inkscape:cx="27.930718"
     inkscape:cy="16.396038"
     inkscape:window-x="3753"
     inkscape:window-y="239"
     inkscape:window-maximized="0"
     inkscape:current-layer="svg5"
     inkscape:snap-bbox="true"
     inkscape:bbox-nodes="true"
     inkscape:snap-page="true"
     inkscape:document-rotation="0"
     inkscape:snap-bbox-edge-midpoints="true"
     inkscape:snap-grids="true"
     inkscape:object-nodes="true"
     inkscape:pagecheckerboard="0">
    <inkscape:grid
       type="xygrid"
       id="grid835" />
  </sodipodi:namedview>
  <defs
     id="defs3051">
    <style
       type="text/css"
       id="current-color-scheme">
      .ColorScheme-Text {
        color:#232629;
      }
      </style>
  </defs>
  <path
     id="path2477"
     style="fill:#ffffff;fill-opacity:0.5;stroke:none;stroke-width:2"
     d="M 3.9492188 2 C 2.8727266 2.0275173 2 2.9171875 2 4 L 2 24 C 2 25.1 2.9 26 4 26 L 12.072266 26 L 12.197266 25.724609 A 10 10 0 0 1 11.449219 23.927734 L 10.302734 23.492188 A 11 11 0 0 1 10.001953 21.048828 L 10.001953 20.962891 A 11 11 0 0 1 10.302734 18.507812 L 11.439453 18.076172 A 10 10 0 0 1 11.773438 17.148438 L 10.625 16 L 10.5625 16 L 4 22.5625 L 4 4 L 18 4 L 20 4 L 20 6 L 22 6 L 22 4 C 22 2.9 21.1 2 20 2 L 18 2 L 4 2 C 3.982813 2 3.966306 1.9995632 3.9492188 2 z M 25.757812 4.7578125 L 24.34375 6.171875 L 26.171875 8 L 15.654297 8 L 15.654297 10 L 26.171875 10 L 24.34375 11.828125 L 25.757812 13.242188 L 28.585938 10.414062 L 29 10 L 30 9 L 29 8 L 25.757812 4.7578125 z M 9 5 L 8.6953125 6.21875 C 8.1816485 6.39601 7.7151205 6.674656 7.3203125 7.03125 L 6.1621094 6.7011719 L 5.1621094 8.4335938 L 6.0625 9.3046875 C 6.0229 9.5305435 6 9.7628 6 10 C 6 10.2372 6.0229 10.469458 6.0625 10.695312 L 5.1621094 11.566406 L 6.1621094 13.298828 L 7.3203125 12.96875 C 7.7151205 13.325342 8.1816485 13.603982 8.6953125 13.78125 L 9 15 L 11 15 L 11.304688 13.78125 C 11.819242 13.60367 12.286396 13.324279 12.681641 12.966797 L 13.84375 13.298828 L 14.84375 11.566406 L 13.939453 10.691406 C 13.978577 10.466844 14 10.235756 14 10 C 14 9.764242 13.978575 9.5331538 13.939453 9.3085938 L 14.84375 8.4335938 L 13.84375 6.7011719 L 12.681641 7.0332031 C 12.286395 6.6757233 11.819244 6.396326 11.304688 6.21875 L 11 5 L 9 5 z M 10 8 A 2 2 0 0 1 12 10 A 2 2 0 0 1 10 12 A 2 2 0 0 1 8 10 A 2 2 0 0 1 10 8 z M 20 12 L 19.142578 14.257812 A 7 7 0 0 0 17.507812 14.941406 L 15.414062 14 L 14 15.414062 L 14.941406 17.511719 A 7 7 0 0 0 14.251953 19.144531 L 12 20 L 12 22 L 14.257812 22.857422 A 7 7 0 0 0 14.941406 24.492188 L 14 26.585938 L 15.414062 28 L 17.511719 27.058594 A 7 7 0 0 0 19.144531 27.748047 L 20 30 L 22 30 L 22.857422 27.742188 A 7 7 0 0 0 24.492188 27.058594 L 26.585938 28 L 28 26.585938 L 27.058594 24.488281 A 7 7 0 0 0 27.748047 22.855469 L 30 22 L 30 20 L 27.742188 19.142578 A 7 7 0 0 0 27.058594 17.507812 L 28 15.414062 L 26.585938 14 L 24.488281 14.941406 A 7 7 0 0 0 22.855469 14.251953 L 22 12 L 20 12 z M 21 16 A 5 5.000001 0 0 1 26 21 A 5 5.000001 0 0 1 21 26 A 5 5.000001 0 0 1 16 21 A 5 5.000001 0 0 1 21 16 z M 20 19 L 20 23 L 23 21 L 20 19 z "
     transform="scale(0.5)" />
</svg>
