<?xml version="1.0" encoding="UTF-8" standalone="no"?>
<svg
   xmlns:dc="http://purl.org/dc/elements/1.1/"
   xmlns:cc="http://creativecommons.org/ns#"
   xmlns:rdf="http://www.w3.org/1999/02/22-rdf-syntax-ns#"
   xmlns:svg="http://www.w3.org/2000/svg"
   xmlns="http://www.w3.org/2000/svg"
   xmlns:sodipodi="http://sodipodi.sourceforge.net/DTD/sodipodi-0.dtd"
   xmlns:inkscape="http://www.inkscape.org/namespaces/inkscape"
   viewBox="0 0 16 16"
   version="1.1"
   id="svg5"
   sodipodi:docname="saved_views_clear.svg"
   inkscape:version="0.92.4 (5da689c313, 2019-01-14)"
   width="32"
   height="32">
  <metadata
     id="metadata9">
    <rdf:RDF>
      <cc:Work
         rdf:about="">
        <dc:format>image/svg+xml</dc:format>
        <dc:type
           rdf:resource="http://purl.org/dc/dcmitype/StillImage" />
        <dc:title></dc:title>
      </cc:Work>
    </rdf:RDF>
  </metadata>
  <sodipodi:namedview
     pagecolor="#ffffff"
     bordercolor="#666666"
     borderopacity="1"
     objecttolerance="10"
     gridtolerance="10"
     guidetolerance="10"
     inkscape:pageopacity="0"
     inkscape:pageshadow="2"
     inkscape:window-width="1554"
     inkscape:window-height="1641"
     id="namedview7"
     showgrid="false"
     inkscape:zoom="5.6568543"
     inkscape:cx="46.870638"
     inkscape:cy="-13.514651"
     inkscape:window-x="3664"
     inkscape:window-y="261"
     inkscape:window-maximized="0"
     inkscape:current-layer="svg5"
     inkscape:snap-bbox="true"
     inkscape:snap-bbox-edge-midpoints="false"
     inkscape:bbox-nodes="true"
     inkscape:bbox-paths="false"
     inkscape:snap-page="true" />
  <defs
     id="defs3051">
    <style
       type="text/css"
       id="current-color-scheme">
      .ColorScheme-Text {
        color:#232629;
      }
      </style>
  </defs>
  <path
     style="fill:#ffffff;fill-opacity:0.49803922;stroke:none;stroke-width:1"
     d="m 4.0078125,1.0000001 c -0.5500001,0 -1,0.45 -1,1 H 6.285156 6.4121095 L 6.705078,2.2929689 h 0.00195 l 1.7070346,1.7070312 h 4.5937504 1 V 5 v 3 4 1 c 0.55,0 1,-0.45 1,-1 V 8 4.0000001 c 0,-0.5499999 -0.45,-1 -1,-1 h -3.992188 l -1.9999999,-2 -0.00781,0.00781 v -0.00781 z m -2.0078126,2 C 1.45,3.0000001 1,3.4500001 1,4.0000001 V 14 c 0,0.55 0.45,1 0.9999999,1 H 7 V 14 H 1.9999999 V 9 H 4 L 5.998047,7 H 12 v 2 h 1 V 6 C 13,5.45 12.55,5 12,5 H 8.0078126 l -2.0000001,-1.9999999 -0.00781,0.00781 v -0.00781 H 5.285156 3.0078125 Z M 6.998047,8.4326175 A 4.5678558,4.5678611 0 0 0 3,10.801758 c 0.065445,0.184617 0.1813492,0.343391 0.3330077,0.460938 A 4.0603164,4.060321 0 0 1 6.998047,8.939453 2.0301596,2.0301602 0 0 0 4.9677734,10.969727 2.0301596,2.0301602 0 0 0 6.998047,13 a 2.0301596,2.0301602 0 0 0 0.00195,0 v -0.507812 a 1.5226197,1.5226201 0 0 1 -0.00195,0 1.5226197,1.5226201 0 0 1 -1.522461,-1.522461 1.5226197,1.5226201 0 0 1 1.522461,-1.522461 1.5226197,1.5226201 0 0 1 0.00195,0 V 9 H 7.475583 A 2.0301596,2.0301602 0 0 0 7.175781,8.9482425 4.0603164,4.060321 0 0 1 7.6435545,9 h 0.3564456 1 V 8.897461 A 4.5678558,4.5678611 0 0 0 6.998047,8.4326175 Z m 0,1.5224605 a 1.0150799,1.0150801 0 0 0 -1.015625,1.014649 1.0150799,1.0150801 0 0 0 1.015625,1.015625 1.0150799,1.0150801 0 0 0 0.00195,0 V 11 10.504883 a 0.5075399,0.50754 0 0 1 -0.00195,-0.04297 0.5075399,0.50754 0 0 1 0.00195,-0.03418 V 10 9.955078 a 1.0150799,1.0150801 0 0 0 -0.00195,0 z M 8.7070311,10 8.0000001,10.707032 9.7929686,12.5 8.0000001,14.292969 8.7070311,15 10.5,13.207032 12.292969,15 13,14.292969 11.207031,12.5 13,10.707032 12.292969,10 10.5,11.792969 Z"
     id="path13"
     inkscape:connector-curvature="0" />
</svg>
