<?xml version="1.0" encoding="UTF-8" standalone="no"?>
<svg
   xmlns:dc="http://purl.org/dc/elements/1.1/"
   xmlns:cc="http://creativecommons.org/ns#"
   xmlns:rdf="http://www.w3.org/1999/02/22-rdf-syntax-ns#"
   xmlns:svg="http://www.w3.org/2000/svg"
   xmlns="http://www.w3.org/2000/svg"
   xmlns:sodipodi="http://sodipodi.sourceforge.net/DTD/sodipodi-0.dtd"
   xmlns:inkscape="http://www.inkscape.org/namespaces/inkscape"
   viewBox="0 0 16 16"
   version="1.1"
   id="svg5"
   sodipodi:docname="saved_views.svg"
   inkscape:version="0.92.4 (5da689c313, 2019-01-14)"
   width="32"
   height="32">
  <metadata
     id="metadata9">
    <rdf:RDF>
      <cc:Work
         rdf:about="">
        <dc:format>image/svg+xml</dc:format>
        <dc:type
           rdf:resource="http://purl.org/dc/dcmitype/StillImage" />
        <dc:title />
      </cc:Work>
    </rdf:RDF>
  </metadata>
  <sodipodi:namedview
     pagecolor="#ffffff"
     bordercolor="#666666"
     borderopacity="1"
     objecttolerance="10"
     gridtolerance="10"
     guidetolerance="10"
     inkscape:pageopacity="0"
     inkscape:pageshadow="2"
     inkscape:window-width="1554"
     inkscape:window-height="1641"
     id="namedview7"
     showgrid="false"
     inkscape:zoom="22.627417"
     inkscape:cx="8.0773344"
     inkscape:cy="13.86385"
     inkscape:window-x="3664"
     inkscape:window-y="261"
     inkscape:window-maximized="0"
     inkscape:current-layer="svg5"
     inkscape:snap-bbox="true"
     inkscape:snap-bbox-edge-midpoints="false"
     inkscape:bbox-nodes="true" />
  <defs
     id="defs3051">
    <style
       type="text/css"
       id="current-color-scheme">
      .ColorScheme-Text {
        color:#232629;
      }
      </style>
  </defs>
  <path
     style="fill:#ffffff;fill-opacity:0.49803922;stroke:none;stroke-width:1"
     d="M 3,2 C 2.45,2 2,2.45 2,3 v 10 c 0,0.55 0.45,1 1,1 h 6 4 c 0.55,0 1,-0.45 1,-1 V 9 5 C 14,4.45 13.55,4 13,4 H 9.0078125 l -2,-2 L 7,2.0078125 V 2 Z M 6.998047,6 H 13 v 3 4 H 9 3 V 8 h 2 z m 1,1.432617 A 4.5678558,4.5678611 0 0 0 4,9.801758 c 0.065445,0.184617 0.1813492,0.343391 0.3330078,0.460938 A 4.0603164,4.060321 0 0 1 7.998047,7.939453 2.0301596,2.0301602 0 0 0 5.9677735,9.9697265 2.0301596,2.0301602 0 0 0 7.998047,12 2.0301596,2.0301602 0 0 0 10.028321,9.9697265 2.0301596,2.0301602 0 0 0 8.175781,7.948242 a 4.0603164,4.060321 0 0 1 3.487305,2.314454 c 0.153031,-0.118612 0.26987,-0.2800865 0.334961,-0.4667975 a 4.5678558,4.5678611 0 0 0 -4,-2.3632815 z m 0,1.0146485 A 1.5226197,1.5226201 0 0 1 9.520508,9.9697265 1.5226197,1.5226201 0 0 1 7.998047,11.492188 1.5226197,1.5226201 0 0 1 6.475586,9.9697265 1.5226197,1.5226201 0 0 1 7.998047,8.4472655 Z m 0,0.5078125 A 1.0150799,1.0150801 0 0 0 6.982422,9.9697265 1.0150799,1.0150801 0 0 0 7.998047,10.985352 1.0150799,1.0150801 0 0 0 9.0126955,9.9697265 1.0150799,1.0150801 0 0 0 8.9677735,9.671875 0.5075399,0.50754 0 0 1 8.5058595,9.9697265 0.5075399,0.50754 0 0 1 7.998047,9.461914 0.5075399,0.50754 0 0 1 8.296875,9 1.0150799,1.0150801 0 0 0 7.998047,8.955078 Z"
     id="path30"
     inkscape:connector-curvature="0" />
</svg>
