<?xml version="1.0" encoding="UTF-8" standalone="no"?>
<svg
   xmlns:dc="http://purl.org/dc/elements/1.1/"
   xmlns:cc="http://creativecommons.org/ns#"
   xmlns:rdf="http://www.w3.org/1999/02/22-rdf-syntax-ns#"
   xmlns:svg="http://www.w3.org/2000/svg"
   xmlns="http://www.w3.org/2000/svg"
   xmlns:sodipodi="http://sodipodi.sourceforge.net/DTD/sodipodi-0.dtd"
   xmlns:inkscape="http://www.inkscape.org/namespaces/inkscape"
   viewBox="0 0 16 16"
   version="1.1"
   id="svg5"
   sodipodi:docname="select_all.svg"
   inkscape:version="1.0.2 (e86c870, 2021-01-15)"
   width="32"
   height="32">
  <metadata
     id="metadata9">
    <rdf:RDF>
      <cc:Work
         rdf:about="">
        <dc:format>image/svg+xml</dc:format>
        <dc:type
           rdf:resource="http://purl.org/dc/dcmitype/StillImage" />
        <dc:title></dc:title>
      </cc:Work>
    </rdf:RDF>
  </metadata>
  <sodipodi:namedview
     pagecolor="#ffffff"
     bordercolor="#666666"
     borderopacity="1"
     objecttolerance="10"
     gridtolerance="10"
     guidetolerance="10"
     inkscape:pageopacity="0"
     inkscape:pageshadow="2"
     inkscape:window-width="1912"
     inkscape:window-height="2056"
     id="namedview7"
     showgrid="false"
     inkscape:zoom="20.85965"
     inkscape:cx="7.985587"
     inkscape:cy="-1.0368047"
     inkscape:window-x="3840"
     inkscape:window-y="0"
     inkscape:window-maximized="0"
     inkscape:current-layer="svg5"
     inkscape:snap-bbox="true"
     inkscape:bbox-nodes="true"
     inkscape:snap-page="true"
     inkscape:document-rotation="0" />
  <defs
     id="defs3051">
    <style
       type="text/css"
       id="current-color-scheme">
      .ColorScheme-Text {
        color:#232629;
      }
      </style>
  </defs>
  <path
     style="fill:#ffffff;fill-opacity:0.5;stroke:none"
     d="M 2,1 C 1.45,1 1,1.45 1,2 H 2 Z M 3,1 V 2 H 4 V 1 Z M 5,1 V 2 H 6 V 1 Z M 7,1 V 2 H 8 V 1 Z m 2,0 v 1 h 1 V 1 Z m 2,0 v 1 h 1 V 1 Z m 2,0 v 1 h 1 V 1 Z m 1,1 v 1 h 1 V 2 Z M 1,3 V 4 H 2 V 3 Z m 2,0 v 1 8 1 H 13 V 12 4 3 H 12 4 Z m 1,1 h 8 v 8 H 4 Z m 10,0 v 1 h 1 V 4 Z M 1,5 V 6 H 2 V 5 Z m 13,1 v 1 h 1 V 6 Z M 1,7 V 8 H 2 V 7 Z m 13,1 v 1 h 1 V 8 Z M 1,9 v 1 H 2 V 9 Z m 13,1 v 1 h 1 V 10 Z M 1,11 v 1 h 1 v -1 z m 13,1 v 1 h 1 V 12 Z M 1,13 v 1 h 1 v -1 z m 1,1 v 1 h 1 v -1 z m 2,0 v 1 h 1 v -1 z m 2,0 v 1 h 1 v -1 z m 2,0 v 1 h 1 v -1 z m 2,0 v 1 h 1 v -1 z m 2,0 v 1 h 1 v -1 z m 2,0 v 1 c 0.55,0 1,-0.45 1,-1 z"
     id="path77"
     inkscape:connector-curvature="0" />
</svg>
