<?xml version="1.0" encoding="UTF-8" standalone="no"?>
<svg
   viewBox="0 0 16 16"
   version="1.1"
   id="svg5"
   sodipodi:docname="toolbar.svg"
   inkscape:version="1.1 (c4e8f9e, 2021-05-24)"
   width="32"
   height="32"
   xmlns:inkscape="http://www.inkscape.org/namespaces/inkscape"
   xmlns:sodipodi="http://sodipodi.sourceforge.net/DTD/sodipodi-0.dtd"
   xmlns="http://www.w3.org/2000/svg"
   xmlns:svg="http://www.w3.org/2000/svg"
   xmlns:rdf="http://www.w3.org/1999/02/22-rdf-syntax-ns#"
   xmlns:cc="http://creativecommons.org/ns#"
   xmlns:dc="http://purl.org/dc/elements/1.1/">
  <metadata
     id="metadata9">
    <rdf:RDF>
      <cc:Work
         rdf:about="">
        <dc:format>image/svg+xml</dc:format>
        <dc:type
           rdf:resource="http://purl.org/dc/dcmitype/StillImage" />
      </cc:Work>
    </rdf:RDF>
  </metadata>
  <sodipodi:namedview
     pagecolor="#ffffff"
     bordercolor="#666666"
     borderopacity="1"
     objecttolerance="10"
     gridtolerance="10"
     guidetolerance="10"
     inkscape:pageopacity="0"
     inkscape:pageshadow="2"
     inkscape:window-width="1710"
     inkscape:window-height="1499"
     id="namedview7"
     showgrid="true"
     inkscape:zoom="22.627417"
     inkscape:cx="11.600971"
     inkscape:cy="18.406873"
     inkscape:window-x="3680"
     inkscape:window-y="285"
     inkscape:window-maximized="0"
     inkscape:current-layer="svg5"
     inkscape:snap-bbox="true"
     inkscape:bbox-nodes="true"
     inkscape:snap-page="true"
     inkscape:document-rotation="0"
     inkscape:snap-bbox-edge-midpoints="true"
     inkscape:snap-grids="true"
     inkscape:object-nodes="true"
     inkscape:pagecheckerboard="0">
    <inkscape:grid
       type="xygrid"
       id="grid828" />
  </sodipodi:namedview>
  <defs
     id="defs3051">
    <style
       type="text/css"
       id="current-color-scheme">
      .ColorScheme-Text {
        color:#232629;
      }
      </style>
  </defs>
  <path
     id="path2569"
     style="color:#232629;fill:#ffffff;fill-opacity:1;stroke:none;stroke-width:1;opacity:0.5"
     d="m 1,3 v 9 1 h 9 1 c 0,0 -0.5,-1.650163 -0.5,-2.5 0,-1 2,-1.7981495 2,-3 0,-1 -1,-1.5 -1,-2.5 C 11.5,4.3128157 12,3 12,3 H 11 2 Z m 12,0 c 0,0 -0.5,1.3128157 -0.5,2 0,1 1,1.5 1,2.5 0,1.2018505 -2,1.689908 -2,3 0,0.849837 0.5,2.5 0.5,2.5 h 1 2 V 12 H 12.733399 C 12.614017,11.495394 12.5,10.906577 12.5,10.5 c 0,-1 2,-1.7981495 2,-3 0,-1 -1,-1.5 -1,-2.5 0,-0.2748001 0.07982,-0.6490661 0.175781,-1 H 15 V 3 H 14 Z M 2,4 h 8.675781 C 10.579816,4.3509339 10.5,4.7251999 10.5,5 c 0,1 1,1.5 1,2.5 0,1.2018505 -2,1.689908 -2,3 0,0.406577 0.114017,0.995394 0.2333985,1.5 H 2 Z" />
</svg>
