<?xml version="1.0" encoding="UTF-8" standalone="no"?>
<svg
   viewBox="0 0 16 16"
   version="1.1"
   id="svg6"
   sodipodi:docname="computer_monitor.svg"
   inkscape:version="1.1 (c4e8f9e, 2021-05-24)"
   width="32"
   height="32"
   xmlns:inkscape="http://www.inkscape.org/namespaces/inkscape"
   xmlns:sodipodi="http://sodipodi.sourceforge.net/DTD/sodipodi-0.dtd"
   xmlns="http://www.w3.org/2000/svg"
   xmlns:svg="http://www.w3.org/2000/svg"
   xmlns:rdf="http://www.w3.org/1999/02/22-rdf-syntax-ns#"
   xmlns:cc="http://creativecommons.org/ns#"
   xmlns:dc="http://purl.org/dc/elements/1.1/">
  <metadata
     id="metadata10">
    <rdf:RDF>
      <cc:Work
         rdf:about="">
        <dc:format>image/svg+xml</dc:format>
        <dc:type
           rdf:resource="http://purl.org/dc/dcmitype/StillImage" />
      </cc:Work>
    </rdf:RDF>
  </metadata>
  <sodipodi:namedview
     pagecolor="#ffffff"
     bordercolor="#666666"
     borderopacity="1"
     objecttolerance="10"
     gridtolerance="10"
     guidetolerance="10"
     inkscape:pageopacity="0"
     inkscape:pageshadow="2"
     inkscape:window-width="1912"
     inkscape:window-height="2056"
     id="namedview8"
     showgrid="true"
     inkscape:zoom="29.5"
     inkscape:cx="10.423729"
     inkscape:cy="19.457627"
     inkscape:window-x="3840"
     inkscape:window-y="0"
     inkscape:window-maximized="0"
     inkscape:current-layer="svg6"
     inkscape:pagecheckerboard="0">
    <inkscape:grid
       type="xygrid"
       id="grid925" />
  </sodipodi:namedview>
  <defs
     id="defs3051">
    <style
       type="text/css"
       id="current-color-scheme">
      .ColorScheme-Text {
        color:#232629;
      }
      </style>
  </defs>
  <path
     id="path4"
     style="color:#eff0f1;fill:#000000;fill-opacity:0.5;stroke:none;stroke-width:1"
     class="ColorScheme-Text"
     d="M 5.9492188 6 C 4.8727268 6.0275173 4 6.9171875 4 8 L 4 20 C 4 21.1 4.9 22 6 22 L 14 22 L 14 24 L 10 24 L 10 26 L 22 26 L 22 24 L 18 24 L 18 22 L 26 22 C 27.1 22 28 21.1 28 20 L 28 8 C 28 6.9 27.1 6 26 6 L 6 6 C 5.9828125 6 5.9663059 5.9995632 5.9492188 6 z M 6 8 L 26 8 L 26 20 L 6 20 L 6 8 z "
     transform="scale(0.5)" />
</svg>
