<?xml version="1.0" encoding="UTF-8" standalone="no"?>
<svg
   xmlns:dc="http://purl.org/dc/elements/1.1/"
   xmlns:cc="http://creativecommons.org/ns#"
   xmlns:rdf="http://www.w3.org/1999/02/22-rdf-syntax-ns#"
   xmlns:svg="http://www.w3.org/2000/svg"
   xmlns="http://www.w3.org/2000/svg"
   xmlns:sodipodi="http://sodipodi.sourceforge.net/DTD/sodipodi-0.dtd"
   xmlns:inkscape="http://www.inkscape.org/namespaces/inkscape"
   viewBox="0 0 16 16"
   version="1.1"
   id="svg5"
   sodipodi:docname="compact_off.svg"
   inkscape:version="1.0.2 (e86c870, 2021-01-15)"
   width="32"
   height="32">
  <metadata
     id="metadata9">
    <rdf:RDF>
      <cc:Work
         rdf:about="">
        <dc:format>image/svg+xml</dc:format>
        <dc:type
           rdf:resource="http://purl.org/dc/dcmitype/StillImage" />
        <dc:title></dc:title>
      </cc:Work>
    </rdf:RDF>
  </metadata>
  <sodipodi:namedview
     pagecolor="#ffffff"
     bordercolor="#666666"
     borderopacity="1"
     objecttolerance="10"
     gridtolerance="10"
     guidetolerance="10"
     inkscape:pageopacity="0"
     inkscape:pageshadow="2"
     inkscape:window-width="1912"
     inkscape:window-height="2056"
     id="namedview7"
     showgrid="false"
     inkscape:zoom="32"
     inkscape:cx="14.09215"
     inkscape:cy="16.02803"
     inkscape:window-x="1920"
     inkscape:window-y="0"
     inkscape:window-maximized="0"
     inkscape:current-layer="svg5"
     inkscape:snap-bbox="true"
     inkscape:bbox-nodes="true"
     inkscape:snap-page="true"
     inkscape:document-rotation="0" />
  <defs
     id="defs3051">
    <style
       type="text/css"
       id="current-color-scheme">
      .ColorScheme-Text {
        color:#232629;
      }
      </style>
  </defs>
  <path
     style="fill:#000000;fill-opacity:0.5;stroke:none;stroke-width:4.89897966"
     d="M 4 4 L 4 5.4140625 L 4 6 L 4 14 L 6 14 L 6 7.4140625 L 8.5859375 10 L 10 10 L 10 8.5859375 L 7.4140625 6 L 14 6 L 14 4 L 6 4 L 5.4140625 4 L 4 4 z M 18 4 L 18 6 L 24.585938 6 L 22 8.5859375 L 22 10 L 23.414062 10 L 26 7.4140625 L 26 14 L 28 14 L 28 6 L 28 5.4140625 L 28 4 L 26.585938 4 L 26 4 L 18 4 z M 4 18 L 4 26 L 4 26.585938 L 4 28 L 5.4140625 28 L 6 28 L 14 28 L 14 26 L 7.4140625 26 L 8.2011719 25.212891 L 10 23.414062 L 10 22 L 8.5859375 22 L 6.7871094 23.798828 L 6 24.585938 L 6 18 L 4 18 z M 26 18 L 26 24.585938 L 25.212891 23.798828 L 23.414062 22 L 22 22 L 22 23.414062 L 23.798828 25.212891 L 24.585938 26 L 18 26 L 18 28 L 26 28 L 26.585938 28 L 28 28 L 28 26.585938 L 28 26 L 28 18 L 26 18 z "
     transform="scale(0.5)"
     id="path769" />
</svg>
