<?xml version="1.0" encoding="UTF-8" standalone="no"?>
<svg
   xmlns:dc="http://purl.org/dc/elements/1.1/"
   xmlns:cc="http://creativecommons.org/ns#"
   xmlns:rdf="http://www.w3.org/1999/02/22-rdf-syntax-ns#"
   xmlns:svg="http://www.w3.org/2000/svg"
   xmlns="http://www.w3.org/2000/svg"
   xmlns:sodipodi="http://sodipodi.sourceforge.net/DTD/sodipodi-0.dtd"
   xmlns:inkscape="http://www.inkscape.org/namespaces/inkscape"
   viewBox="0 0 16 16"
   version="1.1"
   id="svg5"
   sodipodi:docname="edit_text_clear.svg"
   inkscape:version="1.0.2 (e86c870, 2021-01-15)"
   width="32"
   height="32">
  <metadata
     id="metadata9">
    <rdf:RDF>
      <cc:Work
         rdf:about="">
        <dc:format>image/svg+xml</dc:format>
        <dc:type
           rdf:resource="http://purl.org/dc/dcmitype/StillImage" />
        <dc:title></dc:title>
      </cc:Work>
    </rdf:RDF>
  </metadata>
  <sodipodi:namedview
     pagecolor="#ffffff"
     bordercolor="#666666"
     borderopacity="1"
     objecttolerance="10"
     gridtolerance="10"
     guidetolerance="10"
     inkscape:pageopacity="0"
     inkscape:pageshadow="2"
     inkscape:window-width="1710"
     inkscape:window-height="1499"
     id="namedview7"
     showgrid="false"
     inkscape:zoom="16"
     inkscape:cx="10.02568"
     inkscape:cy="22.462178"
     inkscape:window-x="2085"
     inkscape:window-y="26"
     inkscape:window-maximized="0"
     inkscape:current-layer="svg5"
     inkscape:snap-bbox="true"
     inkscape:bbox-nodes="true"
     inkscape:snap-page="true"
     inkscape:document-rotation="0"
     inkscape:snap-bbox-edge-midpoints="true"
     inkscape:snap-grids="false"
     inkscape:object-nodes="true" />
  <defs
     id="defs3051">
    <style
       type="text/css"
       id="current-color-scheme">
      .ColorScheme-Text {
        color:#232629;
      }
      </style>
  </defs>
  <path
     id="path845"
     style="fill:#000000;fill-opacity:0.5;stroke:none;stroke-width:12.2569"
     d="M 14 8 L 12 10 L 7.4140625 14.585938 L 6 16 L 7.4140625 17.414062 L 12 22 L 13.998047 24 L 14 24 L 16.826172 24 L 26 24 L 28 24 L 28 22 L 28 10 L 28 8 L 26 8 L 16.828125 8 L 14 8 z M 16.929688 11.085938 L 20.464844 14.621094 L 24 11.085938 L 25.414062 12.5 L 21.878906 16.035156 L 25.414062 19.570312 L 24 20.984375 L 20.464844 17.449219 L 16.929688 20.984375 L 15.515625 19.570312 L 19.050781 16.035156 L 15.515625 12.5 L 16.929688 11.085938 z "
     transform="scale(0.5)" />
</svg>
