<?xml version="1.0" encoding="UTF-8" standalone="no"?>
<svg
   xmlns:dc="http://purl.org/dc/elements/1.1/"
   xmlns:cc="http://creativecommons.org/ns#"
   xmlns:rdf="http://www.w3.org/1999/02/22-rdf-syntax-ns#"
   xmlns:svg="http://www.w3.org/2000/svg"
   xmlns="http://www.w3.org/2000/svg"
   xmlns:sodipodi="http://sodipodi.sourceforge.net/DTD/sodipodi-0.dtd"
   xmlns:inkscape="http://www.inkscape.org/namespaces/inkscape"
   viewBox="0 0 16 16"
   version="1.1"
   id="svg5"
   sodipodi:docname="export_list.svg"
   inkscape:version="1.0.2 (e86c870, 2021-01-15)"
   width="32"
   height="32">
  <metadata
     id="metadata9">
    <rdf:RDF>
      <cc:Work
         rdf:about="">
        <dc:format>image/svg+xml</dc:format>
        <dc:type
           rdf:resource="http://purl.org/dc/dcmitype/StillImage" />
        <dc:title></dc:title>
      </cc:Work>
    </rdf:RDF>
  </metadata>
  <sodipodi:namedview
     pagecolor="#ffffff"
     bordercolor="#666666"
     borderopacity="1"
     objecttolerance="10"
     gridtolerance="10"
     guidetolerance="10"
     inkscape:pageopacity="0"
     inkscape:pageshadow="2"
     inkscape:window-width="1912"
     inkscape:window-height="2056"
     id="namedview7"
     showgrid="false"
     inkscape:zoom="11.313709"
     inkscape:cx="19.883041"
     inkscape:cy="-0.68695366"
     inkscape:window-x="1920"
     inkscape:window-y="0"
     inkscape:window-maximized="0"
     inkscape:current-layer="svg5"
     inkscape:snap-bbox="true"
     inkscape:bbox-nodes="true"
     inkscape:snap-page="true"
     inkscape:document-rotation="0" />
  <defs
     id="defs3051">
    <style
       type="text/css"
       id="current-color-scheme">
      .ColorScheme-Text {
        color:#232629;
      }
      </style>
  </defs>
  <g
     id="g848"
     style="fill:#000000;fill-opacity:0.5">
    <path
       style="fill:#000000;fill-opacity:0.5;stroke:none;stroke-width:3.46410155"
       d="M 4 20 L 4 22 L 8 22 L 8 20 L 4 20 z "
       transform="scale(0.5)"
       id="path761-3-9" />
    <path
       style="fill:#000000;fill-opacity:0.5;stroke:none;stroke-width:3.46410155"
       d="M 4 8 L 4 10 L 8 10 L 8 8 L 4 8 z "
       transform="scale(0.5)"
       id="path761" />
    <path
       style="fill:#000000;fill-opacity:0.5;stroke:none;stroke-width:5.65685463"
       d="M 10 4 L 10 6 L 20 6 L 20 4 L 10 4 z M 22 4 L 22 6 L 26 6 L 26 4 L 22 4 z M 10 8 L 10 10 L 20 10 L 20 8 L 10 8 z M 22 8 L 22 10 L 26 10 L 26 8 L 22 8 z M 10 12 L 10 14 L 20 14 L 20 12 L 10 12 z M 22 12 L 22 14 L 26 14 L 26 12 L 22 12 z M 16 16 L 16 18 L 20 18 L 20 16 L 16 16 z "
       transform="scale(0.5)"
       id="path775" />
    <path
       style="fill:#000000;fill-opacity:0.5;stroke:none;stroke-width:3.46410155"
       d="M 4 4 L 4 6 L 8 6 L 8 4 L 4 4 z "
       transform="scale(0.5)"
       id="path761-3" />
    <path
       style="fill:#000000;fill-opacity:0.5;stroke:none;stroke-width:3.46410155"
       d="M 4 16 L 4 18 L 8 18 L 8 16 L 4 16 z "
       transform="scale(0.5)"
       id="path761-7" />
    <path
       style="fill:#000000;fill-opacity:0.5;stroke:none;stroke-width:3.46410155"
       d="M 4 12 L 4 14 L 8 14 L 8 12 L 4 12 z "
       transform="scale(0.5)"
       id="path761-3-3" />
    <path
       style="fill:#000000;fill-opacity:0.5;stroke:none;stroke-width:3.46410155"
       d="M 4 24 L 4 26 L 8 26 L 8 24 L 4 24 z "
       transform="scale(0.5)"
       id="path761-6" />
    <path
       id="path202"
       transform="scale(0.5)"
       style="color:#232629;fill:#000000;fill-opacity:0.5;stroke:none;stroke-width:4"
       d="m 22,16 v 4 h -2 v 4 h 2 v 4 l 8,-6 z m -12,0 c 0,4.432 3.568,8 8,8 h 8 v -4 h -8 c -2.216,0 -4,-1.784 -4,-4 z" />
    <path
       style="fill:#000000;fill-opacity:0.5;stroke:none;stroke-width:5.65685463"
       d="M 10 24 L 10 26 L 14 26 L 14 24 L 10 24 z "
       transform="scale(0.5)"
       id="path218" />
  </g>
</svg>
