<?xml version="1.0" encoding="UTF-8" standalone="no"?>
<svg
   viewBox="0 0 16 16"
   version="1.1"
   id="svg5"
   sodipodi:docname="save_as.svg"
   inkscape:version="1.1 (c4e8f9e, 2021-05-24)"
   width="32"
   height="32"
   xmlns:inkscape="http://www.inkscape.org/namespaces/inkscape"
   xmlns:sodipodi="http://sodipodi.sourceforge.net/DTD/sodipodi-0.dtd"
   xmlns="http://www.w3.org/2000/svg"
   xmlns:svg="http://www.w3.org/2000/svg"
   xmlns:rdf="http://www.w3.org/1999/02/22-rdf-syntax-ns#"
   xmlns:cc="http://creativecommons.org/ns#"
   xmlns:dc="http://purl.org/dc/elements/1.1/">
  <metadata
     id="metadata9">
    <rdf:RDF>
      <cc:Work
         rdf:about="">
        <dc:format>image/svg+xml</dc:format>
        <dc:type
           rdf:resource="http://purl.org/dc/dcmitype/StillImage" />
      </cc:Work>
    </rdf:RDF>
  </metadata>
  <sodipodi:namedview
     pagecolor="#ffffff"
     bordercolor="#666666"
     borderopacity="1"
     objecttolerance="10"
     gridtolerance="10"
     guidetolerance="10"
     inkscape:pageopacity="0"
     inkscape:pageshadow="2"
     inkscape:window-width="1710"
     inkscape:window-height="1499"
     id="namedview7"
     showgrid="true"
     inkscape:zoom="5.6568545"
     inkscape:cx="82.996655"
     inkscape:cy="23.511299"
     inkscape:window-x="3176"
     inkscape:window-y="263"
     inkscape:window-maximized="0"
     inkscape:current-layer="svg5"
     inkscape:snap-bbox="true"
     inkscape:bbox-nodes="true"
     inkscape:snap-page="true"
     inkscape:document-rotation="0"
     inkscape:snap-bbox-edge-midpoints="true"
     inkscape:snap-grids="true"
     inkscape:object-nodes="true"
     inkscape:pagecheckerboard="0">
    <inkscape:grid
       type="xygrid"
       id="grid950" />
  </sodipodi:namedview>
  <defs
     id="defs3051">
    <style
       type="text/css"
       id="current-color-scheme">
      .ColorScheme-Text {
        color:#232629;
      }
      </style>
  </defs>
  <path
     id="path773"
     style="fill:#000000;fill-opacity:0.5;stroke:none;stroke-width:6"
     d="M 15 6 L 15 18.171875 L 13.171875 16.34375 L 11.757812 17.757812 L 14.585938 20.585938 L 15 21 L 16 22 L 17 21 L 20.242188 17.757812 L 18.828125 16.34375 L 17 18.171875 L 17 6 L 15 6 z M 26.078125 12.921875 L 24.078125 14.914062 L 24.082031 14.917969 L 15 24 L 15 28 L 19 28 L 19.003906 27.996094 L 19.011719 28 L 20.414062 26.59375 L 20.40625 26.585938 L 28.65625 18.316406 L 30.070312 16.902344 L 26.078125 12.921875 z M 25.472656 16.300781 L 26.636719 17.464844 L 26.6875 17.511719 L 19.011719 25.1875 L 17.605469 26.59375 L 17.601562 26.601562 L 17.5625 26.5625 L 16.398438 25.398438 L 25.472656 16.300781 z M 6 20 L 6 24 C 6 25.1 6.9 26 8 26 L 13 26 L 13 24 L 8 24 L 8 20 L 6 20 z M 26 22 L 24 24 L 22 26 L 24 26 C 25.1 26 26 25.099998 26 24 L 26 22 z "
     transform="scale(0.5)" />
</svg>
