<?xml version="1.0" encoding="UTF-8" standalone="no"?>
<svg
   viewBox="0 0 16 16"
   version="1.1"
   id="svg5"
   sodipodi:docname="file_marked.svg"
   inkscape:version="1.1 (c4e8f9e, 2021-05-24)"
   width="32"
   height="32"
   xmlns:inkscape="http://www.inkscape.org/namespaces/inkscape"
   xmlns:sodipodi="http://sodipodi.sourceforge.net/DTD/sodipodi-0.dtd"
   xmlns="http://www.w3.org/2000/svg"
   xmlns:svg="http://www.w3.org/2000/svg"
   xmlns:rdf="http://www.w3.org/1999/02/22-rdf-syntax-ns#"
   xmlns:cc="http://creativecommons.org/ns#"
   xmlns:dc="http://purl.org/dc/elements/1.1/">
  <metadata
     id="metadata9">
    <rdf:RDF>
      <cc:Work
         rdf:about="">
        <dc:format>image/svg+xml</dc:format>
        <dc:type
           rdf:resource="http://purl.org/dc/dcmitype/StillImage" />
      </cc:Work>
    </rdf:RDF>
  </metadata>
  <sodipodi:namedview
     pagecolor="#ffffff"
     bordercolor="#666666"
     borderopacity="1"
     objecttolerance="10"
     gridtolerance="10"
     guidetolerance="10"
     inkscape:pageopacity="0"
     inkscape:pageshadow="2"
     inkscape:window-width="2426"
     inkscape:window-height="2056"
     id="namedview7"
     showgrid="true"
     inkscape:zoom="20.85965"
     inkscape:cx="12.632043"
     inkscape:cy="7.4306136"
     inkscape:window-x="3312"
     inkscape:window-y="0"
     inkscape:window-maximized="0"
     inkscape:current-layer="svg5"
     inkscape:snap-bbox="true"
     inkscape:bbox-nodes="true"
     inkscape:snap-page="true"
     inkscape:pagecheckerboard="0">
    <inkscape:grid
       type="xygrid"
       id="grid845" />
  </sodipodi:namedview>
  <defs
     id="defs3051">
    <style
       type="text/css"
       id="current-color-scheme">
      .ColorScheme-Text {
        color:#232629;
      }
      </style>
  </defs>
  <path
     id="path2001"
     style="fill:#000000;fill-opacity:0.5;stroke:none;stroke-width:2"
     d="M 7.9492188 4 C 6.8727267 4.0275173 6 4.9171875 6 6 L 6 26 C 6 27.1 6.9 28 8 28 L 9.171875 28 L 11.171875 26 L 8 26 L 8 6 L 20 6 L 22 6 L 22 15.171875 L 24 13.171875 L 24 6 C 24 4.9 23.1 4 22 4 L 20 4 L 8 4 C 7.9828125 4 7.9663059 3.9995632 7.9492188 4 z M 24 16 L 22 18 L 20 20 L 16 24 L 14 26 L 12 28 L 16 28 L 18 28 L 24 28 L 24 22 L 24 20 L 24 16 z "
     transform="scale(0.5)" />
</svg>
