<?xml version="1.0" encoding="UTF-8" standalone="no"?>
<svg
   viewBox="0 0 16 16"
   version="1.1"
   id="svg6"
   sodipodi:docname="file_image.svg"
   inkscape:version="1.1 (c4e8f9e, 2021-05-24)"
   width="32"
   height="32"
   xmlns:inkscape="http://www.inkscape.org/namespaces/inkscape"
   xmlns:sodipodi="http://sodipodi.sourceforge.net/DTD/sodipodi-0.dtd"
   xmlns="http://www.w3.org/2000/svg"
   xmlns:svg="http://www.w3.org/2000/svg"
   xmlns:rdf="http://www.w3.org/1999/02/22-rdf-syntax-ns#"
   xmlns:cc="http://creativecommons.org/ns#"
   xmlns:dc="http://purl.org/dc/elements/1.1/">
  <metadata
     id="metadata10">
    <rdf:RDF>
      <cc:Work
         rdf:about="">
        <dc:format>image/svg+xml</dc:format>
        <dc:type
           rdf:resource="http://purl.org/dc/dcmitype/StillImage" />
      </cc:Work>
    </rdf:RDF>
  </metadata>
  <sodipodi:namedview
     pagecolor="#ffffff"
     bordercolor="#666666"
     borderopacity="1"
     objecttolerance="10"
     gridtolerance="10"
     guidetolerance="10"
     inkscape:pageopacity="0"
     inkscape:pageshadow="2"
     inkscape:window-width="1912"
     inkscape:window-height="2056"
     id="namedview8"
     showgrid="true"
     inkscape:snap-page="true"
     inkscape:zoom="16"
     inkscape:cx="17.09375"
     inkscape:cy="28.375"
     inkscape:window-x="3840"
     inkscape:window-y="0"
     inkscape:window-maximized="0"
     inkscape:current-layer="svg6"
     inkscape:pagecheckerboard="0"
     inkscape:snap-bbox="true"
     inkscape:snap-bbox-midpoints="false"
     inkscape:snap-global="true"
     inkscape:snap-nodes="true"
     inkscape:bbox-paths="true"
     inkscape:snap-smooth-nodes="true">
    <inkscape:grid
       type="xygrid"
       id="grid845" />
  </sodipodi:namedview>
  <defs
     id="defs3051">
    <style
       type="text/css"
       id="current-color-scheme">
      .ColorScheme-Text {
        color:#232629;
      }
      </style>
  </defs>
  <path
     id="path863"
     style="fill:#000000;fill-opacity:0.5;stroke:none;stroke-width:2"
     d="M 8 4 C 6.9 4 6 4.9 6 6 L 6 26 C 6 27.1 6.9 28 8 28 L 16 28 L 18 28 L 24 22 L 24 20 L 24 16 L 24 6 C 24 4.9 23.1 4 22 4 L 20 4 L 8 4 z M 8 6 L 20 6 L 22 6 L 22 16 L 22 16.998047 L 19 14 L 13.753906 19.248047 L 11.644531 17.138672 L 11.595703 17.138672 L 8 20.732422 L 8 6 z M 13 8 A 2.9999998 3 0 0 0 10 11 A 2.9999998 3 0 0 0 13 14 A 2.9999998 3 0 0 0 16 11 A 2.9999998 3 0 0 0 13 8 z M 15 19 L 16 19 L 22.675781 19 L 22.675781 20 L 16 20 L 16 23.416016 L 16 26 L 16 26.675781 L 15 26.675781 L 15 26 L 15 23.416016 L 15 20 L 15 19 z "
     transform="scale(0.5)" />
</svg>
