<?xml version="1.0" encoding="UTF-8" standalone="no"?>
<svg
   viewBox="0 0 16 16"
   version="1.1"
   id="svg6"
   sodipodi:docname="file_close_all.svg"
   inkscape:version="1.1 (c4e8f9e, 2021-05-24)"
   width="32"
   height="32"
   xmlns:inkscape="http://www.inkscape.org/namespaces/inkscape"
   xmlns:sodipodi="http://sodipodi.sourceforge.net/DTD/sodipodi-0.dtd"
   xmlns="http://www.w3.org/2000/svg"
   xmlns:svg="http://www.w3.org/2000/svg"
   xmlns:rdf="http://www.w3.org/1999/02/22-rdf-syntax-ns#"
   xmlns:cc="http://creativecommons.org/ns#"
   xmlns:dc="http://purl.org/dc/elements/1.1/">
  <metadata
     id="metadata10">
    <rdf:RDF>
      <cc:Work
         rdf:about="">
        <dc:format>image/svg+xml</dc:format>
        <dc:type
           rdf:resource="http://purl.org/dc/dcmitype/StillImage" />
      </cc:Work>
    </rdf:RDF>
  </metadata>
  <sodipodi:namedview
     pagecolor="#ffffff"
     bordercolor="#666666"
     borderopacity="1"
     objecttolerance="10"
     gridtolerance="10"
     guidetolerance="10"
     inkscape:pageopacity="0"
     inkscape:pageshadow="2"
     inkscape:window-width="1916"
     inkscape:window-height="1629"
     id="namedview8"
     showgrid="true"
     inkscape:snap-page="true"
     inkscape:zoom="32"
     inkscape:cx="15.046875"
     inkscape:cy="16.84375"
     inkscape:window-x="2900"
     inkscape:window-y="261"
     inkscape:window-maximized="0"
     inkscape:current-layer="svg6"
     inkscape:pagecheckerboard="0">
    <inkscape:grid
       type="xygrid"
       id="grid863" />
  </sodipodi:namedview>
  <defs
     id="defs3051">
    <style
       type="text/css"
       id="current-color-scheme">
      .ColorScheme-Text {
        color:#232629;
      }
      </style>
  </defs>
  <path
     id="path61"
     style="fill:#000000;fill-opacity:0.5;stroke:none;stroke-width:2"
     d="M 11.949219 2 C 10.872727 2.0275173 10 2.9171875 10 4 L 12 4 L 22.9375 4 L 24 4 L 26 4 L 28 4 C 28 2.9 27.1 2 26 2 L 24 2 L 12 2 C 11.982812 2 11.966306 1.9995632 11.949219 2 z M 7.9492188 6 C 6.8727267 6.0275174 6 6.9171876 6 8 L 6 28 C 6 29.1 6.9 30 8 30 L 16 30 L 18 30 L 24 24 L 24 22 L 24 18 L 24 17.025391 L 24 16 L 22 16 L 22 17.025391 L 22 18 L 22 22 L 16 22 L 16 28 L 8 28 L 8 8 L 16 8 L 18 6 L 8 6 C 7.98282 6 7.9663059 5.9995632 7.9492188 6 z M 19.414062 6 L 18 7.4140625 L 21.585938 11 L 18 14.585938 L 19.414062 16 L 23 12.414062 L 26.585938 16 L 28 14.585938 L 24.414062 11 L 28 7.4140625 L 26.585938 6 L 23 9.5859375 L 19.414062 6 z M 28 16 L 26 18 L 26 22 L 28 20 L 28 18 L 28 16 z "
     transform="scale(0.5)" />
</svg>
