<?xml version="1.0" encoding="UTF-8" standalone="no"?>
<svg
   viewBox="0 0 16 16"
   version="1.1"
   id="svg5"
   sodipodi:docname="folder_open_layers.svg"
   inkscape:version="1.1 (c4e8f9e, 2021-05-24)"
   width="32"
   height="32"
   xmlns:inkscape="http://www.inkscape.org/namespaces/inkscape"
   xmlns:sodipodi="http://sodipodi.sourceforge.net/DTD/sodipodi-0.dtd"
   xmlns="http://www.w3.org/2000/svg"
   xmlns:svg="http://www.w3.org/2000/svg"
   xmlns:rdf="http://www.w3.org/1999/02/22-rdf-syntax-ns#"
   xmlns:cc="http://creativecommons.org/ns#"
   xmlns:dc="http://purl.org/dc/elements/1.1/">
  <metadata
     id="metadata9">
    <rdf:RDF>
      <cc:Work
         rdf:about="">
        <dc:format>image/svg+xml</dc:format>
        <dc:type
           rdf:resource="http://purl.org/dc/dcmitype/StillImage" />
      </cc:Work>
    </rdf:RDF>
  </metadata>
  <sodipodi:namedview
     pagecolor="#ffffff"
     bordercolor="#666666"
     borderopacity="1"
     objecttolerance="10"
     gridtolerance="10"
     guidetolerance="10"
     inkscape:pageopacity="0"
     inkscape:pageshadow="2"
     inkscape:window-width="1554"
     inkscape:window-height="1641"
     id="namedview7"
     showgrid="true"
     inkscape:zoom="32"
     inkscape:cx="17.828125"
     inkscape:cy="18.984375"
     inkscape:window-x="3898"
     inkscape:window-y="112"
     inkscape:window-maximized="0"
     inkscape:current-layer="svg5"
     inkscape:snap-bbox="true"
     inkscape:snap-bbox-edge-midpoints="true"
     inkscape:pagecheckerboard="0">
    <inkscape:grid
       type="xygrid"
       id="grid865" />
  </sodipodi:namedview>
  <defs
     id="defs3051">
    <style
       type="text/css"
       id="current-color-scheme">
      .ColorScheme-Text {
        color:#232629;
      }
      </style>
  </defs>
  <path
     id="path13"
     style="fill:#000000;fill-opacity:0.5;stroke:none;stroke-width:2"
     d="M 6.0039062 4 C 4.9039062 4 4.0039063 4.9 4.0039062 6 L 4.0039062 26 C 4.0039062 27.1 4.9039063 28 6.0039062 28 L 10 28 L 12 28 L 10 26 L 6.0039062 26 L 6.0039062 16 L 10.003906 16 L 14 12 L 14.523438 12 L 26.003906 12 L 28.003906 12 L 28.003906 10 C 28.003906 8.9 27.103906 8 26.003906 8 L 18.019531 8 L 14.019531 4 L 14.003906 4.015625 L 14.003906 4 L 6.0039062 4 z M 18.027344 14 L 13.269531 19.804688 L 12.080078 21.255859 L 13.986328 21.255859 L 15.648438 21.255859 L 13.269531 24.15625 L 12.080078 25.607422 L 13.986328 25.607422 L 15.679688 25.607422 L 13.269531 28.548828 L 12.080078 30 L 13.986328 30 L 16.541016 30 L 19.513672 30 L 23.972656 30 L 29.919922 22.744141 L 26.320312 22.744141 L 29.919922 18.351562 L 26.351562 18.351562 L 29.919922 14 L 25.458984 14 L 22.486328 14 L 18.027344 14 z M 18.742188 15.451172 L 22.486328 15.451172 L 25.458984 15.451172 L 26.826172 15.451172 L 23.257812 19.804688 L 19.513672 19.804688 L 18.740234 19.804688 L 18.742188 19.802734 L 16.837891 19.802734 L 16.835938 19.804688 L 16.541016 19.804688 L 15.173828 19.804688 L 18.742188 15.451172 z M 25.164062 19.802734 L 25.458984 19.802734 L 26.826172 19.802734 L 23.257812 24.15625 L 19.513672 24.15625 L 16.869141 24.15625 L 16.541016 24.15625 L 15.173828 24.15625 L 17.550781 21.255859 L 19.513672 21.255859 L 23.972656 21.255859 L 25.164062 19.802734 z M 25.130859 24.195312 L 25.458984 24.195312 L 26.826172 24.195312 L 23.257812 28.548828 L 19.513672 28.548828 L 16.541016 28.548828 L 15.173828 28.548828 L 17.583984 25.607422 L 19.513672 25.607422 L 23.972656 25.607422 L 25.130859 24.195312 z "
     transform="scale(0.5)" />
</svg>
