<?xml version="1.0" encoding="UTF-8" standalone="no"?>
<svg
   xmlns:dc="http://purl.org/dc/elements/1.1/"
   xmlns:cc="http://creativecommons.org/ns#"
   xmlns:rdf="http://www.w3.org/1999/02/22-rdf-syntax-ns#"
   xmlns:svg="http://www.w3.org/2000/svg"
   xmlns="http://www.w3.org/2000/svg"
   xmlns:sodipodi="http://sodipodi.sourceforge.net/DTD/sodipodi-0.dtd"
   xmlns:inkscape="http://www.inkscape.org/namespaces/inkscape"
   viewBox="0 0 16 16"
   version="1.1"
   id="svg5"
   sodipodi:docname="format_text_fgcolor.svg"
   inkscape:version="1.0.2 (e86c870, 2021-01-15)"
   width="32"
   height="32">
  <metadata
     id="metadata9">
    <rdf:RDF>
      <cc:Work
         rdf:about="">
        <dc:format>image/svg+xml</dc:format>
        <dc:type
           rdf:resource="http://purl.org/dc/dcmitype/StillImage" />
        <dc:title></dc:title>
      </cc:Work>
    </rdf:RDF>
  </metadata>
  <sodipodi:namedview
     pagecolor="#ffffff"
     bordercolor="#666666"
     borderopacity="1"
     objecttolerance="10"
     gridtolerance="10"
     guidetolerance="10"
     inkscape:pageopacity="0"
     inkscape:pageshadow="2"
     inkscape:window-width="1912"
     inkscape:window-height="2056"
     id="namedview7"
     showgrid="false"
     inkscape:zoom="32"
     inkscape:cx="11.03166"
     inkscape:cy="12.14656"
     inkscape:window-x="1920"
     inkscape:window-y="0"
     inkscape:window-maximized="0"
     inkscape:current-layer="svg5"
     inkscape:snap-bbox="true"
     inkscape:bbox-nodes="true"
     inkscape:snap-page="true"
     inkscape:document-rotation="0" />
  <defs
     id="defs3051">
    <style
       type="text/css"
       id="current-color-scheme">
      .ColorScheme-Text {
        color:#232629;
      }
      </style>
  </defs>
  <path
     id="path28"
     style="color:#232629;fill:#000000;fill-opacity:0.5;stroke:none;stroke-width:2"
     d="M 20 12 C 19.22166 14.55374 17.277382 16.7423 16.4375 18.5 C 16.14358 19.0226 16 19.61596 16 20.25 C 16 22.3275 17.784 24 20 24 C 20.155899 24 20.303926 23.973146 20.455078 23.957031 C 21.117223 25.166921 22.444407 26 24 26 C 26.216 26 28 24.3275 28 22.25 C 28 21.61596 27.79396 21.0226 27.5 20.5 C 26.66012 18.7423 24.77832 16.55374 24 14 C 23.68017 15.049363 23.160794 16.02381 22.607422 16.941406 C 21.701151 15.499987 20.563657 13.849411 20 12 z M 20 16.021484 C 20.318612 17.063265 20.9933 17.97414 21.462891 18.753906 C 21.566874 18.926573 21.673869 19.100989 21.75 19.259766 C 21.89698 19.520166 22 19.81493 22 20.130859 C 22 20.388397 21.943806 20.632758 21.84375 20.855469 C 21.793722 20.966824 21.733242 21.072859 21.662109 21.171875 C 21.590976 21.270891 21.509554 21.363009 21.419922 21.447266 C 21.335001 21.527094 21.241827 21.5996 21.142578 21.664062 C 21.137073 21.667638 21.132499 21.672256 21.126953 21.675781 C 21.021429 21.742856 20.907874 21.800184 20.789062 21.847656 C 20.55144 21.942601 20.290758 21.996041 20.015625 21.998047 C 20.010266 21.998086 20.005369 22 20 22 C 18.891998 22 18 21.166027 18 20.130859 C 18 19.81493 18.071766 19.520166 18.21875 19.259766 C 18.638692 18.383948 19.61083 17.29395 20 16.021484 z "
     transform="scale(0.5)" />
  <path
     style="color:#232629;fill:#000000;fill-opacity:0.5;stroke:none;stroke-width:1"
     d="m 2,3 v 1 h 4 v 8.999999 H 7 V 4 h 4 V 3 Z"
     id="path4" />
</svg>
