<?xml version="1.0" encoding="UTF-8" standalone="no"?>
<svg
   viewBox="0 0 16 16"
   version="1.1"
   id="svg6"
   sodipodi:docname="help.svg"
   inkscape:version="1.1 (c4e8f9e, 2021-05-24)"
   width="32"
   height="32"
   xmlns:inkscape="http://www.inkscape.org/namespaces/inkscape"
   xmlns:sodipodi="http://sodipodi.sourceforge.net/DTD/sodipodi-0.dtd"
   xmlns="http://www.w3.org/2000/svg"
   xmlns:svg="http://www.w3.org/2000/svg"
   xmlns:rdf="http://www.w3.org/1999/02/22-rdf-syntax-ns#"
   xmlns:cc="http://creativecommons.org/ns#"
   xmlns:dc="http://purl.org/dc/elements/1.1/">
  <metadata
     id="metadata10">
    <rdf:RDF>
      <cc:Work
         rdf:about="">
        <dc:format>image/svg+xml</dc:format>
        <dc:type
           rdf:resource="http://purl.org/dc/dcmitype/StillImage" />
      </cc:Work>
    </rdf:RDF>
  </metadata>
  <sodipodi:namedview
     pagecolor="#ffffff"
     bordercolor="#666666"
     borderopacity="1"
     objecttolerance="10"
     gridtolerance="10"
     guidetolerance="10"
     inkscape:pageopacity="0"
     inkscape:pageshadow="2"
     inkscape:window-width="1912"
     inkscape:window-height="1358"
     id="namedview8"
     showgrid="true"
     inkscape:zoom="41.7193"
     inkscape:cx="16.023759"
     inkscape:cy="15.280697"
     inkscape:window-x="3840"
     inkscape:window-y="698"
     inkscape:window-maximized="0"
     inkscape:current-layer="svg6"
     inkscape:pagecheckerboard="0"
     inkscape:snap-bbox="true">
    <inkscape:grid
       type="xygrid"
       id="grid863" />
  </sodipodi:namedview>
  <defs
     id="defs3051">
    <style
       type="text/css"
       id="current-color-scheme">
      .ColorScheme-Text {
        color:#232629;
      }
      </style>
  </defs>
  <path
     id="path4"
     style="color:#232629;fill:#000000;fill-opacity:0.5;stroke:none;stroke-width:2"
     d="M 15 5 C 8.924 5 4 9.924 4 16 C 4 22.076 8.924 27 15 27 C 21.076 27 26 22.076 26 16 C 26 9.924 21.076 5 15 5 z M 15 7 C 19.97 7 24 11.02 24 16 C 24 20.97 19.98 25 15 25 C 10.03 25 6 20.98 6 16 C 6 11.03 10.02 7 15 7 z M 14.988281 9 A 4 4 0 0 0 11.048828 13 L 13 13 L 13.048828 13 A 2 2 0 0 1 15 11 A 2 2 0 0 1 15.048828 11 A 2 2 0 0 1 17.048828 13 A 2 2 0 0 1 15.048828 15 A 2 2 0 0 1 15 14.998047 L 15 15 L 14 15 L 14 16 L 14 16.857422 L 14 19 L 16 19 L 16 16.876953 A 4 4 0 0 0 19.048828 13 A 4 4 0 0 0 15.048828 9 A 4 4 0 0 0 14.988281 9 z M 14 21 L 14 23 L 16 23 L 16 21 L 14 21 z "
     transform="scale(0.5)" />
</svg>
