<?xml version="1.0" encoding="UTF-8" standalone="no"?>
<svg
   xmlns:dc="http://purl.org/dc/elements/1.1/"
   xmlns:cc="http://creativecommons.org/ns#"
   xmlns:rdf="http://www.w3.org/1999/02/22-rdf-syntax-ns#"
   xmlns:svg="http://www.w3.org/2000/svg"
   xmlns="http://www.w3.org/2000/svg"
   xmlns:sodipodi="http://sodipodi.sourceforge.net/DTD/sodipodi-0.dtd"
   xmlns:inkscape="http://www.inkscape.org/namespaces/inkscape"
   viewBox="0 0 16 16"
   version="1.1"
   id="svg5"
   sodipodi:docname="page_layout.svg"
   inkscape:version="1.0.2 (e86c870, 2021-01-15)"
   width="32"
   height="32">
  <metadata
     id="metadata9">
    <rdf:RDF>
      <cc:Work
         rdf:about="">
        <dc:format>image/svg+xml</dc:format>
        <dc:type
           rdf:resource="http://purl.org/dc/dcmitype/StillImage" />
        <dc:title></dc:title>
      </cc:Work>
    </rdf:RDF>
  </metadata>
  <sodipodi:namedview
     pagecolor="#ffffff"
     bordercolor="#666666"
     borderopacity="1"
     objecttolerance="10"
     gridtolerance="10"
     guidetolerance="10"
     inkscape:pageopacity="0"
     inkscape:pageshadow="2"
     inkscape:window-width="1912"
     inkscape:window-height="2056"
     id="namedview7"
     showgrid="false"
     inkscape:zoom="22.627417"
     inkscape:cx="25.009519"
     inkscape:cy="7.9425611"
     inkscape:window-x="1920"
     inkscape:window-y="0"
     inkscape:window-maximized="0"
     inkscape:current-layer="svg5"
     inkscape:snap-bbox="true"
     inkscape:bbox-nodes="true"
     inkscape:snap-page="true"
     inkscape:snap-bbox-edge-midpoints="false"
     inkscape:bbox-paths="false"
     inkscape:snap-global="true"
     inkscape:snap-nodes="true"
     inkscape:document-rotation="0" />
  <defs
     id="defs3051">
    <style
       type="text/css"
       id="current-color-scheme">
      .ColorScheme-Text {
        color:#232629;
      }
      </style>
  </defs>
  <g
     id="g329"
     style="fill:#000000;fill-opacity:0.5">
    <path
       inkscape:connector-curvature="0"
       id="path37"
       d="M 4,14 C 3.45,14 3,13.55 3,13 V 3 C 3,2.45 3.45,2 4,2 h 4 1 l 3,3 v 1 2 5 c 0,0.55 -0.45,1 -1,1 h -1 z m 0,-1 h 6 1 V 8 6 H 8 V 3 H 4 Z"
       style="fill:#000000;fill-opacity:0.5;stroke:none;stroke-width:1" />
    <path
       inkscape:connector-curvature="0"
       id="path77"
       d="m 5.0000005,10.000001 v 1 1 h 1 1 v -1 -1 h -1 z"
       style="fill:#000000;fill-opacity:0.5;stroke:none;stroke-width:1" />
    <path
       style="fill:#000000;fill-opacity:0.5;stroke:none;stroke-width:1"
       d="m 8.000001,10.000001 v 1 1 h 1 1 v -1 -1 h -1 z"
       id="path315"
       inkscape:connector-curvature="0" />
    <path
       inkscape:connector-curvature="0"
       id="path317"
       d="m 8.000001,7.000002 v 1 1 h 1 1 v -1 -1 h -1 z"
       style="fill:#000000;fill-opacity:0.5;stroke:none;stroke-width:1" />
    <path
       style="fill:#000000;fill-opacity:0.5;stroke:none;stroke-width:1"
       d="m 5.0000005,7.000002 v 1 1 h 1 1 v -1 -1 h -1 z"
       id="path319"
       inkscape:connector-curvature="0" />
    <path
       style="fill:#000000;fill-opacity:0.5;stroke:none;stroke-width:1"
       d="m 5.0000005,4.000003 v 1 1 h 1 1 v -1 -1 h -1 z"
       id="path321"
       inkscape:connector-curvature="0" />
  </g>
</svg>
