<?xml version="1.0" encoding="UTF-8" standalone="no"?>
<svg
   xmlns:dc="http://purl.org/dc/elements/1.1/"
   xmlns:cc="http://creativecommons.org/ns#"
   xmlns:rdf="http://www.w3.org/1999/02/22-rdf-syntax-ns#"
   xmlns:svg="http://www.w3.org/2000/svg"
   xmlns="http://www.w3.org/2000/svg"
   xmlns:sodipodi="http://sodipodi.sourceforge.net/DTD/sodipodi-0.dtd"
   xmlns:inkscape="http://www.inkscape.org/namespaces/inkscape"
   viewBox="0 0 16 16"
   version="1.1"
   id="svg5"
   sodipodi:docname="page_setup.svg"
   inkscape:version="1.0.2 (e86c870, 2021-01-15)"
   width="32"
   height="32">
  <metadata
     id="metadata9">
    <rdf:RDF>
      <cc:Work
         rdf:about="">
        <dc:format>image/svg+xml</dc:format>
        <dc:type
           rdf:resource="http://purl.org/dc/dcmitype/StillImage" />
        <dc:title></dc:title>
      </cc:Work>
    </rdf:RDF>
  </metadata>
  <sodipodi:namedview
     pagecolor="#ffffff"
     bordercolor="#666666"
     borderopacity="1"
     objecttolerance="10"
     gridtolerance="10"
     guidetolerance="10"
     inkscape:pageopacity="0"
     inkscape:pageshadow="2"
     inkscape:window-width="1912"
     inkscape:window-height="2056"
     id="namedview7"
     showgrid="false"
     inkscape:zoom="32"
     inkscape:cx="17.710429"
     inkscape:cy="13.384785"
     inkscape:window-x="1920"
     inkscape:window-y="0"
     inkscape:window-maximized="0"
     inkscape:current-layer="svg5"
     inkscape:snap-bbox="true"
     inkscape:bbox-nodes="true"
     inkscape:snap-page="true"
     inkscape:snap-bbox-edge-midpoints="false"
     inkscape:bbox-paths="false"
     inkscape:snap-global="true"
     inkscape:snap-nodes="false"
     inkscape:document-rotation="0" />
  <defs
     id="defs3051">
    <style
       type="text/css"
       id="current-color-scheme">
      .ColorScheme-Text {
        color:#232629;
      }
      </style>
  </defs>
  <path
     id="path37"
     style="fill:#000000;fill-opacity:0.5;stroke:none;stroke-width:2"
     d="M 8 4 C 6.9 4 6 4.9 6 6 L 6 26 C 6 27.1 6.9 28 8 28 L 20 28 L 22 28 C 23.1 28 24 27.1 24 26 L 22 26 L 20 26 L 10 26 L 8 26 L 8 6 L 16 6 L 16 12 L 22 12 L 22 16 L 22 18.527344 L 24 20.027344 L 24 16 L 24 12 L 24 10 L 18 4 L 16 4 L 8 4 z M 10 12 L 10 14 L 10 14.5 L 10 22 L 10 24 L 22.667969 24 L 23 24 L 26.001953 24 L 10 12 z M 12 16 L 20.001953 22 L 12 22 L 12 16 z "
     transform="scale(0.5)" />
</svg>
