<?xml version="1.0" encoding="UTF-8" standalone="no"?>
<svg
   xmlns:dc="http://purl.org/dc/elements/1.1/"
   xmlns:cc="http://creativecommons.org/ns#"
   xmlns:rdf="http://www.w3.org/1999/02/22-rdf-syntax-ns#"
   xmlns:svg="http://www.w3.org/2000/svg"
   xmlns="http://www.w3.org/2000/svg"
   xmlns:sodipodi="http://sodipodi.sourceforge.net/DTD/sodipodi-0.dtd"
   xmlns:inkscape="http://www.inkscape.org/namespaces/inkscape"
   viewBox="0 0 16 16"
   version="1.1"
   id="svg5"
   sodipodi:docname="panel_second.svg"
   inkscape:version="1.0.2 (e86c870, 2021-01-15)"
   width="32"
   height="32">
  <metadata
     id="metadata9">
    <rdf:RDF>
      <cc:Work
         rdf:about="">
        <dc:format>image/svg+xml</dc:format>
        <dc:type
           rdf:resource="http://purl.org/dc/dcmitype/StillImage" />
        <dc:title></dc:title>
      </cc:Work>
    </rdf:RDF>
  </metadata>
  <sodipodi:namedview
     pagecolor="#ffffff"
     bordercolor="#666666"
     borderopacity="1"
     objecttolerance="10"
     gridtolerance="10"
     guidetolerance="10"
     inkscape:pageopacity="0"
     inkscape:pageshadow="2"
     inkscape:window-width="1912"
     inkscape:window-height="2056"
     id="namedview7"
     showgrid="false"
     inkscape:zoom="10.429825"
     inkscape:cx="51.081292"
     inkscape:cy="-19.383947"
     inkscape:window-x="3840"
     inkscape:window-y="0"
     inkscape:window-maximized="0"
     inkscape:current-layer="svg5"
     inkscape:snap-bbox="true"
     inkscape:bbox-nodes="true"
     inkscape:snap-page="true"
     inkscape:document-rotation="0" />
  <defs
     id="defs3051">
    <style
       type="text/css"
       id="current-color-scheme">
      .ColorScheme-Text {
        color:#232629;
      }
      </style>
  </defs>
  <path
     inkscape:connector-curvature="0"
     style="fill:#000000;fill-opacity:0.5;stroke:none;stroke-width:3.7416575"
     d="M 2,1 C 1.45,1 1,1.45 1,2 v 12 c 0,0.55 0.45,1 1,1 h 4 c 0.55,0 1,-0.45 1,-1 V 2 C 7,1.45 6.5499997,1 6,1 Z M 2,2 H 6 V 9 H 2 Z M 3,3 V 4 H 4 5 V 3 H 4 Z M 3,5 V 6 H 4 5 V 5 H 4 Z M 3,7 V 8 H 4 5 V 7 H 4 Z m -1,3 h 4 v 4 H 2 Z"
     id="path260" />
  <path
     inkscape:connector-curvature="0"
     style="fill:#000000;fill-opacity:0.25;stroke:none;stroke-width:3.7416575"
     d="M 10,1 C 9.45,1 9,1.45 9,2 v 12 c 0,0.55 0.45,1 1,1 h 4 c 0.55,0 1,-0.45 1,-1 V 10 9 2 C 15,1.45 14.55,1 14,1 Z m 0,1 h 4 v 7 h -4 z m 1,1 v 1 h 1 1 V 3 h -1 z m 0,2 v 1 h 1 1 V 5 h -1 z m 0,2 v 1 h 1 1 V 7 h -1 z m -1,3 h 4 v 4 h -4 z"
     id="path258" />
</svg>
