<?xml version="1.0" encoding="UTF-8" standalone="no"?>
<svg
   viewBox="0 0 16 16"
   version="1.1"
   id="svg5"
   sodipodi:docname="text_f.svg"
   inkscape:version="1.1 (c4e8f9e, 2021-05-24)"
   width="32"
   height="32"
   xmlns:inkscape="http://www.inkscape.org/namespaces/inkscape"
   xmlns:sodipodi="http://sodipodi.sourceforge.net/DTD/sodipodi-0.dtd"
   xmlns="http://www.w3.org/2000/svg"
   xmlns:svg="http://www.w3.org/2000/svg"
   xmlns:rdf="http://www.w3.org/1999/02/22-rdf-syntax-ns#"
   xmlns:cc="http://creativecommons.org/ns#"
   xmlns:dc="http://purl.org/dc/elements/1.1/">
  <metadata
     id="metadata9">
    <rdf:RDF>
      <cc:Work
         rdf:about="">
        <dc:format>image/svg+xml</dc:format>
        <dc:type
           rdf:resource="http://purl.org/dc/dcmitype/StillImage" />
      </cc:Work>
    </rdf:RDF>
  </metadata>
  <sodipodi:namedview
     pagecolor="#ffffff"
     bordercolor="#666666"
     borderopacity="1"
     objecttolerance="10"
     gridtolerance="10"
     guidetolerance="10"
     inkscape:pageopacity="0"
     inkscape:pageshadow="2"
     inkscape:window-width="2318"
     inkscape:window-height="1346"
     id="namedview7"
     showgrid="true"
     inkscape:zoom="22.627417"
     inkscape:cx="44.52563"
     inkscape:cy="16.418136"
     inkscape:window-x="2577"
     inkscape:window-y="409"
     inkscape:window-maximized="0"
     inkscape:current-layer="svg5"
     inkscape:snap-bbox="true"
     inkscape:bbox-nodes="true"
     inkscape:snap-page="true"
     inkscape:pagecheckerboard="0">
  </sodipodi:namedview>
  <defs
     id="defs3051">
    <rect
       x="-20"
       y="3"
       width="103"
       height="43"
       id="rect5113" />
    <style
       type="text/css"
       id="current-color-scheme">
      .ColorScheme-Text {
        color:#232629;
      }
      </style>
  </defs>
  <g
     aria-label="f"
     id="text16889"
     style="stroke-width:0;fill:#000000;fill-opacity:0.5">
    <path
       d="m 5.8272782,13.384837 0.1181817,-0.06566 c 0.2494947,-0.118182 0.4595955,-0.367677 0.4595955,-0.709091 0,-0.367676 -0.2363634,-0.551514 -0.5777772,-0.551514 -0.4858581,0 -0.8272719,0.40707 -0.8272719,0.932322 0,0.590909 0.4858581,0.958585 1.1030292,0.958585 0.3282825,0 0.6434337,-0.144444 0.9585849,-0.420202 0.525252,-0.498989 0.8797971,-1.286867 1.1949483,-2.691916 C 8.3616191,10.390901 8.5060634,9.6555479 8.8606085,7.8040346 L 9.1626284,6.202016 h 0.7353528 c 0.8141408,0 0.7878778,0 0.8272718,-0.078788 0.01313,-0.039394 0.09192,-0.3414138 0.09192,-0.4202016 0,-0.1050504 -0.05252,-0.1050504 -0.8272717,-0.1050504 -0.6828276,0 -0.7222215,0 -0.7222215,-0.026263 0.039394,-0.039394 0.2888886,-1.707069 0.5121207,-2.5868661 0.065657,-0.262626 0.2363635,-0.4989894 0.4989895,-0.4989894 0.118182,0 0.275757,0.039394 0.393939,0.078788 l -0.118182,0.065657 c -0.249494,0.1181817 -0.459595,0.3676764 -0.459595,0.7090902 0,0.3676764 0.236363,0.5515146 0.577777,0.5515146 C 11.145455,3.8909072 11.5,3.4838369 11.5,2.9848475 11.5,2.3808077 10.974748,2.0393939 10.383839,2 9.8979812,2 9.6090926,2.1707069 9.2939414,2.4333329 8.8868711,2.787878 8.663639,3.2737361 8.4666695,4.1666645 8.4141443,4.363634 8.1909122,5.5585823 8.1909122,5.5848449 c 0,0.013131 -0.2494947,0.013131 -0.6303024,0.013131 -0.6959589,0 -0.6828276,0 -0.7222215,0.078788 -0.013131,0.013131 -0.039394,0.1181817 -0.065657,0.2101008 -0.052525,0.2101008 -0.039394,0.2494947 0.026263,0.2888886 0.039394,0.026263 0.078788,0.026263 0.656565,0.026263 h 0.6171711 v 0.039394 c -0.052525,0.052525 -1.0373727,5.8434281 -1.3393926,6.6707001 -0.1181817,0.288889 -0.2888886,0.551515 -0.525252,0.551515 -0.131313,0 -0.262626,-0.05253 -0.3808077,-0.07879 z"
       style="fill:#000000;fill-opacity:0.5"
       id="path23391" />
  </g>
</svg>
