<?xml version="1.0" encoding="UTF-8" standalone="no"?>
<svg
   viewBox="0 0 16 16"
   version="1.1"
   id="svg6"
   sodipodi:docname="tune_img_slider.svg"
   inkscape:version="1.1 (c4e8f9e, 2021-05-24)"
   width="32"
   height="32"
   xmlns:inkscape="http://www.inkscape.org/namespaces/inkscape"
   xmlns:sodipodi="http://sodipodi.sourceforge.net/DTD/sodipodi-0.dtd"
   xmlns="http://www.w3.org/2000/svg"
   xmlns:svg="http://www.w3.org/2000/svg"
   xmlns:rdf="http://www.w3.org/1999/02/22-rdf-syntax-ns#"
   xmlns:cc="http://creativecommons.org/ns#"
   xmlns:dc="http://purl.org/dc/elements/1.1/">
  <metadata
     id="metadata10">
    <rdf:RDF>
      <cc:Work
         rdf:about="">
        <dc:format>image/svg+xml</dc:format>
        <dc:type
           rdf:resource="http://purl.org/dc/dcmitype/StillImage" />
      </cc:Work>
    </rdf:RDF>
  </metadata>
  <sodipodi:namedview
     pagecolor="#ffffff"
     bordercolor="#666666"
     borderopacity="1"
     objecttolerance="10"
     gridtolerance="10"
     guidetolerance="10"
     inkscape:pageopacity="0"
     inkscape:pageshadow="2"
     inkscape:window-width="1912"
     inkscape:window-height="2056"
     id="namedview8"
     showgrid="true"
     inkscape:zoom="6.7460938"
     inkscape:cx="25.125651"
     inkscape:cy="66.408801"
     inkscape:window-x="3840"
     inkscape:window-y="0"
     inkscape:window-maximized="0"
     inkscape:current-layer="svg6"
     inkscape:pagecheckerboard="0"
     inkscape:object-nodes="true"
     inkscape:snap-smooth-nodes="true">
    <inkscape:grid
       type="xygrid"
       id="grid823" />
  </sodipodi:namedview>
  <defs
     id="defs3051">
    <style
       type="text/css"
       id="current-color-scheme">
      .ColorScheme-Text {
        color:#232629;
      }
      </style>
  </defs>
  <path
     id="path773"
     style="opacity:0.5;fill:#000000;fill-opacity:1;stroke:none;stroke-width:6"
     d="M 7.9492188 3 C 6.8727267 3.0275173 6 3.9171875 6 5 L 6 19 C 6 20.1 6.9 21 8 21 L 24 21 C 25.1 21 26 20.1 26 19 L 26 5 C 26 3.9 25.1 3 24 3 L 8 3 C 7.9828125 3 7.9663059 2.9995632 7.9492188 3 z M 8 5 L 24 5 L 24 14.636719 L 23.550781 14.185547 L 20.349609 10.974609 L 15 16.341797 L 12.849609 14.185547 L 12.800781 14.185547 L 8 19 L 8 5 z M 12 7 A 2 2 0 0 0 10 9 A 2 2 0 0 0 12 11 A 2 2 0 0 0 14 9 A 2 2 0 0 0 12 7 z M 11.949219 23 C 10.872727 23.027518 10 23.917188 10 25 L 6 25 L 6 27 L 10 27 C 10 28.1 10.9 29 12 29 L 14 29 C 15.1 29 16 28.1 16 27 L 24 27 L 26 27 L 26 25 L 24 25 L 16 25 C 16 23.9 15.099999 23 14 23 L 12 23 C 11.98282 23 11.966306 22.999564 11.949219 23 z "
     transform="scale(0.5)" />
</svg>
