<?xml version="1.0" encoding="UTF-8" standalone="no"?>
<svg
   viewBox="0 0 16 16"
   version="1.1"
   id="svg5"
   sodipodi:docname="unpinned.svg"
   inkscape:version="1.1 (c4e8f9e, 2021-05-24)"
   width="32"
   height="32"
   xmlns:inkscape="http://www.inkscape.org/namespaces/inkscape"
   xmlns:sodipodi="http://sodipodi.sourceforge.net/DTD/sodipodi-0.dtd"
   xmlns="http://www.w3.org/2000/svg"
   xmlns:svg="http://www.w3.org/2000/svg"
   xmlns:rdf="http://www.w3.org/1999/02/22-rdf-syntax-ns#"
   xmlns:cc="http://creativecommons.org/ns#"
   xmlns:dc="http://purl.org/dc/elements/1.1/">
  <metadata
     id="metadata9">
    <rdf:RDF>
      <cc:Work
         rdf:about="">
        <dc:format>image/svg+xml</dc:format>
        <dc:type
           rdf:resource="http://purl.org/dc/dcmitype/StillImage" />
      </cc:Work>
    </rdf:RDF>
  </metadata>
  <sodipodi:namedview
     pagecolor="#ffffff"
     bordercolor="#666666"
     borderopacity="1"
     objecttolerance="10"
     gridtolerance="10"
     guidetolerance="10"
     inkscape:pageopacity="0"
     inkscape:pageshadow="2"
     inkscape:window-width="1711"
     inkscape:window-height="1945"
     id="namedview7"
     showgrid="true"
     inkscape:zoom="8.0000004"
     inkscape:cx="24.749999"
     inkscape:cy="15.124999"
     inkscape:window-x="3279"
     inkscape:window-y="71"
     inkscape:window-maximized="0"
     inkscape:current-layer="svg5"
     inkscape:snap-bbox="true"
     inkscape:bbox-nodes="true"
     inkscape:snap-page="true"
     inkscape:snap-bbox-edge-midpoints="true"
     inkscape:pagecheckerboard="0">
    <inkscape:grid
       type="xygrid"
       id="grid879" />
  </sodipodi:namedview>
  <defs
     id="defs3051">
    <style
       type="text/css"
       id="current-color-scheme">
      .ColorScheme-Text {
        color:#232629;
      }
      </style>
  </defs>
  <path
     id="path354"
     style="color:#232629;fill:#000000;fill-opacity:0.5;stroke:none;stroke-width:2"
     class="ColorScheme-Text"
     d="M 20 2 C 18.637624 3.3623784 17.860764 5.7952026 19.445312 8.453125 L 14.990234 11.433594 L 20.566406 17.009766 L 23.546875 12.554688 C 26.204797 14.139234 28.63762 13.362377 30 12 L 20 2 z M 4 3.2714844 L 2.5859375 4.6855469 L 10.966797 13.066406 C 10.356495 12.889429 9.7306468 12.776558 9.109375 12.773438 C 7.834047 12.767036 7.093752 12.906255 6 14 L 10 18.923828 L 4 26 L 2 30 L 6 28 L 13.171875 22 L 18 26 C 19.60314 24.396862 19.536717 22.783883 18.974609 21.074219 L 22.384766 24.484375 L 26.626953 28.728516 L 28.041016 27.3125 L 23.798828 23.070312 L 19.431641 18.703125 L 13.296875 12.568359 L 4 3.2714844 z "
     transform="scale(0.5)" />
</svg>
