<?xml version="1.0" encoding="UTF-8" standalone="no"?>
<svg
   xmlns:dc="http://purl.org/dc/elements/1.1/"
   xmlns:cc="http://creativecommons.org/ns#"
   xmlns:rdf="http://www.w3.org/1999/02/22-rdf-syntax-ns#"
   xmlns:svg="http://www.w3.org/2000/svg"
   xmlns="http://www.w3.org/2000/svg"
   xmlns:sodipodi="http://sodipodi.sourceforge.net/DTD/sodipodi-0.dtd"
   xmlns:inkscape="http://www.inkscape.org/namespaces/inkscape"
   viewBox="0 0 16 16"
   version="1.1"
   id="svg5"
   sodipodi:docname="url_downloadstop.svg"
   inkscape:version="0.92.4 (5da689c313, 2019-01-14)"
   width="32"
   height="32">
  <metadata
     id="metadata9">
    <rdf:RDF>
      <cc:Work
         rdf:about="">
        <dc:format>image/svg+xml</dc:format>
        <dc:type
           rdf:resource="http://purl.org/dc/dcmitype/StillImage" />
        <dc:title></dc:title>
      </cc:Work>
    </rdf:RDF>
  </metadata>
  <sodipodi:namedview
     pagecolor="#ffffff"
     bordercolor="#666666"
     borderopacity="1"
     objecttolerance="10"
     gridtolerance="10"
     guidetolerance="10"
     inkscape:pageopacity="0"
     inkscape:pageshadow="2"
     inkscape:window-width="1912"
     inkscape:window-height="2056"
     id="namedview7"
     showgrid="false"
     inkscape:zoom="7.9999995"
     inkscape:cx="-0.53719095"
     inkscape:cy="-24.14464"
     inkscape:window-x="3840"
     inkscape:window-y="0"
     inkscape:window-maximized="0"
     inkscape:current-layer="svg5"
     inkscape:snap-bbox="true"
     inkscape:bbox-nodes="true"
     inkscape:snap-page="true"
     inkscape:snap-bbox-edge-midpoints="true"
     inkscape:bbox-paths="true" />
  <defs
     id="defs3051">
    <style
       type="text/css"
       id="current-color-scheme">
      .ColorScheme-Text {
        color:#232629;
      }
      </style>
  </defs>
  <path
     style="fill:#000000;fill-opacity:0.50196081;stroke:none;stroke-width:3"
     d="M 16 2 C 9.37258 2 4 7.372602 4 14 C 4 19.813879 8.1357848 24.659069 13.625 25.761719 L 13.625 23.697266 C 13.197141 23.570516 12.780469 23.40626 12.373047 23.246094 C 12.355047 23.212074 12.310253 23.157207 12.314453 23.117188 C 12.418433 23.073207 12.613493 23.265186 12.689453 23.117188 C 12.727253 23.047187 12.639653 22.876643 12.689453 22.806641 C 12.725453 22.758641 12.92602 22.761967 13 22.748047 C 13.10602 22.727947 13.256406 22.711594 13.316406 22.683594 C 13.382406 22.641594 13.451453 22.495629 13.439453 22.373047 C 13.433453 22.315027 13.362246 22.296141 13.316406 22.244141 C 13.278606 22.200161 13.342206 22.161114 13.316406 22.121094 C 13.268406 22.051094 13.148706 22.035594 13.128906 21.933594 C 13.272906 21.905694 13.483446 22.056027 13.691406 21.998047 C 13.789386 21.970147 13.955933 21.779708 14.001953 21.6875 C 14.015753 21.6596 13.985753 21.594614 14.001953 21.558594 C 14.019953 21.522594 14.060166 21.453507 14.066406 21.435547 C 14.080206 21.381547 14.054406 21.413073 14.066406 21.376953 C 14.102406 21.274953 14.188047 21.197 14.248047 21.125 C 14.294247 21.06896 14.393547 20.9955 14.435547 20.9375 C 14.483547 20.87548 14.46796 20.870453 14.5 20.814453 C 14.53 20.632433 14.391507 20.470345 14.435547 20.310547 C 14.483547 20.130547 14.765513 20.017538 14.939453 19.935547 C 14.999453 19.907647 15.077153 19.894953 15.126953 19.876953 C 15.143854 19.871038 15.162025 19.865316 15.179688 19.859375 L 13.625 18.304688 L 13.625 17.476562 L 13.625 17.351562 L 13.625 14.753906 C 13.587809 14.711978 13.556749 14.668968 13.503906 14.628906 C 13.359906 14.516926 13.270433 14.467426 13.064453 14.441406 C 12.972473 14.421306 12.863886 14.461506 12.753906 14.441406 C 12.637926 14.421306 12.466866 14.353906 12.378906 14.253906 C 12.294906 14.155906 12.265206 14.054023 12.191406 14.007812 C 12.121386 13.963833 12.051906 13.922926 12.003906 13.878906 C 11.981706 13.859106 11.959493 13.860359 11.939453 13.818359 C 11.903453 13.744379 11.83102 13.720859 11.875 13.630859 C 11.79502 13.590659 11.837813 13.705206 11.751953 13.691406 C 11.673953 13.581426 11.617326 13.472286 11.441406 13.503906 C 11.361426 13.523706 11.283413 13.689426 11.189453 13.691406 C 11.111453 13.691406 11.0395 13.519926 10.9375 13.503906 C 10.8595 13.484106 10.745406 13.578379 10.691406 13.568359 C 10.605426 13.548559 10.581726 13.495379 10.503906 13.443359 C 10.445706 13.405559 10.348386 13.318333 10.316406 13.320312 C 10.216386 13.320312 10.13788 13.517339 10 13.443359 C 9.93202 13.357379 10.144673 13.335839 10.064453 13.255859 C 10.004453 13.197659 9.9894063 13.288206 9.9414062 13.316406 C 9.8856063 13.352406 9.8157065 13.359019 9.7539062 13.380859 C 9.6159067 13.433059 9.4869066 13.447866 9.3789062 13.503906 C 9.2788864 13.556106 9.2491863 13.589406 9.1914062 13.691406 C 9.1452064 13.775406 9.0736863 13.939363 9.0039062 13.943359 C 8.9199063 13.943359 8.8924262 13.854312 8.8164062 13.820312 C 8.5864263 13.720296 8.4438664 13.874706 8.2539062 13.878906 C 8.0779267 13.878906 7.8064131 13.605473 7.8144531 13.439453 C 7.8204531 13.337453 7.8672663 13.190453 7.8789062 13.064453 C 7.8891063 12.964433 8.0001531 12.845106 8.0019531 12.753906 C 8.0039511 12.629886 7.7713862 12.580386 7.6914062 12.566406 C 7.5034263 12.532206 7.2784251 12.650406 7.0644531 12.566406 C 7.0242531 12.498426 7.1052664 12.446886 7.1289062 12.378906 C 7.1427062 12.342906 7.1151063 12.295879 7.1289062 12.255859 C 7.1529063 12.191839 7.2865862 12.136339 7.3164062 12.068359 C 7.3386062 12.016159 7.2942062 11.946859 7.3164062 11.880859 C 7.3422063 11.808859 7.4334531 11.745379 7.4394531 11.693359 C 7.4472531 11.625379 7.3702263 11.54404 7.3164062 11.5 C 7.1503863 11.5198 7.0374063 11.522213 6.9414062 11.564453 C 6.7254062 11.662433 6.7843865 11.935926 6.5664062 12.003906 C 6.4924263 12.027906 6.3984531 12.0481 6.3144531 12.0625 C 6.2778531 12.0823 6.2323863 12.0625 6.1914062 12.0625 C 6.1953863 12.0427 6.1874263 12.024306 6.1914062 12.003906 C 6.2016063 11.957706 6.2398 11.924899 6.25 11.880859 C 6.39262 11.230855 6.6147411 10.601659 6.8769531 10.005859 L 6.9414062 10.005859 C 7.0174262 10.025659 7.0629063 10.124886 7.1289062 10.128906 C 7.3129263 10.148706 7.3519263 9.9569331 7.5039062 9.8769531 C 7.6599062 9.8991531 7.7369462 9.8571531 7.8789062 9.8769531 C 7.9749063 9.8967531 8.1134331 9.99196 8.1894531 10 C 8.2534731 10 8.2525 9.9336066 8.3125 9.9414062 C 8.3725 9.9612065 8.49022 10.056906 8.5 10.128906 C 8.5102 10.218906 8.4154262 10.340213 8.4414062 10.439453 C 8.5354263 10.535453 8.74102 10.570973 8.875 10.626953 C 8.96302 10.552973 8.8888 10.420386 8.875 10.316406 C 8.873002 10.270206 8.881 10.170906 8.875 10.128906 C 8.8648 10.056906 8.8164062 10.003386 8.8164062 9.9414062 C 8.8164062 9.6553864 9.058 9.54928 9.25 9.4375 C 9.33202 9.3895 9.4299531 9.286 9.5019531 9.25 C 9.6039531 9.2002 9.6699062 9.2314531 9.7539062 9.1894531 C 9.9058865 9.1034731 10.010886 8.97238 10.128906 8.875 C 10.182906 8.74498 10.122906 8.5674931 10.128906 8.4394531 C 10.182906 8.4052531 10.258626 8.4394531 10.316406 8.4394531 C 10.408386 8.4196531 10.451886 8.3039731 10.503906 8.2519531 C 10.533906 8.2219531 10.590953 8.2196931 10.626953 8.1894531 C 10.718933 8.1174531 10.734473 8.0339331 10.814453 8.0019531 C 10.842653 7.9821531 10.89346 7.95154 10.9375 7.9375 C 10.9975 7.9177 11.093453 7.9129531 11.189453 7.8769531 C 11.251433 7.8547531 11.417406 7.83854 11.441406 7.8125 C 11.471406 7.7825 11.433606 7.67102 11.441406 7.625 C 11.489406 7.39922 11.801946 7.3906531 12.003906 7.3144531 C 12.143886 7.2622531 12.2815 7.0993531 12.4375 7.1269531 C 12.4075 7.2349531 12.288473 7.2430869 12.314453 7.3730469 C 12.348653 7.5550269 12.56098 7.3408531 12.625 7.3144531 C 12.74698 7.2622531 12.968946 7.1869531 13.128906 7.1269531 C 13.268886 7.0771531 13.507 7.037 13.375 6.875 C 13.26502 6.8552 13.224906 6.9600069 13.128906 6.9980469 C 13.062906 7.0178469 13.05598 6.9454531 13 6.9394531 C 12.946 6.9394531 12.930953 7.0078269 12.876953 6.9980469 C 12.822953 6.9782469 12.761946 6.8765469 12.753906 6.8105469 C 12.731706 6.6425469 12.873606 6.62462 12.941406 6.5 C 12.895206 6.34802 12.694386 6.4349731 12.566406 6.3769531 C 12.580206 6.2869531 12.648126 6.2036338 12.753906 6.1835938 C 12.839886 6.1637937 13.076886 6.2058069 13.128906 6.2480469 C 13.158906 6.2738469 13.083306 6.3310738 13.128906 6.3710938 C 13.181106 6.4172937 13.248606 6.3908937 13.316406 6.3710938 C 13.340406 6.2570938 13.16752 6.3219069 13.1875 6.2480469 C 13.32352 6.1600269 13.58404 6.2054338 13.75 6.1835938 C 13.846 6.1637937 13.980426 6.1065669 14.066406 6.0605469 C 14.146386 6.0143469 14.169906 5.9261731 14.253906 6.0019531 C 14.277906 6.0839731 14.235893 6.1454731 14.189453 6.1894531 C 14.035433 6.3254731 13.86994 6.4652469 13.75 6.6230469 C 13.82398 6.6950469 13.942326 6.67346 14.066406 6.6875 C 14.114406 6.7073 14.204106 6.6875 14.253906 6.6875 C 14.313906 6.7073 14.387547 6.6677 14.435547 6.6875 C 14.519547 6.7073 14.539227 6.875 14.623047 6.875 C 14.759067 6.875 14.701047 6.7130469 14.623047 6.6230469 C 14.647047 6.5290269 14.7217 6.4429531 14.6875 6.3769531 C 14.62552 6.2529331 14.388953 6.4141663 14.376953 6.2539062 C 14.369153 6.1538863 14.464 6.1424264 14.5 6.0664062 C 14.4838 5.8744062 14.643027 5.8654062 14.623047 5.6914062 C 14.612847 5.6194062 14.55004 5.63048 14.5 5.5625 C 14.4742 5.5265 14.465187 5.40302 14.435547 5.375 C 14.331567 5.28698 14.137 5.3552 14.125 5.1875 C 14.119 5.08748 14.1388 4.9841731 14.125 4.8769531 C 14.1112 4.7749531 14.02528 4.45748 13.9375 4.4375 C 13.82548 4.4135 13.761053 4.6274731 13.626953 4.6894531 C 13.554953 4.7236531 13.384527 4.7598669 13.310547 4.7480469 C 13.262547 4.7282469 13.1935 4.71926 13.1875 4.625 C 13.1797 4.541 13.279347 4.5035 13.310547 4.4375 C 13.318347 4.4177 13.306567 4.4011062 13.310547 4.3789062 C 13.455747 4.3387063 13.60246 4.28402 13.75 4.25 C 13.83382 4.2302 13.917353 4.2076062 14.001953 4.1914062 C 14.061953 4.1716062 14.129453 4.2112063 14.189453 4.1914062 C 14.456573 4.1416062 14.723931 4.0943394 14.998047 4.0683594 C 15.330507 4.0341594 15.657802 4.0039062 16 4.0039062 L 16 3.9980469 C 16.34518 3.9980469 16.665773 4.02866 17.001953 4.0625 L 17.248047 4.0625 C 17.353227 4.0823 17.460233 4.1048938 17.564453 4.1210938 C 17.851793 4.1672937 18.094611 4.2444331 18.373047 4.3144531 C 18.886227 4.4404531 19.394487 4.60988 19.873047 4.8125 C 20.136897 4.92452 20.371347 5.0543 20.623047 5.1875 C 20.622907 5.2073 20.624647 5.2238938 20.623047 5.2460938 C 20.681067 5.2718938 20.712747 5.3854531 20.810547 5.4394531 C 20.846547 5.4592531 20.84122 5.4800469 20.875 5.4980469 C 20.93302 5.5298469 21.010047 5.5650538 20.998047 5.6210938 C 20.982047 5.7010737 20.866567 5.6841406 20.810547 5.7441406 C 20.818547 5.8601206 20.7175 5.8595 20.6875 5.9375 C 20.7055 5.9873 20.802547 6.0025269 20.810547 6.0605469 C 20.800547 6.1245669 20.6635 6.1193338 20.6875 6.1835938 C 20.7955 6.2675937 20.896059 6.2033938 20.998047 6.1835938 C 21.222027 6.1553937 21.422547 6.1644069 21.560547 6.0605469 C 21.542547 5.9545269 21.760047 5.9690469 21.748047 5.8730469 C 21.805407 5.9150469 21.878767 5.9540937 21.935547 5.9960938 C 21.913947 6.0158938 21.900953 6.0444875 21.876953 6.0546875 C 21.834953 6.0744875 21.786047 6.0949006 21.748047 6.1191406 C 21.692007 6.1551406 21.624527 6.2021675 21.560547 6.2421875 C 21.514587 6.2739875 21.421047 6.4296875 21.373047 6.4296875 C 21.315027 6.4296875 21.227547 6.3592736 21.185547 6.3710938 C 21.125547 6.3908938 21.1303 6.4721206 21.0625 6.4941406 C 20.9305 6.5421406 20.669025 6.4211675 20.623047 6.6171875 C 20.679027 6.7311875 20.898057 6.6781944 20.998047 6.7402344 C 21.060067 6.7804344 21.169747 6.9242075 21.185547 6.9921875 C 21.201347 7.0479875 21.209547 7.3071875 21.185547 7.3671875 C 21.123527 7.5272075 20.935919 7.4922144 20.751953 7.4902344 L 20.623047 7.4902344 C 20.313087 7.4704344 20.013045 7.3326875 19.873047 7.5546875 C 19.883047 7.7246675 19.911027 7.8403213 19.873047 7.9882812 C 19.845147 8.0962813 19.679547 8.2114475 19.685547 8.3046875 C 19.687545 8.3526875 19.802453 8.4242075 19.814453 8.4921875 C 19.822453 8.5281875 19.798653 8.5812144 19.814453 8.6152344 C 19.866413 8.7132144 19.968557 8.5954344 20.060547 8.6152344 C 20.148547 8.6350344 20.248047 8.7633481 20.248047 8.8613281 C 20.248047 8.9313481 20.234013 9.0453012 20.189453 9.1132812 C 20.101473 9.2452816 19.940453 9.2287816 19.814453 9.3007812 C 19.710453 9.3607813 19.688973 9.5139875 19.626953 9.6171875 C 19.560953 9.7292075 19.472067 9.7671144 19.498047 9.9277344 C 19.408047 10.105754 19.309047 10.216754 19.123047 10.302734 C 19.069047 10.326734 18.985347 10.325328 18.935547 10.361328 C 18.895347 10.389528 18.86848 10.490665 18.8125 10.554688 C 18.74254 10.632687 18.66304 10.682187 18.625 10.742188 C 18.5974 10.788384 18.590187 10.865665 18.560547 10.929688 C 18.516747 11.013685 18.428847 11.033186 18.373047 11.117188 C 18.346647 11.157386 18.342653 11.252665 18.314453 11.304688 C 18.250433 11.420666 18.173547 11.513234 18.185547 11.615234 C 18.195147 11.711234 18.308393 11.714714 18.314453 11.802734 C 18.320453 11.850734 18.24802 11.873761 18.25 11.925781 C 18.251998 12.001801 18.308813 12.061094 18.314453 12.121094 C 18.328253 12.269114 18.213567 12.330421 18.185547 12.431641 C 18.171747 12.479641 18.197547 12.516643 18.185547 12.554688 C 18.161547 12.628666 18.06448 12.718681 18.0625 12.806641 C 18.0605 12.868621 18.179547 12.906121 18.185547 12.994141 C 18.189447 13.052341 18.115133 13.125661 18.126953 13.181641 C 18.148553 13.289641 18.3535 13.408188 18.4375 13.492188 C 18.5515 13.606184 18.698067 13.687994 18.748047 13.808594 C 18.790047 13.910594 18.799013 14.107394 18.876953 14.183594 C 18.935153 14.239634 19.049067 14.246708 19.123047 14.304688 C 19.193067 14.358688 19.236747 14.369714 19.310547 14.427734 C 19.432547 14.523734 19.620455 14.752279 19.814453 14.738281 C 19.916453 14.718181 20.010892 14.633234 20.125 14.615234 C 20.24298 14.595134 20.38003 14.540761 20.5 14.550781 C 20.592 14.570881 20.714559 14.621234 20.810547 14.615234 C 20.910547 14.595134 21.013049 14.592721 21.126953 14.550781 C 21.324953 14.464761 21.647583 14.322271 21.935547 14.363281 C 22.155537 14.395321 22.156557 14.640271 22.310547 14.738281 C 22.486567 14.758381 22.610008 14.704261 22.75 14.738281 C 22.85598 14.764381 22.991963 14.906234 23.001953 14.990234 C 23.011953 15.076254 22.885027 15.188183 22.873047 15.242188 C 22.845147 15.358185 22.893147 15.478736 22.873047 15.552734 C 22.857047 15.610754 22.812473 15.682234 22.814453 15.740234 C 22.814453 15.792254 22.8835 15.924205 22.9375 15.992188 C 23.0035 16.076186 23.109473 16.148271 23.189453 16.238281 C 23.19476 16.244387 23.19608 16.251693 23.201172 16.257812 L 25.398438 14.0625 L 26.056641 14.0625 L 27.193359 14.0625 L 27.998047 14.0625 C 27.998161 14.041499 28 14.021028 28 14 C 28 7.372602 22.62742 2 16 2 z M 11.939453 4.9355469 C 11.875853 5.3005269 11.531992 5.4498331 11.125 5.4394531 C 11.03302 5.5274731 11.111187 5.6924731 11.060547 5.8144531 C 11.018547 5.9164531 10.852 6.0099331 10.75 6.0019531 C 10.67602 6.0019531 10.5625 5.8844731 10.5625 5.8144531 C 10.5625 5.7284731 10.701173 5.7249331 10.626953 5.6269531 C 10.630933 5.6071531 10.664547 5.58254 10.685547 5.5625 C 10.725747 5.5367 10.773653 5.5222869 10.814453 5.4980469 C 11.176853 5.2750269 11.548373 5.1115269 11.939453 4.9355469 z M 20.3125 5.3105469 C 20.27566 5.3303469 20.280447 5.35496 20.248047 5.375 C 20.172067 5.4212 20.118547 5.4780069 20.060547 5.4980469 C 19.978567 5.5280469 19.884847 5.5472338 19.873047 5.6210938 C 19.863247 5.6830738 19.93972 5.6881006 19.9375 5.7441406 C 19.9075 5.8181206 19.889067 5.8475 19.873047 5.9375 C 19.975047 6.10352 20.186524 5.8990869 20.3125 5.8730469 C 20.36854 5.8532469 20.405547 5.8508338 20.435547 5.8085938 C 20.469567 5.7545937 20.4742 5.6971136 20.5 5.6210938 C 20.5279 5.5370938 20.633027 5.5075737 20.623047 5.4335938 C 20.615047 5.3596138 20.436388 5.3005869 20.3125 5.3105469 z M 9.3730469 6.5644531 C 9.4678469 6.6404731 9.60322 6.80378 9.4375 6.875 C 9.4177 6.8948 9.1749531 6.9474331 9.1269531 6.9394531 C 9.1071531 6.9394531 9.07954 6.88904 9.0625 6.875 C 9.16588 6.77498 9.2654669 6.6604531 9.3730469 6.5644531 z M 9.7480469 6.9394531 C 9.7960469 6.9394531 9.8209731 7.06046 9.8769531 7.0625 C 9.9309531 7.0625 9.96802 6.9900069 10 6.9980469 C 10.084 7.0202469 10.144673 7.18802 10.064453 7.25 C 9.9984535 7.2698 9.9835469 7.1775069 9.9355469 7.1855469 C 9.7995269 7.2095469 9.727 7.5099931 9.625 7.5019531 C 9.529 7.4821531 9.4623269 7.2555669 9.5605469 7.1855469 C 9.5625449 7.1255469 9.5565669 7.12454 9.5605469 7.0625 C 9.5905469 7.0265 9.6680669 6.9334531 9.7480469 6.9394531 z M 9.25 6.9980469 C 9.2782 6.9980469 9.3046131 6.9782469 9.3144531 6.9980469 C 9.3006531 7.1040669 9.2676269 7.1355669 9.1855469 7.1855469 C 9.0435269 7.2715269 8.92102 7.3775469 8.875 7.5605469 C 8.8612 7.6145469 8.6910269 7.7608269 8.6230469 7.7480469 C 8.4650669 7.7138469 8.7159531 7.4188269 8.7519531 7.3730469 C 8.7921531 7.3232469 8.82898 7.30604 8.875 7.25 C 8.9212 7.1942 8.9540069 7.09448 8.9980469 7.0625 C 9.0460469 7.0283 9.166 7.0001263 9.25 7.0039062 L 9.25 6.9980469 z M 22.814453 7.3144531 C 22.972453 7.2946531 23.053012 7.4645469 23.125 7.5605469 C 23.185 7.6385469 23.337549 7.7585 23.435547 7.8125 C 23.491587 7.8425 23.561027 7.9095669 23.623047 7.9355469 C 23.753027 7.9937469 23.992047 8.1825669 23.998047 8.3105469 C 24.000045 8.3745669 23.929233 8.4380469 23.939453 8.4980469 C 24.037473 8.5178469 24.124953 8.3499931 24.126953 8.2519531 C 24.310773 8.5119331 24.466198 8.7833709 24.625 9.0605469 C 24.7 9.1905669 24.807773 9.3005469 24.876953 9.4355469 C 24.788753 9.4613469 24.762287 9.4745337 24.748047 9.5585938 C 24.728007 9.6706133 24.793 9.85514 24.625 9.875 C 24.51902 9.8948 24.39598 9.7859731 24.25 9.7519531 C 24.19 9.7321531 24.1105 9.7717531 24.0625 9.7519531 C 23.9525 9.7159531 23.9688 9.566 23.875 9.5 C 23.821 9.4622 23.650451 9.3849331 23.564453 9.3769531 C 23.510453 9.3769531 23.491567 9.3967531 23.435547 9.3769531 C 23.367527 9.3571531 23.245423 9.4051531 23.189453 9.3769531 C 23.135453 9.3427531 23.015953 9.2354731 23.001953 9.1894531 C 22.980053 9.1154731 23.185453 9.0659731 23.189453 9.0019531 C 23.193253 8.9539531 23.13478 8.8826333 23.125 8.8085938 C 23.117 8.7647936 23.1348 8.7155469 23.125 8.6855469 C 23.111 8.6333469 23.01932 8.6293531 22.9375 8.6269531 L 22.75 8.6269531 L 22.375 8.6269531 L 22.1875 8.6269531 C 22.0135 8.6467531 21.884049 8.6071531 21.748047 8.6269531 C 21.650027 8.6269531 21.465057 8.70998 21.373047 8.75 C 21.327087 8.7722 21.31 8.7785937 21.25 8.8085938 C 21.2221 8.8283938 21.162953 8.8572069 21.126953 8.8730469 C 21.070913 8.8988469 20.993233 8.9800736 20.939453 8.9960938 C 20.861453 9.0158938 20.764931 8.9762935 20.623047 8.9960938 C 20.521047 8.9960938 20.378933 8.9305736 20.376953 8.8085938 C 20.374955 8.6225938 20.69902 8.7195669 20.875 8.6855469 C 20.941 8.6657469 20.98248 8.6105 21.0625 8.5625 C 21.10048 8.5403 21.091313 8.5222869 21.126953 8.4980469 C 21.186953 8.4560469 21.304633 8.3585469 21.314453 8.3105469 C 21.322453 8.2667469 21.308453 8.22152 21.314453 8.1875 C 21.322453 8.1455 21.3835 8.1204931 21.4375 8.0644531 C 21.5215 7.9804531 21.585473 7.8665 21.689453 7.8125 C 21.759453 7.7765 21.844953 7.7454331 21.876953 7.6894531 C 21.884953 7.6254331 21.874955 7.6264062 21.876953 7.5664062 C 21.920993 7.5262063 21.964 7.5099931 22 7.5019531 C 22.108 7.4779531 22.184639 7.5019531 22.310547 7.5019531 C 22.364547 7.5019531 22.440247 7.5277531 22.498047 7.5019531 C 22.546047 7.4701531 22.578933 7.4009263 22.626953 7.3789062 C 22.678913 7.3507062 22.750453 7.3184131 22.814453 7.3144531 z M 23.939453 8.4980469 L 23.6875 8.4980469 C 23.59952 8.4980469 23.487547 8.4518469 23.435547 8.4980469 C 23.509547 8.6180469 23.644557 8.6555469 23.810547 8.6855469 C 23.870547 8.6417469 23.911433 8.5760469 23.939453 8.4980469 z M 10.251953 7.3730469 L 10.439453 7.3730469 C 10.489253 7.3730469 10.54252 7.3532469 10.5625 7.3730469 C 10.5307 7.5050469 10.227027 7.4855 10.123047 7.4375 C 10.129047 7.3877 10.187993 7.3810869 10.251953 7.3730469 z M 9.8125 7.625 C 9.72508 7.68902 9.6406731 7.76852 9.5019531 7.8125 C 9.4259331 7.8365 9.3284331 7.8322869 9.3144531 7.7480469 C 9.2982531 7.6440669 9.4339731 7.6996531 9.5019531 7.6894531 C 9.5899731 7.6696531 9.7105 7.62896 9.8125 7.625 z M 22.814453 7.625 C 22.748453 7.6472 22.716453 7.79252 22.814453 7.8125 C 22.860413 7.7843 22.885287 7.71098 22.873047 7.625 C 22.846947 7.5968 22.834253 7.6052 22.814453 7.625 z M 22.685547 7.9355469 C 22.687545 8.0475669 22.707447 8.1547531 22.685547 8.2519531 C 22.749527 8.3759731 22.90552 8.27174 22.9375 8.1875 C 22.97548 7.97948 22.910513 7.9095069 22.814453 7.9355469 C 22.782413 7.9553469 22.719367 7.9097469 22.685547 7.9355469 z M 6.1269531 12.623047 C 6.2397531 12.725047 6.30262 12.872673 6.4375 12.939453 C 6.4873 12.965253 6.56122 12.981847 6.625 12.998047 C 6.6772 13.017847 6.6980069 12.978247 6.7480469 12.998047 C 6.8540669 13.034047 6.9805131 13.083054 7.0644531 13.121094 C 7.1924331 13.176894 7.3294731 13.37354 7.4394531 13.4375 C 7.4454531 13.50152 7.4196531 13.577 7.4394531 13.625 C 7.4916531 13.69502 7.5429531 13.7645 7.6269531 13.8125 C 7.7289531 13.8683 7.7770469 13.956 7.8730469 14 C 7.9072469 14.0201 7.9499931 13.98 8.0019531 14 C 8.1339531 14.04002 8.19838 14.22071 8.3125 14.1875 C 8.38648 14.1656 8.3653131 14.072 8.3769531 14 C 8.4267531 13.946 8.4864531 13.876953 8.5644531 13.876953 C 8.6884731 13.876953 8.7059331 14.066892 8.7519531 14.1875 C 8.7777531 14.25552 8.857 14.303 8.875 14.375 C 8.905 14.49898 8.9008 14.863502 8.875 14.9375 C 8.8432 15.02952 8.6990069 15.023 8.6230469 15.125 C 8.5870469 15.173 8.5926531 15.2785 8.5644531 15.3125 C 8.5164531 15.37052 8.4715469 15.387426 8.4355469 15.441406 C 8.4157469 15.471406 8.3949531 15.524473 8.3769531 15.564453 C 8.3169531 15.692473 8.1980669 15.785463 8.2480469 15.939453 C 8.2678469 16.001473 8.3769531 16.052933 8.3769531 16.126953 C 8.3769531 16.214953 8.2034331 16.282916 8.1894531 16.378906 C 8.1792531 16.448906 8.2258469 16.53101 8.2480469 16.625 C 8.2642469 16.69498 8.3935469 16.7665 8.4355469 16.8125 C 8.5055669 16.8905 8.5592669 17.029912 8.6230469 17.128906 C 8.7490469 17.322906 8.8155531 17.560002 8.9394531 17.75 C 9.0054531 17.848 9.1415069 17.897973 9.1855469 18.001953 C 9.2077469 18.053973 9.1657469 18.141453 9.1855469 18.189453 C 9.2575469 18.351453 9.5860469 18.549106 9.7480469 18.628906 C 9.8240669 18.666886 9.92998 18.64754 10 18.6875 C 10.10602 18.7475 10.321 18.910696 10.375 19.003906 C 10.423 19.087906 10.415813 19.3037 10.439453 19.4375 C 10.469453 19.6135 10.431653 19.751206 10.439453 19.941406 C 10.445453 20.045426 10.498047 20.083489 10.498047 20.1875 C 10.498047 20.2235 10.500045 20.337 10.498047 20.375 C 10.496047 20.49898 10.508247 20.624 10.498047 20.75 C 10.492047 20.81802 10.494067 20.8795 10.498047 20.9375 C 10.504047 20.99952 10.55872 21.012386 10.5625 21.066406 C 10.56648 21.124426 10.491807 21.207926 10.498047 21.253906 C 10.511847 21.379906 10.602953 21.447851 10.626953 21.564453 C 10.646753 21.656473 10.697367 21.893902 10.685547 22.003906 C 10.677747 22.061926 10.635353 22.125406 10.626953 22.191406 C 10.620953 22.243426 10.634753 22.268473 10.626953 22.314453 C 10.620953 22.360473 10.638953 22.39948 10.626953 22.4375 C 10.563173 22.39748 10.502033 22.356453 10.439453 22.314453 C 9.9074335 21.954855 9.3918711 21.518806 8.9394531 21.066406 C 8.8782531 21.004386 8.8115331 20.937047 8.7519531 20.873047 C 8.3907531 20.492879 8.048278 20.058403 7.75 19.625 C 7.723 19.58498 7.7121869 19.539953 7.6855469 19.501953 C 7.3394669 18.983355 7.058122 18.459706 6.8125 17.878906 C 6.7945 17.836906 6.7650869 17.79198 6.7480469 17.75 C 6.5372669 17.231996 6.37216 16.683953 6.25 16.126953 C 6.2272 16.020953 6.2049869 15.922612 6.1855469 15.816406 C 6.1357469 15.549202 6.09034 15.276157 6.0625 15.001953 C 6.0283 14.662953 5.9980469 14.345202 5.9980469 14 C 5.9980469 13.5248 6.0627531 13.080649 6.1269531 12.623047 z M 15.625 16.0625 L 15.625 17.476562 L 16.078125 17.929688 L 20.21875 22.070312 L 17.742188 24.546875 L 16.308594 25.980469 L 15.625 26.664062 L 15.625 28.0625 L 17.054688 28.0625 L 21.632812 23.484375 L 26.210938 28.0625 L 27.625 28.0625 L 27.625 26.648438 L 23.046875 22.070312 L 27.625 17.492188 L 27.625 16.0625 L 27.193359 16.0625 L 26.226562 16.0625 L 21.632812 20.65625 L 17.039062 16.0625 L 15.625 16.0625 z "
     transform="scale(0.5)"
     id="path4-3" />
</svg>
