<?xml version="1.0" encoding="UTF-8" standalone="no"?>
<svg
   viewBox="0 0 16 16"
   version="1.1"
   id="svg6"
   sodipodi:docname="zoom_fit2.svg"
   inkscape:version="1.1 (c4e8f9e, 2021-05-24)"
   width="32"
   height="32"
   xmlns:inkscape="http://www.inkscape.org/namespaces/inkscape"
   xmlns:sodipodi="http://sodipodi.sourceforge.net/DTD/sodipodi-0.dtd"
   xmlns="http://www.w3.org/2000/svg"
   xmlns:svg="http://www.w3.org/2000/svg"
   xmlns:rdf="http://www.w3.org/1999/02/22-rdf-syntax-ns#"
   xmlns:cc="http://creativecommons.org/ns#"
   xmlns:dc="http://purl.org/dc/elements/1.1/">
  <metadata
     id="metadata10">
    <rdf:RDF>
      <cc:Work
         rdf:about="">
        <dc:format>image/svg+xml</dc:format>
        <dc:type
           rdf:resource="http://purl.org/dc/dcmitype/StillImage" />
      </cc:Work>
    </rdf:RDF>
  </metadata>
  <sodipodi:namedview
     pagecolor="#ffffff"
     bordercolor="#666666"
     borderopacity="1"
     objecttolerance="10"
     gridtolerance="10"
     guidetolerance="10"
     inkscape:pageopacity="0"
     inkscape:pageshadow="2"
     inkscape:window-width="1920"
     inkscape:window-height="998"
     id="namedview8"
     showgrid="true"
     inkscape:zoom="14.75"
     inkscape:cx="20.644068"
     inkscape:cy="13.152542"
     inkscape:window-x="0"
     inkscape:window-y="0"
     inkscape:window-maximized="1"
     inkscape:current-layer="svg6"
     inkscape:snap-page="true"
     inkscape:snap-bbox="true"
     inkscape:snap-bbox-edge-midpoints="false"
     inkscape:bbox-nodes="true"
     inkscape:pagecheckerboard="0">
    <inkscape:grid
       type="xygrid"
       id="grid823" />
  </sodipodi:namedview>
  <defs
     id="defs3051">
    <style
       type="text/css"
       id="current-color-scheme">
      .ColorScheme-Text {
        color:#232629;
      }
      </style>
  </defs>
  <path
     id="path1124"
     style="opacity:1;fill:#000000;fill-opacity:0.5;stroke:none;stroke-width:13.8082;stroke-linecap:butt;stroke-linejoin:miter;stroke-miterlimit:4;stroke-dasharray:none;stroke-opacity:1"
     d="M 16 4 C 9.372583 4 4 9.372584 4 16 C 4 22.627416 9.372583 28 16 28 L 24 28 A 3.9999986 4.0000014 0 0 0 28 24 L 28 16 C 28 9.372584 22.627418 4 16 4 z M 16 6 C 19.271208 6 22.175544 7.5716504 24 10 C 25.255812 11.671485 26 13.748359 26 16 C 26 18.251641 25.255812 20.328515 24 22 C 22.175544 24.428349 19.271208 26 16 26 C 12.728794 26 9.8244568 24.428349 8 22 C 6.7441873 20.328515 6 18.251641 6 16 C 6 13.748359 6.7441873 11.671485 8 10 C 9.8244568 7.5716504 12.728794 6 16 6 z M 8 10 L 8 12 L 8 14 L 10 14 L 10 12 L 14 12 L 14 10 L 10 10 L 8 10 z M 8 22 L 10 22 L 14 22 L 14 20 L 10 20 L 10 18 L 8 18 L 8 20 L 8 22 z M 24 22 L 24 20 L 24 18 L 22 18 L 22 20 L 18 20 L 18 22 L 22 22 L 24 22 z M 24 10 L 22 10 L 18 10 L 18 12 L 22 12 L 22 14 L 24 14 L 24 12 L 24 10 z "
     transform="scale(0.5)" />
</svg>
