<?xml version="1.0" encoding="UTF-8" standalone="no"?>
<svg
   viewBox="0 0 16 16"
   version="1.1"
   id="svg6"
   sodipodi:docname="application_session_refresh.svg"
   inkscape:version="1.1 (c4e8f9e, 2021-05-24)"
   width="32"
   height="32"
   xmlns:inkscape="http://www.inkscape.org/namespaces/inkscape"
   xmlns:sodipodi="http://sodipodi.sourceforge.net/DTD/sodipodi-0.dtd"
   xmlns="http://www.w3.org/2000/svg"
   xmlns:svg="http://www.w3.org/2000/svg"
   xmlns:rdf="http://www.w3.org/1999/02/22-rdf-syntax-ns#"
   xmlns:cc="http://creativecommons.org/ns#"
   xmlns:dc="http://purl.org/dc/elements/1.1/">
  <metadata
     id="metadata10">
    <rdf:RDF>
      <cc:Work
         rdf:about="">
        <dc:format>image/svg+xml</dc:format>
        <dc:type
           rdf:resource="http://purl.org/dc/dcmitype/StillImage" />
      </cc:Work>
    </rdf:RDF>
  </metadata>
  <sodipodi:namedview
     pagecolor="#ffffff"
     bordercolor="#666666"
     borderopacity="1"
     objecttolerance="10"
     gridtolerance="10"
     guidetolerance="10"
     inkscape:pageopacity="0"
     inkscape:pageshadow="2"
     inkscape:window-width="1882"
     inkscape:window-height="1800"
     id="namedview8"
     showgrid="true"
     inkscape:zoom="20.85965"
     inkscape:cx="19.679141"
     inkscape:cy="8.8208575"
     inkscape:window-x="3754"
     inkscape:window-y="109"
     inkscape:window-maximized="0"
     inkscape:current-layer="svg6"
     inkscape:snap-text-baseline="false"
     inkscape:snap-page="true"
     inkscape:pagecheckerboard="0"
     inkscape:snap-bbox="true"
     inkscape:bbox-paths="true"
     inkscape:bbox-nodes="true">
    <inkscape:grid
       type="xygrid"
       id="grid845" />
  </sodipodi:namedview>
  <defs
     id="defs3051">
    <style
       type="text/css"
       id="current-color-scheme">
      .ColorScheme-Text {
        color:#232629;
      }
      .ColorScheme-NegativeText {
        color:#da4453;
      }
      </style>
  </defs>
  <path
     id="path66"
     style="fill:#000000;fill-opacity:1;stroke:none;stroke-width:2"
     d="M 16 3 L 16 7 L 16 9 L 16.076172 9 L 16.078125 9 L 18.101562 9 L 22 9 L 22 7 L 19.023438 7 A 4.999999 5 0 0 1 19.121094 6.8632812 A 5 5 0 0 1 19.306641 6.6445312 A 4.999999 5 0 0 1 19.759766 6.203125 A 5 5 0 0 1 19.96875 6.0371094 A 4.999999 5 0 0 1 20.439453 5.7148438 A 5 5 0 0 1 20.648438 5.5976562 A 4.999999 5 0 0 1 21.21875 5.3378906 A 5 5 0 0 1 21.390625 5.2734375 A 4.999999 5 0 0 1 22.070312 5.09375 A 5 5 0 0 1 22.263672 5.0625 A 4.999999 5 0 0 1 23 5 A 5 5 0 0 1 23.496094 5.0253906 A 5 5 0 0 1 23.525391 5.0273438 A 4.999999 5 0 0 1 23.539062 5.0292969 A 5 5 0 0 1 24.017578 5.1074219 A 4.999999 5 0 0 1 24.064453 5.1171875 A 5 5 0 0 1 24.525391 5.2402344 A 4.999999 5 0 0 1 24.574219 5.2558594 A 5 5 0 0 1 25.951172 5.9667969 A 5 5 0 0 1 27.058594 7.0839844 A 5 5 0 0 1 27.894531 9 L 27.896484 9 A 4.999999 5 0 0 1 28 10 A 4.999999 5 0 0 1 23 15 A 4.999999 5 0 0 1 18.101562 11 L 16.074219 11 A 7 7 0 0 0 23 17 A 7 7 0 0 0 30 10 A 7 7 0 0 0 25.443359 3.4433594 A 7 7 0 0 0 24.244141 3.1132812 A 7 7 0 0 0 24.242188 3.1132812 A 7 7 0 0 0 24.238281 3.1132812 A 7 7 0 0 0 23.623047 3.0292969 A 7 7 0 0 0 23 3 A 7 7 0 0 0 22.90625 3 A 7 7 0 0 0 22.804688 3.0078125 A 7 7 0 0 0 22.042969 3.0742188 A 7 7 0 0 0 21.853516 3.0996094 A 7 7 0 0 0 21.060547 3.28125 A 7 7 0 0 0 20.822266 3.3574219 A 7 7 0 0 0 20.144531 3.6171875 A 7 7 0 0 0 20.003906 3.6777344 A 7 7 0 0 0 20 3.6796875 A 7 7 0 0 0 19.283203 4.0800781 A 7 7 0 0 0 19.074219 4.2167969 A 7 7 0 0 0 18.427734 4.7070312 A 7 7 0 0 0 18.277344 4.8476562 A 7 7 0 0 0 18 5.109375 L 18 3 L 16 3 z M 5.9492188 4 C 4.8727267 4.0275173 4 4.9171875 4 6 L 4 26 C 4 27.1 4.9 28 6 28 L 6 26 L 6 10 L 6 8 L 14 8 L 14 4 L 6 4 C 5.9828125 4 5.9663059 3.9995632 5.9492188 4 z M 28 17 L 26 19 L 26 22 L 26 26 L 17 26 L 17 28 L 26 28 C 27.1 28 28 27.1 28 26 L 28 22 L 28 17 z M 11.5 18 A 2.5 2.5 0 0 0 9 20.5 A 2.5 2.5 0 0 0 11.5 23 A 2.5 2.5 0 0 0 14 20.5 A 2.5 2.5 0 0 0 11.5 18 z M 21.5 19 A 1.4999998 1.4999996 0 0 0 20.085938 20 L 20 20 L 19 20 L 18 20 L 17 20 L 17 21 L 18 21 L 19 21 L 20 21 L 20.085938 21 A 1.4999998 1.4999996 0 0 0 21.5 22 A 1.4999998 1.4999996 0 0 0 22.912109 21 L 24 21 L 24 20 L 22.912109 20 A 1.4999998 1.4999996 0 0 0 21.5 19 z M 19.5 22 A 1.4999998 1.4999996 0 0 0 18.087891 23 L 17 23 L 17 24 L 18.087891 24 A 1.4999998 1.4999996 0 0 0 19.5 25 A 1.4999998 1.4999996 0 0 0 20.914062 24 L 21 24 L 22 24 L 23 24 L 24 24 L 24 23 L 23 23 L 22 23 L 21 23 L 20.914062 23 A 1.4999998 1.4999996 0 0 0 19.5 22 z M 19.5 23 A 0.50000018 0.49999962 0 0 1 20 23.5 A 0.50000018 0.49999962 0 0 1 19.5 24 A 0.50000018 0.49999962 0 0 1 19 23.5 A 0.50000018 0.49999962 0 0 1 19.5 23 z M 11.5 24 A 3.499998 4 0 0 0 8 28 L 15 28 A 3.499998 4 0 0 0 11.5 24 z "
     transform="scale(0.5)" />
</svg>
