<?xml version="1.0" encoding="UTF-8" standalone="no"?>
<svg
   xmlns:dc="http://purl.org/dc/elements/1.1/"
   xmlns:cc="http://creativecommons.org/ns#"
   xmlns:rdf="http://www.w3.org/1999/02/22-rdf-syntax-ns#"
   xmlns:svg="http://www.w3.org/2000/svg"
   xmlns="http://www.w3.org/2000/svg"
   xmlns:sodipodi="http://sodipodi.sourceforge.net/DTD/sodipodi-0.dtd"
   xmlns:inkscape="http://www.inkscape.org/namespaces/inkscape"
   viewBox="0 0 16 16"
   version="1.1"
   id="svg5"
   sodipodi:docname="clipboard_pushback.svg"
   inkscape:version="0.92.4 (5da689c313, 2019-01-14)"
   width="32"
   height="32">
  <metadata
     id="metadata9">
    <rdf:RDF>
      <cc:Work
         rdf:about="">
        <dc:format>image/svg+xml</dc:format>
        <dc:type
           rdf:resource="http://purl.org/dc/dcmitype/StillImage" />
        <dc:title></dc:title>
      </cc:Work>
    </rdf:RDF>
  </metadata>
  <sodipodi:namedview
     pagecolor="#ffffff"
     bordercolor="#666666"
     borderopacity="1"
     objecttolerance="10"
     gridtolerance="10"
     guidetolerance="10"
     inkscape:pageopacity="0"
     inkscape:pageshadow="2"
     inkscape:window-width="1912"
     inkscape:window-height="2056"
     id="namedview7"
     showgrid="false"
     inkscape:zoom="16"
     inkscape:cx="2.7207807"
     inkscape:cy="12.96087"
     inkscape:window-x="1920"
     inkscape:window-y="0"
     inkscape:window-maximized="0"
     inkscape:current-layer="svg5"
     inkscape:snap-bbox="true"
     inkscape:bbox-nodes="true"
     inkscape:snap-page="true" />
  <defs
     id="defs3051">
    <style
       type="text/css"
       id="current-color-scheme">
      .ColorScheme-Text {
        color:#232629;
      }
      </style>
  </defs>
  <path
     style="fill:#000000;fill-opacity:1;stroke:none;stroke-width:2"
     d="M 10 4 L 10 6 L 6 6 L 6 28 L 14 28 L 16 28 L 16 26 L 14 26 L 8 26 L 8 24 L 8 12 L 8 8 L 10 8 L 10 10 L 22 10 L 22 8 L 24 8 L 24 12 L 24 18 L 26 18 L 26 6 L 22 6 L 22 4 L 10 4 z M 10 12 L 10 14 L 20 14 L 22 14 L 22 12 L 20 12 L 10 12 z M 10 16 L 10 18 L 16 18 L 18 18 L 18 16 L 10 16 z M 21 18 L 20.5625 18.373047 L 16 23 L 16 25.820312 L 20 21.820312 L 20 28 L 22 28 L 22 21.820312 L 26 25.820312 L 26 23 L 21.4375 18.373047 L 21 18 z M 10 20 L 10 22 L 16 22 L 16 20 L 10 20 z "
     transform="scale(0.5)"
     id="path77-3" />
</svg>
