<?xml version="1.0" encoding="UTF-8" standalone="no"?>
<svg
   xmlns:dc="http://purl.org/dc/elements/1.1/"
   xmlns:cc="http://creativecommons.org/ns#"
   xmlns:rdf="http://www.w3.org/1999/02/22-rdf-syntax-ns#"
   xmlns:svg="http://www.w3.org/2000/svg"
   xmlns="http://www.w3.org/2000/svg"
   xmlns:sodipodi="http://sodipodi.sourceforge.net/DTD/sodipodi-0.dtd"
   xmlns:inkscape="http://www.inkscape.org/namespaces/inkscape"
   viewBox="0 0 16 16"
   version="1.1"
   id="svg6"
   sodipodi:docname="color.svg"
   inkscape:version="0.92.4 (5da689c313, 2019-01-14)"
   width="32"
   height="32">
  <metadata
     id="metadata10">
    <rdf:RDF>
      <cc:Work
         rdf:about="">
        <dc:format>image/svg+xml</dc:format>
        <dc:type
           rdf:resource="http://purl.org/dc/dcmitype/StillImage" />
        <dc:title></dc:title>
      </cc:Work>
    </rdf:RDF>
  </metadata>
  <sodipodi:namedview
     pagecolor="#ffffff"
     bordercolor="#666666"
     borderopacity="1"
     objecttolerance="10"
     gridtolerance="10"
     guidetolerance="10"
     inkscape:pageopacity="0"
     inkscape:pageshadow="2"
     inkscape:window-width="1912"
     inkscape:window-height="2056"
     id="namedview8"
     showgrid="false"
     inkscape:zoom="14.75"
     inkscape:cx="8"
     inkscape:cy="8"
     inkscape:window-x="3840"
     inkscape:window-y="0"
     inkscape:window-maximized="0"
     inkscape:current-layer="svg6" />
  <defs
     id="defs3051">
    <style
       type="text/css"
       id="current-color-scheme">
      .ColorScheme-Text {
        color:#232629;
      }
      </style>
  </defs>
  <path
     style="color:#232629;fill:#000000;fill-opacity:1;stroke:none"
     d="M 8.0566406,2 C 6.9416206,2 6.0371094,2.89542 6.0371094,4 V 5.75 L 2,9.75 6.2910156,14 12,8.34375 10.580078,6.9375 10.076172,6.4375 V 4 c 0,-1.10458 -0.9045014,-2 -2.0195314,-2 z m 0,1 c 0.55751,0 1.0097656,0.44772 1.0097656,1 V 5.4375 L 7.7089844,4.09375 7.046875,4.75 V 4 c 0,-0.55228 0.4522556,-1 1.0097656,-1 z M 7.7089844,5.5 10.580078,8.34375 C 7.5802181,11.73679 7.2878319,7.21687 3.4199219,9.75 Z M 12.5,9 c -0.29188,1.06405 -1.020978,1.976614 -1.335938,2.708984 C 11.053853,11.926734 11,12.17332 11,12.4375 11,13.30312 11.669,14 12.5,14 13.331,14 14,13.30312 14,12.4375 14,12.17332 13.9227,11.926734 13.8125,11.708984 13.49754,10.976614 12.79187,10.06405 12.5,9 Z"
     class="ColorScheme-Text"
     id="path4"
     inkscape:connector-curvature="0" />
</svg>
