<?xml version="1.0" encoding="UTF-8" standalone="no"?>
<svg
   xmlns:dc="http://purl.org/dc/elements/1.1/"
   xmlns:cc="http://creativecommons.org/ns#"
   xmlns:rdf="http://www.w3.org/1999/02/22-rdf-syntax-ns#"
   xmlns:svg="http://www.w3.org/2000/svg"
   xmlns="http://www.w3.org/2000/svg"
   xmlns:sodipodi="http://sodipodi.sourceforge.net/DTD/sodipodi-0.dtd"
   xmlns:inkscape="http://www.inkscape.org/namespaces/inkscape"
   viewBox="0 0 16 16"
   version="1.1"
   id="svg5"
   sodipodi:docname="add_comment.svg"
   inkscape:version="0.92.4 (5da689c313, 2019-01-14)"
   width="32"
   height="32">
  <metadata
     id="metadata9">
    <rdf:RDF>
      <cc:Work
         rdf:about="">
        <dc:format>image/svg+xml</dc:format>
        <dc:type
           rdf:resource="http://purl.org/dc/dcmitype/StillImage" />
        <dc:title />
      </cc:Work>
    </rdf:RDF>
  </metadata>
  <sodipodi:namedview
     pagecolor="#ffffff"
     bordercolor="#666666"
     borderopacity="1"
     objecttolerance="10"
     gridtolerance="10"
     guidetolerance="10"
     inkscape:pageopacity="0"
     inkscape:pageshadow="2"
     inkscape:window-width="1912"
     inkscape:window-height="1514"
     id="namedview7"
     showgrid="false"
     inkscape:zoom="22.627417"
     inkscape:cx="25.009519"
     inkscape:cy="7.9425611"
     inkscape:window-x="2205"
     inkscape:window-y="309"
     inkscape:window-maximized="0"
     inkscape:current-layer="svg5"
     inkscape:snap-bbox="true"
     inkscape:bbox-nodes="true"
     inkscape:snap-page="true"
     inkscape:snap-bbox-edge-midpoints="false"
     inkscape:bbox-paths="false"
     inkscape:snap-global="true"
     inkscape:snap-nodes="true" />
  <defs
     id="defs3051">
    <style
       type="text/css"
       id="current-color-scheme">
      .ColorScheme-Text {
        color:#232629;
      }
      </style>
  </defs>
  <path
     style="fill:#000000;fill-opacity:1;stroke:none;stroke-width:2"
     d="M 6 6 C 4.9 6 4 6.9 4 8 L 4 14 L 4 16 L 4 22 C 4 23.1 4.9 24 6 24 L 8 24 L 8 26 L 8 28 L 10 26 L 12 24 L 14 24 L 18 24 L 18 22 L 14 22 L 12 22 L 8 22 L 7.2480469 22 L 6 22 L 6 16 L 6 14 L 6 8 L 7.2480469 8 L 8 8 L 12 8 L 14 8 L 18 8 L 22 8 L 22.607422 8 L 24 8 L 24 14 L 24 16 L 26 16 L 26 14 L 26 8 C 26 6.9 25.1 6 24 6 L 18 6 L 14 6 L 12 6 L 6 6 z M 24 18 L 24 22 L 22 22 L 20 22 L 20 24 L 24 24 L 24 28 L 26 28 L 26 24 L 30 24 L 30 22 L 26 22 L 26 18 L 24 18 z "
     transform="scale(0.5)"
     id="path741" />
</svg>
