<?xml version="1.0" encoding="UTF-8" standalone="no"?>
<svg
   xmlns:dc="http://purl.org/dc/elements/1.1/"
   xmlns:cc="http://creativecommons.org/ns#"
   xmlns:rdf="http://www.w3.org/1999/02/22-rdf-syntax-ns#"
   xmlns:svg="http://www.w3.org/2000/svg"
   xmlns="http://www.w3.org/2000/svg"
   xmlns:sodipodi="http://sodipodi.sourceforge.net/DTD/sodipodi-0.dtd"
   xmlns:inkscape="http://www.inkscape.org/namespaces/inkscape"
   viewBox="0 0 16 16"
   version="1.1"
   id="svg6"
   sodipodi:docname="file_rename.svg"
   inkscape:version="0.92.4 (5da689c313, 2019-01-14)"
   width="32"
   height="32">
  <metadata
     id="metadata10">
    <rdf:RDF>
      <cc:Work
         rdf:about="">
        <dc:format>image/svg+xml</dc:format>
        <dc:type
           rdf:resource="http://purl.org/dc/dcmitype/StillImage" />
        <dc:title></dc:title>
      </cc:Work>
    </rdf:RDF>
  </metadata>
  <sodipodi:namedview
     pagecolor="#ffffff"
     bordercolor="#666666"
     borderopacity="1"
     objecttolerance="10"
     gridtolerance="10"
     guidetolerance="10"
     inkscape:pageopacity="0"
     inkscape:pageshadow="2"
     inkscape:window-width="1916"
     inkscape:window-height="1629"
     id="namedview8"
     showgrid="false"
     inkscape:snap-page="true"
     inkscape:zoom="16"
     inkscape:cx="3.333578"
     inkscape:cy="0.019226624"
     inkscape:window-x="3589"
     inkscape:window-y="242"
     inkscape:window-maximized="0"
     inkscape:current-layer="svg6" />
  <defs
     id="defs3051">
    <style
       type="text/css"
       id="current-color-scheme">
      .ColorScheme-Text {
        color:#232629;
      }
      </style>
  </defs>
  <path
     style="fill:currentColor;fill-opacity:1;stroke:none"
     d="M 4,2 C 3.45,2 3,2.45 3,3 v 10 c 0,0.55 0.45,1 1,1 h 4 1 l 3,-3 V 10 8 h -1 v 2 H 8.0058594 8 v 3 H 4 V 3 h 6 V 2 Z M 8,10 8.00195,9.998 8.00586,10 8.7070318,9.296875 l -0.00391,-0.0039 4.1250002,-4.134766 0.707031,-0.707031 -1.996094,-1.990234 -1,0.996093 0.002,0.002 L 6,8 v 2 z m 3.236328,-5.849609 0.582031,0.582031 0.02539,0.02344 -3.8378896,3.837891 -0.703125,0.703125 -0.00195,0.0039 L 7.28125,9.28125 6.6992188,8.699219 Z"
     id="path37"
     inkscape:connector-curvature="0" />
</svg>
