<?xml version="1.0" encoding="UTF-8" standalone="no"?>
<svg
   viewBox="0 0 16 16"
   version="1.1"
   id="svg5"
   sodipodi:docname="filer_limitrange.svg"
   inkscape:version="1.2.1 (9c6d41e, 2022-07-14)"
   width="32"
   height="32"
   xmlns:inkscape="http://www.inkscape.org/namespaces/inkscape"
   xmlns:sodipodi="http://sodipodi.sourceforge.net/DTD/sodipodi-0.dtd"
   xmlns="http://www.w3.org/2000/svg"
   xmlns:svg="http://www.w3.org/2000/svg"
   xmlns:rdf="http://www.w3.org/1999/02/22-rdf-syntax-ns#"
   xmlns:cc="http://creativecommons.org/ns#"
   xmlns:dc="http://purl.org/dc/elements/1.1/">
  <metadata
     id="metadata9">
    <rdf:RDF>
      <cc:Work
         rdf:about="">
        <dc:format>image/svg+xml</dc:format>
        <dc:type
           rdf:resource="http://purl.org/dc/dcmitype/StillImage" />
      </cc:Work>
    </rdf:RDF>
  </metadata>
  <sodipodi:namedview
     pagecolor="#ffffff"
     bordercolor="#666666"
     borderopacity="1"
     objecttolerance="10"
     gridtolerance="10"
     guidetolerance="10"
     inkscape:pageopacity="0"
     inkscape:pageshadow="2"
     inkscape:window-width="3840"
     inkscape:window-height="2067"
     id="namedview7"
     showgrid="true"
     inkscape:zoom="45.254834"
     inkscape:cx="17.854446"
     inkscape:cy="15.501106"
     inkscape:window-x="1920"
     inkscape:window-y="0"
     inkscape:window-maximized="1"
     inkscape:current-layer="svg5"
     inkscape:snap-bbox="true"
     inkscape:bbox-nodes="true"
     inkscape:snap-page="true"
     inkscape:document-rotation="0"
     inkscape:snap-bbox-edge-midpoints="true"
     inkscape:snap-grids="true"
     inkscape:object-nodes="true"
     inkscape:pagecheckerboard="0"
     inkscape:showpageshadow="0"
     inkscape:deskcolor="#d1d1d1">
    <inkscape:grid
       type="xygrid"
       id="grid828" />
  </sodipodi:namedview>
  <defs
     id="defs3051">
    <style
       type="text/css"
       id="current-color-scheme">
      .ColorScheme-Text {
        color:#232629;
      }
      </style>
  </defs>
  <path
     id="path2923"
     style="fill:#000000;fill-opacity:1;stroke:none"
     d="M 2 6 L 2 7 L 2 9 L 2 10 L 4 10 L 5 9 L 4 9 L 3 9 L 3 7 L 4 7 L 4 8 L 5 8 L 5 7 L 6 7 L 6 8 L 7 8 L 7 7 L 8 7 L 8 8 L 9 8 L 9 7 L 10 7 L 10 8 L 11 8 L 11 7 L 12 7 L 12 8 L 13 8 L 13 7 L 14 7 L 14 9 L 13 9 L 12 9 L 13 10 L 14 10 L 15 10 L 15 9 L 15 7 L 15 6 L 14 6 L 11 6 L 2 6 z M 6.5 9 L 5.7929688 9.7070312 L 5 10.5 L 5 11.742188 L 5 13.5 L 6 13.5 L 7 13.5 L 8 13.5 L 8 11.742188 L 8 10.5 L 6.5 9 z M 8 9 L 8.5 9.5 L 9 9 L 8 9 z M 10.5 9 L 9.7929688 9.7070312 L 9 10.5 L 9 11.742188 L 9 13.5 L 10 13.5 L 11 13.5 L 12 13.5 L 12 11.742188 L 12 10.5 L 10.5 9 z M 6.5 10.414062 L 7 10.914062 L 7 12.5 L 6 12.5 L 6 10.914062 L 6.5 10.414062 z M 10.5 10.414062 L 11 10.914062 L 11 12.5 L 10 12.5 L 10 10.914062 L 10.5 10.414062 z " />
</svg>
