<?xml version="1.0" encoding="UTF-8" standalone="no"?>
<svg
   viewBox="0 0 16 16"
   version="1.1"
   id="svg5"
   sodipodi:docname="filter_highlightall.svg"
   inkscape:version="1.1 (c4e8f9e, 2021-05-24)"
   width="32"
   height="32"
   xmlns:inkscape="http://www.inkscape.org/namespaces/inkscape"
   xmlns:sodipodi="http://sodipodi.sourceforge.net/DTD/sodipodi-0.dtd"
   xmlns="http://www.w3.org/2000/svg"
   xmlns:svg="http://www.w3.org/2000/svg"
   xmlns:rdf="http://www.w3.org/1999/02/22-rdf-syntax-ns#"
   xmlns:cc="http://creativecommons.org/ns#"
   xmlns:dc="http://purl.org/dc/elements/1.1/">
  <metadata
     id="metadata9">
    <rdf:RDF>
      <cc:Work
         rdf:about="">
        <dc:format>image/svg+xml</dc:format>
        <dc:type
           rdf:resource="http://purl.org/dc/dcmitype/StillImage" />
      </cc:Work>
    </rdf:RDF>
  </metadata>
  <sodipodi:namedview
     pagecolor="#ffffff"
     bordercolor="#666666"
     borderopacity="1"
     objecttolerance="10"
     gridtolerance="10"
     guidetolerance="10"
     inkscape:pageopacity="0"
     inkscape:pageshadow="2"
     inkscape:window-width="3840"
     inkscape:window-height="2064"
     id="namedview7"
     showgrid="true"
     inkscape:zoom="20.85965"
     inkscape:cx="25.335996"
     inkscape:cy="18.432716"
     inkscape:window-x="1920"
     inkscape:window-y="0"
     inkscape:window-maximized="1"
     inkscape:current-layer="svg5"
     inkscape:snap-bbox="true"
     inkscape:snap-bbox-midpoints="false"
     inkscape:pagecheckerboard="0"
     inkscape:bbox-nodes="true">
    <inkscape:grid
       type="xygrid"
       id="grid158"
       units="px"
       spacingx="0.5"
       spacingy="0.5" />
  </sodipodi:namedview>
  <defs
     id="defs3051">
    <style
       type="text/css"
       id="current-color-scheme">
      .ColorScheme-Text {
        color:#232629;
      }
      </style>
  </defs>
  <path
     id="path751"
     style="fill:#000000;fill-opacity:1;stroke:none;stroke-width:2"
     d="M 18 2 L 18 10 L 30 10 L 30 2 L 18 2 z M 8 12 L 8 20 L 20 20 L 20 12 L 8 12 z M 12 22 L 12 30 L 24 30 L 24 22 L 12 22 z "
     transform="scale(0.5)" />
  <path
     id="path2867"
     style="fill:#000000;fill-opacity:0.6;stroke:none;stroke-width:4"
     d="M 2 2 L 2 10 L 4 10 L 6 10 L 6 2 L 4 2 L 2 2 z M 8 2 L 8 10 L 10 10 L 12 10 L 14 10 L 16 10 L 16 2 L 14 2 L 12 2 L 10 2 L 8 2 z M 2 12 L 2 20 L 4 20 L 6 20 L 6 12 L 4 12 L 2 12 z M 22 12 L 22 20 L 24 20 L 26 20 L 28 20 L 30 20 L 30 12 L 28 12 L 26 12 L 24 12 L 22 12 z M 2 22 L 2 30 L 4 30 L 6 30 L 8 30 L 10 30 L 10 22 L 8 22 L 6 22 L 4 22 L 2 22 z M 26 22 L 26 30 L 28 30 L 30 30 L 30 22 L 28 22 L 26 22 z "
     transform="scale(0.5)" />
</svg>
