<?xml version="1.0" encoding="UTF-8" standalone="no"?>
<svg
   viewBox="0 0 16 16"
   version="1.1"
   id="svg5"
   sodipodi:docname="folder_open_recent.svg"
   inkscape:version="1.1 (c4e8f9e, 2021-05-24)"
   width="32"
   height="32"
   xmlns:inkscape="http://www.inkscape.org/namespaces/inkscape"
   xmlns:sodipodi="http://sodipodi.sourceforge.net/DTD/sodipodi-0.dtd"
   xmlns="http://www.w3.org/2000/svg"
   xmlns:svg="http://www.w3.org/2000/svg"
   xmlns:rdf="http://www.w3.org/1999/02/22-rdf-syntax-ns#"
   xmlns:cc="http://creativecommons.org/ns#"
   xmlns:dc="http://purl.org/dc/elements/1.1/">
  <metadata
     id="metadata9">
    <rdf:RDF>
      <cc:Work
         rdf:about="">
        <dc:format>image/svg+xml</dc:format>
        <dc:type
           rdf:resource="http://purl.org/dc/dcmitype/StillImage" />
        <dc:title />
      </cc:Work>
    </rdf:RDF>
  </metadata>
  <sodipodi:namedview
     pagecolor="#ffffff"
     bordercolor="#666666"
     borderopacity="1"
     objecttolerance="10"
     gridtolerance="10"
     guidetolerance="10"
     inkscape:pageopacity="0"
     inkscape:pageshadow="2"
     inkscape:window-width="1554"
     inkscape:window-height="1641"
     id="namedview7"
     showgrid="true"
     inkscape:zoom="5.2149125"
     inkscape:cx="99.234646"
     inkscape:cy="-27.421361"
     inkscape:window-x="3609"
     inkscape:window-y="257"
     inkscape:window-maximized="0"
     inkscape:current-layer="svg5"
     inkscape:snap-bbox="true"
     inkscape:snap-bbox-midpoints="true"
     inkscape:pagecheckerboard="0">
    <inkscape:grid
       type="xygrid"
       id="grid841" />
  </sodipodi:namedview>
  <defs
     id="defs3051">
    <style
       type="text/css"
       id="current-color-scheme">
      .ColorScheme-Text {
        color:#232629;
      }
      </style>
  </defs>
  <path
     id="path755"
     style="fill:#000000;fill-opacity:1;stroke:none;stroke-width:2.82842"
     d="M 5.9492188 4 C 4.8727267 4.0275173 4 4.9171875 4 6 L 4 26 C 4 27.1 4.9 28 6 28 L 18 28 L 16 26 L 6 26 L 6 16 L 10 16 L 13.996094 12 L 26 12 L 26 16 L 28 18 L 28 10 C 28 8.9 27.1 8 26 8 L 18.015625 8 L 14.015625 4 L 14 4.015625 L 14 4 L 6 4 C 5.9828125 4 5.9663059 3.9995632 5.9492188 4 z M 24 18.015625 A 6 5.9849148 0 0 0 18 23.998047 A 6 5.9849148 0 0 0 24 29.984375 A 6 5.9849148 0 0 0 30 23.998047 A 6 5.9849148 0 0 0 24 18.015625 z M 23.939453 20.013672 A 4 4 0 0 1 24 20.013672 A 4 4 0 0 1 28 24.013672 A 4 4 0 0 1 24 28.013672 A 4 4 0 0 1 20 24.013672 A 4 4 0 0 1 23.939453 20.013672 z M 23 21 L 23 22.171875 L 23 23 L 23 24.414062 L 23.585938 25 L 24.707031 26.121094 L 26.121094 24.707031 L 25 23.585938 L 25 23 L 25 21 L 23 21 z "
     transform="scale(0.5)" />
</svg>
