<?xml version="1.0" encoding="UTF-8" standalone="no"?>
<svg
   xmlns:dc="http://purl.org/dc/elements/1.1/"
   xmlns:cc="http://creativecommons.org/ns#"
   xmlns:rdf="http://www.w3.org/1999/02/22-rdf-syntax-ns#"
   xmlns:svg="http://www.w3.org/2000/svg"
   xmlns="http://www.w3.org/2000/svg"
   xmlns:sodipodi="http://sodipodi.sourceforge.net/DTD/sodipodi-0.dtd"
   xmlns:inkscape="http://www.inkscape.org/namespaces/inkscape"
   viewBox="0 0 16 16"
   version="1.1"
   id="svg5"
   sodipodi:docname="format_text_fgcolor.svg"
   inkscape:version="1.0.2 (e86c870, 2021-01-15)"
   width="32"
   height="32">
  <metadata
     id="metadata9">
    <rdf:RDF>
      <cc:Work
         rdf:about="">
        <dc:format>image/svg+xml</dc:format>
        <dc:type
           rdf:resource="http://purl.org/dc/dcmitype/StillImage" />
        <dc:title></dc:title>
      </cc:Work>
    </rdf:RDF>
  </metadata>
  <sodipodi:namedview
     pagecolor="#ffffff"
     bordercolor="#666666"
     borderopacity="1"
     objecttolerance="10"
     gridtolerance="10"
     guidetolerance="10"
     inkscape:pageopacity="0"
     inkscape:pageshadow="2"
     inkscape:window-width="1912"
     inkscape:window-height="2056"
     id="namedview7"
     showgrid="false"
     inkscape:zoom="32"
     inkscape:cx="10.56291"
     inkscape:cy="12.14656"
     inkscape:window-x="1920"
     inkscape:window-y="0"
     inkscape:window-maximized="0"
     inkscape:current-layer="svg5"
     inkscape:snap-bbox="true"
     inkscape:bbox-nodes="true"
     inkscape:snap-page="true"
     inkscape:document-rotation="0" />
  <defs
     id="defs3051">
    <style
       type="text/css"
       id="current-color-scheme">
      .ColorScheme-Text {
        color:#232629;
      }
      </style>
  </defs>
  <path
     id="path28"
     style="color:#232629;fill:#000000;fill-opacity:1;stroke:none;stroke-width:2"
     d="M 24 14 C 23.459803 15.772391 22.367331 17.355278 21.462891 18.753906 C 21.566874 18.9266 21.673869 19.100989 21.75 19.259766 C 21.89698 19.520166 22 19.814931 22 20.130859 C 22 21.161011 21.116159 21.990025 20.015625 21.998047 C 20.010378 22.082064 20 22.164427 20 22.25 C 20 24.3275 21.784 26 24 26 C 26.216 26 28 24.3275 28 22.25 C 28 21.61596 27.79396 21.0226 27.5 20.5 C 26.66012 18.7423 24.77832 16.55374 24 14 z "
     transform="scale(0.5)" />
  <path
     id="path10"
     style="color:#232629;fill:#000000;fill-opacity:1;stroke:none;stroke-width:1"
     d="M 10,6 C 9.61083,7.27687 8.638691,8.37115 8.21875,9.25 8.07179,9.5113 8,9.80798 8,10.125 8,11.16375 8.892,12 10,12 11.108,12 12,11.16375 12,10.125 12,9.80798 11.89698,9.5113 11.75,9.25 11.33006,8.37115 10.38916,7.27687 10,6 Z m 0,2.010742 c 0.194582,0.636233 0.665029,1.181232 0.875,1.619141 C 10.94849,9.760083 11,9.9074655 11,10.06543 11,10.583014 10.554001,11 10,11 9.445999,11 9,10.583014 9,10.06543 9,9.9074655 9.035883,9.760083 9.109375,9.629883 9.319346,9.191974 9.805415,8.646975 10,8.010742 Z" />
  <path
     style="color:#232629;fill:#000000;fill-opacity:1;stroke:none;stroke-width:1"
     d="m 2,3 v 1 h 4 v 8.999999 H 7 V 4 h 4 V 3 Z"
     id="path4" />
</svg>
