<?xml version="1.0" encoding="UTF-8" standalone="no"?>
<svg
   xmlns:dc="http://purl.org/dc/elements/1.1/"
   xmlns:cc="http://creativecommons.org/ns#"
   xmlns:rdf="http://www.w3.org/1999/02/22-rdf-syntax-ns#"
   xmlns:svg="http://www.w3.org/2000/svg"
   xmlns="http://www.w3.org/2000/svg"
   xmlns:sodipodi="http://sodipodi.sourceforge.net/DTD/sodipodi-0.dtd"
   xmlns:inkscape="http://www.inkscape.org/namespaces/inkscape"
   viewBox="0 0 16 16"
   version="1.1"
   id="svg5"
   sodipodi:docname="layers_r90.svg"
   inkscape:version="1.0.2 (e86c870, 2021-01-15)"
   width="32"
   height="32">
  <metadata
     id="metadata9">
    <rdf:RDF>
      <cc:Work
         rdf:about="">
        <dc:format>image/svg+xml</dc:format>
        <dc:type
           rdf:resource="http://purl.org/dc/dcmitype/StillImage" />
        <dc:title></dc:title>
      </cc:Work>
    </rdf:RDF>
  </metadata>
  <sodipodi:namedview
     pagecolor="#ffffff"
     bordercolor="#666666"
     borderopacity="1"
     objecttolerance="10"
     gridtolerance="10"
     guidetolerance="10"
     inkscape:pageopacity="0"
     inkscape:pageshadow="2"
     inkscape:window-width="1920"
     inkscape:window-height="1050"
     id="namedview7"
     showgrid="false"
     inkscape:zoom="11.313709"
     inkscape:cx="23.402035"
     inkscape:cy="20.467168"
     inkscape:window-x="0"
     inkscape:window-y="0"
     inkscape:window-maximized="1"
     inkscape:current-layer="svg5"
     inkscape:snap-bbox="true"
     inkscape:bbox-nodes="true"
     inkscape:snap-page="true"
     inkscape:document-rotation="0" />
  <defs
     id="defs3051">
    <style
       type="text/css"
       id="current-color-scheme">
      .ColorScheme-Text {
        color:#232629;
      }
      </style>
  </defs>
  <path
     id="path767"
     style="fill:#000000;fill-opacity:1;stroke:none;stroke-width:2.23607"
     d="m 13.513184,6.4868164 -4.0000006,-3.2001953 -1,-0.7998047 v 1.28125 1.1191406 l -2,-1.6005859 -1,-0.7998047 v 1.28125 1.1396485 l -2.026367,-1.6210938 -1,-0.7998047 v 1.28125 1.71875 2 2.9999996 l 5,4 v -2.420898 l 3.0263666,2.420898 v -2.40039 l 3.000001,2.40039 v -3 -1.9999996 z m -1,0.480469 v 2.519531 1.9999996 0.918946 L 9.5131834,10.006347 V 7.4868164 6.9672854 5.6870119 5.4868164 4.5678711 Z M 9.5131834,11.286621 v 0.200195 0.918946 l -3,-2.399415 V 7.4868164 5.7075194 5.4868164 4.5678711 l 2,1.5996093 v 1.319336 2.9999996 z m -3.026367,-0.02051 v 0.220703 0.918946 l -3,-2.399415 v -2.5195306 -2 -0.9189453 l 2.026367,1.6210938 v 1.2978515 2.9999996 z" />
</svg>
