<?xml version="1.0" encoding="UTF-8" standalone="no"?>
<svg
   xmlns:dc="http://purl.org/dc/elements/1.1/"
   xmlns:cc="http://creativecommons.org/ns#"
   xmlns:rdf="http://www.w3.org/1999/02/22-rdf-syntax-ns#"
   xmlns:svg="http://www.w3.org/2000/svg"
   xmlns="http://www.w3.org/2000/svg"
   xmlns:sodipodi="http://sodipodi.sourceforge.net/DTD/sodipodi-0.dtd"
   xmlns:inkscape="http://www.inkscape.org/namespaces/inkscape"
   viewBox="0 0 16 16"
   version="1.1"
   id="svg6"
   sodipodi:docname="list_tree_collapse.svg"
   inkscape:version="0.92.4 (5da689c313, 2019-01-14)"
   width="32"
   height="32">
  <metadata
     id="metadata10">
    <rdf:RDF>
      <cc:Work
         rdf:about="">
        <dc:format>image/svg+xml</dc:format>
        <dc:type
           rdf:resource="http://purl.org/dc/dcmitype/StillImage" />
        <dc:title></dc:title>
      </cc:Work>
    </rdf:RDF>
  </metadata>
  <sodipodi:namedview
     pagecolor="#ffffff"
     bordercolor="#666666"
     borderopacity="1"
     objecttolerance="10"
     gridtolerance="10"
     guidetolerance="10"
     inkscape:pageopacity="0"
     inkscape:pageshadow="2"
     inkscape:window-width="1912"
     inkscape:window-height="2056"
     id="namedview8"
     showgrid="false"
     inkscape:zoom="29.5"
     inkscape:cx="13.230465"
     inkscape:cy="6.9455799"
     inkscape:window-x="3840"
     inkscape:window-y="0"
     inkscape:window-maximized="0"
     inkscape:current-layer="svg6"
     inkscape:snap-bbox="true"
     inkscape:snap-page="true"
     inkscape:snap-bbox-edge-midpoints="true"
     inkscape:bbox-paths="true" />
  <defs
     id="defs3051">
    <style
       type="text/css"
       id="current-color-scheme">
      .ColorScheme-Text {
        color:#232629;
      }
      </style>
  </defs>
  <path
     style="color:#232629;fill:#000000;fill-opacity:1;stroke:none;stroke-width:2"
     d="M 2 2 L 2 12 L 2 14 L 2 16 L 10 16 L 10 22 L 10 24 L 20 24 L 20 28 L 30 28 L 30 18 L 20 18 L 20 22 L 12 22 L 12 20 L 12 18.796875 L 12 16 L 14 16 L 16 16 L 16 10.017578 L 20 10.017578 L 20 14 L 30 14 L 30 4 L 20 4 L 20 8 L 20 8.0175781 L 16 8.0175781 L 16 2 L 14 2 L 12 2 L 2 2 z M 4 4 L 10 4 L 12 4 L 14 4 L 14 14 L 12 14 L 10 14 L 4 14 L 4 12 L 4 10 L 4 4 z M 22 6 L 28 6 L 28 12 L 22 12 L 22 10.017578 L 22 8.0175781 L 22 6 z M 5 7.9941406 L 5 9.9941406 L 13 9.9941406 L 13 7.9941406 L 5 7.9941406 z "
     transform="scale(0.5)"
     id="path4" />
</svg>
