<?xml version="1.0" encoding="UTF-8" standalone="no"?>
<svg
   viewBox="0 0 16 16"
   version="1.1"
   id="svg6"
   sodipodi:docname="list_view_icon.svg"
   inkscape:version="1.1 (c4e8f9e, 2021-05-24)"
   width="32"
   height="32"
   xmlns:inkscape="http://www.inkscape.org/namespaces/inkscape"
   xmlns:sodipodi="http://sodipodi.sourceforge.net/DTD/sodipodi-0.dtd"
   xmlns="http://www.w3.org/2000/svg"
   xmlns:svg="http://www.w3.org/2000/svg"
   xmlns:rdf="http://www.w3.org/1999/02/22-rdf-syntax-ns#"
   xmlns:cc="http://creativecommons.org/ns#"
   xmlns:dc="http://purl.org/dc/elements/1.1/">
  <metadata
     id="metadata10">
    <rdf:RDF>
      <cc:Work
         rdf:about="">
        <dc:format>image/svg+xml</dc:format>
        <dc:type
           rdf:resource="http://purl.org/dc/dcmitype/StillImage" />
      </cc:Work>
    </rdf:RDF>
  </metadata>
  <sodipodi:namedview
     pagecolor="#ffffff"
     bordercolor="#666666"
     borderopacity="1"
     objecttolerance="10"
     gridtolerance="10"
     guidetolerance="10"
     inkscape:pageopacity="0"
     inkscape:pageshadow="2"
     inkscape:window-width="1920"
     inkscape:window-height="997"
     id="namedview8"
     showgrid="true"
     inkscape:zoom="19.530904"
     inkscape:cx="11.341001"
     inkscape:cy="19.149139"
     inkscape:window-x="0"
     inkscape:window-y="0"
     inkscape:window-maximized="1"
     inkscape:current-layer="svg6"
     inkscape:snap-bbox="true"
     inkscape:snap-page="true"
     inkscape:snap-bbox-edge-midpoints="true"
     inkscape:bbox-paths="true"
     inkscape:pagecheckerboard="0">
    <inkscape:grid
       type="xygrid"
       id="grid853" />
  </sodipodi:namedview>
  <defs
     id="defs3051">
    <style
       type="text/css"
       id="current-color-scheme">
      .ColorScheme-Text {
        color:#232629;
      }
      </style>
  </defs>
  <path
     id="path4"
     style="color:#232629;fill:#000000;fill-opacity:1;stroke:none;stroke-width:2"
     d="M 4 4 L 4 8 L 4 8.0175781 L 4 10.017578 L 4 14 L 14 14 L 14 4 L 4 4 z M 18 4 L 18 8 L 18 10 L 18 14 L 28 14 L 28 4 L 18 4 z M 6 6 L 12 6 L 12 12 L 6 12 L 6 6 z M 4 18 L 4 22 L 4 24 L 4 28 L 14 28 L 14 18 L 4 18 z M 18 18 L 18 22 L 18 22.017578 L 18 24.017578 L 18 28 L 28 28 L 28 18 L 18 18 z M 20 20 L 26 20 L 26 26 L 20 26 L 20 20 z "
     transform="scale(0.5)" />
  <path
     style="fill:#ff0000;fill-opacity:1;stroke:none"
     d="m 2.5,-2 v 1 h 1 v -1 z"
     id="path77"
     inkscape:connector-curvature="0" />
</svg>
