<?xml version="1.0" encoding="UTF-8" standalone="no"?>
<svg
   xmlns:dc="http://purl.org/dc/elements/1.1/"
   xmlns:cc="http://creativecommons.org/ns#"
   xmlns:rdf="http://www.w3.org/1999/02/22-rdf-syntax-ns#"
   xmlns:svg="http://www.w3.org/2000/svg"
   xmlns="http://www.w3.org/2000/svg"
   xmlns:sodipodi="http://sodipodi.sourceforge.net/DTD/sodipodi-0.dtd"
   xmlns:inkscape="http://www.inkscape.org/namespaces/inkscape"
   viewBox="0 0 16 16"
   version="1.1"
   id="svg5"
   sodipodi:docname="note_view.svg"
   inkscape:version="1.0.2 (e86c870, 2021-01-15)"
   width="32"
   height="32">
  <metadata
     id="metadata9">
    <rdf:RDF>
      <cc:Work
         rdf:about="">
        <dc:format>image/svg+xml</dc:format>
        <dc:type
           rdf:resource="http://purl.org/dc/dcmitype/StillImage" />
        <dc:title></dc:title>
      </cc:Work>
    </rdf:RDF>
  </metadata>
  <sodipodi:namedview
     pagecolor="#ffffff"
     bordercolor="#666666"
     borderopacity="1"
     objecttolerance="10"
     gridtolerance="10"
     guidetolerance="10"
     inkscape:pageopacity="0"
     inkscape:pageshadow="2"
     inkscape:window-width="883"
     inkscape:window-height="756"
     id="namedview7"
     showgrid="false"
     inkscape:zoom="11.313709"
     inkscape:cx="10.412098"
     inkscape:cy="13.719074"
     inkscape:window-x="902"
     inkscape:window-y="10"
     inkscape:window-maximized="0"
     inkscape:current-layer="svg5"
     inkscape:snap-bbox="true"
     inkscape:bbox-nodes="true"
     inkscape:snap-page="true"
     inkscape:document-rotation="0"
     showguides="false" />
  <defs
     id="defs3051">
    <style
       type="text/css"
       id="current-color-scheme">
      .ColorScheme-Text {
        color:#232629;
      }
      </style>
  </defs>
  <path
     id="path10-3"
     style="color:#232629;fill:#000000;fill-opacity:1;stroke:none;stroke-width:2"
     d="M 4 4 L 4 6 L 4 18 L 6 20 L 10 24 L 12 26 L 14.828125 26 L 18 26 L 24 26 L 26 26 L 26 24 L 26 20 L 26 18 L 24 18 L 24 20 L 24 24 L 18 24 L 14 24 L 14 18 L 14 16 L 12 16 L 6 16 L 6 6 L 19.248047 6 L 24 6 L 26 6 L 26 4 L 24 4 L 6 4 L 4 4 z M 22 8 A 9.1357116 9.1357222 0 0 0 14.003906 12.738281 C 14.134796 13.107517 14.366605 13.42506 14.669922 13.660156 A 8.1206328 8.120642 0 0 1 21.830078 9.0175781 A 4.0603192 4.0603204 0 0 0 17.939453 13.074219 A 4.0603192 4.0603204 0 0 0 22 17.134766 A 4.0603192 4.0603204 0 0 0 26.060547 13.074219 A 4.0603192 4.0603204 0 0 0 22.355469 9.03125 A 8.1206328 8.120642 0 0 1 29.330078 13.660156 C 29.63614 13.422932 29.869816 13.099984 30 12.726562 A 9.1357116 9.1357222 0 0 0 22 8 z M 22 10.029297 A 3.0452394 3.0452402 0 0 1 25.044922 13.074219 A 3.0452394 3.0452402 0 0 1 22 16.119141 A 3.0452394 3.0452402 0 0 1 18.955078 13.074219 A 3.0452394 3.0452402 0 0 1 22 10.029297 z M 22 11.044922 A 2.0301598 2.0301602 0 0 0 19.96875 13.074219 A 2.0301598 2.0301602 0 0 0 22 15.105469 A 2.0301598 2.0301602 0 0 0 24.029297 13.074219 A 2.0301598 2.0301602 0 0 0 23.939453 12.478516 A 1.0150798 1.01508 0 0 1 23.015625 13.074219 A 1.0150798 1.01508 0 0 1 22 12.058594 A 1.0150798 1.01508 0 0 1 22.597656 11.134766 A 2.0301598 2.0301602 0 0 0 22 11.044922 z M 6.828125 18 L 12 18 L 12 23.171875 L 6.828125 18 z "
     transform="scale(0.5)" />
</svg>
