<?xml version="1.0" encoding="UTF-8" standalone="no"?>
<svg
   xmlns:dc="http://purl.org/dc/elements/1.1/"
   xmlns:cc="http://creativecommons.org/ns#"
   xmlns:rdf="http://www.w3.org/1999/02/22-rdf-syntax-ns#"
   xmlns:svg="http://www.w3.org/2000/svg"
   xmlns="http://www.w3.org/2000/svg"
   xmlns:sodipodi="http://sodipodi.sourceforge.net/DTD/sodipodi-0.dtd"
   xmlns:inkscape="http://www.inkscape.org/namespaces/inkscape"
   viewBox="0 0 16 16"
   version="1.1"
   id="svg5"
   sodipodi:docname="saved_views_delete.svg"
   inkscape:version="0.92.4 (5da689c313, 2019-01-14)"
   width="32"
   height="32">
  <metadata
     id="metadata9">
    <rdf:RDF>
      <cc:Work
         rdf:about="">
        <dc:format>image/svg+xml</dc:format>
        <dc:type
           rdf:resource="http://purl.org/dc/dcmitype/StillImage" />
        <dc:title></dc:title>
      </cc:Work>
    </rdf:RDF>
  </metadata>
  <sodipodi:namedview
     pagecolor="#ffffff"
     bordercolor="#666666"
     borderopacity="1"
     objecttolerance="10"
     gridtolerance="10"
     guidetolerance="10"
     inkscape:pageopacity="0"
     inkscape:pageshadow="2"
     inkscape:window-width="1554"
     inkscape:window-height="1641"
     id="namedview7"
     showgrid="false"
     inkscape:zoom="8"
     inkscape:cx="7.6569097"
     inkscape:cy="-36.494654"
     inkscape:window-x="3935"
     inkscape:window-y="184"
     inkscape:window-maximized="0"
     inkscape:current-layer="svg5"
     inkscape:snap-bbox="true"
     inkscape:snap-bbox-edge-midpoints="false"
     inkscape:bbox-nodes="true" />
  <defs
     id="defs3051">
    <style
       type="text/css"
       id="current-color-scheme">
      .ColorScheme-Text {
        color:#232629;
      }
      </style>
  </defs>
  <path
     style="fill:#000000;fill-opacity:1;stroke:none;stroke-width:2"
     d="M 6 4 C 4.9 4 4 4.9 4 6 L 4 26 C 4 27.1 4.9 28 6 28 L 16 28 L 16 26 L 6 26 L 6 16 L 10 16 L 13.996094 12 L 16 12 L 18 12 L 18 10 L 28 10 C 28 8.9 27.1 8 26 8 L 18.015625 8 L 14.015625 4 L 14 4.015625 L 14 4 L 6 4 z M 14 15.095703 A 9.1357116 9.1357222 0 0 0 8 19.603516 C 8.13089 19.97275 8.3626984 20.290297 8.6660156 20.525391 A 8.1206328 8.120642 0 0 1 14 16.136719 L 14 15.095703 z M 14 16.404297 A 4.0603192 4.0603204 0 0 0 11.935547 19.939453 A 4.0603192 4.0603204 0 0 0 15.996094 24 A 4.0603192 4.0603204 0 0 0 16 24 L 16 22.984375 A 3.0452394 3.0452402 0 0 1 15.996094 22.984375 A 3.0452394 3.0452402 0 0 1 12.951172 19.939453 A 3.0452394 3.0452402 0 0 1 14 17.646484 L 14 16.404297 z M 14 19.568359 A 2.0301598 2.0301602 0 0 0 13.964844 19.939453 A 2.0301598 2.0301602 0 0 0 15.996094 21.970703 A 2.0301598 2.0301602 0 0 0 16 21.970703 L 16 20 L 16 19.910156 L 14 19.910156 L 14 19.568359 z "
     transform="scale(0.5)"
     id="path30" />
  <path
     style="fill:#000000;fill-opacity:1;stroke:none;stroke-width:4.47213602"
     d="M 20 11.910156 L 20 13.910156 L 26 13.910156 L 26 11.910156 L 20 11.910156 z M 16 15.910156 L 16 17.910156 L 18 17.910156 L 18 25.910156 L 18 27.910156 L 28 27.910156 L 28 25.910156 L 28 17.910156 L 30 17.910156 L 30 15.910156 L 20 15.910156 L 18 15.910156 L 16 15.910156 z M 20 17.910156 L 26 17.910156 L 26 25.910156 L 20 25.910156 L 20 17.910156 z "
     transform="scale(0.5)"
     id="path1650" />
  <path
     style="fill:currentColor;fill-opacity:1;stroke:none;stroke-width:1"
     d="m 9,6.955078 v 1 h 1 v -1 z"
     id="path75"
     inkscape:connector-curvature="0" />
  <path
     inkscape:connector-curvature="0"
     id="path153"
     d="m 13,6.955078 v 1 h 1 v -1 z"
     style="fill:currentColor;fill-opacity:1;stroke:none;stroke-width:1" />
</svg>
