<?xml version="1.0" encoding="UTF-8" standalone="no"?>
<svg
   xmlns:dc="http://purl.org/dc/elements/1.1/"
   xmlns:cc="http://creativecommons.org/ns#"
   xmlns:rdf="http://www.w3.org/1999/02/22-rdf-syntax-ns#"
   xmlns:svg="http://www.w3.org/2000/svg"
   xmlns="http://www.w3.org/2000/svg"
   xmlns:sodipodi="http://sodipodi.sourceforge.net/DTD/sodipodi-0.dtd"
   xmlns:inkscape="http://www.inkscape.org/namespaces/inkscape"
   viewBox="0 0 16 16"
   version="1.1"
   id="svg6"
   sodipodi:docname="saved_view_file.svg"
   inkscape:version="0.92.4 (5da689c313, 2019-01-14)"
   width="32"
   height="32">
  <metadata
     id="metadata10">
    <rdf:RDF>
      <cc:Work
         rdf:about="">
        <dc:format>image/svg+xml</dc:format>
        <dc:type
           rdf:resource="http://purl.org/dc/dcmitype/StillImage" />
        <dc:title></dc:title>
      </cc:Work>
    </rdf:RDF>
  </metadata>
  <sodipodi:namedview
     pagecolor="#ffffff"
     bordercolor="#666666"
     borderopacity="1"
     objecttolerance="10"
     gridtolerance="10"
     guidetolerance="10"
     inkscape:pageopacity="0"
     inkscape:pageshadow="2"
     inkscape:window-width="1912"
     inkscape:window-height="2056"
     id="namedview8"
     showgrid="false"
     inkscape:snap-page="true"
     inkscape:zoom="8"
     inkscape:cx="66.598996"
     inkscape:cy="-13.009465"
     inkscape:window-x="3840"
     inkscape:window-y="0"
     inkscape:window-maximized="0"
     inkscape:current-layer="svg6"
     inkscape:snap-bbox="true"
     inkscape:bbox-paths="true"
     inkscape:snap-bbox-edge-midpoints="true"
     inkscape:bbox-nodes="true" />
  <defs
     id="defs3051">
    <style
       type="text/css"
       id="current-color-scheme">
      .ColorScheme-Text {
        color:#232629;
      }
      </style>
  </defs>
  <path
     style="fill:currentColor;fill-opacity:1;stroke:none;stroke-width:2"
     d="M 8 4 C 6.9 4 6 4.9 6 6 L 6 26 C 6 27.1 6.9 28 8 28 L 16 28 L 18 28 L 24 22 L 24 20 L 24 17 L 22 17 L 22 20 L 16 20 L 16 26 L 8 26 L 8 6 L 20 6 L 22 6 L 22 6.9394531 L 24 6.9394531 L 24 6 C 24 4.9 23.1 4 22 4 L 20 4 L 8 4 z M 18 8 A 9.1357116 9.1357222 0 0 0 10.003906 12.738281 C 10.134796 13.107517 10.366605 13.42506 10.669922 13.660156 A 8.1206328 8.120642 0 0 1 18 9.0136719 A 4.0603192 4.0603204 0 0 0 13.939453 13.074219 A 4.0603192 4.0603204 0 0 0 18 17.134766 A 4.0603192 4.0603204 0 0 0 22.060547 13.074219 A 4.0603192 4.0603204 0 0 0 18.355469 9.03125 A 8.1206328 8.120642 0 0 1 25.330078 13.660156 C 25.63614 13.422932 25.869818 13.099984 26 12.726562 A 9.1357116 9.1357222 0 0 0 18 8 z M 18 10.029297 A 3.0452394 3.0452402 0 0 1 21.044922 13.074219 A 3.0452394 3.0452402 0 0 1 18 16.119141 A 3.0452394 3.0452402 0 0 1 14.955078 13.074219 A 3.0452394 3.0452402 0 0 1 18 10.029297 z M 18 11.044922 A 2.0301598 2.0301602 0 0 0 15.96875 13.074219 A 2.0301598 2.0301602 0 0 0 18 15.105469 A 2.0301598 2.0301602 0 0 0 20.029297 13.074219 A 2.0301598 2.0301602 0 0 0 19.939453 12.478516 A 1.0150798 1.01508 0 0 1 19.015625 13.074219 A 1.0150798 1.01508 0 0 1 18 12.058594 A 1.0150798 1.01508 0 0 1 18.597656 11.134766 A 2.0301598 2.0301602 0 0 0 18 11.044922 z "
     transform="scale(0.5)"
     id="path37" />
</svg>
