<?xml version="1.0" encoding="UTF-8" standalone="no"?>
<svg
   xmlns:dc="http://purl.org/dc/elements/1.1/"
   xmlns:cc="http://creativecommons.org/ns#"
   xmlns:rdf="http://www.w3.org/1999/02/22-rdf-syntax-ns#"
   xmlns:svg="http://www.w3.org/2000/svg"
   xmlns="http://www.w3.org/2000/svg"
   xmlns:sodipodi="http://sodipodi.sourceforge.net/DTD/sodipodi-0.dtd"
   xmlns:inkscape="http://www.inkscape.org/namespaces/inkscape"
   viewBox="0 0 16 16"
   version="1.1"
   id="svg5"
   sodipodi:docname="saved_views_new.svg"
   inkscape:version="0.92.4 (5da689c313, 2019-01-14)"
   width="32"
   height="32">
  <metadata
     id="metadata9">
    <rdf:RDF>
      <cc:Work
         rdf:about="">
        <dc:format>image/svg+xml</dc:format>
        <dc:type
           rdf:resource="http://purl.org/dc/dcmitype/StillImage" />
        <dc:title></dc:title>
      </cc:Work>
    </rdf:RDF>
  </metadata>
  <sodipodi:namedview
     pagecolor="#ffffff"
     bordercolor="#666666"
     borderopacity="1"
     objecttolerance="10"
     gridtolerance="10"
     guidetolerance="10"
     inkscape:pageopacity="0"
     inkscape:pageshadow="2"
     inkscape:window-width="1554"
     inkscape:window-height="1641"
     id="namedview7"
     showgrid="false"
     inkscape:zoom="16"
     inkscape:cx="38.710963"
     inkscape:cy="1.3858185"
     inkscape:window-x="3984"
     inkscape:window-y="263"
     inkscape:window-maximized="0"
     inkscape:current-layer="svg5"
     inkscape:snap-bbox="true"
     inkscape:snap-bbox-edge-midpoints="false"
     inkscape:bbox-nodes="true" />
  <defs
     id="defs3051">
    <style
       type="text/css"
       id="current-color-scheme">
      .ColorScheme-Text {
        color:#232629;
      }
      </style>
  </defs>
  <path
     style="fill:#000000;fill-opacity:1;stroke:none;stroke-width:2"
     d="M 6 4 C 4.9 4 4 4.9 4 6 L 4 26 C 4 27.1 4.9 28 6 28 L 18 28 L 18 26 L 6 26 L 6 16 L 10 16 L 13.996094 12 L 26 12 L 26 18 L 28 18 L 28 10 C 28 8.9 27.1 8 26 8 L 18.015625 8 L 14.015625 4 L 14 4.015625 L 14 4 L 6 4 z M 15.996094 14.865234 A 9.1357116 9.1357222 0 0 0 8 19.603516 C 8.13089 19.97275 8.3626984 20.290297 8.6660156 20.525391 A 8.1206328 8.120642 0 0 1 15.996094 15.878906 A 4.0603192 4.0603204 0 0 0 11.935547 19.939453 A 4.0603192 4.0603204 0 0 0 15.996094 24 A 4.0603192 4.0603204 0 0 0 16 24 L 16 22.984375 A 3.0452394 3.0452402 0 0 1 15.996094 22.984375 A 3.0452394 3.0452402 0 0 1 12.951172 19.939453 A 3.0452394 3.0452402 0 0 1 15.996094 16.894531 A 3.0452394 3.0452402 0 0 1 18.339844 18 L 18.339844 16.638672 A 4.0603192 4.0603204 0 0 0 16.351562 15.896484 A 8.1206328 8.120642 0 0 1 18.339844 16.25 L 18.339844 16 L 20 16 L 20 15.794922 A 9.1357116 9.1357222 0 0 0 15.996094 14.865234 z M 15.996094 17.910156 A 2.0301598 2.0301602 0 0 0 13.964844 19.939453 A 2.0301598 2.0301602 0 0 0 15.996094 21.970703 A 2.0301598 2.0301602 0 0 0 16 21.970703 L 16 20 L 16.023438 20 L 18 20 L 18 19.636719 A 2.0301598 2.0301602 0 0 0 17.935547 19.34375 A 1.0150798 1.01508 0 0 1 17.011719 19.939453 A 1.0150798 1.01508 0 0 1 15.996094 18.923828 A 1.0150798 1.01508 0 0 1 16.59375 18 A 2.0301598 2.0301602 0 0 0 15.996094 17.910156 z "
     transform="scale(0.5)"
     id="path30" />
  <path
     inkscape:connector-curvature="0"
     style="fill:#000000;fill-opacity:1;stroke:none;stroke-width:1"
     d="m 10.683594,9.0839845 -0.867188,0.5 0.636719,1.1015625 L 10.634766,11 H 9.7109375 9 v 1 h 1.271485 0.361328 l -0.460938,0.798828 -0.355469,0.617188 0.867188,0.5 0.634766,-1.101563 0.18164,-0.3125 0.816406,1.414063 0.867188,-0.5 L 13.046875,13.179688 12.365235,12 H 14 v -1 h -0.271484 -1.361328 l 0.816406,-1.4160155 -0.867188,-0.5 -0.134765,0.236328 L 11.5,10.498047 11.039063,9.701172 Z"
     id="rect4182-3" />
</svg>
