<?xml version="1.0" encoding="UTF-8" standalone="no"?>
<svg
   xmlns:dc="http://purl.org/dc/elements/1.1/"
   xmlns:cc="http://creativecommons.org/ns#"
   xmlns:rdf="http://www.w3.org/1999/02/22-rdf-syntax-ns#"
   xmlns:svg="http://www.w3.org/2000/svg"
   xmlns="http://www.w3.org/2000/svg"
   xmlns:sodipodi="http://sodipodi.sourceforge.net/DTD/sodipodi-0.dtd"
   xmlns:inkscape="http://www.inkscape.org/namespaces/inkscape"
   viewBox="0 0 16 16"
   version="1.1"
   id="svg5"
   sodipodi:docname="select_invert.svg"
   inkscape:version="0.92.4 (5da689c313, 2019-01-14)"
   width="32"
   height="32">
  <metadata
     id="metadata9">
    <rdf:RDF>
      <cc:Work
         rdf:about="">
        <dc:format>image/svg+xml</dc:format>
        <dc:type
           rdf:resource="http://purl.org/dc/dcmitype/StillImage" />
        <dc:title></dc:title>
      </cc:Work>
    </rdf:RDF>
  </metadata>
  <sodipodi:namedview
     pagecolor="#ffffff"
     bordercolor="#666666"
     borderopacity="1"
     objecttolerance="10"
     gridtolerance="10"
     guidetolerance="10"
     inkscape:pageopacity="0"
     inkscape:pageshadow="2"
     inkscape:window-width="1912"
     inkscape:window-height="2056"
     id="namedview7"
     showgrid="false"
     inkscape:zoom="14.75"
     inkscape:cx="15.105902"
     inkscape:cy="-7.4432707"
     inkscape:window-x="3840"
     inkscape:window-y="0"
     inkscape:window-maximized="0"
     inkscape:current-layer="svg5"
     inkscape:snap-bbox="true"
     inkscape:bbox-nodes="true"
     inkscape:snap-page="true" />
  <defs
     id="defs3051">
    <style
       type="text/css"
       id="current-color-scheme">
      .ColorScheme-Text {
        color:#232629;
      }
      </style>
  </defs>
  <path
     style="fill:#000000;fill-opacity:1;stroke:none;stroke-width:16"
     d="M 0,0 V 16 L 2,14 H 1 v -1 h 1 v 1 L 3,13 V 12 4 3 h 1 8 1 L 14,2 H 13 V 1 h 1 v 1 l 2,-2 z m 14,2 v 1 h 1 V 2 Z m -1,1 -1,1 v 8 H 4 L 3,13 H 13 V 12 4 Z M 4,12 12,4 H 4 Z m -2,2 v 1 H 3 V 14 Z M 2,1 V 2 H 1 C 1,1.45 1.45,1 2,1 Z M 3,1 H 4 V 2 H 3 Z M 5,1 H 6 V 2 H 5 Z M 7,1 H 8 V 2 H 7 Z m 2,0 h 1 V 2 H 9 Z m 2,0 h 1 V 2 H 11 Z M 1,3 H 2 V 4 H 1 Z m 13,1 v 1 h 1 V 4 Z M 1,5 H 2 V 6 H 1 Z m 13,1 v 1 h 1 V 6 Z M 1,7 H 2 V 8 H 1 Z m 13,1 v 1 h 1 V 8 Z M 1,9 h 1 v 1 H 1 Z m 13,1 v 1 h 1 V 10 Z M 1,11 h 1 v 1 H 1 Z m 13,1 v 1 h 1 V 12 Z M 4,14 v 1 h 1 v -1 z m 2,0 v 1 h 1 v -1 z m 2,0 v 1 h 1 v -1 z m 2,0 v 1 h 1 v -1 z m 2,0 v 1 h 1 v -1 z m 2,0 v 1 c 0.55,0 1,-0.45 1,-1 z"
     id="path864"
     inkscape:connector-curvature="0" />
</svg>
