<?xml version="1.0" encoding="UTF-8" standalone="no"?>
<svg
   xmlns:dc="http://purl.org/dc/elements/1.1/"
   xmlns:cc="http://creativecommons.org/ns#"
   xmlns:rdf="http://www.w3.org/1999/02/22-rdf-syntax-ns#"
   xmlns:svg="http://www.w3.org/2000/svg"
   xmlns="http://www.w3.org/2000/svg"
   xmlns:sodipodi="http://sodipodi.sourceforge.net/DTD/sodipodi-0.dtd"
   xmlns:inkscape="http://www.inkscape.org/namespaces/inkscape"
   viewBox="0 0 16 16"
   version="1.1"
   id="svg5"
   sodipodi:docname="tabs.svg"
   inkscape:version="1.0.2 (e86c870, 2021-01-15)"
   width="32"
   height="32">
  <metadata
     id="metadata9">
    <rdf:RDF>
      <cc:Work
         rdf:about="">
        <dc:format>image/svg+xml</dc:format>
        <dc:type
           rdf:resource="http://purl.org/dc/dcmitype/StillImage" />
        <dc:title></dc:title>
      </cc:Work>
    </rdf:RDF>
  </metadata>
  <sodipodi:namedview
     pagecolor="#ffffff"
     bordercolor="#666666"
     borderopacity="1"
     objecttolerance="10"
     gridtolerance="10"
     guidetolerance="10"
     inkscape:pageopacity="0"
     inkscape:pageshadow="2"
     inkscape:window-width="1920"
     inkscape:window-height="998"
     id="namedview7"
     showgrid="false"
     inkscape:zoom="4"
     inkscape:cx="32.117331"
     inkscape:cy="-13.271288"
     inkscape:window-x="0"
     inkscape:window-y="0"
     inkscape:window-maximized="1"
     inkscape:current-layer="svg5"
     inkscape:snap-bbox="true"
     inkscape:bbox-nodes="true"
     inkscape:snap-page="true"
     inkscape:document-rotation="0" />
  <defs
     id="defs3051">
    <style
       type="text/css"
       id="current-color-scheme">
      .ColorScheme-Text {
        color:#232629;
      }
      </style>
  </defs>
  <path
     id="path785-7-5-3"
     style="fill:#000000;fill-opacity:1;stroke:none;stroke-width:2.84401"
     d="M 6 4 C 4.9 4 4 4.9 4 6 L 4 26 C 4 27.1 4.9 28 6 28 L 26 28 C 27.1 28 28 27.1 28 26 L 28 10 L 26 10 L 26 6 C 26 4.9 25.1 4 24 4 L 14 4 L 12 4 L 6 4 z M 6 6 L 12 6 L 12 10 L 12 12 L 26 12 L 26 26 L 6 26 L 6 6 z M 14 6 L 18 6 L 18 10 L 14 10 L 14 6 z M 20 6 L 24 6 L 24 10 L 20 10 L 20 6 z "
     transform="scale(0.5)" />
</svg>
