<?xml version="1.0" encoding="UTF-8" standalone="no"?>
<svg
   viewBox="0 0 16 16"
   version="1.1"
   id="svg5"
   sodipodi:docname="tags.svg"
   inkscape:version="1.1 (c4e8f9e, 2021-05-24)"
   width="32"
   height="32"
   xmlns:inkscape="http://www.inkscape.org/namespaces/inkscape"
   xmlns:sodipodi="http://sodipodi.sourceforge.net/DTD/sodipodi-0.dtd"
   xmlns="http://www.w3.org/2000/svg"
   xmlns:svg="http://www.w3.org/2000/svg"
   xmlns:rdf="http://www.w3.org/1999/02/22-rdf-syntax-ns#"
   xmlns:cc="http://creativecommons.org/ns#"
   xmlns:dc="http://purl.org/dc/elements/1.1/">
  <metadata
     id="metadata9">
    <rdf:RDF>
      <cc:Work
         rdf:about="">
        <dc:format>image/svg+xml</dc:format>
        <dc:type
           rdf:resource="http://purl.org/dc/dcmitype/StillImage" />
      </cc:Work>
    </rdf:RDF>
  </metadata>
  <sodipodi:namedview
     pagecolor="#ffffff"
     bordercolor="#666666"
     borderopacity="1"
     objecttolerance="10"
     gridtolerance="10"
     guidetolerance="10"
     inkscape:pageopacity="0"
     inkscape:pageshadow="2"
     inkscape:window-width="1912"
     inkscape:window-height="2056"
     id="namedview7"
     showgrid="true"
     inkscape:zoom="32"
     inkscape:cx="15.828125"
     inkscape:cy="17.40625"
     inkscape:window-x="3840"
     inkscape:window-y="0"
     inkscape:window-maximized="0"
     inkscape:current-layer="svg5"
     inkscape:snap-bbox="true"
     inkscape:bbox-nodes="true"
     inkscape:snap-page="true"
     inkscape:document-rotation="0"
     inkscape:snap-bbox-edge-midpoints="true"
     inkscape:snap-grids="false"
     inkscape:object-nodes="true"
     inkscape:pagecheckerboard="0">
    <inkscape:grid
       type="xygrid"
       id="grid853" />
  </sodipodi:namedview>
  <defs
     id="defs3051">
    <style
       type="text/css"
       id="current-color-scheme">
      .ColorScheme-Text {
        color:#232629;
      }
      </style>
  </defs>
  <g
     id="g830">
    <path
       id="path1650"
       style="fill:#000000;fill-opacity:1;stroke:none;stroke-width:4.47214"
       d="M 4 4 L 4 6 L 4 14 L 16.728516 26.728516 L 16.828125 26.626953 L 25.314453 18.142578 L 26.728516 16.728516 L 14 4 L 6 4 L 4 4 z M 6 6 L 13.171875 6 L 23.900391 16.728516 L 16.728516 23.900391 L 6 13.171875 L 6 6 z M 10 8 A 2 2 0 0 0 8 10 A 2 2 0 0 0 10 12 A 2 2 0 0 0 12 10 A 2 2 0 0 0 10 8 z "
       transform="scale(0.5)" />
    <path
       style="fill:#000000;fill-opacity:0.5;stroke:none;stroke-width:4.47214"
       d="m 16.835938,4.0078125 11.30664,11.3066405 1.414063,1.414063 -8.78125,8.78125 L 22,26.734375 22.099609,26.634766 30.585938,18.150391 32,16.736328 19.271484,4.0078125 Z"
       transform="scale(0.5)"
       id="path1278" />
  </g>
</svg>
