<?xml version="1.0" encoding="UTF-8" standalone="no"?>
<svg
   xmlns:dc="http://purl.org/dc/elements/1.1/"
   xmlns:cc="http://creativecommons.org/ns#"
   xmlns:rdf="http://www.w3.org/1999/02/22-rdf-syntax-ns#"
   xmlns:svg="http://www.w3.org/2000/svg"
   xmlns="http://www.w3.org/2000/svg"
   xmlns:sodipodi="http://sodipodi.sourceforge.net/DTD/sodipodi-0.dtd"
   xmlns:inkscape="http://www.inkscape.org/namespaces/inkscape"
   viewBox="0 0 16 16"
   version="1.1"
   id="svg5"
   sodipodi:docname="url.svg"
   inkscape:version="0.92.4 (5da689c313, 2019-01-14)"
   width="32"
   height="32">
  <metadata
     id="metadata9">
    <rdf:RDF>
      <cc:Work
         rdf:about="">
        <dc:format>image/svg+xml</dc:format>
        <dc:type
           rdf:resource="http://purl.org/dc/dcmitype/StillImage" />
        <dc:title></dc:title>
      </cc:Work>
    </rdf:RDF>
  </metadata>
  <sodipodi:namedview
     pagecolor="#ffffff"
     bordercolor="#666666"
     borderopacity="1"
     objecttolerance="10"
     gridtolerance="10"
     guidetolerance="10"
     inkscape:pageopacity="0"
     inkscape:pageshadow="2"
     inkscape:window-width="1912"
     inkscape:window-height="2056"
     id="namedview7"
     showgrid="false"
     inkscape:zoom="11.313708"
     inkscape:cx="25.710685"
     inkscape:cy="-0.013915851"
     inkscape:window-x="3840"
     inkscape:window-y="0"
     inkscape:window-maximized="0"
     inkscape:current-layer="svg5"
     inkscape:snap-bbox="true"
     inkscape:bbox-nodes="true"
     inkscape:snap-page="true"
     inkscape:snap-bbox-edge-midpoints="true"
     inkscape:bbox-paths="true" />
  <defs
     id="defs3051">
    <style
       type="text/css"
       id="current-color-scheme">
      .ColorScheme-Text {
        color:#232629;
      }
      </style>
  </defs>
  <path
     style="color:#232629;fill:#000000;fill-opacity:1;stroke:none;stroke-width:2"
     d="M 14 2 C 13.59502 2 13.195453 2.02318 12.800781 2.0625 C 11.162533 2.22518 9.6233409 2.7181483 8.2460938 3.4726562 C 7.9018455 3.6612563 7.5648787 3.8656175 7.2421875 4.0859375 A 11.999996 12 0 0 0 6.984375 4.28125 C 6.758679 4.44445 6.5338273 4.6070482 6.3203125 4.7851562 A 11.999996 12 0 0 0 5.9765625 5.0976562 C 5.7921665 5.2639363 5.6073465 5.4281768 5.4335938 5.6054688 C 5.4284337 5.6106688 5.4230888 5.6158937 5.4179688 5.6210938 A 11.999996 12 0 0 0 5.390625 5.6445312 A 11.999966 12.000032 0 0 0 5.390625 5.6484375 A 11.999996 12 0 0 0 5.125 5.9453125 C 4.965324 6.1211525 4.805396 6.2953528 4.65625 6.4804688 C 4.65217 6.4856688 4.6486113 6.4908938 4.6445312 6.4960938 A 11.999996 12 0 0 0 4.6015625 6.5429688 A 11.999966 12.000032 0 0 0 4.46875 6.7304688 A 11.999996 12 0 0 0 4.4335938 6.7734375 C 4.2685258 6.9916375 4.1071657 7.2119262 3.9570312 7.4414062 A 11.999996 12 0 0 0 3.7421875 7.796875 C 3.6103275 8.014435 3.4814172 8.2345975 3.3632812 8.4609375 A 11.999996 12 0 0 0 3.1835938 8.8320312 C 3.0661656 9.0772715 2.9524745 9.324005 2.8515625 9.578125 C 2.8474825 9.588525 2.8439238 9.598975 2.8398438 9.609375 A 11.999996 12 0 0 0 2.8164062 9.65625 A 11.999966 12.000032 0 0 0 2.7734375 9.7890625 A 11.999996 12 0 0 0 2.7578125 9.8320312 C 2.6568765 10.104031 2.5618328 10.379292 2.4804688 10.660156 A 11.999996 12 0 0 0 2.4375 10.800781 A 11.999966 12.000032 0 0 0 2.3945312 10.992188 A 11.999996 12 0 0 0 2.3828125 11.035156 C 2.3134965 11.307236 2.2495787 11.580231 2.1992188 11.859375 A 11.999966 12.000032 0 0 0 2.1953125 11.871094 A 11.999996 12 0 0 0 2.1757812 11.964844 A 11.999966 12.000032 0 0 0 2.1757812 11.96875 A 11.999996 12 0 0 0 2.1679688 12.035156 A 11.999966 12.000032 0 0 0 2.140625 12.242188 C 2.103865 12.491746 2.0719093 12.741766 2.0507812 12.996094 A 11.999996 12 0 0 0 2.03125 13.15625 A 11.999966 12.000032 0 0 0 2.03125 13.160156 A 11.999996 12 0 0 0 2.0273438 13.242188 A 11.999966 12.000032 0 0 0 2 13.96875 C 1.9999729 13.97915 2 13.9896 2 14 L 2 14.003906 A 11.999966 12.000032 0 0 0 2 14.011719 A 11.999996 12 0 0 0 2.0585938 15.203125 A 11.999966 12.000032 0 0 0 2.0625 15.226562 A 11.999996 12 0 0 0 2.2382812 16.386719 A 11.999966 12.000032 0 0 0 2.2382812 16.394531 A 11.999966 12.000032 0 0 0 2.2382812 16.398438 C 2.2948853 16.677398 2.3736268 16.947186 2.4492188 17.21875 A 11.999996 12 0 0 0 2.5351562 17.550781 A 11.999966 12.000032 0 0 0 2.5390625 17.5625 L 2.5390625 17.566406 C 2.5973865 17.753886 2.6750395 17.933767 2.7421875 18.117188 A 11.999996 12 0 0 0 2.7773438 18.214844 C 2.8341557 18.365964 2.8787423 18.523723 2.9414062 18.671875 A 11.999996 12 0 0 0 2.9453125 18.675781 A 11.999966 12.000032 0 0 0 2.9453125 18.685547 C 3.0958845 19.040507 3.2664202 19.384223 3.4492188 19.720703 A 11.999996 12 0 0 0 3.46875 19.759766 A 11.999966 12.000032 0 0 0 3.46875 19.763672 A 11.999966 12.000032 0 0 0 5.5 22.470703 L 5.5195312 22.490234 A 11.999966 12.000032 0 0 0 5.640625 22.615234 A 11.999966 12.000032 0 0 0 7.2265625 23.904297 C 7.2543225 23.923497 7.2806457 23.943891 7.3085938 23.962891 A 11.999966 12.000032 0 0 0 8.1679688 24.486328 C 8.180167 24.493085 8.1929262 24.498978 8.2050781 24.505859 A 6.9121094 6.9121094 0 0 1 13.945312 18.279297 C 13.941847 18.268307 13.934135 18.258919 13.933594 18.246094 C 13.919994 17.986614 14.025134 18.013574 14.121094 17.871094 C 14.169094 17.800614 14.213094 17.672094 14.246094 17.621094 C 14.408094 17.381094 14.703094 17.296574 14.683594 16.933594 C 14.675994 16.813594 14.584574 16.535114 14.496094 16.496094 C 14.446574 16.473694 14.382074 16.460514 14.308594 16.433594 C 14.073074 16.345114 13.867094 16.078114 13.621094 16.058594 L 13.496094 16.058594 C 13.400094 16.058594 13.291634 16.011134 13.183594 15.996094 C 13.116114 15.976494 12.974114 16.015694 12.933594 15.996094 C 12.872114 15.966094 12.858114 15.843074 12.808594 15.808594 C 12.768074 15.780194 12.682574 15.768614 12.621094 15.746094 C 12.523614 15.710094 12.485094 15.628614 12.371094 15.621094 C 12.335094 15.621094 12.285094 15.640694 12.246094 15.621094 C 12.184614 15.601494 12.117074 15.594714 12.058594 15.558594 C 11.986594 15.515074 11.901094 15.495114 11.871094 15.433594 C 11.937094 15.217594 11.727074 15.184594 11.683594 15.058594 C 11.663994 15.000074 11.703194 14.861114 11.683594 14.808594 C 11.657994 14.735114 11.578574 14.682574 11.496094 14.621094 C 11.352094 14.508614 11.265614 14.459074 11.058594 14.433594 C 10.967114 14.413994 10.855614 14.453194 10.746094 14.433594 C 10.630614 14.413994 10.459614 14.346574 10.371094 14.246094 C 10.287094 14.148614 10.257074 14.042614 10.183594 13.996094 C 10.113114 13.952574 10.044094 13.916094 9.9960938 13.871094 C 9.9736936 13.851494 9.9546337 13.855114 9.9335938 13.808594 C 9.8975936 13.735114 9.8276135 13.711094 9.8710938 13.621094 C 9.7916135 13.580574 9.8314936 13.697074 9.7460938 13.683594 C 9.6680936 13.574114 9.6091137 13.464574 9.4335938 13.496094 C 9.3541135 13.515694 9.2781135 13.682114 9.1835938 13.683594 C 9.1055936 13.683594 9.0355938 13.512574 8.9335938 13.496094 C 8.8555936 13.476494 8.7375936 13.567594 8.6835938 13.558594 C 8.5980936 13.538994 8.5740935 13.484594 8.4960938 13.433594 C 8.4375937 13.395994 8.3400937 13.305594 8.3085938 13.308594 C 8.2080935 13.308594 8.1340937 13.507114 7.9960938 13.433594 C 7.9285938 13.348114 8.1380936 13.325574 8.0585938 13.246094 C 7.9985936 13.187574 7.9815938 13.280074 7.9335938 13.308594 C 7.8780937 13.344594 7.8075937 13.348574 7.7460938 13.371094 C 7.6080938 13.423614 7.4790936 13.439094 7.3710938 13.496094 C 7.2705937 13.548614 7.2420938 13.581634 7.1835938 13.683594 C 7.1370938 13.767594 7.0665937 13.929074 6.9960938 13.933594 C 6.9120938 13.933594 6.8850937 13.8455 6.8085938 13.8125 C 6.5790938 13.71202 6.4365938 13.87048 6.2460938 13.875 C 6.0705938 13.875 5.8010936 13.604 5.8085938 13.4375 C 5.8145938 13.3355 5.8590936 13.1885 5.8710938 13.0625 C 5.8816137 12.96202 5.9945936 12.84004 5.9960938 12.75 C 5.9975938 12.62552 5.7630937 12.57598 5.6835938 12.5625 C 5.4960938 12.5281 5.2730935 12.6465 5.0585938 12.5625 C 5.0180938 12.49502 5.0970737 12.44248 5.1210938 12.375 C 5.1346137 12.339 5.1075738 12.292 5.1210938 12.25 C 5.1450938 12.18552 5.2785938 12.12998 5.3085938 12.0625 C 5.3311138 12.01002 5.2860737 11.941 5.3085938 11.875 C 5.3341138 11.803 5.4275936 11.73998 5.4335938 11.6875 C 5.4411138 11.62002 5.3625935 11.54348 5.3085938 11.5 C 5.1420937 11.5196 5.0295937 11.51438 4.9335938 11.5625 C 4.7175937 11.66002 4.7760936 11.93102 4.5585938 12 C 4.4850937 12.024 4.3925937 12.04746 4.3085938 12.0625 C 4.2748337 12.0809 4.2301822 12.0645 4.1914062 12.0625 A 9.9999748 10.00005 0 0 1 4.1953125 12.046875 A 10 10.000026 0 0 1 4.1992188 12.023438 A 9.9999748 10.00005 0 0 1 4.1992188 12.015625 A 10 10.000026 0 0 1 4.2265625 11.914062 C 4.2342025 11.901262 4.2428137 11.8894 4.2460938 11.875 C 4.3885938 11.2255 4.6085938 10.5955 4.8710938 10 L 4.9335938 10 C 5.0100938 10.0196 5.0550938 10.119 5.1210938 10.125 C 5.3055937 10.1446 5.3445937 9.956 5.4960938 9.875 C 5.6520937 9.8974 5.7285936 9.8554 5.8710938 9.875 C 5.9670938 9.8946 6.1085938 9.99248 6.1835938 10 C 6.2480937 10 6.2485938 9.93002 6.3085938 9.9375 C 6.3685937 9.9571 6.4855935 10.053 6.4960938 10.125 C 6.5065738 10.215 6.4080937 10.3385 6.4335938 10.4375 C 6.5280938 10.5335 6.7360937 10.56952 6.8710938 10.625 C 6.9595937 10.55148 6.8845738 10.41602 6.8710938 10.3125 C 6.8695937 10.26598 6.8770938 10.167 6.8710938 10.125 C 6.8605738 10.053 6.8085938 9.99898 6.8085938 9.9375 C 6.8085938 9.65102 7.0540936 9.5485 7.2460938 9.4375 C 7.3285937 9.3895 7.4240938 9.286 7.4960938 9.25 C 7.5980938 9.20048 7.6620938 9.23562 7.7460938 9.1875 C 7.8975938 9.10202 8.0025936 8.97252 8.1210938 8.875 C 8.1750938 8.74452 8.1150936 8.56648 8.1210938 8.4375 C 8.1750938 8.4031 8.2500937 8.4375 8.3085938 8.4375 C 8.4000935 8.4179 8.4435937 8.30248 8.4960938 8.25 C 8.5260935 8.22 8.5850937 8.21762 8.6210938 8.1875 C 8.7125935 8.1155 8.7290938 8.03148 8.8085938 8 C 8.8371136 7.9804 8.8900938 7.9485938 8.9335938 7.9335938 C 8.9935936 7.9139938 9.0875935 7.9072137 9.1835938 7.8710938 C 9.2450936 7.8486937 9.4095937 7.8355138 9.4335938 7.8085938 C 9.4635935 7.7785937 9.4259935 7.6675738 9.4335938 7.6210938 C 9.4815938 7.3946138 9.7935937 7.3836338 9.9960938 7.3085938 C 10.135574 7.2561137 10.281492 7.0925737 10.4375 7.1210938 C 10.4075 7.2290937 10.2855 7.2406137 10.3125 7.3710938 C 10.3469 7.5525737 10.562 7.3355137 10.625 7.3085938 C 10.74652 7.2561137 10.962082 7.1810937 11.121094 7.1210938 C 11.260574 7.0716138 11.507 7.0330937 11.375 6.8710938 C 11.26552 6.8514938 11.217094 6.9570938 11.121094 6.9960938 C 11.055094 7.0156937 11.05548 6.9396338 11 6.9335938 C 10.946 6.9335938 10.929 7.0050936 10.875 6.9960938 C 10.821 6.9764938 10.75752 6.8745938 10.75 6.8085938 C 10.7276 6.6405937 10.87002 6.6191337 10.9375 6.4960938 C 10.89098 6.3446137 10.68998 6.4310937 10.5625 6.3710938 C 10.5761 6.2810938 10.64352 6.2030738 10.75 6.1835938 C 10.83552 6.1639938 11.07248 6.1995737 11.125 6.2460938 C 11.155 6.2716937 11.07848 6.3290938 11.125 6.3710938 C 11.17752 6.4176138 11.24502 6.3906938 11.3125 6.3710938 C 11.3365 6.2570938 11.1665 6.3196138 11.1875 6.2460938 C 11.32398 6.1576138 11.5835 6.2061138 11.75 6.1835938 C 11.846 6.1639938 11.97698 6.1035938 12.0625 6.0585938 C 12.14202 6.0121138 12.166 5.9211337 12.25 5.9960938 C 12.274 6.0786137 12.23402 6.1401138 12.1875 6.1835938 C 12.03302 6.3201137 11.86998 6.4635938 11.75 6.6210938 C 11.82352 6.6930938 11.935594 6.6725 12.058594 6.6875 C 12.106594 6.7071 12.196614 6.6723 12.246094 6.6875 C 12.306094 6.7071 12.385634 6.6679 12.433594 6.6875 C 12.517594 6.7071 12.537134 6.875 12.621094 6.875 C 12.757614 6.875 12.699094 6.7126137 12.621094 6.6210938 C 12.645094 6.5266138 12.7205 6.4386138 12.6875 6.3710938 C 12.62598 6.2466137 12.38704 6.4082937 12.375 6.2460938 C 12.3674 6.1456137 12.464 6.1350737 12.5 6.0585938 C 12.4836 5.8665937 12.642094 5.8575936 12.621094 5.6835938 C 12.610694 5.6115937 12.54952 5.63002 12.5 5.5625 C 12.4744 5.5265 12.463594 5.40348 12.433594 5.375 C 12.330074 5.28648 12.137 5.35538 12.125 5.1875 C 12.119 5.08698 12.1386 4.98152 12.125 4.875 C 12.1114 4.773 12.02598 4.4585 11.9375 4.4375 C 11.82502 4.4135 11.75852 4.6245 11.625 4.6875 C 11.553 4.7219 11.38602 4.762 11.3125 4.75 C 11.2645 4.7304 11.1935 4.718 11.1875 4.625 C 11.1799 4.53948 11.28098 4.50198 11.3125 4.4375 C 11.3197 4.4219 11.31008 4.4003062 11.3125 4.3789062 A 9.9999748 10.00005 0 0 1 12.160156 4.1875 C 12.169356 4.186944 12.1787 4.18968 12.1875 4.1875 C 12.3673 4.1543 12.550939 4.1276025 12.734375 4.1015625 A 9.9999748 10.00005 0 0 1 13.140625 4.0546875 C 13.293425 4.0398875 13.448186 4.0322375 13.601562 4.0234375 A 9.9999748 10.00005 0 0 1 14 4.0117188 A 9.9999748 10.00005 0 0 1 14.757812 4.046875 C 14.837855 4.054075 14.9186 4.0541 15 4.0625 C 15.0064 4.063672 15.013131 4.061836 15.019531 4.0625 A 9.9999748 10.00005 0 0 1 15.835938 4.1875 C 16.013936 4.22762 16.189856 4.2667 16.375 4.3125 C 16.888 4.4385 17.3965 4.60998 17.875 4.8125 C 18.139 4.9235 18.373 5.05402 18.625 5.1875 C 18.625 5.2055 18.6265 5.22748 18.625 5.25 C 18.68352 5.2756 18.71502 5.3835 18.8125 5.4375 C 18.8485 5.4571 18.84048 5.48196 18.875 5.5 C 18.93352 5.5316 19.012 5.568 19 5.625 C 18.9836 5.70452 18.86798 5.68848 18.8125 5.75 C 18.8201 5.86548 18.7175 5.8595 18.6875 5.9375 C 18.7055 5.98702 18.80498 6.0025 18.8125 6.0625 C 18.8021 6.12702 18.6635 6.1215 18.6875 6.1875 C 18.7955 6.2715 18.898 6.2071 19 6.1875 C 19.22352 6.1591 19.4245 6.1719 19.5625 6.0625 C 19.5445 5.95598 19.76204 5.97096 19.75 5.875 C 19.807 5.917 19.88054 5.958 19.9375 6 C 19.9163 6.0212 19.89912 6.05046 19.875 6.0625 C 19.833 6.0821 19.78752 6.10088 19.75 6.125 C 19.69452 6.161 19.62698 6.208 19.5625 6.25 C 19.51602 6.2816 19.423 6.4375 19.375 6.4375 C 19.31652 6.4375 19.2295 6.363 19.1875 6.375 C 19.1275 6.3946 19.13002 6.476 19.0625 6.5 C 18.9305 6.548 18.6715 6.4230936 18.625 6.6210938 C 18.68052 6.7350937 18.89952 6.6830938 19 6.7460938 C 19.06152 6.7865737 19.17102 6.9270938 19.1875 6.9960938 C 19.2039 7.0515738 19.2115 7.3110938 19.1875 7.3710938 C 19.12602 7.5315737 18.9345 7.4990938 18.75 7.4960938 L 18.625 7.4960938 C 18.31452 7.4764938 18.0145 7.3365538 17.875 7.5585938 C 17.8854 7.7280738 17.9126 7.851516 17.875 8 C 17.8466 8.108 17.68146 8.2155935 17.6875 8.3085938 C 17.6905 8.3565938 17.8005 8.4286135 17.8125 8.4960938 C 17.8201 8.5320937 17.7961 8.5880937 17.8125 8.6210938 C 17.86502 8.7186135 17.9695 8.6014935 18.0625 8.6210938 C 18.15102 8.6406936 18.25 8.7720935 18.25 8.8710938 C 18.25 8.9416138 18.23282 9.056 18.1875 9.125 C 18.09902 9.257 17.9385 9.2405 17.8125 9.3125 C 17.70902 9.3725 17.68648 9.5175738 17.625 9.6210938 C 17.559 9.7336135 17.473 9.7745936 17.5 9.9335938 C 17.41 10.112074 17.311 10.223114 17.125 10.308594 C 17.071 10.332594 16.98698 10.334974 16.9375 10.371094 C 16.89698 10.399494 16.86802 10.494114 16.8125 10.558594 C 16.74202 10.636594 16.66248 10.686094 16.625 10.746094 C 16.5966 10.792614 16.59262 10.869114 16.5625 10.933594 C 16.51902 11.017594 16.43048 11.037134 16.375 11.121094 C 16.3494 11.161614 16.34102 11.256114 16.3125 11.308594 C 16.24802 11.424114 16.1755 11.519094 16.1875 11.621094 C 16.1979 11.717094 16.3065 11.720114 16.3125 11.808594 C 16.3185 11.856594 16.24852 11.879594 16.25 11.933594 C 16.253 12.010114 16.30646 12.061094 16.3125 12.121094 C 16.3261 12.269574 16.2145 12.333074 16.1875 12.433594 C 16.1739 12.481594 16.1995 12.519594 16.1875 12.558594 C 16.1635 12.632114 16.06402 12.720114 16.0625 12.808594 C 16.0595 12.870114 16.1815 12.907614 16.1875 12.996094 C 16.1919 13.054614 16.113 13.128114 16.125 13.183594 C 16.1474 13.291594 16.3535 13.412094 16.4375 13.496094 C 16.5515 13.610094 16.70048 13.688594 16.75 13.808594 C 16.792 13.910594 16.797 14.107114 16.875 14.183594 C 16.93352 14.239114 17.05 14.248594 17.125 14.308594 C 17.19552 14.362594 17.23902 14.373594 17.3125 14.433594 C 17.43402 14.529594 17.61898 14.757188 17.8125 14.742188 C 17.9145 14.722587 18.011 14.640574 18.125 14.621094 C 18.24352 14.601494 18.38 14.545685 18.5 14.554688 C 18.59152 14.574286 18.712594 14.627094 18.808594 14.621094 C 18.909074 14.601494 19.007054 14.602685 19.121094 14.554688 C 19.319094 14.469167 19.645594 14.325145 19.933594 14.367188 C 20.154073 14.398785 20.154074 14.644666 20.308594 14.742188 C 20.484074 14.761786 20.608996 14.707788 20.75 14.742188 C 20.85648 14.767786 20.98948 14.912094 21 14.996094 C 21.0104 15.081614 20.887 15.190574 20.875 15.246094 C 20.8466 15.361614 20.8942 15.485074 20.875 15.558594 C 20.8582 15.617114 20.81102 15.687614 20.8125 15.746094 C 20.8125 15.798614 20.8835 15.927094 20.9375 15.996094 C 21.0035 16.080094 21.1065 16.154614 21.1875 16.246094 C 21.33298 16.414094 21.39796 16.586574 21.5 16.808594 C 21.5256 16.864114 21.476 16.924134 21.5 16.996094 C 21.45648 17.332094 21.34552 17.561594 21.125 17.933594 C 21.079455 17.98639 21.025601 18.035792 20.978516 18.087891 L 25.273438 18.087891 A 11.999996 12 0 0 0 25.300781 18.003906 C 25.374101 17.797186 25.449639 17.590678 25.511719 17.378906 A 11.999966 12.000032 0 0 0 25.5625 17.21875 A 11.999966 12.000032 0 0 0 25.5625 17.216797 A 11.999996 12 0 0 0 25.601562 17.044922 A 11.999966 12.000032 0 0 0 25.636719 16.880859 C 25.638315 16.874459 25.639025 16.865775 25.640625 16.859375 C 25.693985 16.641735 25.747784 16.425261 25.789062 16.203125 A 11.999966 12.000032 0 0 0 25.824219 16.042969 A 11.999966 12.000032 0 0 0 25.871094 15.675781 C 25.900294 15.467101 25.926952 15.258867 25.945312 15.046875 C 25.945536 15.044275 25.945094 15.041863 25.945312 15.039062 A 11.999966 12.000032 0 0 0 25.957031 14.964844 A 11.999996 12 0 0 0 25.96875 14.859375 A 11.999966 12.000032 0 0 0 25.96875 14.851562 A 11.999996 12 0 0 0 26 14.011719 C 26.000004 14.009119 26 14.006706 26 14.003906 A 11.999996 12 0 0 0 26 14 C 26 13.992 26.000016 13.984564 26 13.976562 A 11.999996 12 0 0 0 25.941406 12.8125 A 11.999966 12.000032 0 0 0 25.941406 12.804688 A 11.999996 12 0 0 0 25.9375 12.792969 A 11.999966 12.000032 0 0 0 25.9375 12.777344 A 11.999996 12 0 0 0 25.9375 12.773438 C 25.8979 12.383278 25.837879 11.99939 25.761719 11.621094 C 25.682039 11.225174 25.582484 10.837827 25.464844 10.457031 C 25.226524 9.6854636 24.912366 8.946412 24.53125 8.25 C 24.33881 7.89832 24.127868 7.5557305 23.902344 7.2265625 C 23.687384 6.9128025 23.45786 6.6116285 23.214844 6.3203125 A 11.999996 12 0 0 0 22.917969 5.9921875 C 22.750769 5.8061075 22.58461 5.6205845 22.40625 5.4453125 A 11.999996 12 0 0 0 22.101562 5.1679688 C 21.913602 4.9954887 21.72604 4.8244105 21.527344 4.6640625 A 11.999996 12 0 0 0 21.230469 4.4414062 C 21.009429 4.2739662 20.787323 4.1091273 20.554688 3.9570312 A 11.999996 12 0 0 0 20.253906 3.7734375 C 20.015186 3.6271575 19.772793 3.4851568 19.523438 3.3554688 A 11.999996 12 0 0 0 19.25 3.2226562 C 18.96976 3.0858163 18.686499 2.9549237 18.394531 2.8398438 A 11.999996 12 0 0 0 18.222656 2.7773438 C 17.923296 2.6645835 17.618786 2.5616163 17.308594 2.4726562 A 11.999996 12 0 0 0 17.003906 2.3945312 C 16.707786 2.3180115 16.409989 2.2493125 16.105469 2.1953125 A 11.999996 12 0 0 0 15.90625 2.1640625 C 15.59693 2.1145425 15.285498 2.0761812 14.96875 2.0507812 A 11.999996 12 0 0 0 14.296875 2.015625 C 14.197195 2.013185 14.10024 2 14 2 z M 9.9414062 4.9335938 L 9.9414062 4.9375 C 9.8784064 5.30198 9.5330008 5.448 9.125 5.4375 C 9.0335 5.52598 9.11348 5.69098 9.0625 5.8125 C 9.0205 5.9145 8.852 6.00752 8.75 6 C 8.6765 6 8.5625 5.88298 8.5625 5.8125 C 8.5625 5.72698 8.7024062 5.72396 8.6289062 5.625 C 8.6319065 5.6054 8.6704064 5.58354 8.6914062 5.5625 C 8.7319062 5.5369 8.7759065 5.5215738 8.8164062 5.4960938 C 9.1794064 5.2725738 9.5499064 5.1090937 9.9414062 4.9335938 z M 18.3125 5.3085938 L 18.3125 5.3125 C 18.2749 5.3321 18.28292 5.35396 18.25 5.375 C 18.17352 5.42152 18.12098 5.479 18.0625 5.5 C 17.98002 5.53 17.887 5.55148 17.875 5.625 C 17.8646 5.68648 17.93898 5.693 17.9375 5.75 C 17.9075 5.82348 17.89152 5.8475 17.875 5.9375 C 17.977 6.10398 18.18652 5.8978937 18.3125 5.8710938 C 18.36802 5.8514938 18.4075 5.8567137 18.4375 5.8085938 C 18.4719 5.7545937 18.47308 5.6975737 18.5 5.6210938 C 18.5284 5.5370938 18.63552 5.5070737 18.625 5.4335938 C 18.6174 5.3601138 18.43554 5.2980738 18.3125 5.3085938 z M 7.375 6.5625 C 7.4695 6.63898 7.6025 6.80448 7.4375 6.875 C 7.41802 6.8946 7.1769063 6.94498 7.1289062 6.9375 C 7.1094263 6.9375 7.0805 6.89004 7.0625 6.875 C 7.166 6.77448 7.2685 6.6585 7.375 6.5625 z M 7.75 6.9375 C 7.798 6.9375 7.8195 7.0595 7.875 7.0625 C 7.929 7.0625 7.9685 6.9885738 8 6.9960938 C 8.084 7.0184938 8.142 7.187 8.0625 7.25 C 7.9965 7.2696 7.9855 7.1760737 7.9375 7.1835938 C 7.801 7.2075938 7.727 7.5050937 7.625 7.4960938 C 7.529 7.4764938 7.465 7.2525937 7.5625 7.1835938 C 7.564 7.1235938 7.55798 7.12398 7.5625 7.0625 C 7.5925 7.0265 7.6705 6.9315 7.75 6.9375 z M 7.25 7 C 7.27852 7 7.3059103 6.9804 7.3164062 7 C 7.3029262 7.10648 7.2724062 7.13802 7.1914062 7.1875 C 7.0489062 7.27298 6.9239063 7.3795 6.8789062 7.5625 C 6.8654262 7.6165 6.6979062 7.76352 6.6289062 7.75 C 6.4714063 7.7156 6.7179065 7.42152 6.7539062 7.375 C 6.7944062 7.32548 6.83 7.307 6.875 7.25 C 6.9215 7.19448 6.9565 7.09398 7 7.0625 C 7.048 7.0281 7.166 6.997 7.25 7 z M 20.808594 7.3125 L 20.8125 7.3125 C 20.96998 7.2929 21.05296 7.4665 21.125 7.5625 C 21.185 7.6405 21.336074 7.75698 21.433594 7.8125 C 21.489074 7.8425 21.559614 7.9105 21.621094 7.9375 C 21.751574 7.99598 21.990094 8.18498 21.996094 8.3125 C 21.999094 8.37698 21.924594 8.44 21.933594 8.5 L 21.9375 8.5 C 22.03378 8.5152 22.119614 8.34796 22.121094 8.25 C 22.305574 8.50948 22.462094 8.785 22.621094 9.0625 C 22.696094 9.19298 22.802094 9.3025 22.871094 9.4375 C 22.782614 9.4631 22.759614 9.4771 22.746094 9.5625 C 22.726494 9.67498 22.793 9.85548 22.625 9.875 C 22.51852 9.8946 22.39548 9.783 22.25 9.75 C 22.19 9.7304 22.1105 9.7696 22.0625 9.75 C 21.95282 9.714 21.96948 9.56748 21.875 9.5 C 21.821 9.4624 21.64802 9.384 21.5625 9.375 C 21.5085 9.375 21.49302 9.3946 21.4375 9.375 C 21.37002 9.3554 21.2445 9.4034 21.1875 9.375 C 21.1335 9.3406 21.01348 9.23398 21 9.1875 C 20.9776 9.11398 21.18302 9.06296 21.1875 9 C 21.1919 8.952 21.13552 8.88598 21.125 8.8125 C 21.1174 8.76898 21.1358 8.7175 21.125 8.6875 C 21.1114 8.63498 21.01998 8.62804 20.9375 8.625 L 20.75 8.625 C 20.66152 8.625 20.48452 8.6098 20.375 8.625 L 20.1875 8.625 C 20.0135 8.6446 19.882582 8.6054 19.746094 8.625 C 19.648574 8.625 19.462574 8.708 19.371094 8.75 C 19.324574 8.7724 19.31 8.78238 19.25 8.8125 C 19.2216 8.8321 19.161 8.85848 19.125 8.875 C 19.06952 8.9006 18.9915 8.985 18.9375 9 C 18.8595 9.0196 18.76604 8.9804 18.625 9 C 18.523 9 18.378 8.93398 18.375 8.8125 C 18.372 8.6265 18.69952 8.7205 18.875 8.6875 C 18.941 8.6679 18.98302 8.6105 19.0625 8.5625 C 19.1001 8.5401 19.08888 8.52412 19.125 8.5 C 19.185 8.458 19.30202 8.3605 19.3125 8.3125 C 19.3201 8.26898 19.3065 8.2205 19.3125 8.1875 C 19.3201 8.1455 19.3835 8.11798 19.4375 8.0625 C 19.5215 7.9785 19.5825 7.86798 19.6875 7.8125 C 19.75802 7.7765 19.84352 7.7445 19.875 7.6875 C 19.8826 7.62298 19.872 7.6225 19.875 7.5625 C 19.91852 7.52198 19.964 7.50904 20 7.5 C 20.108 7.476 20.182594 7.5 20.308594 7.5 C 20.362594 7.5 20.437614 7.5256 20.496094 7.5 C 20.544094 7.4684 20.573094 7.399 20.621094 7.375 C 20.673574 7.3466 20.744114 7.31702 20.808594 7.3125 z M 21.933594 8.5 L 21.6875 8.5 C 21.59902 8.5 21.486114 8.45348 21.433594 8.5 C 21.507074 8.62 21.642114 8.6575 21.808594 8.6875 C 21.868594 8.64398 21.906594 8.57648 21.933594 8.5 z M 8.2460938 7.375 L 8.4335938 7.375 C 8.4830938 7.375 8.5390937 7.3554 8.5585938 7.375 C 8.5270737 7.507 8.2260938 7.4855 8.1210938 7.4375 C 8.1270938 7.38798 8.1830935 7.38404 8.2460938 7.375 z M 7.8085938 7.625 C 7.7215938 7.688 7.6340937 7.76902 7.4960938 7.8125 C 7.4195937 7.8365 7.3220938 7.83412 7.3085938 7.75 C 7.2921138 7.64648 7.4285938 7.69802 7.4960938 7.6875 C 7.5845937 7.6679 7.7065937 7.62952 7.8085938 7.625 z M 20.808594 7.625 C 20.742594 7.6474 20.711074 7.79302 20.808594 7.8125 C 20.855074 7.7841 20.883094 7.71048 20.871094 7.625 C 20.845494 7.5966 20.829634 7.6054 20.808594 7.625 z M 20.683594 7.9335938 L 20.683594 7.9375 C 20.686594 8.04998 20.705994 8.15396 20.683594 8.25 C 20.748074 8.37448 20.900594 8.27162 20.933594 8.1875 C 20.971194 7.97898 20.904394 7.9081137 20.808594 7.9335938 C 20.776994 7.9531937 20.716594 7.9079937 20.683594 7.9335938 z M 4.125 12.621094 C 4.2375 12.723094 4.3025 12.867594 4.4375 12.933594 C 4.487 12.959194 4.5605 12.979574 4.625 12.996094 C 4.6775 13.015694 4.7005 12.979694 4.75 12.996094 C 4.8565 13.032094 4.9785 13.083574 5.0625 13.121094 C 5.19 13.176614 5.328 13.370594 5.4375 13.433594 C 5.4435 13.498114 5.41798 13.573094 5.4375 13.621094 C 5.49 13.691614 5.541 13.760594 5.625 13.808594 C 5.727 13.864114 5.779 13.951094 5.875 13.996094 C 5.90948 14.015694 5.949 13.976494 6 13.996094 C 6.132 14.036614 6.1985 14.216634 6.3125 14.183594 C 6.386 14.161194 6.363 14.068094 6.375 13.996094 C 6.4245 13.942094 6.4845 13.871094 6.5625 13.871094 C 6.687 13.871094 6.7035 14.063594 6.75 14.183594 C 6.77552 14.251114 6.857 14.299134 6.875 14.371094 C 6.905 14.495614 6.90052 14.860094 6.875 14.933594 C 6.84348 15.025114 6.6975937 15.020614 6.6210938 15.121094 C 6.5850938 15.169094 6.5870938 15.274114 6.5585938 15.308594 C 6.5105937 15.367114 6.4695938 15.378074 6.4335938 15.433594 C 6.4141138 15.463594 6.3890935 15.516594 6.3710938 15.558594 C 6.3110938 15.686074 6.1950937 15.779114 6.2460938 15.933594 C 6.2655737 15.995114 6.3710938 16.047614 6.3710938 16.121094 C 6.3710938 16.209614 6.1970935 16.273614 6.1835938 16.371094 C 6.1730738 16.441614 6.2235937 16.526614 6.2460938 16.621094 C 6.2625737 16.691614 6.3915937 16.762114 6.4335938 16.808594 C 6.5040938 16.886594 6.5565938 17.022094 6.6210938 17.121094 C 6.7470938 17.314614 6.8105937 17.555594 6.9335938 17.746094 C 6.9995937 17.843614 7.1385937 17.892614 7.1835938 17.996094 C 7.2060737 18.048614 7.1641137 18.135594 7.1835938 18.183594 C 7.2555938 18.345594 7.5840936 18.540114 7.7460938 18.621094 C 7.8225938 18.658694 7.9295 18.6471 8 18.6875 C 8.1065 18.7475 8.321 18.903094 8.375 18.996094 C 8.423 19.080094 8.41348 19.304012 8.4375 19.4375 C 8.4675 19.61302 8.42998 19.744582 8.4375 19.933594 C 8.4435 20.037074 8.5 20.08398 8.5 20.1875 C 8.5 20.2235 8.5015 20.33752 8.5 20.375 C 8.4985 20.49952 8.51052 20.624 8.5 20.75 C 8.494 20.81752 8.49548 20.87902 8.5 20.9375 C 8.506 20.99902 8.558 21.003074 8.5625 21.058594 C 8.56702 21.117074 8.494 21.199614 8.5 21.246094 C 8.51352 21.372094 8.601 21.443074 8.625 21.558594 C 8.64448 21.650074 8.6995 21.885074 8.6875 21.996094 C 8.67998 22.054574 8.634 22.117594 8.625 22.183594 C 8.619 22.236074 8.63252 22.260594 8.625 22.308594 C 8.61956 22.350714 8.6312 22.387355 8.625 22.421875 A 10 10.000026 0 0 1 8.4375 22.308594 C 7.905 21.948594 7.3905 21.510094 6.9375 21.058594 C 6.876 20.997074 6.81 20.934054 6.75 20.871094 C 6.3885 20.490094 6.0485 20.0585 5.75 19.625 C 5.723 19.5858 5.7106018 19.539 5.6835938 19.5 C 5.3370938 18.981 5.057 18.4555 4.8125 17.875 C 4.7945 17.833 4.7640936 17.792 4.7460938 17.75 C 4.5345937 17.2325 4.3715016 16.6815 4.25 16.125 C 4.22748 16.02 4.2030938 15.9175 4.1835938 15.8125 C 4.1340937 15.5455 4.0895 15.2745 4.0625 15 C 4.03166 14.69944 4.0090622 14.409669 4.0039062 14.105469 A 9.9999748 10.00005 0 0 1 4 14.011719 A 10 10.000026 0 0 1 4 14.003906 A 10 10.000026 0 0 1 4.0078125 13.886719 C 4.0167325 13.455159 4.0632897 13.044764 4.1210938 12.625 L 4.125 12.621094 z M 7.9960938 13.6875 C 8.0920938 13.64398 8.0740937 13.79898 7.9960938 13.8125 C 7.9225937 13.8321 7.9240937 13.7235 7.9960938 13.6875 z M 15.087891 20.175781 A 4.9123708 4.9123708 0 0 0 11.962891 21.302734 A 4.9123708 4.9123708 0 0 0 11.330078 21.933594 A 4.9123708 4.9123708 0 0 0 11.302734 21.962891 A 4.9123708 4.9123708 0 0 0 10.837891 22.638672 A 4.9123708 4.9123708 0 0 0 10.75 22.787109 C 10.750579 22.786939 10.751369 22.787278 10.751953 22.787109 A 4.9123708 4.9123708 0 0 0 10.650391 22.996094 A 4.9123708 4.9123708 0 0 0 10.566406 23.169922 C 10.568478 23.170226 10.570209 23.169662 10.572266 23.169922 A 4.9123708 4.9123708 0 0 0 10.175781 25.087891 A 4.9123708 4.9123708 0 0 0 10.185547 25.373047 A 11.999966 12.000032 0 0 0 10.191406 25.375 A 4.9123708 4.9123708 0 0 0 15.087891 30 L 19.087891 30 A 4.9123708 4.9123708 0 0 0 24 25.087891 A 4.9123708 4.9123708 0 0 0 23.904297 24.130859 L 21.871094 24.130859 A 2.9474222 2.9474228 0 0 1 22.035156 25.087891 A 2.9474222 2.9474228 0 0 1 19.191406 28.03125 L 17.166016 28.03125 A 4.9123708 4.9123708 0 0 0 17.169922 28.035156 L 15.087891 28.035156 A 2.9474222 2.9474228 0 0 1 12.244141 25.859375 A 11.999966 12.000032 0 0 0 12.246094 25.859375 A 2.9474222 2.9474228 0 0 1 12.181641 25.572266 A 2.9474222 2.9474228 0 0 1 12.179688 25.564453 A 2.9474222 2.9474228 0 0 1 12.148438 25.279297 A 2.9474222 2.9474228 0 0 1 12.140625 25.087891 A 2.9474222 2.9474228 0 0 1 12.15625 24.792969 A 2.9474222 2.9474228 0 0 1 12.402344 23.882812 A 2.9474222 2.9474228 0 0 1 12.412109 23.861328 A 2.9474222 2.9474228 0 0 1 14.837891 22.154297 A 6.9121094 6.9121094 0 0 1 16.232422 20.175781 L 15.087891 20.175781 z M 21.087891 20.175781 A 4.9123708 4.9123708 0 0 0 20 20.302734 L 20 20.308594 A 4.9123708 4.9123708 0 0 0 19.882812 20.339844 A 4.9123708 4.9123708 0 0 0 19.869141 20.335938 A 4.9123708 4.9123708 0 0 0 19.716797 20.382812 A 4.9123708 4.9123708 0 0 0 19.535156 20.439453 A 4.9123708 4.9123708 0 0 0 19.259766 20.541016 A 4.9123708 4.9123708 0 0 0 19.054688 20.626953 A 4.9123708 4.9123708 0 0 0 18.818359 20.744141 A 4.9123708 4.9123708 0 0 0 18.632812 20.845703 A 4.9123708 4.9123708 0 0 0 18.382812 21 A 4.9123708 4.9123708 0 0 0 18.234375 21.101562 A 4.9123708 4.9123708 0 0 0 17.951172 21.320312 A 4.9123708 4.9123708 0 0 0 17.873047 21.386719 A 4.9123708 4.9123708 0 0 0 17.595703 21.646484 A 4.9123708 4.9123708 0 0 0 17.509766 21.736328 A 4.9123708 4.9123708 0 0 0 17.271484 22.009766 A 4.9123708 4.9123708 0 0 0 17.166016 22.140625 L 17.167969 22.140625 A 4.9123708 4.9123708 0 0 0 16.175781 25.087891 A 4.9123708 4.9123708 0 0 0 16.269531 26.03125 L 18.300781 26.03125 A 2.9474222 2.9474228 0 0 1 18.140625 25.087891 A 2.9474222 2.9474228 0 0 1 21.087891 22.140625 L 25.087891 22.140625 A 2.9474222 2.9474228 0 0 1 28.035156 25.087891 A 2.9474222 2.9474228 0 0 1 25.087891 28.035156 L 24.900391 28.035156 A 6.9121094 6.9121094 0 0 1 23.511719 30 L 25.087891 30 A 4.9123708 4.9123708 0 0 0 30 25.087891 A 4.9123708 4.9123708 0 0 0 25.087891 20.175781 L 21.087891 20.175781 z "
     transform="scale(0.5)"
     id="path4" />
</svg>
