<?xml version="1.0" encoding="UTF-8" standalone="no"?>
<svg
   xmlns:dc="http://purl.org/dc/elements/1.1/"
   xmlns:cc="http://creativecommons.org/ns#"
   xmlns:rdf="http://www.w3.org/1999/02/22-rdf-syntax-ns#"
   xmlns:svg="http://www.w3.org/2000/svg"
   xmlns="http://www.w3.org/2000/svg"
   xmlns:sodipodi="http://sodipodi.sourceforge.net/DTD/sodipodi-0.dtd"
   xmlns:inkscape="http://www.inkscape.org/namespaces/inkscape"
   viewBox="0 0 16 16"
   version="1.1"
   id="svg5"
   sodipodi:docname="url_downloadstart.svg"
   inkscape:version="0.92.4 (5da689c313, 2019-01-14)"
   width="32"
   height="32">
  <metadata
     id="metadata9">
    <rdf:RDF>
      <cc:Work
         rdf:about="">
        <dc:format>image/svg+xml</dc:format>
        <dc:type
           rdf:resource="http://purl.org/dc/dcmitype/StillImage" />
        <dc:title></dc:title>
      </cc:Work>
    </rdf:RDF>
  </metadata>
  <sodipodi:namedview
     pagecolor="#ffffff"
     bordercolor="#666666"
     borderopacity="1"
     objecttolerance="10"
     gridtolerance="10"
     guidetolerance="10"
     inkscape:pageopacity="0"
     inkscape:pageshadow="2"
     inkscape:window-width="1912"
     inkscape:window-height="2056"
     id="namedview7"
     showgrid="false"
     inkscape:zoom="15.999999"
     inkscape:cx="28.24602"
     inkscape:cy="10.624778"
     inkscape:window-x="3840"
     inkscape:window-y="0"
     inkscape:window-maximized="0"
     inkscape:current-layer="svg5"
     inkscape:snap-bbox="true"
     inkscape:bbox-nodes="true"
     inkscape:snap-page="true"
     inkscape:snap-bbox-edge-midpoints="true"
     inkscape:bbox-paths="true" />
  <defs
     id="defs3051">
    <style
       type="text/css"
       id="current-color-scheme">
      .ColorScheme-Text {
        color:#232629;
      }
      </style>
  </defs>
  <path
     style="fill:#000000;fill-opacity:1;stroke:none;stroke-width:1.5"
     d="M 8,1 C 4.68629,1 2,3.6863003 2,7 c 0,3.3137 2.68629,6 6,6 0.169342,0 0.334241,-0.01746 0.5,-0.03125 v -0.991211 c -0.1644425,0.01176 -0.3306145,0.01758 -0.5,0.01758 -0.19032,0 -0.378129,-0.0082 -0.5625,-0.0293 -0.14685,-0.01701 -0.2938195,-0.03251 -0.4365235,-0.06152 -0.28317,-0.058 -0.550924,-0.177651 -0.814453,-0.28125 -0.009,-0.01701 -0.031397,-0.04444 -0.029297,-0.06445 0.05199,-0.02199 0.14952,0.074 0.1875,0 0.0189,-0.035 -0.0249,-0.120272 0,-0.155273 0.018,-0.024 0.1182835,-0.02234 0.1552735,-0.0293 0.05301,-0.01005 0.128203,-0.01823 0.158203,-0.03223 0.033,-0.021 0.067524,-0.09398 0.061523,-0.155273 -0.003,-0.02901 -0.038603,-0.03845 -0.061523,-0.06445 -0.0189,-0.02199 0.0129,-0.04151 0,-0.06152 -0.024,-0.035 -0.08385,-0.04275 -0.09375,-0.09375 0.072,-0.01395 0.17727,0.06122 0.28125,0.03223 0.04899,-0.01395 0.1322635,-0.10917 0.1552735,-0.155274 0.0069,-0.01395 -0.0081,-0.04644 0,-0.06445 0.009,-0.018 0.029107,-0.05254 0.032227,-0.06152 0.0069,-0.027 -0.006,-0.01124 0,-0.0293 0.018,-0.051 0.06082,-0.08998 0.09082,-0.125977 0.0231,-0.02802 0.07275,-0.06475 0.09375,-0.09375 0.024,-0.03101 0.016207,-0.03352 0.032227,-0.06152 0.015,-0.09101 -0.054246,-0.172055 -0.032227,-0.251953 0.024,-0.09 0.164983,-0.146505 0.251953,-0.1875005 0.03,-0.01395 0.06885,-0.020297 0.09375,-0.029297 0.06,-0.021 0.13149,-0.042533 0.1875,-0.061523 0.09399,-0.034005 0.1092535,-0.101595 0.1552735,-0.1875 0.0219,-0.040005 0.057533,-0.096967 0.061523,-0.1259765 0.0039,-0.02601 -0.0051,-0.031524 0,-0.061523 0.0051,-0.02901 -0.0081,-0.059745 0,-0.09375 C 7.9788735,9.36524 8,9.268604 8,9.220703 8,9.180698 7.9686735,9.162953 7.9677735,9.126953 c -0.0069,-0.130005 0.04584,-0.116505 0.09375,-0.1875 0.024,-0.034995 0.047533,-0.1009715 0.064453,-0.1259765 0.081,-0.12 0.226787,-0.160774 0.216797,-0.3427735 -0.0039,-0.06 -0.04983,-0.2007275 -0.09375,-0.2197265 -0.0249,-0.01095 -0.05685,-0.019236 -0.09375,-0.032227 C 8.0372835,8.174755 7.935494,8.041252 7.8125,8.03125 H 7.750977 c -0.048,0 -0.104233,-0.021361 -0.158203,-0.02832 -0.03399,-0.01005 -0.103037,0.01005 -0.123047,0 C 7.438737,7.98793 7.430264,7.926175 7.405274,7.90918 7.385174,7.89523 7.342424,7.887002 7.311524,7.875977 7.262534,7.857977 7.245477,7.81843 7.188477,7.81543 c -0.018,0 -0.044473,0.01005 -0.064453,0 C 7.093034,7.80538 7.062094,7.800212 7.033204,7.782227 6.997204,7.760207 6.954364,7.75267 6.939454,7.72168 c 0.033,-0.107895 -0.07185,-0.1245 -0.09375,-0.1875 -0.0099,-0.02901 0.0099,-0.097051 0,-0.1230465 -0.0129,-0.037005 -0.05286,-0.06569 -0.09375,-0.09668 -0.072,-0.055995 -0.1167365,-0.080745 -0.2197265,-0.09375 -0.04599,-0.01005 -0.1002835,0.01005 -0.1552735,0 -0.05799,-0.01005 -0.14352,-0.043755 -0.1875,-0.09375 -0.042,-0.049005 -0.05685,-0.099946 -0.09375,-0.123047 -0.03501,-0.02199 -0.06975,-0.042451 -0.09375,-0.064453 -0.0111,-0.0099 -0.022207,-0.00927 -0.032227,-0.030274 -0.018,-0.03699 -0.054216,-0.04875 -0.032227,-0.09375 -0.03999,-0.0201 -0.018593,0.037174 -0.061523,0.030274 -0.039,-0.05499 -0.067313,-0.10956 -0.1552734,-0.09375 -0.03999,0.0099 -0.078996,0.09276 -0.1259766,0.09375 -0.039,0 -0.074977,-0.08574 -0.1259765,-0.09375 -0.039,-0.0099 -0.096047,0.037236 -0.1230469,0.032226 -0.04299,-0.0099 -0.05484,-0.035512 -0.09375,-0.061523 -0.0291,-0.018899 -0.07776,-0.063489 -0.09375,-0.0625 -0.05001,0 -0.089263,0.09949 -0.1582031,0.0625 -0.03399,-0.04299 0.072336,-0.053759 0.032227,-0.09375 -0.03,-0.0291 -0.037523,0.015197 -0.061523,0.029297 -0.0279,0.018 -0.06285,0.021306 -0.09375,0.032226 -0.069,0.0261 -0.1334999,0.033504 -0.1875,0.061524 -0.05001,0.0261 -0.06486,0.04275 -0.09375,0.09375 -0.0231,0.042 -0.05886,0.1239785 -0.09375,0.1259765 -0.042,0 -0.05574,-0.044522 -0.09375,-0.061523 -0.11499,-0.050009 -0.18627,0.027197 -0.28125,0.029297 -0.08799,0 -0.2237465,-0.1367165 -0.2197266,-0.2197265 0.003,-0.051 0.026407,-0.1245 0.032227,-0.1875 0.0051,-0.05001 0.060623,-0.1096735 0.061523,-0.1552735 9.99e-4,-0.06201 -0.1152833,-0.08676 -0.1552734,-0.09375 -0.09399,-0.0171 -0.2064905,0.042 -0.3134766,0 -0.0201,-0.03399 0.020407,-0.05976 0.032227,-0.09375 0.0069,-0.018 -0.0069,-0.041514 0,-0.061524 0.012,-0.03201 0.07884,-0.05976 0.09375,-0.09375 0.0111,-0.0261 -0.0111,-0.06075 0,-0.09375 0.0129,-0.036 0.058523,-0.06774 0.061523,-0.09375 0.0039,-0.03399 -0.034613,-0.074659 -0.061523,-0.096679 -0.08301,0.0099 -0.1394999,0.011107 -0.1875,0.032227 -0.108,0.04899 -0.07851,0.1857365 -0.1875,0.2197265 -0.03699,0.012 -0.083977,0.022097 -0.1259766,0.029297 -0.0183,0.0099 -0.041033,0 -0.061523,0 0.00199,-0.0099 -0.00199,-0.019097 0,-0.029297 0.0051,-0.0231 0.024197,-0.039504 0.029297,-0.061524 0.07131,-0.325002 0.1823706,-0.6396 0.3134765,-0.9375 h 0.032227 c 0.03801,0.0099 0.06075,0.059514 0.09375,0.061524 0.09201,0.0099 0.11151,-0.085987 0.1875,-0.1259765 0.078,0.0111 0.11652,-0.0099 0.1875,0 0.048,0.0099 0.1172634,0.057504 0.1552734,0.061523 0.03201,0 0.031523,-0.033197 0.061523,-0.029297 0.03,0.0099 0.08886,0.05775 0.09375,0.09375 0.0051,0.045 -0.042287,0.1056535 -0.029297,0.1552735 0.04701,0.048 0.1498069,0.06576 0.2167969,0.09375 0.04401,-0.03699 0.0069,-0.1032835 0,-0.1552735 -9.99e-4,-0.0231 0.003,-0.07275 0,-0.09375 -0.0051,-0.036 -0.029297,-0.06276 -0.029297,-0.09375 C 4.4082031,4.8276932 4.529,4.7746399 4.625,4.71875 4.66601,4.69475 4.7149765,4.643 4.7509765,4.625 c 0.051,-0.0249 0.083977,-0.00927 0.1259766,-0.030273 0.07599,-0.04299 0.12849,-0.1085365 0.1875,-0.1572265 0.027,-0.06501 -0.003,-0.1537535 0,-0.2177735 0.027,-0.0171 0.06486,0 0.09375,0 0.04599,-0.0099 0.06774,-0.06774 0.09375,-0.09375 0.015,-0.015 0.043523,-0.01613 0.061523,-0.03125 0.04599,-0.036 0.05376,-0.07776 0.09375,-0.09375 0.0141,-0.0099 0.039503,-0.025207 0.061523,-0.032227 0.03,-0.0099 0.077977,-0.012273 0.1259765,-0.030273 0.03099,-0.0111 0.1139766,-0.019207 0.1259766,-0.032227 0.015,-0.015 -0.0039,-0.07074 0,-0.09375 0.024,-0.11289 0.1802702,-0.1171734 0.2812499,-0.1552735 0.06999,-0.0261 0.138797,-0.1075499 0.216797,-0.09375 -0.015,0.054 -0.074514,0.058067 -0.061523,0.123047 0.0171,0.09099 0.1232635,-0.016097 0.1552735,-0.029297 0.06099,-0.0261 0.171973,-0.06375 0.251953,-0.09375 C 6.634443,3.5385766 6.7535,3.5185 6.6875,3.4375 6.63251,3.4276 6.612453,3.4800035 6.564453,3.4990235 6.531453,3.5089235 6.52799,3.4727266 6.5,3.4697265 c -0.027,0 -0.034523,0.034187 -0.061523,0.029297 -0.027,-0.0099 -0.057504,-0.06075 -0.061523,-0.09375 -0.0111,-0.084 0.05985,-0.092963 0.09375,-0.1552735 -0.0231,-0.07599 -0.12351,-0.032513 -0.1875,-0.061523 0.0069,-0.045 0.04086,-0.08666 0.09375,-0.09668 0.04299,-0.0099 0.16149,0.011107 0.1875,0.032227 0.015,0.0129 -0.0228,0.041513 0,0.061523 0.0261,0.0231 0.05985,0.0099 0.09375,0 0.012,-0.057 -0.074443,-0.024593 -0.064453,-0.061523 0.06801,-0.04401 0.19827,-0.021307 0.28125,-0.032227 0.048,-0.0099 0.115213,-0.038513 0.158203,-0.061523 0.03999,-0.0231 0.05175,-0.067187 0.09375,-0.029297 0.012,0.04101 -0.00901,0.07176 -0.032227,0.09375 -0.07701,0.06801 -0.1597565,0.137897 -0.2197265,0.216797 0.03699,0.036 0.096163,0.025207 0.158203,0.032227 0.024,0.0099 0.06885,0 0.09375,0 0.03,0.0099 0.06682,-0.0099 0.09082,0 0.042,0.0099 0.05184,0.09375 0.09375,0.09375 0.06801,0 0.039,-0.080976 0,-0.1259765 0.012,-0.04701 0.04835,-0.090047 0.03125,-0.123047 C 7.3117835,3.1264666 7.1935,3.2070832 7.1875,3.1269531 c -0.0039,-0.05001 0.043524,-0.05574 0.061523,-0.09375 -0.0081,-0.096 0.07249,-0.1005 0.0625,-0.1875 -0.0051,-0.036 -0.03748,-0.030463 -0.0625,-0.064453 -0.0129,-0.018 -0.01643,-0.07974 -0.03125,-0.09375 -0.05199,-0.04401 -0.15025,-0.0099 -0.15625,-0.09375 -0.003,-0.05001 0.0069,-0.1016635 0,-0.1552735 -0.0069,-0.051 -0.04986,-0.2097365 -0.09375,-0.2197265 -0.05601,-0.012 -0.088223,0.094987 -0.1552735,0.1259765 -0.036,0.0171 -0.1202365,0.035207 -0.1572265,0.029297 -0.024,-0.0099 -0.0595,-0.014393 -0.0625,-0.061523 -0.0039,-0.042 0.0469,-0.06075 0.0625,-0.09375 0.0039,-0.0099 -0.00199,-0.018197 0,-0.029297 0.0726,-0.0201 0.14498,-0.047443 0.21875,-0.064453 C 6.9159335,2.1151 6.9577,2.1038031 7,2.0957031 c 0.03,-0.0099 0.06375,0.0099 0.09375,0 0.13356,-0.0249 0.267239,-0.048533 0.404297,-0.061523 0.16623,-0.0171 0.3298775,-0.032227 0.5009765,-0.032227 L 8,1.9990234 c 0.17259,0 0.3328865,0.015307 0.5009765,0.032227 h 0.123047 c 0.05259,0.0099 0.106093,0.021197 0.158203,0.029297 0.14367,0.0231 0.265079,0.06167 0.404297,0.09668 0.25659,0.063 0.51072,0.1477135 0.75,0.2490235 0.1319255,0.05601 0.2491505,0.1209 0.3750005,0.1875 -7.1e-5,0.0099 7.99e-4,0.018197 0,0.029297 0.02901,0.0129 0.04485,0.06968 0.09375,0.09668 0.018,0.0099 0.01534,0.020297 0.03223,0.029297 0.02901,0.0159 0.06752,0.033503 0.06152,0.061523 -0.008,0.03999 -0.06574,0.031523 -0.09375,0.061523 0.004,0.05799 -0.04652,0.05768 -0.06152,0.09668 0.009,0.0249 0.05752,0.032513 0.06152,0.061523 -0.005,0.03201 -0.07352,0.029393 -0.06152,0.061523 0.054,0.042 0.10428,0.0099 0.155274,0 0.11199,-0.0141 0.21225,-0.00959 0.28125,-0.061523 -0.009,-0.05301 0.09975,-0.04575 0.09375,-0.09375 0.02868,0.021 0.06536,0.040523 0.09375,0.061523 -0.0108,0.0099 -0.0173,0.024197 -0.0293,0.029297 -0.021,0.0099 -0.04545,0.020106 -0.06445,0.032226 -0.02802,0.018 -0.06175,0.041514 -0.09375,0.061524 -0.02298,0.0159 -0.06975,0.09375 -0.09375,0.09375 -0.02901,0 -0.07275,-0.035207 -0.09375,-0.029297 -0.03,0.0099 -0.02762,0.050513 -0.06152,0.061523 -0.066,0.024 -0.196737,-0.036486 -0.219726,0.061524 0.02799,0.057 0.137505,0.030503 0.1875,0.061523 0.03101,0.0201 0.08584,0.091986 0.09375,0.1259766 0.0079,0.0279 0.012,0.1575 0,0.1875 -0.03101,0.08001 -0.124815,0.062513 -0.216797,0.061523 h -0.06445 c -0.15498,-0.0099 -0.305001,-0.078774 -0.3750005,0.032227 0.00495,0.08499 0.01899,0.1428168 0,0.2167968 -0.01395,0.054 -0.09675,0.1115831 -0.09375,0.1582031 9.99e-4,0.024 0.058453,0.05976 0.064453,0.09375 0.00405,0.018 -0.00795,0.044513 0,0.061523 0.02598,0.04899 0.077057,-0.0099 0.1230475,0 0.04399,0.0099 0.09375,0.074057 0.09375,0.1230468 0,0.03501 -0.0071,0.091987 -0.0293,0.1259766 -0.044,0.066 -0.1245005,0.05775 -0.1875005,0.09375 -0.052005,0.03 -0.062745,0.1066032 -0.09375,0.1582031 -0.033,0.05601 -0.077443,0.074963 -0.064453,0.1552735 -0.045,0.08901 -0.0945,0.1445098 -0.1875,0.1874998 -0.027,0.012 -0.06885,0.011297 -0.09375,0.029297 -0.0201,0.0141 -0.033533,0.064668 -0.061523,0.09668 -0.03498,0.039 -0.07473,0.06375 -0.09375,0.09375 -0.00301,0.00504 -0.00457,0.014222 -0.00684,0.020507 l 1.9755865,1.975586 c 0.03152,-0.00283 0.06205,-0.00477 0.09375,0.00293 0.05299,0.01305 0.120981,0.083 0.125977,0.125 0.0024,0.020253 -0.01151,0.043808 -0.02637,0.06543 L 13.4375,9.5234375 C 13.794452,8.755587 14,7.902534 14,7 14,3.6863003 11.31371,1 8,1 Z M 5.9697265,2.4677735 c -0.0318,0.18249 -0.2037305,0.2571431 -0.4072265,0.251953 -0.04599,0.04401 -0.00691,0.1265101 -0.032227,0.1875 -0.021,0.051 -0.1042734,0.09774 -0.1552734,0.09375 -0.03699,0 -0.09375,-0.05874 -0.09375,-0.09375 0,-0.04299 0.069337,-0.04476 0.032227,-0.09375 0.00199,-0.0099 0.018797,-0.022207 0.029297,-0.032227 0.0201,-0.0129 0.044053,-0.020106 0.064453,-0.032227 0.1812001,-0.11151 0.36696,-0.19326 0.5625,-0.28125 z m 4.1865235,0.1875 c -0.01842,0.0099 -0.01603,0.022207 -0.03223,0.032227 -0.038,0.0231 -0.06475,0.051503 -0.09375,0.061523 -0.040996,0.015 -0.087855,0.024593 -0.093751,0.061523 -0.00495,0.03099 0.033337,0.033503 0.032227,0.061523 -0.015,0.03699 -0.024216,0.05168 -0.032227,0.09668 0.051,0.08301 0.156739,-0.019207 0.219727,-0.032227 0.02802,-0.0099 0.04652,-0.011107 0.06152,-0.032227 0.01701,-0.027 0.01933,-0.05574 0.03223,-0.09375 0.01395,-0.042 0.06652,-0.05676 0.06152,-0.09375 -0.0041,-0.03699 -0.09333,-0.066503 -0.155274,-0.061523 z M 4.6865234,3.2822265 C 4.7339234,3.3202366 4.80161,3.40189 4.71875,3.4375 4.70885,3.4474 4.5874765,3.4737165 4.5634765,3.4697265 4.5535765,3.4697265 4.53977,3.44452 4.53125,3.4375 4.58294,3.38749 4.6327334,3.3302266 4.6865234,3.2822265 Z m 0.1875,0.1875 c 0.024,0 0.036463,0.060503 0.064453,0.061523 0.027,0 0.045533,-0.036246 0.061523,-0.032227 0.042,0.0111 0.072336,0.094987 0.032227,0.1259765 -0.033,0.0099 -0.040453,-0.036246 -0.064453,-0.032227 C 4.8997634,3.604772 4.8635,3.7549951 4.8125,3.750975 4.7645,3.741075 4.731164,3.627782 4.780273,3.592772 c 9.99e-4,-0.03 -0.00199,-0.030504 0,-0.061523 0.015,-0.018 0.05376,-0.064523 0.09375,-0.061522 z M 4.625,3.4990235 c 0.0141,0 0.027307,-0.0099 0.032227,0 -0.0069,0.05301 -0.023413,0.06876 -0.064453,0.09375 -0.07101,0.04299 -0.1322634,0.096 -0.1552734,0.1875 -0.0069,0.027 -0.091986,0.1001399 -0.1259766,0.09375 -0.07899,-0.0171 0.046453,-0.16461 0.064453,-0.1875 C 4.3960765,3.6616235 4.41449,3.65302 4.4375,3.625 4.4606,3.5971 4.4770034,3.54724 4.4990234,3.53125 4.5230234,3.51415 4.583,3.5000632 4.625,3.5019531 Z m 6.782227,0.158203 c 0.079,-0.0099 0.119279,0.075047 0.155273,0.123047 0.03,0.039 0.106275,0.098977 0.155274,0.1259765 0.02802,0.015 0.06274,0.048533 0.09375,0.061523 0.06499,0.0291 0.1845,0.1235099 0.1875,0.1874999 9.99e-4,0.03201 -0.03441,0.06375 -0.0293,0.09375 0.04901,0.0099 0.09275,-0.074027 0.09375,-0.1230469 0.09191,0.12999 0.169622,0.2657089 0.249023,0.4042969 0.0375,0.06501 0.09139,0.12 0.125977,0.1875 -0.0441,0.0129 -0.05733,0.019493 -0.06445,0.061524 -0.01002,0.05601 0.02248,0.1482731 -0.06152,0.1582031 -0.05299,0.0099 -0.11451,-0.044513 -0.1875,-0.061523 -0.03,-0.0099 -0.06975,0.0099 -0.09375,0 C 11.97625,4.8579765 11.9844,4.783 11.9375,4.75 11.9105,4.7311 11.825226,4.692467 11.782227,4.688477 c -0.027,0 -0.03644,0.0099 -0.06445,0 -0.03401,-0.0099 -0.09506,0.0141 -0.123047,0 -0.027,-0.0171 -0.08675,-0.07074 -0.09375,-0.09375 -0.01095,-0.03699 0.09175,-0.06174 0.09375,-0.09375 0.0019,-0.024 -0.02734,-0.05966 -0.03223,-0.09668 -0.004,-0.0219 0.0049,-0.046524 0,-0.061524 -0.007,-0.0261 -0.05284,-0.028097 -0.09375,-0.029297 H 11.375 11.1875 11.09375 c -0.087,0.0099 -0.151725,-0.0099 -0.219726,0 -0.04901,0 -0.141495,0.041513 -0.1875,0.061523 -0.02298,0.0111 -0.03152,0.014297 -0.06152,0.029297 -0.01395,0.0099 -0.04352,0.024306 -0.06152,0.032226 -0.02802,0.0129 -0.06686,0.053513 -0.09375,0.061524 -0.039,0.0099 -0.08726,-0.0099 -0.158203,0 -0.051,0 -0.122057,-0.03276 -0.123047,-0.09375 -9.99e-4,-0.093 0.161033,-0.044513 0.249023,-0.061524 0.033,-0.0099 0.05374,-0.037523 0.09375,-0.061523 0.01899,-0.0111 0.01441,-0.020107 0.03223,-0.032227 0.03,-0.021 0.08884,-0.06975 0.09375,-0.09375 0.004,-0.0219 -0.003,-0.044513 0,-0.061523 0.004,-0.021 0.03452,-0.033504 0.06152,-0.061523 0.042,-0.042 0.07399,-0.098977 0.125977,-0.1259765 0.03499,-0.018 0.07775,-0.033533 0.09375,-0.061523 0.004,-0.03201 -9.99e-4,-0.031523 0,-0.061523 0.02202,-0.0201 0.04352,-0.028207 0.06152,-0.032227 0.054,-0.012 0.09233,0 0.155274,0 0.027,0 0.06485,0.0129 0.09375,0 0.024,-0.0159 0.04044,-0.050513 0.06445,-0.061523 0.02598,-0.0141 0.06175,-0.030247 0.09375,-0.032227 z m 0.5625,0.5917969 H 11.84375 c -0.04399,0 -0.09998,-0.0231 -0.125976,0 0.037,0.06 0.104504,0.07875 0.1875,0.09375 0.03,-0.0219 0.05044,-0.05475 0.06445,-0.09375 z M 5.1259765,3.6865235 h 0.09375 c 0.0249,0 0.051533,-0.0099 0.061523,0 -0.0159,0.066 -0.1677366,0.056227 -0.2197266,0.032227 0.003,-0.0249 0.032473,-0.028207 0.064454,-0.032227 z M 4.90625,3.8125 C 4.86254,3.84451 4.820337,3.88426 4.7509765,3.90625 c -0.03801,0.012 -0.08676,0.00989 -0.09375,-0.032227 -0.0081,-0.05199 0.05976,-0.024197 0.09375,-0.029297 C 4.7949865,3.8348265 4.85525,3.81448 4.90625,3.8125 Z m 6.500977,0 c -0.033,0.0111 -0.049,0.08376 0,0.09375 0.02298,-0.0141 0.03542,-0.05076 0.0293,-0.09375 -0.01305,-0.0141 -0.0194,-0.0099 -0.0293,0 z m -0.06445,0.1552735 c 9.99e-4,0.05601 0.01095,0.1096031 0,0.158203 0.03199,0.06201 0.109986,0.00989 0.125976,-0.032227 0.01899,-0.10401 -0.01349,-0.1389965 -0.06152,-0.1259765 -0.01602,0.0099 -0.04754,-0.0129 -0.06445,0 z m -8.2792975,2.34375 c 0.0564,0.051 0.087833,0.124813 0.1552735,0.158203 0.0249,0.0129 0.06186,0.021197 0.09375,0.029297 0.0261,0.0099 0.036503,-0.0099 0.061523,0 0.05301,0.018 0.116233,0.042504 0.158203,0.061523 0.06399,0.0279 0.1325101,0.126223 0.1875,0.158203 0.003,0.03201 -0.0099,0.06975 0,0.09375 0.0261,0.03501 0.05175,0.06975 0.09375,0.09375 0.051,0.0279 0.075047,0.071748 0.123047,0.09375 0.0171,0.01005 0.038473,-0.00999 0.064453,0 0.066,0.02001 0.098213,0.110355 0.1552735,0.09375 C 4.19324,7.0828 4.1826565,7.036 4.1884765,7 c 0.0249,-0.027 0.05475,-0.061523 0.09375,-0.061523 0.06201,0 0.07074,0.094974 0.09375,0.1552735 0.0129,0.034005 0.052523,0.05775 0.061523,0.09375 0.015,0.061995 0.0129,0.244251 0,0.28125 -0.0159,0.046005 -0.087997,0.04275 -0.1259766,0.09375 -0.018,0.024 -0.015197,0.076755 -0.029297,0.09375 -0.024,0.02901 -0.046453,0.037453 -0.064453,0.064453 -0.0099,0.015 -0.020297,0.041529 -0.029297,0.061523 -0.03,0.064005 -0.089443,0.110505 -0.064453,0.1875 0.0099,0.031005 0.064453,0.056745 0.064453,0.09375 0,0.043995 -0.08676,0.077977 -0.09375,0.1259765 -0.0051,0.034995 0.018197,0.076052 0.029297,0.123047 0.0081,0.034995 0.07275,0.070755 0.09375,0.09375 0.03501,0.039 0.06186,0.108706 0.09375,0.158203 0.063,0.097005 0.096253,0.2155475 0.1582031,0.310547 0.033,0.049005 0.1010269,0.073987 0.1230469,0.1259765 0.0111,0.02601 -0.0099,0.06975 0,0.09375 0.036,0.081 0.20025,0.1798265 0.28125,0.2197265 C 4.9120334,9.333443 4.96499,9.32377 5,9.34375 c 0.05301,0.03 0.1605,0.111598 0.1875,0.158203 0.024,0.042 0.020406,0.149897 0.032227,0.216797 0.015,0.088005 -0.0039,0.156853 0,0.251953 0.003,0.052005 0.029297,0.071042 0.029297,0.123047 0,0.018 9.991e-4,0.07475 0,0.09375 -0.001,0.06199 0.0051,0.1245 0,0.1875 -0.003,0.03401 -0.00199,0.06475 0,0.09375 0.003,0.03101 0.030337,0.03744 0.032227,0.06445 0.00199,0.02901 -0.035347,0.07076 -0.032227,0.09375 0.0069,0.063 0.052453,0.09697 0.064453,0.155274 0.0099,0.04601 0.035207,0.164724 0.029297,0.219726 -0.0039,0.02901 -0.025097,0.06075 -0.029297,0.09375 -0.003,0.02601 0.0039,0.03853 0,0.06152 -0.003,0.02301 0.006,0.04251 0,0.06152 -0.03189,-0.02001 -0.06246,-0.04052 -0.09375,-0.06152 -0.26601,-0.1798 -0.523791,-0.397824 -0.75,-0.624024 -0.0306,-0.03101 -0.06396,-0.06468 -0.09375,-0.09668 C 4.1953766,10.246439 4.024139,10.029201 3.875,9.8125 3.8615,9.79249 3.8560935,9.7699785 3.8427735,9.7509765 3.6697334,9.4916775 3.529061,9.229853 3.40625,8.939453 3.39725,8.918453 3.3825435,8.895997 3.3740235,8.875 3.2686334,8.615998 3.18608,8.341977 3.125,8.0634765 3.1136,8.0104755 3.1024935,7.961306 3.0927735,7.908203 3.0678735,7.774601 3.04517,7.638078 3.03125,7.5009765 3.01415,7.3314765 2.9990235,7.1726005 2.9990235,7 c 0,-0.2376 0.032353,-0.4596755 0.064453,-0.6884765 z M 9.5,7 V 7.1220705 8 11.782227 12.809571 14 15 l 1,-1 1,-1 1,-1 1,-1 L 12.923828,10.423828 12.5,10 11.515625,9.015625 11.5,9 10.5,8 9.8603515,7.3603515 Z"
     id="path4-3"
     inkscape:connector-curvature="0" />
</svg>
