<?xml version="1.0" encoding="UTF-8" standalone="no"?>
<svg
   xmlns:dc="http://purl.org/dc/elements/1.1/"
   xmlns:cc="http://creativecommons.org/ns#"
   xmlns:rdf="http://www.w3.org/1999/02/22-rdf-syntax-ns#"
   xmlns:svg="http://www.w3.org/2000/svg"
   xmlns="http://www.w3.org/2000/svg"
   xmlns:sodipodi="http://sodipodi.sourceforge.net/DTD/sodipodi-0.dtd"
   xmlns:inkscape="http://www.inkscape.org/namespaces/inkscape"
   viewBox="0 0 16 16"
   version="1.1"
   id="svg9"
   sodipodi:docname="visibility_off.svg"
   inkscape:version="1.0.2 (e86c870, 2021-01-15)"
   width="32"
   height="32">
  <metadata
     id="metadata13">
    <rdf:RDF>
      <cc:Work
         rdf:about="">
        <dc:format>image/svg+xml</dc:format>
        <dc:type
           rdf:resource="http://purl.org/dc/dcmitype/StillImage" />
        <dc:title></dc:title>
      </cc:Work>
    </rdf:RDF>
  </metadata>
  <sodipodi:namedview
     pagecolor="#ffffff"
     bordercolor="#666666"
     borderopacity="1"
     objecttolerance="10"
     gridtolerance="10"
     guidetolerance="10"
     inkscape:pageopacity="0"
     inkscape:pageshadow="2"
     inkscape:window-width="1292"
     inkscape:window-height="885"
     id="namedview11"
     showgrid="false"
     inkscape:snap-page="true"
     inkscape:snap-bbox="true"
     inkscape:snap-bbox-midpoints="false"
     inkscape:bbox-nodes="true"
     inkscape:snap-bbox-edge-midpoints="false"
     inkscape:zoom="8.0000004"
     inkscape:cx="33.346397"
     inkscape:cy="24.905216"
     inkscape:window-x="106"
     inkscape:window-y="77"
     inkscape:window-maximized="0"
     inkscape:current-layer="svg9"
     inkscape:document-rotation="0" />
  <defs
     id="defs3051">
    <style
       type="text/css"
       id="current-color-scheme">
      .ColorScheme-Text {
        color:#232629;
      }
      </style>
  </defs>
  <path
     id="path95"
     style="fill:#000000;stroke-width:0.377952;stroke-linecap:round"
     d="M 4 4 L 2.5859375 5.4140625 L 7.5722656 10.400391 A 16 16 0 0 0 2.1445312 16 A 16 16 0 0 0 15.789062 23.998047 A 16 16 0 0 0 16 24 A 16 16 0 0 0 20.519531 23.347656 L 22.384766 25.212891 L 23.798828 26.626953 L 25.212891 28.041016 L 26.626953 29.455078 L 28.041016 28.041016 L 26.626953 26.626953 L 25.212891 25.212891 L 23.798828 23.798828 L 22.582031 22.582031 L 20.242188 20.242188 L 18.828125 18.828125 L 13.171875 13.171875 L 11.757812 11.757812 L 9.4179688 9.4179688 L 4 4 z M 16 8 A 16 16 0 0 0 11.480469 8.6523438 L 13.414062 10.585938 A 6 6 0 0 1 15.84375 10.001953 A 14 14 0 0 1 16 10 A 6 6 0 0 1 22 16 A 6 6 0 0 1 21.414062 18.585938 L 22.890625 20.0625 A 8 8 0 0 0 24 16 A 8 8 0 0 0 22.78125 11.753906 A 14 14 0 0 1 27.488281 16 A 14 14 0 0 1 22.966797 20.138672 L 24.427734 21.599609 A 16 16 0 0 0 29.855469 16 A 16 16 0 0 0 16.199219 8.0019531 A 8 8 0 0 0 16 8 z M 9.03125 11.859375 L 9.109375 11.9375 A 8 8 0 0 0 8 16 A 8 8 0 0 0 9.2207031 20.248047 A 14 14 0 0 1 4.5117188 16 A 14 14 0 0 1 9.03125 11.859375 z M 15.939453 12 A 4 4 0 0 0 14.964844 12.136719 L 16.126953 13.298828 A 2 2 0 0 1 17.177734 12.177734 A 4 4 0 0 0 16 12 A 4 4 0 0 0 15.939453 12 z M 10.585938 13.414062 L 12.136719 14.964844 A 4 4 0 0 0 12 16 A 4 4 0 0 0 16 20 A 4 4 0 0 0 17.035156 19.863281 L 18.585938 21.414062 A 6 6 0 0 1 16.15625 21.998047 A 6 6 0 0 1 16 22 A 6 6 0 0 1 10 16 A 6 6 0 0 1 10.585938 13.414062 z M 19.822266 14.824219 A 2 2 0 0 1 18.701172 15.873047 L 19.863281 17.035156 A 4 4 0 0 0 20 16 A 4 4 0 0 0 19.822266 14.824219 z "
     transform="scale(0.5)" />
</svg>
